<svg width="122" height="55" viewBox="0 0 122 55" fill="none" xmlns="http://www.w3.org/2000/svg">
<path fill-rule="evenodd" clip-rule="evenodd" d="M97.8523 23.7569C97.4617 23.7569 97.0355 23.7569 96.6449 23.7924C96.3608 23.7924 96.1122 24.0055 96.0057 24.2896L94.3012 30.22C93.5554 32.7768 93.8395 35.1205 95.0824 36.8606C96.2188 38.4586 98.1364 39.3819 100.445 39.4884L109.749 40.0566C110.033 40.0566 110.281 40.1987 110.423 40.4117C110.565 40.6248 110.601 40.9444 110.53 41.193C110.388 41.6191 109.962 41.9387 109.5 41.9742L99.8054 42.5424C94.5497 42.7913 88.9034 47.0168 86.9148 52.2019L86.2046 54.0126C86.0625 54.3677 86.3111 54.7228 86.7017 54.7228H120.011C120.402 54.7228 120.757 54.4742 120.864 54.0836C121.432 52.0243 121.751 49.8577 121.751 47.6205C121.751 34.4813 111.027 23.7569 97.8523 23.7569Z" fill="#FBAE40"/>
<path fill-rule="evenodd" clip-rule="evenodd" d="M83.9317 51.8466C84.6778 49.2898 84.3934 46.9457 83.1505 45.206C82.0145 43.608 80.0965 42.6843 77.7883 42.5778L34.0741 42.0099C33.7897 42.0099 33.5414 41.8675 33.399 41.6548C33.257 41.4418 33.2215 41.1573 33.2925 40.8736C33.4346 40.4471 33.8607 40.1278 34.3223 40.092L78.4275 39.5241C83.6476 39.2756 89.3294 35.0497 91.3181 29.8651L93.8394 23.2955C93.9459 23.0114 93.9814 22.7273 93.9108 22.4432C91.0699 9.58807 79.5993 0 65.8919 0C53.2503 0 42.5255 8.16761 38.6906 19.4954C36.2048 17.6491 33.0439 16.6545 29.6352 16.9744C23.5624 17.5781 18.6973 22.4432 18.094 28.5156C17.9516 30.0781 18.0581 31.6051 18.4133 33.0256C8.50594 33.3097 0.586548 41.4063 0.586548 51.3846C0.586548 52.2724 0.657571 53.1602 0.764105 54.0479C0.835127 54.4741 1.19024 54.794 1.61638 54.794H82.2982C82.7598 54.794 83.186 54.4741 83.328 54.0128L83.9317 51.8466Z" fill="#F38020"/>
</svg>
