<svg width="500" height="400" viewBox="0 0 500 400" fill="none" xmlns="http://www.w3.org/2000/svg">
<g id="Frame 2" clip-path="url(#clip0)">
<rect id="Background" width="500" height="400" rx="12" fill="#F6F8FA"/>
<g id="WAF">
<rect id="CardBackground" x="16.5" y="148.5" width="467" height="111" rx="7.5" fill="white" stroke="#B7BBBD"/>
<g id="Row[0]">
<rect id="Configuration" x="428" y="164" width="40" height="8" rx="1" fill="#2C7CB0"/>
<g id="Switch">
<rect id="SwitchBackground" x="388" y="164" width="24" height="8" rx="1" fill="#B7BBBD"/>
<rect id="SwitchForeground" x="388" y="164" width="12" height="8" rx="1" fill="#62676A"/>
</g>
<rect id="Description" x="154" y="164" width="202" height="32" rx="1" fill="#B7BBBD"/>
<rect id="Title" x="32" y="164" width="98" height="8" rx="1" fill="#B7BBBD"/>
</g>
<g id="Row[1]">
<rect id="Configuration_2" x="428" y="212" width="40" height="8" rx="1" fill="#2C7CB0"/>
<g id="Switch_2">
<rect id="SwitchBackground_2" x="388" y="212" width="24" height="8" rx="1" fill="#B7BBBD"/>
<rect id="SwitchForeground_2" x="400" y="212" width="12" height="8" rx="1" fill="#79C698"/>
</g>
<rect id="Description_2" x="154" y="212" width="202" height="32" rx="1" fill="#B7BBBD"/>
<rect id="Title_2" x="32" y="212" width="98" height="8" rx="1" fill="#B7BBBD"/>
</g>
<path id="Web Application Firewall (WAF)" d="M27.707 110.355H27.8711L31.5039 123H33.9766L38.5469 106.09H35.8164L32.7227 119.238H32.5586L29.0078 106.09H26.5703L23.043 119.238H22.8789L19.7734 106.09H17.043L21.6016 123H24.0859L27.707 110.355ZM48.5312 119.59C48.0625 120.621 47.0195 121.184 45.4961 121.184C43.4805 121.184 42.1797 119.73 42.0977 117.422V117.305H51.1094V116.438C51.1094 112.453 48.9648 110.027 45.4141 110.027C41.8164 110.027 39.5312 112.617 39.5312 116.66C39.5312 120.727 41.7695 123.246 45.4258 123.246C48.3438 123.246 50.4062 121.84 50.957 119.59H48.5312ZM45.4023 112.078C47.2656 112.078 48.4844 113.426 48.543 115.488H42.0977C42.2383 113.438 43.5391 112.078 45.4023 112.078ZM60.8945 123.211C64.1172 123.211 66.168 120.645 66.168 116.637C66.168 112.594 64.1289 110.051 60.8945 110.051C59.1484 110.051 57.6484 110.906 56.9688 112.289H56.7695V105.281H54.25V123H56.6758V120.984H56.8633C57.625 122.391 59.1133 123.211 60.8945 123.211ZM60.168 112.207C62.3008 112.207 63.5781 113.883 63.5781 116.637C63.5781 119.391 62.3008 121.055 60.168 121.055C58.0469 121.055 56.7344 119.367 56.7227 116.637C56.7344 113.906 58.0586 112.207 60.168 112.207ZM87.0039 123H89.793L83.6875 106.09H80.8633L74.7578 123H77.4531L79.0117 118.43H85.457L87.0039 123ZM82.1406 109.078H82.3398L84.7891 116.32H79.6797L82.1406 109.078ZM99.0742 110.051C97.3398 110.051 95.8398 110.93 95.0664 112.383H94.8789V110.273H92.4531V127.242H94.9727V121.078H95.1719C95.8398 122.426 97.2812 123.211 99.0977 123.211C102.32 123.211 104.371 120.656 104.371 116.637C104.371 112.594 102.32 110.051 99.0742 110.051ZM98.3594 121.055C96.25 121.055 94.9258 119.355 94.9258 116.637C94.9258 113.906 96.25 112.207 98.3711 112.207C100.504 112.207 101.781 113.871 101.781 116.637C101.781 119.402 100.504 121.055 98.3594 121.055ZM114.027 110.051C112.293 110.051 110.793 110.93 110.02 112.383H109.832V110.273H107.406V127.242H109.926V121.078H110.125C110.793 122.426 112.234 123.211 114.051 123.211C117.273 123.211 119.324 120.656 119.324 116.637C119.324 112.594 117.273 110.051 114.027 110.051ZM113.312 121.055C111.203 121.055 109.879 119.355 109.879 116.637C109.879 113.906 111.203 112.207 113.324 112.207C115.457 112.207 116.734 113.871 116.734 116.637C116.734 119.402 115.457 121.055 113.312 121.055ZM122.477 123H124.996V105.281H122.477V123ZM130.082 108C130.961 108 131.676 107.285 131.676 106.418C131.676 105.539 130.961 104.824 130.082 104.824C129.203 104.824 128.488 105.539 128.488 106.418C128.488 107.285 129.203 108 130.082 108ZM128.828 123H131.336V110.273H128.828V123ZM145.844 114.363C145.516 111.891 143.582 110.027 140.383 110.027C136.668 110.027 134.406 112.547 134.406 116.59C134.406 120.715 136.68 123.246 140.395 123.246C143.547 123.246 145.516 121.477 145.844 118.969H143.395C143.066 120.352 141.977 121.102 140.383 121.102C138.285 121.102 136.984 119.402 136.984 116.59C136.984 113.836 138.273 112.172 140.383 112.172C142.07 112.172 143.102 113.121 143.395 114.363H145.844ZM152.254 123.211C153.93 123.211 155.324 122.484 156.086 121.195H156.285V123H158.711V114.293C158.711 111.621 156.906 110.027 153.707 110.027C150.812 110.027 148.75 111.422 148.492 113.566H150.93C151.211 112.641 152.184 112.113 153.59 112.113C155.312 112.113 156.203 112.898 156.203 114.293V115.406L152.746 115.617C149.711 115.805 148 117.129 148 119.414C148 121.734 149.793 123.211 152.254 123.211ZM152.898 121.184C151.527 121.184 150.531 120.492 150.531 119.309C150.531 118.148 151.328 117.527 153.086 117.41L156.203 117.199V118.301C156.203 119.941 154.797 121.184 152.898 121.184ZM163.188 107.062V110.309H161.16V112.324H163.188V119.648C163.188 122.098 164.301 123.082 167.102 123.082C167.594 123.082 168.062 123.023 168.473 122.953V120.949C168.121 120.984 167.898 121.008 167.512 121.008C166.258 121.008 165.707 120.41 165.707 119.039V112.324H168.473V110.309H165.707V107.062H163.188ZM172.738 108C173.617 108 174.332 107.285 174.332 106.418C174.332 105.539 173.617 104.824 172.738 104.824C171.859 104.824 171.145 105.539 171.145 106.418C171.145 107.285 171.859 108 172.738 108ZM171.484 123H173.992V110.273H171.484V123ZM183.086 123.246C186.812 123.246 189.098 120.75 189.098 116.637C189.098 112.523 186.801 110.027 183.086 110.027C179.359 110.027 177.062 112.535 177.062 116.637C177.062 120.75 179.348 123.246 183.086 123.246ZM183.086 121.102C180.895 121.102 179.664 119.473 179.664 116.637C179.664 113.801 180.895 112.16 183.086 112.16C185.266 112.16 186.508 113.801 186.508 116.637C186.508 119.461 185.266 121.102 183.086 121.102ZM192.133 123H194.652V115.535C194.652 113.484 195.836 112.219 197.699 112.219C199.562 112.219 200.453 113.25 200.453 115.359V123H202.973V114.762C202.973 111.727 201.402 110.027 198.555 110.027C196.633 110.027 195.367 110.883 194.746 112.289H194.559V110.273H192.133V123ZM216.004 123V115.922H223.27V113.707H216.004V108.352H223.938V106.09H213.379V123H216.004ZM228.355 108C229.234 108 229.949 107.285 229.949 106.418C229.949 105.539 229.234 104.824 228.355 104.824C227.477 104.824 226.762 105.539 226.762 106.418C226.762 107.285 227.477 108 228.355 108ZM227.102 123H229.609V110.273H227.102V123ZM233.312 123H235.832V115.395C235.832 113.602 237.18 112.371 239.09 112.371C239.535 112.371 240.285 112.453 240.496 112.512V110.145C240.227 110.086 239.746 110.051 239.371 110.051C237.707 110.051 236.289 110.953 235.926 112.207H235.738V110.273H233.312V123ZM250.961 119.59C250.492 120.621 249.449 121.184 247.926 121.184C245.91 121.184 244.609 119.73 244.527 117.422V117.305H253.539V116.438C253.539 112.453 251.395 110.027 247.844 110.027C244.246 110.027 241.961 112.617 241.961 116.66C241.961 120.727 244.199 123.246 247.855 123.246C250.773 123.246 252.836 121.84 253.387 119.59H250.961ZM247.832 112.078C249.695 112.078 250.914 113.426 250.973 115.488H244.527C244.668 113.438 245.969 112.078 247.832 112.078ZM273.086 110.273H270.566L268.293 120.094H268.094L265.469 110.273H263.055L260.43 120.094H260.242L257.957 110.273H255.402L258.918 123H261.508L264.133 113.508H264.332L266.969 123H269.582L273.086 110.273ZM278.863 123.211C280.539 123.211 281.934 122.484 282.695 121.195H282.895V123H285.32V114.293C285.32 111.621 283.516 110.027 280.316 110.027C277.422 110.027 275.359 111.422 275.102 113.566H277.539C277.82 112.641 278.793 112.113 280.199 112.113C281.922 112.113 282.812 112.898 282.812 114.293V115.406L279.355 115.617C276.32 115.805 274.609 117.129 274.609 119.414C274.609 121.734 276.402 123.211 278.863 123.211ZM279.508 121.184C278.137 121.184 277.141 120.492 277.141 119.309C277.141 118.148 277.938 117.527 279.695 117.41L282.812 117.199V118.301C282.812 119.941 281.406 121.184 279.508 121.184ZM289.023 123H291.543V105.281H289.023V123ZM295.445 123H297.965V105.281H295.445V123ZM309.238 115.945C309.238 120.199 310.34 123.68 312.625 126.609H314.852C313.152 124.453 311.84 119.953 311.84 115.934C311.84 111.938 313.164 107.426 314.852 105.281H312.625C310.34 108.199 309.238 111.691 309.238 115.945ZM327.777 110.355H327.941L331.574 123H334.047L338.617 106.09H335.887L332.793 119.238H332.629L329.078 106.09H326.641L323.113 119.238H322.949L319.844 106.09H317.113L321.672 123H324.156L327.777 110.355ZM351.402 123H354.191L348.086 106.09H345.262L339.156 123H341.852L343.41 118.43H349.855L351.402 123ZM346.539 109.078H346.738L349.188 116.32H344.078L346.539 109.078ZM359.77 123V115.922H367.035V113.707H359.77V108.352H367.703V106.09H357.145V123H359.77ZM375.801 115.945C375.801 111.703 374.699 108.211 372.426 105.281H370.199C371.887 107.438 373.211 111.938 373.211 115.957C373.211 119.965 371.887 124.465 370.199 126.609H372.426C374.699 123.691 375.801 120.211 375.801 115.945Z" fill="#62676A"/>
</g>
<g id="NavBar">
<g id="NavBar_2">
<path d="M0 50H500V80H0V50Z" fill="white"/>
<path d="M0 50H500V80H0V50Z" fill="url(#paint0_linear)"/>
<path d="M0 50H500V80H0V50Z" fill="url(#paint1_linear)"/>
</g>
<g id="Cloudflare logo">
<path id="Cloud-Left" fill-rule="evenodd" clip-rule="evenodd" d="M49.5528 74.8683C49.8531 73.8392 49.7386 72.8957 49.2383 72.1955C48.7811 71.5523 48.0091 71.1805 47.08 71.1376L29.4851 70.9091C29.3706 70.9091 29.2707 70.8517 29.2134 70.7661C29.1562 70.6804 29.1419 70.5659 29.1705 70.4517C29.2277 70.28 29.3992 70.1515 29.585 70.1371L47.3373 69.9085C49.4384 69.8085 51.7254 68.1076 52.5258 66.0207L53.5406 63.3765C53.5835 63.2621 53.5978 63.1478 53.5693 63.0334C52.4259 57.8593 47.809 54.0001 42.2918 54.0001C37.2035 54.0001 32.8868 57.2875 31.3432 61.847C30.3427 61.1038 29.0704 60.7035 27.6984 60.8323C25.2541 61.0753 23.2959 63.0334 23.0531 65.4776C22.9958 66.1065 23.0387 66.7211 23.1816 67.2929C19.1939 67.4072 16.0063 70.6661 16.0063 74.6824C16.0063 75.0397 16.0349 75.397 16.0778 75.7544C16.1064 75.9259 16.2493 76.0547 16.4209 76.0547H48.8953C49.0811 76.0547 49.2526 75.9259 49.3098 75.7402L49.5528 74.8683Z" fill="#F38020"/>
<path id="Cloud-Right" fill-rule="evenodd" clip-rule="evenodd" d="M55.1556 63.5622C54.9984 63.5622 54.8269 63.5622 54.6697 63.5765C54.5553 63.5765 54.4553 63.6623 54.4124 63.7766L53.7263 66.1636C53.4261 67.1927 53.5405 68.1361 54.0408 68.8365C54.4981 69.4797 55.27 69.8513 56.199 69.8942L59.9439 70.1229C60.0582 70.1229 60.1583 70.18 60.2155 70.2658C60.2726 70.3515 60.2869 70.4802 60.2584 70.5802C60.2012 70.7518 60.0297 70.8804 59.8438 70.8947L55.9418 71.1234C53.8264 71.2236 51.5537 72.9243 50.7533 75.0113L50.4674 75.7401C50.4103 75.8831 50.5103 76.026 50.6675 76.026H64.0747C64.2319 76.026 64.3748 75.9259 64.4177 75.7687C64.6464 74.9398 64.775 74.0678 64.775 73.1673C64.775 67.8788 60.4585 63.5622 55.1556 63.5622Z" fill="#FBAE40"/>
</g>
</g>
<rect id="Divider" y="48" width="500" height="2" fill="#62676A"/>
<g id="BrowserTopBar">
<path id="TopBar" d="M0 12C0 5.37258 5.37258 0 12 0H488C494.627 0 500 5.37258 500 12V48H0V12Z" fill="#1D1F20"/>
<rect id="AddressBar" x="130" y="16" width="240" height="16" rx="8" fill="#62676A"/>
<g id="WindowControls">
<rect id="WindowClose" x="16" y="18" width="12" height="12" rx="6" fill="#62676A"/>
<rect id="WindowMinimise" x="32" y="18" width="12" height="12" rx="6" fill="#62676A"/>
<rect id="WindowMaximise" x="48" y="18" width="12" height="12" rx="6" fill="#62676A"/>
</g>
</g>
</g>
<defs>
<linearGradient id="paint0_linear" x1="250" y1="50" x2="250" y2="80" gradientUnits="userSpaceOnUse">
<stop stop-color="white"/>
<stop offset="1" stop-color="white" stop-opacity="0"/>
</linearGradient>
<linearGradient id="paint1_linear" x1="250" y1="50" x2="250" y2="80" gradientUnits="userSpaceOnUse">
<stop stop-color="white"/>
<stop offset="1" stop-color="white" stop-opacity="0"/>
</linearGradient>
<clipPath id="clip0">
<rect width="500" height="400" fill="white"/>
</clipPath>
</defs>
</svg>
