<svg width="333" height="378" viewBox="0 0 333 378" fill="none" xmlns="http://www.w3.org/2000/svg">
<g clip-path="url(#clip0_6018_19126)">
<g filter="url(#filter0_d_6018_19126)">
<path fill-rule="evenodd" clip-rule="evenodd" d="M158.97 8H12.9697C6.34231 8 0.969727 13.3726 0.969727 20V366C0.969727 372.627 6.3423 378 12.9697 378H320.97C327.597 378 332.97 372.627 332.97 366V20C332.97 13.3726 327.597 8 320.97 8H174.97L168.384 1.41422C167.603 0.633168 166.337 0.633168 165.556 1.41422L158.97 8Z" fill="black"/>
</g>
<g opacity="0.4">
<path d="M361.847 386.176C345.98 386.149 330.477 381.417 317.299 372.58C304.121 363.742 293.859 351.195 287.812 336.525C281.764 321.855 280.203 305.722 283.325 290.164C286.447 274.607 294.112 260.325 305.351 249.124C316.59 237.923 330.898 230.307 346.465 227.238C362.033 224.169 378.161 225.785 392.81 231.882C407.46 237.979 419.972 248.283 428.765 261.491C437.558 274.699 442.237 290.218 442.21 306.085C442.138 327.351 433.64 347.722 418.576 362.734C403.513 377.747 383.114 386.176 361.847 386.176ZM361.847 227.218C346.255 227.245 331.02 231.893 318.068 240.576C305.117 249.258 295.029 261.585 289.081 275.998C283.133 290.412 281.59 306.265 284.649 321.554C287.707 336.844 295.229 350.884 306.264 361.9C317.299 372.916 331.352 380.414 346.647 383.446C361.942 386.478 377.793 384.909 392.196 378.936C406.599 372.962 418.908 362.854 427.568 349.887C436.228 336.92 440.85 321.678 440.85 306.085C440.814 285.156 432.475 265.096 417.663 250.31C402.851 235.523 382.777 227.218 361.847 227.218Z" fill="#F9AB41"/>
<path d="M361.848 400.998C309.496 400.998 266.936 358.709 266.936 306.765C266.936 276.306 285.428 252.918 301.066 238.777C320.919 220.692 340.091 212.261 361.848 212.261C383.604 212.261 407.4 222.731 427.389 242.584C447.378 262.437 456.624 283.105 456.624 306.765C456.624 330.425 447.106 348.918 427.797 369.315C408.488 389.711 385.508 400.998 361.848 400.998ZM361.848 213.621C340.499 213.621 321.462 221.915 302.018 239.728C286.652 253.734 268.295 276.714 268.295 306.765C268.295 357.893 310.312 399.638 361.848 399.638C385.236 399.638 406.992 389.168 426.709 368.363C446.426 347.558 455.264 328.114 455.264 306.765C455.264 285.417 445.882 262.845 426.437 243.536C412.703 229.938 390.403 213.621 361.848 213.621Z" fill="#F9A640"/>
<path d="M361.847 415.819C301.609 415.819 252.521 367.139 252.521 307.445C252.521 273.586 276.182 247.751 293.859 231.297C315.615 211.037 334.516 198.527 361.847 198.527C394.482 198.527 419.638 219.603 435.683 235.377C466.958 266.108 471.037 290.04 471.037 307.445C471.037 337.36 452.68 359.252 435.547 377.337C418.414 395.422 394.618 415.819 361.847 415.819ZM361.847 199.887C334.924 199.887 316.295 212.261 294.81 232.249C258.097 266.38 253.881 291.399 253.881 307.445C253.881 366.459 302.289 414.459 361.847 414.459C394.074 414.459 416.646 395.15 434.595 376.385C452.544 357.62 469.677 336.952 469.677 307.445C469.677 275.082 452 253.326 434.731 236.329C417.462 219.331 393.938 199.887 361.847 199.887Z" fill="#FAA03F"/>
<path d="M361.847 430.504C329.134 430.681 297.688 417.868 274.414 394.878C262.879 383.572 253.725 370.072 247.489 355.172C241.254 340.273 238.064 324.276 238.108 308.125C238.108 272.499 263.264 245.847 286.788 223.819C307.048 204.646 327.989 184.793 361.847 184.793C395.706 184.793 420.861 205.598 443.842 228.034C466.822 250.47 485.451 275.218 485.451 308.125C485.451 341.031 464.238 363.196 443.57 384.952L443.298 385.224C420.726 409.156 397.473 430.504 361.847 430.504ZM361.847 186.153C328.533 186.153 308.68 204.918 287.74 224.771C264.352 246.663 239.468 273.043 239.468 308.125C239.429 324.097 242.585 339.917 248.75 354.652C254.915 369.387 263.964 382.74 275.366 393.926C298.397 416.647 329.496 429.312 361.847 429.145C397.065 429.145 419.91 407.932 442.346 384.408L442.618 384C463.015 362.516 484.091 340.215 484.091 308.125C484.091 276.034 467.638 253.054 442.89 229.122C418.142 205.19 394.482 186.153 361.847 186.153Z" fill="#FA9B3E"/>
<path d="M361.848 445.326C325.338 445.498 290.243 431.225 264.216 405.621C251.348 393 241.133 377.933 234.174 361.306C227.215 344.68 223.652 326.829 223.695 308.805C223.695 269.371 253.338 241.224 279.581 216.204L283.389 212.533C306.641 190.368 326.63 171.195 361.848 171.195C397.066 171.195 425.077 194.584 452.137 220.827C479.196 247.071 499.865 269.915 499.865 308.805C499.865 342.255 478.108 364.963 457.032 386.992L451.049 393.247C426.981 418.81 401.961 445.326 361.848 445.326ZM361.848 172.555C327.174 172.555 307.321 191.592 284.341 213.62L280.533 217.292C254.562 242.04 225.054 270.051 225.054 308.805C225.005 326.632 228.529 344.288 235.419 360.73C242.308 377.172 252.424 392.066 265.168 404.533C277.903 417.133 292.996 427.102 309.585 433.868C326.173 440.634 343.933 444.065 361.848 443.966C401.417 443.966 426.165 417.723 450.097 392.295L456.08 386.04C476.885 364.283 498.505 341.711 498.505 308.805C498.505 270.459 477.021 246.663 451.185 221.779C425.349 196.895 397.202 172.555 361.848 172.555Z" fill="#FA963D"/>
<path d="M361.847 460.148C321.508 460.352 282.733 444.559 254.017 416.227C239.794 402.336 228.505 385.73 220.82 367.394C213.136 349.058 209.211 329.366 209.28 309.485C209.28 268.963 240.011 239.592 267.207 213.757L272.51 208.725L280.532 200.839C304.192 177.587 324.725 157.462 361.847 157.462C401.96 157.462 432.011 186.289 458.527 211.717L460.43 213.485C486.946 238.912 514.278 265.156 514.278 309.485C514.278 344.431 491.433 367.819 469.405 390.391C465.87 393.927 462.334 397.598 458.935 401.269L454.855 405.485C428.476 433.496 403.592 460.148 361.847 460.148ZM361.847 158.822C325.269 158.822 305.008 178.81 281.484 201.791C278.901 204.374 276.181 207.094 273.326 209.677C270.47 212.261 269.926 213.077 268.158 214.708C241.235 240.408 210.64 269.643 210.64 309.485C210.576 329.187 214.467 348.702 222.081 366.873C229.695 385.045 240.879 401.504 254.969 415.275C283.442 443.338 321.869 458.983 361.847 458.788C403.048 458.788 427.796 432.408 453.904 404.533L457.847 400.318L468.317 389.439C491.297 366.051 512.918 343.887 512.918 309.485C512.918 265.7 485.722 239.728 459.479 214.572L457.575 212.805C431.195 187.513 401.416 158.822 361.847 158.822Z" fill="#FB903C"/>
<path d="M361.847 474.833C317.729 475.084 275.301 457.878 243.819 426.969C228.256 411.768 215.904 393.596 207.495 373.532C199.086 353.468 194.792 331.919 194.867 310.165C194.867 268.012 227.094 237.553 255.513 210.493C258.777 207.366 262.176 204.374 265.303 201.247L276.998 189.689C301.473 165.077 322.55 143.728 361.847 143.728C403.593 143.728 434.867 173.915 462.607 200.431L468.59 206.278L469.95 207.502C501.496 237.553 528.692 263.388 528.692 310.165C528.692 346.878 505.576 369.995 480.964 394.606C476.204 399.366 471.309 404.261 466.686 409.156L458.799 417.587C431.468 447.094 405.768 474.833 361.847 474.833ZM361.847 145.088C323.094 145.088 302.153 166.164 277.949 190.64L266.255 202.198L256.465 211.581C228.182 238.232 196.227 268.555 196.227 310.165C196.157 331.741 200.417 353.112 208.756 373.011C217.094 392.911 229.341 410.936 244.771 426.017C276.01 456.658 318.09 473.714 361.847 473.473C405.224 473.473 430.788 445.87 457.848 416.771L465.734 408.204C470.357 403.309 475.253 398.414 480.012 393.655C504.352 369.315 527.332 346.334 527.332 310.165C527.332 263.932 500.272 238.232 468.998 208.589L467.638 207.23L461.655 201.383C434.187 175.003 403.049 145.088 361.847 145.088Z" fill="#FB8B3B"/>
<path d="M361.848 489.655C313.936 489.886 267.864 471.223 233.621 437.711C216.724 421.196 203.313 401.458 194.18 379.666C185.048 357.874 180.38 334.472 180.454 310.844C180.454 266.788 212.953 236.329 244.363 206.822C249.259 202.334 253.746 198.119 258.097 193.768C262.448 189.417 268.159 183.705 272.919 178.81C298.21 152.703 320.103 130.13 361.848 130.13C403.593 130.13 436.907 160.453 467.23 189.688L476.885 199.071L481.644 203.422C514.551 234.561 543.106 261.485 543.106 310.844C543.106 349.598 518.494 373.666 492.386 399.23C486.403 404.941 480.284 411.06 474.437 417.179L463.151 429.417C434.868 460.42 408.08 489.655 361.848 489.655ZM361.848 131.49C320.783 131.49 299.026 153.79 273.87 179.762C269.111 184.657 264.216 189.688 259.049 194.72C253.882 199.751 249.938 203.422 245.315 207.773C214.176 237.009 181.814 267.332 181.814 310.844C181.745 334.293 186.379 357.518 195.441 379.145C204.503 400.773 217.809 420.363 234.573 436.759C268.557 470.027 314.292 488.546 361.848 488.295C407.536 488.295 434.052 459.196 462.199 428.465L473.485 416.227C479.196 410.108 485.451 403.989 491.434 398.142C517.27 372.85 541.746 349.054 541.746 310.844C541.746 262.164 513.463 235.377 480.692 204.51L475.933 200.023L466.279 190.64C436.092 161.541 404.953 131.49 361.848 131.49Z" fill="#FB8639"/>
<path d="M361.847 504.476C310.133 504.732 260.401 484.605 223.422 448.453C205.179 430.633 190.699 409.33 180.842 385.809C170.985 362.288 165.952 337.027 166.039 311.524C166.039 265.292 200.441 233.473 233.62 202.606C239.739 197.031 245.45 191.728 251.025 186.153C256.6 180.578 262.991 174.051 268.702 168.068C294.946 140.329 317.654 116.397 361.847 116.397C406.039 116.397 440.442 148.351 472.124 179.218L485.178 191.728L492.929 199.071C527.603 231.434 557.518 259.445 557.518 311.524C557.518 352.453 531.275 377.473 503.535 403.989C496.328 410.788 488.986 417.859 482.187 425.065L467.909 440.839C438.402 473.473 410.663 504.476 361.847 504.476ZM361.847 117.756C318.198 117.756 295.762 141.552 269.654 169.02C263.943 175.003 258.232 181.122 251.977 187.241C245.722 193.36 240.555 197.983 234.572 203.694C201.529 234.289 167.399 265.972 167.399 311.524C167.288 336.832 172.276 361.903 182.065 385.242C191.853 408.581 206.242 429.709 224.374 447.366C261.063 483.336 310.467 503.371 361.847 503.116C409.983 503.116 437.722 472.385 466.957 439.887L481.235 424.114C488.034 416.907 495.376 409.836 502.583 403.037C530.187 376.657 556.158 351.774 556.158 311.524C556.158 260.125 526.379 232.249 491.977 200.023L484.226 192.68L471.173 180.17C439.626 149.575 407.127 117.756 361.847 117.756Z" fill="#FB8138"/>
<path d="M361.847 519.298C305.553 519.298 252.794 497.949 213.224 459.06C193.639 439.959 178.093 417.116 167.511 391.887C156.93 366.659 151.528 339.561 151.626 312.204C151.626 263.796 187.932 230.482 223.014 198.255C230.357 191.592 237.292 185.201 243.819 178.674C250.346 172.147 257.689 164.397 264.216 157.462C291.547 128.091 315.071 102.799 361.847 102.799C408.624 102.799 444.114 136.385 477.428 169.02L493.338 184.521L503.944 194.312C540.386 228.17 571.933 257.405 571.933 312.204C571.933 355.309 544.057 381.417 514.55 409.156C506.255 416.771 497.825 424.793 490.074 433.088C482.323 441.383 478.38 445.734 472.941 451.989C442.21 486.663 413.247 519.298 361.847 519.298ZM361.847 104.159C315.751 104.159 292.227 129.315 265.167 158.414C258.777 165.349 252.114 172.555 244.771 179.626C237.428 186.697 231.309 192.544 223.966 199.343C189.02 231.298 152.986 264.34 152.986 312.204C152.877 339.385 158.238 366.31 168.75 391.376C179.263 416.442 194.711 439.136 214.176 458.108C253.473 496.725 305.825 517.938 361.847 517.938C412.567 517.938 441.394 485.439 471.853 451.173C477.428 444.918 483.139 438.391 488.986 432.136C496.873 423.842 505.304 415.819 513.598 408.068C542.833 380.601 570.573 354.629 570.573 312.204C570.573 257.949 539.298 228.986 502.992 195.264L492.386 185.473L476.476 169.972C443.434 137.609 409.304 104.159 361.847 104.159Z" fill="#FC7B37"/>
<path d="M361.847 533.983C301.609 533.983 245.179 511.275 203.026 469.802C182.094 449.396 165.481 424.988 154.174 398.03C142.868 371.073 137.1 342.116 137.213 312.884C137.213 262.164 175.558 227.354 212.544 193.768C221.111 186.017 229.133 178.674 236.748 171.195C244.363 163.717 252.385 154.878 259.592 146.992C288.012 115.989 312.487 89.0651 361.847 89.0651C411.207 89.0651 448.057 124.555 482.731 158.822C488.986 164.941 495.377 171.331 501.632 177.178L514.822 189.416C553.168 224.635 586.346 255.094 586.346 312.884C586.346 358.3 556.703 385.496 525.428 414.323C516.182 422.89 506.527 431.728 497.825 440.975C489.122 450.221 484.363 455.932 477.972 463.139C446.017 499.581 415.966 533.983 361.847 533.983ZM361.847 90.4249C313.031 90.4249 288.691 117.076 260.544 147.943C253.337 155.83 245.859 163.989 237.7 172.147C229.541 180.306 221.927 186.969 213.496 194.72C176.646 228.17 138.572 262.708 138.572 312.884C138.465 341.938 144.199 370.716 155.435 397.509C166.671 424.303 183.179 448.564 203.977 468.85C245.995 510.051 302.017 532.623 361.847 532.623C415.286 532.623 445.201 498.493 477.02 462.187C483.411 454.98 489.938 447.366 496.873 440.159C505.575 430.776 515.23 421.938 524.476 413.371C555.615 384.68 584.986 357.621 584.986 312.884C584.986 255.773 552.08 225.45 514.006 190.504L500.68 178.13C494.425 172.283 488.034 166.028 481.779 159.909C447.241 125.643 411.615 90.4249 361.847 90.4249Z" fill="#FC7636"/>
<path d="M361.847 548.805C297.802 548.805 237.7 524.601 192.827 480.544C170.549 458.833 152.868 432.86 140.837 404.173C128.807 375.486 122.672 344.671 122.799 313.564C122.799 260.397 163.184 224.091 202.21 189.009C211.864 180.442 220.975 172.147 229.541 163.717C238.108 155.286 246.946 145.496 254.833 136.657C284.34 103.751 309.768 75.3315 361.847 75.3315C413.926 75.3315 452 112.725 488.306 148.895C495.649 156.238 502.72 163.173 509.791 169.972L525.7 184.521C565.949 221.235 600.76 252.782 600.76 313.564C600.76 361.156 569.485 389.575 536.306 419.626C525.972 429.009 515.23 438.663 505.575 448.997C495.921 459.332 490.482 465.859 483.275 474.153C450.096 512.499 418.686 548.805 361.847 548.805ZM361.847 76.6913C310.448 76.6913 285.156 104.839 255.921 137.473C247.898 146.448 239.739 155.558 230.493 164.669C221.246 173.779 212.816 181.394 203.161 190.096C164.272 224.907 124.159 261.077 124.159 313.564C124.045 344.491 130.149 375.126 142.109 403.648C154.069 432.17 171.64 457.996 193.779 479.592C238.516 523.377 298.074 547.445 361.847 547.445C418.006 547.445 449.145 511.411 482.187 473.337C489.394 464.907 496.873 456.34 504.623 448.046C512.374 439.751 525.02 428.057 535.354 418.674C568.261 388.759 599.4 360.612 599.4 313.564C599.4 253.462 564.861 221.915 524.748 185.473C519.581 180.85 514.278 175.955 508.975 170.924C503.672 165.892 494.425 156.918 487.354 149.847C451.32 113.949 413.926 76.6913 361.847 76.6913Z" fill="#FC7135"/>
<path d="M361.848 563.626C293.859 563.626 230.222 537.927 182.629 491.286C159.011 468.265 140.267 440.727 127.512 410.312C114.757 379.896 108.253 347.225 108.386 314.244C108.386 258.629 150.811 220.827 191.876 184.249C202.754 174.731 212.952 165.62 222.471 156.102C231.989 146.584 241.372 136.113 250.074 126.323C280.669 91.6487 307.185 61.7337 361.848 61.7337C416.511 61.7337 456.08 100.895 493.882 138.969C502.176 147.264 510.063 155.15 518.086 162.629L536.443 179.49C578.732 217.564 615.174 250.47 615.174 314.244C615.174 364.283 582.131 393.791 547.049 425.065C535.763 435.128 523.933 445.734 513.462 457.02C502.992 468.306 496.465 475.785 488.579 485.167C454.04 525.417 421.406 563.626 361.848 563.626ZM361.848 63.0935C307.729 63.0935 281.485 92.7366 251.162 127.139C242.46 136.929 233.485 147.128 223.423 157.19C213.36 167.252 203.706 175.683 192.828 185.337C152.035 221.643 109.746 259.309 109.746 314.244C109.605 347.028 116.07 379.505 128.756 409.736C141.442 439.966 160.088 467.332 183.581 490.199C230.901 536.703 294.267 562.267 361.848 562.267C420.862 562.267 453.224 524.329 487.491 484.216C495.513 474.969 503.672 465.315 512.375 456.068C522.981 444.782 534.811 434.176 546.233 423.978C581.043 392.975 613.814 363.604 613.814 314.244C613.814 251.15 577.508 218.38 535.627 180.442L517.134 163.717C509.111 156.102 500.817 147.807 492.93 139.921C455.264 102.119 416.375 63.0935 361.848 63.0935Z" fill="#FD6B34"/>
<path d="M361.847 578.312C290.051 578.312 222.743 551.252 172.431 501.893C147.471 477.592 127.66 448.513 114.18 416.39C100.7 384.268 93.8276 349.76 93.972 314.924C93.972 256.861 138.573 217.564 181.677 179.49C193.643 168.884 204.93 158.958 215.264 148.623C225.598 138.289 235.932 126.595 245.315 115.989C276.998 79.4108 304.465 48 361.847 48C419.23 48 460.159 89.2012 499.593 129.043C508.703 138.289 517.406 147.128 526.38 155.422C535.355 163.717 540.386 168.204 547.185 174.323C591.377 213.892 629.587 248.159 629.587 314.924C629.587 367.275 594.777 398.006 557.927 430.504C545.417 441.383 532.635 452.669 521.213 464.907C509.791 477.145 502.72 485.711 494.018 496.046C458.12 538.335 424.261 578.312 361.847 578.312ZM361.847 49.3598C305.009 49.3598 277.813 80.6346 246.267 116.805C236.884 127.547 227.23 138.697 216.216 149.575C205.201 160.453 194.595 169.972 182.629 180.442C139.66 218.38 95.3317 257.541 95.3317 314.924C95.1925 349.581 102.031 383.911 115.441 415.869C128.85 447.828 148.555 476.759 173.383 500.941C223.422 550.029 290.323 576.952 361.847 576.952C423.581 576.952 457.304 537.247 492.93 495.094C501.632 484.895 510.607 474.289 520.125 463.955C531.683 451.717 544.465 440.431 556.975 429.417C593.689 397.19 628.227 366.731 628.227 314.924C628.227 248.839 590.29 214.708 546.233 175.275C539.434 169.156 532.363 162.901 525.428 156.374C516.454 148.079 507.343 138.833 498.641 129.994C459.343 90.4249 418.822 49.3598 361.847 49.3598Z" fill="#FD6633"/>
</g>
<path d="M106.814 135H113.053L120.059 110.506H120.331L127.32 135H133.559L143.411 100.091H136.61L130.32 125.761H130.013L123.28 100.091H117.093L110.377 125.744H110.053L103.763 100.091H96.9619L106.814 135ZM148.997 135L151.878 126.392H165.003L167.901 135H174.651L162.344 100.091H154.537L142.247 135H148.997ZM153.583 121.312L158.304 107.25H158.577L163.299 121.312H153.583ZM179.249 135H185.573V122.216H192.016L198.868 135H205.925L198.374 121.159C202.482 119.506 204.647 115.994 204.647 111.256C204.647 104.591 200.351 100.091 192.34 100.091H179.249V135ZM185.573 116.966V105.375H191.368C196.09 105.375 198.203 107.54 198.203 111.256C198.203 114.972 196.09 116.966 191.402 116.966H185.573ZM210.468 135H216.791V123.205H223.473C231.536 123.205 235.865 118.364 235.865 111.648C235.865 104.983 231.587 100.091 223.559 100.091H210.468V135ZM216.791 118.006V105.375H222.587C227.326 105.375 229.422 107.932 229.422 111.648C229.422 115.364 227.326 118.006 222.621 118.006H216.791Z" fill="white"/>
<path d="M80.4229 325V320.555L84.376 313.727H82.165L79.4854 318.562H79.3525L76.665 313.727H74.4541L78.4072 320.555V325H80.4229ZM88.3525 325.172C90.9072 325.172 92.4619 323.5 92.4619 320.727C92.4619 317.969 90.8994 316.297 88.3525 316.297C85.8135 316.297 84.2432 317.977 84.2432 320.727C84.2432 323.5 85.79 325.172 88.3525 325.172ZM88.3525 323.586C87.001 323.586 86.2275 322.539 86.2275 320.734C86.2275 318.93 87.001 317.883 88.3525 317.883C89.6963 317.883 90.4697 318.93 90.4697 320.734C90.4697 322.539 89.7041 323.586 88.3525 323.586ZM101.853 316.461H99.915V321.438C99.915 322.727 99.2275 323.508 97.9697 323.508C96.8135 323.508 96.2744 322.867 96.2744 321.539V316.461H94.3369V322.008C94.3369 324.008 95.4307 325.172 97.2979 325.172C98.6025 325.172 99.4385 324.617 99.8525 323.641H99.9854V325H101.853V316.461ZM104.228 325H106.165V320.039C106.165 318.836 107.04 318.055 108.298 318.055C108.626 318.055 109.142 318.109 109.29 318.164V316.398C109.11 316.352 108.767 316.32 108.485 316.32C107.384 316.32 106.462 316.945 106.228 317.789H106.095V316.461H104.228V325ZM117.368 325V313.727H115.353V325H117.368ZM119.946 325H121.884V320.023C121.884 318.742 122.61 317.938 123.767 317.938C124.946 317.938 125.493 318.602 125.493 319.93V325H127.431V319.477C127.431 317.445 126.392 316.297 124.485 316.297C123.212 316.297 122.353 316.875 121.946 317.828H121.813V316.461H119.946V325ZM130.345 314.367V316.516H128.993V318.023H130.345V322.734C130.345 324.383 131.126 325.039 133.087 325.039C133.462 325.039 133.821 325.008 134.103 324.953V323.469C133.868 323.492 133.72 323.508 133.446 323.508C132.634 323.508 132.274 323.125 132.274 322.273V318.023H134.103V316.516H132.274V314.367H130.345ZM141.532 322.664C141.251 323.305 140.587 323.664 139.626 323.664C138.353 323.664 137.532 322.758 137.485 321.312V321.211H143.454V320.594C143.454 317.914 141.993 316.297 139.556 316.297C137.079 316.297 135.54 318.023 135.54 320.766C135.54 323.5 137.056 325.172 139.571 325.172C141.587 325.172 143.017 324.203 143.368 322.664H141.532ZM139.548 317.805C140.712 317.805 141.478 318.625 141.517 319.922H137.493C137.579 318.641 138.392 317.805 139.548 317.805ZM145.399 325H147.337V320.039C147.337 318.836 148.212 318.055 149.47 318.055C149.798 318.055 150.313 318.109 150.462 318.164V316.398C150.282 316.352 149.938 316.32 149.657 316.32C148.556 316.32 147.634 316.945 147.399 317.789H147.267V316.461H145.399V325ZM152.165 325H154.103V320.023C154.103 318.742 154.829 317.938 155.985 317.938C157.165 317.938 157.712 318.602 157.712 319.93V325H159.649V319.477C159.649 317.445 158.61 316.297 156.704 316.297C155.431 316.297 154.571 316.875 154.165 317.828H154.032V316.461H152.165V325ZM167.517 322.664C167.235 323.305 166.571 323.664 165.61 323.664C164.337 323.664 163.517 322.758 163.47 321.312V321.211H169.438V320.594C169.438 317.914 167.978 316.297 165.54 316.297C163.063 316.297 161.524 318.023 161.524 320.766C161.524 323.5 163.04 325.172 165.556 325.172C167.571 325.172 169.001 324.203 169.353 322.664H167.517ZM165.532 317.805C166.696 317.805 167.462 318.625 167.501 319.922H163.478C163.563 318.641 164.376 317.805 165.532 317.805ZM172.001 314.367V316.516H170.649V318.023H172.001V322.734C172.001 324.383 172.782 325.039 174.743 325.039C175.118 325.039 175.478 325.008 175.759 324.953V323.469C175.524 323.492 175.376 323.508 175.103 323.508C174.29 323.508 173.931 323.125 173.931 322.273V318.023H175.759V316.516H173.931V314.367H172.001ZM182.946 315.031C183.587 315.031 184.11 314.523 184.11 313.883C184.11 313.25 183.587 312.734 182.946 312.734C182.313 312.734 181.79 313.25 181.79 313.883C181.79 314.523 182.313 315.031 182.946 315.031ZM181.985 325H183.915V316.461H181.985V325ZM186.126 318.898C186.126 320.18 186.899 320.93 188.54 321.305L190.056 321.656C190.868 321.844 191.235 322.156 191.235 322.641C191.235 323.289 190.556 323.734 189.579 323.734C188.61 323.734 188.009 323.344 187.821 322.711H185.907C186.056 324.25 187.399 325.172 189.532 325.172C191.665 325.172 193.173 324.086 193.173 322.453C193.173 321.195 192.415 320.5 190.782 320.125L189.274 319.789C188.415 319.586 188.009 319.281 188.009 318.797C188.009 318.164 188.673 317.734 189.556 317.734C190.462 317.734 191.032 318.125 191.173 318.727H192.993C192.853 317.188 191.579 316.297 189.548 316.297C187.532 316.297 186.126 317.367 186.126 318.898ZM257.407 325.156C258.149 325.156 258.657 324.633 258.657 323.938C258.657 323.25 258.149 322.727 257.407 322.727C256.673 322.727 256.157 323.25 256.157 323.938C256.157 324.633 256.673 325.156 257.407 325.156Z" fill="white"/>
<path d="M204.329 316.258C203.142 316.258 202.165 316.844 201.696 317.812H201.556V316.398H199.353V327.852H201.626V323.688H201.767C202.188 324.594 203.134 325.133 204.368 325.133C206.524 325.133 207.845 323.461 207.845 320.695C207.845 317.922 206.509 316.258 204.329 316.258ZM203.556 323.297C202.353 323.297 201.603 322.312 201.603 320.703C201.603 319.094 202.353 318.102 203.563 318.102C204.774 318.102 205.509 319.078 205.509 320.695C205.509 322.32 204.782 323.297 203.556 323.297ZM209.696 325H211.97V320.188C211.97 318.977 212.821 318.234 214.063 318.234C214.431 318.234 214.962 318.297 215.142 318.359V316.359C214.946 316.297 214.563 316.258 214.251 316.258C213.157 316.258 212.267 316.906 212.04 317.766H211.899V316.398H209.696V325ZM217.821 315.078C218.524 315.078 219.103 314.516 219.103 313.812C219.103 313.102 218.524 312.539 217.821 312.539C217.118 312.539 216.532 313.102 216.532 313.812C216.532 314.516 217.118 315.078 217.821 315.078ZM216.681 325H218.954V316.398H216.681V325ZM229.048 316.398H226.649L224.884 322.867H224.743L222.962 316.398H220.517L223.509 325H226.071L229.048 316.398ZM232.665 325.133C233.782 325.133 234.72 324.656 235.165 323.859H235.306V325H237.509V319.125C237.509 317.289 236.22 316.211 233.938 316.211C231.774 316.211 230.313 317.203 230.165 318.781H232.259C232.446 318.242 232.993 317.953 233.813 317.953C234.751 317.953 235.267 318.383 235.267 319.125V319.836L233.181 319.961C231.04 320.086 229.845 320.992 229.845 322.547C229.845 324.117 231.009 325.133 232.665 325.133ZM233.415 323.469C232.626 323.469 232.071 323.07 232.071 322.406C232.071 321.773 232.548 321.406 233.524 321.344L235.267 321.227V321.867C235.267 322.773 234.47 323.469 233.415 323.469ZM240.392 314.344V316.477H239.048V318.203H240.392V322.68C240.392 324.352 241.22 325.031 243.313 325.031C243.751 325.031 244.173 324.984 244.454 324.93V323.25C244.235 323.273 244.079 323.289 243.782 323.289C243.009 323.289 242.665 322.93 242.665 322.156V318.203H244.454V316.477H242.665V314.344H240.392ZM251.86 322.57C251.618 323.156 251.001 323.484 250.103 323.484C248.915 323.484 248.165 322.664 248.134 321.352V321.234H254.048V320.555C254.048 317.836 252.548 316.211 250.009 316.211C247.446 316.211 245.868 317.945 245.868 320.742C245.868 323.523 247.415 325.18 250.04 325.18C252.149 325.18 253.642 324.172 253.978 322.57H251.86ZM250.017 317.906C251.079 317.906 251.767 318.641 251.813 319.82H248.142C248.22 318.664 248.962 317.906 250.017 317.906Z" fill="#FF6633"/>
<path d="M123.991 290.234C127.448 290.234 129.86 288.252 130.192 285.107H127.321C127.009 286.777 125.749 287.803 124.001 287.803C121.745 287.803 120.329 285.947 120.329 282.939C120.329 279.971 121.765 278.105 123.991 278.105C125.71 278.105 127.038 279.238 127.312 280.967H130.183C129.958 277.812 127.38 275.664 123.991 275.664C119.909 275.664 117.321 278.408 117.321 282.949C117.321 287.5 119.89 290.234 123.991 290.234ZM136.579 290.225C139.743 290.225 141.765 288.203 141.765 284.756C141.765 281.357 139.714 279.307 136.579 279.307C133.444 279.307 131.394 281.367 131.394 284.756C131.394 288.193 133.415 290.225 136.579 290.225ZM136.579 288.047C135.173 288.047 134.284 286.865 134.284 284.766C134.284 282.686 135.192 281.484 136.579 281.484C137.966 281.484 138.864 282.686 138.864 284.766C138.864 286.865 137.976 288.047 136.579 288.047ZM143.239 290H146.091V283.994C146.091 282.637 146.901 281.699 148.181 281.699C149.46 281.699 150.104 282.48 150.104 283.848V290H152.956V283.252C152.956 280.801 151.647 279.336 149.323 279.336C147.712 279.336 146.608 280.098 146.052 281.396H145.993V279.531H143.239V290ZM154.763 290H157.614V283.994C157.614 282.637 158.425 281.699 159.704 281.699C160.983 281.699 161.628 282.48 161.628 283.848V290H164.479V283.252C164.479 280.801 163.171 279.336 160.847 279.336C159.235 279.336 158.132 280.098 157.575 281.396H157.517V279.531H154.763V290ZM173.22 286.797C172.956 287.598 172.155 288.115 171.11 288.115C169.655 288.115 168.708 287.09 168.708 285.596V285.42H175.925V284.551C175.925 281.367 174.001 279.307 170.954 279.307C167.858 279.307 165.905 281.475 165.905 284.814C165.905 288.164 167.839 290.225 171.062 290.225C173.649 290.225 175.524 288.848 175.837 286.797H173.22ZM170.983 281.416C172.253 281.416 173.122 282.334 173.181 283.672H168.737C168.835 282.363 169.733 281.416 170.983 281.416ZM186.911 283.428C186.784 281.055 184.987 279.307 182.155 279.307C179.021 279.307 177.019 281.396 177.019 284.756C177.019 288.174 179.021 290.225 182.175 290.225C184.929 290.225 186.774 288.633 186.921 286.162H184.265C184.089 287.305 183.347 287.988 182.204 287.988C180.788 287.988 179.909 286.816 179.909 284.756C179.909 282.734 180.788 281.543 182.194 281.543C183.366 281.543 184.099 282.324 184.265 283.428H186.911ZM189.06 277.119V279.531H187.585V281.68H189.06V287.178C189.06 289.219 190.017 290.039 192.478 290.039C193.054 290.039 193.542 289.99 193.835 289.922V287.822C193.659 287.852 193.396 287.871 193.142 287.871C192.302 287.871 191.911 287.49 191.911 286.689V281.68H193.845V279.531H191.911V277.119H189.06ZM202.185 286.797C201.921 287.598 201.12 288.115 200.075 288.115C198.62 288.115 197.673 287.09 197.673 285.596V285.42H204.89V284.551C204.89 281.367 202.966 279.307 199.919 279.307C196.823 279.307 194.87 281.475 194.87 284.814C194.87 288.164 196.804 290.225 200.026 290.225C202.614 290.225 204.489 288.848 204.802 286.797H202.185ZM199.948 281.416C201.218 281.416 202.087 282.334 202.146 283.672H197.702C197.8 282.363 198.698 281.416 199.948 281.416ZM210.251 290.166C211.794 290.166 213.005 289.355 213.513 288.203H213.562V290H216.374V275.908H213.522V281.328H213.464C212.956 280.166 211.784 279.365 210.271 279.365C207.644 279.365 205.983 281.426 205.983 284.746C205.983 288.096 207.634 290.166 210.251 290.166ZM211.218 281.65C212.634 281.65 213.542 282.861 213.542 284.766C213.542 286.68 212.634 287.871 211.218 287.871C209.782 287.871 208.903 286.689 208.903 284.766C208.903 282.852 209.782 281.65 211.218 281.65Z" fill="white"/>
<rect x="110.97" y="171" width="112" height="61.3699" rx="30.6849" fill="#FF6633"/>
<g filter="url(#filter1_d_6018_19126)">
<path fill-rule="evenodd" clip-rule="evenodd" d="M191.518 227.767C205.923 227.767 217.6 216.09 217.6 201.685C217.6 187.28 205.923 175.603 191.518 175.603C177.113 175.603 165.436 187.28 165.436 201.685C165.436 216.09 177.113 227.767 191.518 227.767Z" fill="white"/>
<path fill-rule="evenodd" clip-rule="evenodd" d="M191.518 227.767C205.923 227.767 217.6 216.09 217.6 201.685C217.6 187.28 205.923 175.603 191.518 175.603C177.113 175.603 165.436 187.28 165.436 201.685C165.436 216.09 177.113 227.767 191.518 227.767Z" fill="url(#paint0_linear_6018_19126)"/>
<path fill-rule="evenodd" clip-rule="evenodd" d="M191.518 227.767C205.923 227.767 217.6 216.09 217.6 201.685C217.6 187.28 205.923 175.603 191.518 175.603C177.113 175.603 165.436 187.28 165.436 201.685C165.436 216.09 177.113 227.767 191.518 227.767Z" fill="url(#paint1_linear_6018_19126)"/>
</g>
<g filter="url(#filter2_bi_6018_19126)">
<path fill-rule="evenodd" clip-rule="evenodd" d="M158.97 8H12.9697C6.34231 8 0.969727 13.3726 0.969727 20V57H332.97V20C332.97 13.3726 327.597 8 320.97 8H174.97L168.384 1.41422C167.603 0.633168 166.337 0.633168 165.556 1.41422L158.97 8Z" fill="#1D1F20" fill-opacity="0.8"/>
</g>
<g clip-path="url(#clip1_6018_19126)">
<path d="M316.09 30.381H314.39C314.136 29.5346 313.688 28.7591 313.082 28.116L313.933 26.642C313.132 25.8999 312.176 25.347 311.133 25.024L310.276 26.5C309.416 26.2952 308.519 26.2952 307.659 26.5L306.808 25.025C305.765 25.3486 304.808 25.9022 304.008 26.645L304.858 28.118C304.252 28.7599 303.806 29.535 303.554 30.381H301.85C301.61 31.4456 301.61 32.5503 301.85 33.615H303.55C303.805 34.4615 304.253 35.237 304.86 35.88L304.008 37.355C304.808 38.0978 305.765 38.6514 306.808 38.975L307.662 37.5C308.521 37.7042 309.416 37.7042 310.275 37.5L311.128 38.978C312.171 38.6547 313.128 38.1014 313.928 37.359L313.076 35.883C313.684 35.2406 314.132 34.4644 314.384 33.617H316.091C316.331 32.5523 316.331 31.4476 316.091 30.383L316.09 30.381ZM308.97 35.188C308.339 35.188 307.723 35.001 307.199 34.6507C306.675 34.3004 306.266 33.8025 306.025 33.22C305.783 32.6375 305.72 31.9965 305.843 31.378C305.966 30.7596 306.27 30.1916 306.716 29.7457C307.162 29.2999 307.73 28.9963 308.348 28.8732C308.966 28.7502 309.607 28.8134 310.19 29.0547C310.772 29.296 311.27 29.7046 311.621 30.2288C311.971 30.7531 312.158 31.3695 312.158 32C312.158 32.8455 311.822 33.6564 311.224 34.2542C310.626 34.8521 309.815 35.188 308.97 35.188Z" fill="#D5D7D8"/>
</g>
<mask id="path-24-outside-1_6018_19126" maskUnits="userSpaceOnUse" x="269.97" y="23" width="16" height="17" fill="black">
<rect fill="white" x="269.97" y="23" width="16" height="17"/>
<path fill-rule="evenodd" clip-rule="evenodd" d="M277.513 29.9988V25.5662L275.249 27.8414C275.071 28.0205 274.782 28.0205 274.603 27.8414C274.425 27.6622 274.425 27.3718 274.603 27.1926L277.647 24.1344C277.825 23.9552 278.114 23.9552 278.293 24.1344L281.336 27.1926C281.514 27.3718 281.514 27.6622 281.336 27.8414C281.158 28.0205 280.869 28.0205 280.69 27.8414L278.426 25.5662V29.9988H279.97C280.851 30.1847 281.601 30.8295 281.85 31.7948L283.161 31.4733L284.054 30.1597C284.207 29.9341 284.517 29.8731 284.747 30.0237C284.977 30.1738 285.039 30.4785 284.886 30.7038L283.886 32.1751C283.817 32.2768 283.712 32.3492 283.591 32.3789L281.922 32.7881C281.905 33.1604 281.883 33.5221 281.852 33.8648H283.47C283.637 33.8648 283.793 33.9467 283.886 34.0832L284.886 35.5545C285.039 35.7798 284.977 36.0845 284.747 36.2346C284.518 36.3845 284.207 36.3242 284.054 36.0986L283.202 34.8457H281.732C281.665 35.281 281.579 35.6856 281.471 36.0552L282.747 36.8898C282.886 36.9808 282.97 37.1339 282.97 37.2978V39.2596C282.97 39.5305 282.746 39.75 282.47 39.75C282.194 39.75 281.97 39.5305 281.97 39.2596V37.5602L281.105 36.9949C280.524 38.1335 279.563 38.7691 277.97 38.7691C276.376 38.7691 275.415 38.1335 274.834 36.9951L273.97 37.5602V39.2596C273.97 39.5305 273.746 39.75 273.47 39.75C273.194 39.75 272.97 39.5305 272.97 39.2596V37.2978C272.97 37.1339 273.053 36.9808 273.192 36.8898L274.468 36.0554C274.36 35.6856 274.274 35.281 274.207 34.8457H272.737L271.886 36.0986C271.732 36.3242 271.421 36.3845 271.192 36.2346C270.963 36.0845 270.901 35.7798 271.054 35.5545L272.054 34.0832C272.146 33.9467 272.303 33.8648 272.47 33.8648H274.087C274.056 33.5221 274.035 33.1604 274.017 32.7881L272.348 32.3789C272.228 32.3492 272.123 32.2766 272.054 32.1751L271.054 30.7038C270.901 30.4785 270.963 30.1738 271.192 30.0237C271.421 29.8731 271.732 29.9341 271.886 30.1597L272.779 31.4733L274.09 31.7948C274.341 30.822 275.096 30.1832 275.97 29.9988H277.513ZM279.44 30.9222H278.47V37.7556C280.178 37.5452 280.798 36.151 280.937 32.4582C280.969 31.6171 280.29 30.9222 279.44 30.9222ZM275.002 32.4579C274.97 31.6179 275.648 30.9222 276.499 30.9222H277.469V37.7556C275.76 37.5452 275.141 36.1509 275.002 32.4579Z"/>
</mask>
<path fill-rule="evenodd" clip-rule="evenodd" d="M277.513 29.9988V25.5662L275.249 27.8414C275.071 28.0205 274.782 28.0205 274.603 27.8414C274.425 27.6622 274.425 27.3718 274.603 27.1926L277.647 24.1344C277.825 23.9552 278.114 23.9552 278.293 24.1344L281.336 27.1926C281.514 27.3718 281.514 27.6622 281.336 27.8414C281.158 28.0205 280.869 28.0205 280.69 27.8414L278.426 25.5662V29.9988H279.97C280.851 30.1847 281.601 30.8295 281.85 31.7948L283.161 31.4733L284.054 30.1597C284.207 29.9341 284.517 29.8731 284.747 30.0237C284.977 30.1738 285.039 30.4785 284.886 30.7038L283.886 32.1751C283.817 32.2768 283.712 32.3492 283.591 32.3789L281.922 32.7881C281.905 33.1604 281.883 33.5221 281.852 33.8648H283.47C283.637 33.8648 283.793 33.9467 283.886 34.0832L284.886 35.5545C285.039 35.7798 284.977 36.0845 284.747 36.2346C284.518 36.3845 284.207 36.3242 284.054 36.0986L283.202 34.8457H281.732C281.665 35.281 281.579 35.6856 281.471 36.0552L282.747 36.8898C282.886 36.9808 282.97 37.1339 282.97 37.2978V39.2596C282.97 39.5305 282.746 39.75 282.47 39.75C282.194 39.75 281.97 39.5305 281.97 39.2596V37.5602L281.105 36.9949C280.524 38.1335 279.563 38.7691 277.97 38.7691C276.376 38.7691 275.415 38.1335 274.834 36.9951L273.97 37.5602V39.2596C273.97 39.5305 273.746 39.75 273.47 39.75C273.194 39.75 272.97 39.5305 272.97 39.2596V37.2978C272.97 37.1339 273.053 36.9808 273.192 36.8898L274.468 36.0554C274.36 35.6856 274.274 35.281 274.207 34.8457H272.737L271.886 36.0986C271.732 36.3242 271.421 36.3845 271.192 36.2346C270.963 36.0845 270.901 35.7798 271.054 35.5545L272.054 34.0832C272.146 33.9467 272.303 33.8648 272.47 33.8648H274.087C274.056 33.5221 274.035 33.1604 274.017 32.7881L272.348 32.3789C272.228 32.3492 272.123 32.2766 272.054 32.1751L271.054 30.7038C270.901 30.4785 270.963 30.1738 271.192 30.0237C271.421 29.8731 271.732 29.9341 271.886 30.1597L272.779 31.4733L274.09 31.7948C274.341 30.822 275.096 30.1832 275.97 29.9988H277.513ZM279.44 30.9222H278.47V37.7556C280.178 37.5452 280.798 36.151 280.937 32.4582C280.969 31.6171 280.29 30.9222 279.44 30.9222ZM275.002 32.4579C274.97 31.6179 275.648 30.9222 276.499 30.9222H277.469V37.7556C275.76 37.5452 275.141 36.1509 275.002 32.4579Z" fill="#D5D7D8"/>
<path d="M277.513 25.5662H277.663V25.2029L277.407 25.4604L277.513 25.5662ZM277.513 29.9988V30.1488H277.663V29.9988H277.513ZM275.249 27.8414L275.143 27.7356L275.249 27.8414ZM274.603 27.8414L274.497 27.9472V27.9472L274.603 27.8414ZM274.603 27.1926L274.497 27.0868L274.603 27.1926ZM277.647 24.1344L277.753 24.2402V24.2402L277.647 24.1344ZM278.293 24.1344L278.186 24.2402V24.2402L278.293 24.1344ZM281.336 27.1926L281.442 27.0868V27.0868L281.336 27.1926ZM281.336 27.8414L281.442 27.9472V27.9472L281.336 27.8414ZM280.69 27.8414L280.797 27.7356L280.69 27.8414ZM278.426 25.5662L278.533 25.4604L278.276 25.2029V25.5662H278.426ZM278.426 29.9988H278.276V30.1488H278.426V29.9988ZM279.97 29.9988L280.001 29.8521L279.985 29.8488H279.97V29.9988ZM281.85 31.7948L281.705 31.8323L281.742 31.9758L281.885 31.9405L281.85 31.7948ZM283.161 31.4733L283.197 31.6189L283.253 31.6052L283.285 31.5576L283.161 31.4733ZM284.054 30.1597L284.178 30.244L284.178 30.244L284.054 30.1597ZM284.747 30.0237L284.665 30.1492L284.665 30.1493L284.747 30.0237ZM284.886 30.7038L285.01 30.7881L285.01 30.788L284.886 30.7038ZM283.886 32.1751L283.762 32.0908L283.762 32.0908L283.886 32.1751ZM283.591 32.3789L283.627 32.5246L283.627 32.5246L283.591 32.3789ZM281.922 32.7881L281.887 32.6424L281.778 32.6691L281.772 32.7811L281.922 32.7881ZM281.852 33.8648L281.703 33.8513L281.688 34.0148H281.852V33.8648ZM283.886 34.0832L284.01 33.9989L284.01 33.9988L283.886 34.0832ZM284.886 35.5545L285.01 35.4702L285.01 35.4702L284.886 35.5545ZM284.747 36.2346L284.665 36.109L284.665 36.1091L284.747 36.2346ZM284.054 36.0986L283.93 36.1829L283.93 36.1829L284.054 36.0986ZM283.202 34.8457L283.326 34.7613L283.282 34.6957H283.202V34.8457ZM281.732 34.8457V34.6957H281.603L281.584 34.8228L281.732 34.8457ZM281.471 36.0552L281.327 36.013L281.296 36.1198L281.389 36.1808L281.471 36.0552ZM282.747 36.8898L282.829 36.7643L282.829 36.7643L282.747 36.8898ZM281.97 37.5602H282.12V37.4791L282.052 37.4347L281.97 37.5602ZM281.105 36.9949L281.187 36.8694L281.048 36.7779L280.972 36.9267L281.105 36.9949ZM274.834 36.9951L274.967 36.9269L274.892 36.7781L274.752 36.8695L274.834 36.9951ZM273.97 37.5602L273.888 37.4347L273.82 37.4791V37.5602H273.97ZM273.192 36.8898L273.11 36.7643L273.11 36.7643L273.192 36.8898ZM274.468 36.0554L274.55 36.1809L274.643 36.12L274.612 36.0132L274.468 36.0554ZM274.207 34.8457L274.356 34.8228L274.336 34.6957H274.207V34.8457ZM272.737 34.8457V34.6957H272.658L272.613 34.7613L272.737 34.8457ZM271.886 36.0986L272.01 36.1829L272.01 36.1829L271.886 36.0986ZM271.192 36.2346L271.274 36.1091L271.274 36.109L271.192 36.2346ZM271.054 35.5545L270.93 35.4702L270.93 35.4702L271.054 35.5545ZM272.054 34.0832L271.93 33.9988L271.93 33.9989L272.054 34.0832ZM274.087 33.8648V34.0148H274.251L274.236 33.8513L274.087 33.8648ZM274.017 32.7881L274.167 32.7811L274.162 32.6691L274.053 32.6424L274.017 32.7881ZM272.348 32.3789L272.312 32.5246L272.313 32.5246L272.348 32.3789ZM272.054 32.1751L271.93 32.2594L271.93 32.2595L272.054 32.1751ZM271.054 30.7038L270.93 30.788L270.93 30.7881L271.054 30.7038ZM271.192 30.0237L271.274 30.1493L271.275 30.1491L271.192 30.0237ZM271.886 30.1597L272.01 30.0754L272.01 30.0753L271.886 30.1597ZM272.779 31.4733L272.654 31.5576L272.687 31.6052L272.743 31.6189L272.779 31.4733ZM274.09 31.7948L274.054 31.9405L274.198 31.9758L274.235 31.8323L274.09 31.7948ZM275.97 29.9988V29.8488H275.954L275.939 29.8521L275.97 29.9988ZM278.47 30.9222V30.7722H278.32V30.9222H278.47ZM278.47 37.7556H278.32V37.9252L278.488 37.9045L278.47 37.7556ZM280.937 32.4582L281.087 32.4639V32.4639L280.937 32.4582ZM275.002 32.4579L275.152 32.4523L275.152 32.4522L275.002 32.4579ZM277.469 30.9222H277.619V30.7722H277.469V30.9222ZM277.469 37.7556L277.451 37.9045L277.619 37.9252V37.7556H277.469ZM277.363 25.5662V29.9988H277.663V25.5662H277.363ZM275.355 27.9472L277.62 25.672L277.407 25.4604L275.143 27.7356L275.355 27.9472ZM274.497 27.9472C274.734 28.1852 275.118 28.1852 275.355 27.9472L275.143 27.7356C275.023 27.8558 274.829 27.8558 274.71 27.7356L274.497 27.9472ZM274.497 27.0868C274.261 27.3245 274.261 27.7095 274.497 27.9472L274.71 27.7356C274.59 27.6149 274.59 27.4191 274.71 27.2984L274.497 27.0868ZM277.541 24.0286L274.497 27.0868L274.71 27.2984L277.753 24.2402L277.541 24.0286ZM278.399 24.0286C278.162 23.7905 277.778 23.7905 277.541 24.0286L277.753 24.2402C277.873 24.1199 278.067 24.1199 278.186 24.2402L278.399 24.0286ZM281.442 27.0868L278.399 24.0286L278.186 24.2402L281.23 27.2984L281.442 27.0868ZM281.442 27.9472C281.679 27.7095 281.679 27.3245 281.442 27.0868L281.23 27.2984C281.35 27.4191 281.35 27.6149 281.23 27.7356L281.442 27.9472ZM280.584 27.9472C280.821 28.1852 281.205 28.1852 281.442 27.9472L281.23 27.7356C281.11 27.8558 280.916 27.8558 280.797 27.7356L280.584 27.9472ZM278.32 25.672L280.584 27.9472L280.797 27.7356L278.533 25.4604L278.32 25.672ZM278.576 29.9988V25.5662H278.276V29.9988H278.576ZM279.97 29.8488H278.426V30.1488H279.97V29.8488ZM281.995 31.7574C281.731 30.7334 280.934 30.049 280.001 29.8521L279.939 30.1456C280.768 30.3205 281.471 30.9255 281.705 31.8323L281.995 31.7574ZM283.125 31.3276L281.814 31.6491L281.885 31.9405L283.197 31.6189L283.125 31.3276ZM283.93 30.0754L283.037 31.3889L283.285 31.5576L284.178 30.244L283.93 30.0754ZM284.829 29.8982C284.532 29.7033 284.13 29.7814 283.93 30.0754L284.178 30.244C284.285 30.0869 284.503 30.0429 284.665 30.1492L284.829 29.8982ZM285.01 30.788C285.211 30.4926 285.128 30.0936 284.829 29.8981L284.665 30.1493C284.825 30.254 284.867 30.4644 284.762 30.6195L285.01 30.788ZM284.01 32.2594L285.01 30.7881L284.762 30.6194L283.762 32.0908L284.01 32.2594ZM283.627 32.5246C283.783 32.4861 283.92 32.3922 284.01 32.2593L283.762 32.0908C283.714 32.1613 283.641 32.2122 283.555 32.2333L283.627 32.5246ZM281.958 32.9338L283.627 32.5246L283.555 32.2332L281.887 32.6424L281.958 32.9338ZM282.002 33.8782C282.033 33.5326 282.055 33.1685 282.072 32.7951L281.772 32.7811C281.755 33.1522 281.734 33.5117 281.703 33.8513L282.002 33.8782ZM283.47 33.7148H281.852V34.0148H283.47V33.7148ZM284.01 33.9988C283.889 33.8206 283.686 33.7148 283.47 33.7148V34.0148C283.588 34.0148 283.697 34.0727 283.762 34.1675L284.01 33.9988ZM285.01 35.4702L284.01 33.9989L283.762 34.1675L284.762 35.6388L285.01 35.4702ZM284.829 36.3601C285.128 36.1647 285.211 35.7657 285.01 35.4702L284.762 35.6388C284.867 35.7939 284.825 36.0043 284.665 36.109L284.829 36.3601ZM283.93 36.1829C284.13 36.477 284.533 36.5542 284.829 36.3601L284.665 36.1091C284.504 36.2148 284.285 36.1713 284.178 36.0142L283.93 36.1829ZM283.078 34.93L283.93 36.1829L284.178 36.0142L283.326 34.7613L283.078 34.93ZM281.732 34.9957H283.202V34.6957H281.732V34.9957ZM281.615 36.0975C281.726 35.7201 281.812 35.3087 281.88 34.8685L281.584 34.8228C281.517 35.2533 281.433 35.6512 281.327 36.013L281.615 36.0975ZM282.829 36.7643L281.553 35.9297L281.389 36.1808L282.665 37.0153L282.829 36.7643ZM283.12 37.2978C283.12 37.0824 283.01 36.8826 282.829 36.7643L282.665 37.0153C282.763 37.0791 282.82 37.1853 282.82 37.2978H283.12ZM283.12 39.2596V37.2978H282.82V39.2596H283.12ZM282.47 39.9C282.826 39.9 283.12 39.616 283.12 39.2596H282.82C282.82 39.4449 282.666 39.6 282.47 39.6V39.9ZM281.82 39.2596C281.82 39.616 282.114 39.9 282.47 39.9V39.6C282.274 39.6 282.12 39.4449 282.12 39.2596H281.82ZM281.82 37.5602V39.2596H282.12V37.5602H281.82ZM281.023 37.1205L281.888 37.6858L282.052 37.4347L281.187 36.8694L281.023 37.1205ZM277.97 38.9191C278.786 38.9191 279.453 38.7562 279.993 38.4383C280.534 38.12 280.938 37.6529 281.239 37.0631L280.972 36.9267C280.692 37.4755 280.324 37.8955 279.841 38.1797C279.357 38.4643 278.747 38.6191 277.97 38.6191V38.9191ZM274.7 37.0632C275.001 37.653 275.405 38.1201 275.946 38.4383C276.486 38.7562 277.153 38.9191 277.97 38.9191V38.6191C277.193 38.6191 276.582 38.4643 276.098 38.1797C275.615 37.8955 275.247 37.4756 274.967 36.9269L274.7 37.0632ZM274.052 37.6858L274.916 37.1206L274.752 36.8695L273.888 37.4347L274.052 37.6858ZM274.12 39.2596V37.5602H273.82V39.2596H274.12ZM273.47 39.9C273.826 39.9 274.12 39.616 274.12 39.2596H273.82C273.82 39.4449 273.666 39.6 273.47 39.6V39.9ZM272.82 39.2596C272.82 39.616 273.113 39.9 273.47 39.9V39.6C273.274 39.6 273.12 39.4449 273.12 39.2596H272.82ZM272.82 37.2978V39.2596H273.12V37.2978H272.82ZM273.11 36.7643C272.929 36.8826 272.82 37.0824 272.82 37.2978H273.12C273.12 37.1853 273.177 37.0791 273.274 37.0153L273.11 36.7643ZM274.386 35.9299L273.11 36.7643L273.274 37.0153L274.55 36.1809L274.386 35.9299ZM274.059 34.8685C274.127 35.3087 274.213 35.7201 274.324 36.0976L274.612 36.0132C274.506 35.6512 274.422 35.2533 274.356 34.8228L274.059 34.8685ZM272.737 34.9957H274.207V34.6957H272.737V34.9957ZM272.01 36.1829L272.861 34.93L272.613 34.7613L271.762 36.0142L272.01 36.1829ZM271.11 36.3601C271.407 36.5542 271.81 36.4771 272.01 36.1829L271.762 36.0142C271.655 36.1712 271.436 36.2148 271.274 36.1091L271.11 36.3601ZM270.93 35.4702C270.729 35.7657 270.811 36.1647 271.11 36.3601L271.274 36.109C271.114 36.0043 271.072 35.7939 271.178 35.6388L270.93 35.4702ZM271.93 33.9989L270.93 35.4702L271.178 35.6388L272.178 34.1675L271.93 33.9989ZM272.47 33.7148C272.254 33.7148 272.051 33.8206 271.93 33.9988L272.178 34.1675C272.242 34.0727 272.351 34.0148 272.47 34.0148V33.7148ZM274.087 33.7148H272.47V34.0148H274.087V33.7148ZM273.867 32.7951C273.885 33.1684 273.906 33.5326 273.937 33.8782L274.236 33.8513C274.206 33.5117 274.184 33.1523 274.167 32.7811L273.867 32.7951ZM272.313 32.5246L273.981 32.9338L274.053 32.6424L272.384 32.2332L272.313 32.5246ZM271.93 32.2595C272.02 32.3919 272.156 32.4861 272.312 32.5246L272.384 32.2333C272.299 32.2123 272.226 32.1612 272.178 32.0906L271.93 32.2595ZM270.93 30.7881L271.93 32.2594L272.178 32.0908L271.178 30.6194L270.93 30.7881ZM271.11 29.8981C270.811 30.0936 270.729 30.4926 270.93 30.788L271.178 30.6195C271.072 30.4644 271.114 30.254 271.274 30.1493L271.11 29.8981ZM272.01 30.0753C271.81 29.7815 271.407 29.7031 271.11 29.8983L271.275 30.1491C271.436 30.0431 271.655 30.0867 271.762 30.2441L272.01 30.0753ZM272.903 31.3889L272.01 30.0754L271.762 30.244L272.654 31.5576L272.903 31.3889ZM274.125 31.6491L272.814 31.3276L272.743 31.6189L274.054 31.9405L274.125 31.6491ZM275.939 29.8521C275.013 30.0474 274.211 30.7254 273.944 31.7573L274.235 31.8323C274.471 30.9185 275.179 30.3191 276.001 30.1456L275.939 29.8521ZM277.513 29.8488H275.97V30.1488H277.513V29.8488ZM278.47 31.0722H279.44V30.7722H278.47V31.0722ZM278.62 37.7556V30.9222H278.32V37.7556H278.62ZM280.787 32.4526C280.718 34.2978 280.528 35.543 280.156 36.35C279.971 36.75 279.744 37.0371 279.468 37.237C279.193 37.4369 278.859 37.5565 278.451 37.6067L278.488 37.9045C278.934 37.8495 279.319 37.7159 279.645 37.4798C279.97 37.2438 280.227 36.9121 280.428 36.4756C280.828 35.6098 281.017 34.3115 281.087 32.4639L280.787 32.4526ZM279.44 31.0722C280.207 31.0722 280.816 31.6983 280.787 32.4526L281.087 32.4639C281.122 31.536 280.373 30.7722 279.44 30.7722V31.0722ZM276.499 30.7722C275.564 30.7722 274.817 31.5369 274.852 32.4635L275.152 32.4522C275.124 31.6989 275.731 31.0722 276.499 31.0722V30.7722ZM277.469 30.7722H276.499V31.0722H277.469V30.7722ZM277.619 37.7556V30.9222H277.319V37.7556H277.619ZM274.852 32.4635C274.922 34.3112 275.111 35.6096 275.511 36.4755C275.712 36.912 275.969 37.2437 276.294 37.4798C276.62 37.7159 277.005 37.8495 277.451 37.9045L277.488 37.6067C277.08 37.5565 276.746 37.4369 276.47 37.237C276.195 37.037 275.968 36.7499 275.783 36.3499C275.411 35.5428 275.221 34.2976 275.152 32.4523L274.852 32.4635Z" fill="#D5D7D8" mask="url(#path-24-outside-1_6018_19126)"/>
</g>
<defs>
<filter id="filter0_d_6018_19126" x="-15.0303" y="-11.1716" width="364" height="409.172" filterUnits="userSpaceOnUse" color-interpolation-filters="sRGB">
<feFlood flood-opacity="0" result="BackgroundImageFix"/>
<feColorMatrix in="SourceAlpha" type="matrix" values="0 0 0 0 0 0 0 0 0 0 0 0 0 0 0 0 0 0 127 0" result="hardAlpha"/>
<feOffset dy="4"/>
<feGaussianBlur stdDeviation="8"/>
<feColorMatrix type="matrix" values="0 0 0 0 0 0 0 0 0 0 0 0 0 0 0 0 0 0 0.25 0"/>
<feBlend mode="normal" in2="BackgroundImageFix" result="effect1_dropShadow_6018_19126"/>
<feBlend mode="normal" in="SourceGraphic" in2="effect1_dropShadow_6018_19126" result="shape"/>
</filter>
<filter id="filter1_d_6018_19126" x="157.436" y="170.603" width="68.1641" height="68.1644" filterUnits="userSpaceOnUse" color-interpolation-filters="sRGB">
<feFlood flood-opacity="0" result="BackgroundImageFix"/>
<feColorMatrix in="SourceAlpha" type="matrix" values="0 0 0 0 0 0 0 0 0 0 0 0 0 0 0 0 0 0 127 0" result="hardAlpha"/>
<feOffset dy="3"/>
<feGaussianBlur stdDeviation="4"/>
<feColorMatrix type="matrix" values="0 0 0 0 0 0 0 0 0 0 0 0 0 0 0 0 0 0 0.33857 0"/>
<feBlend mode="normal" in2="BackgroundImageFix" result="effect1_dropShadow_6018_19126"/>
<feBlend mode="normal" in="SourceGraphic" in2="effect1_dropShadow_6018_19126" result="shape"/>
</filter>
<filter id="filter2_bi_6018_19126" x="-11.0303" y="-11.1716" width="356" height="80.1716" filterUnits="userSpaceOnUse" color-interpolation-filters="sRGB">
<feFlood flood-opacity="0" result="BackgroundImageFix"/>
<feGaussianBlur in="BackgroundImage" stdDeviation="6"/>
<feComposite in2="SourceAlpha" operator="in" result="effect1_backgroundBlur_6018_19126"/>
<feBlend mode="normal" in="SourceGraphic" in2="effect1_backgroundBlur_6018_19126" result="shape"/>
<feColorMatrix in="SourceAlpha" type="matrix" values="0 0 0 0 0 0 0 0 0 0 0 0 0 0 0 0 0 0 127 0" result="hardAlpha"/>
<feOffset dy="-0.6"/>
<feGaussianBlur stdDeviation="0.2"/>
<feComposite in2="hardAlpha" operator="arithmetic" k2="-1" k3="1"/>
<feColorMatrix type="matrix" values="0 0 0 0 1 0 0 0 0 1 0 0 0 0 1 0 0 0 0.130803 0"/>
<feBlend mode="normal" in2="shape" result="effect2_innerShadow_6018_19126"/>
</filter>
<linearGradient id="paint0_linear_6018_19126" x1="191.518" y1="175.603" x2="191.518" y2="227.767" gradientUnits="userSpaceOnUse">
<stop stop-color="white"/>
<stop offset="1" stop-color="white" stop-opacity="0"/>
</linearGradient>
<linearGradient id="paint1_linear_6018_19126" x1="191.518" y1="175.603" x2="191.518" y2="227.767" gradientUnits="userSpaceOnUse">
<stop stop-color="white"/>
<stop offset="1" stop-color="white" stop-opacity="0"/>
</linearGradient>
<clipPath id="clip0_6018_19126">
<rect x="0.969727" width="332" height="378" rx="12" fill="white"/>
</clipPath>
<clipPath id="clip1_6018_19126">
<rect width="16" height="16" fill="white" transform="translate(300.97 24)"/>
</clipPath>
</defs>
</svg>
