<svg width="544" height="400" viewBox="0 0 544 400" fill="none" xmlns="http://www.w3.org/2000/svg">
<g clip-path="url(#clip0_6003_17354)">
<g clip-path="url(#clip1_6003_17354)">
<g filter="url(#filter0_bd_6003_17354)">
<rect x="-500" width="1160" height="22" fill="#525252" fill-opacity="0.85" style="mix-blend-mode:hard-light"/>
</g>
<path d="M473.766 16V7.45508H476.863V6.13574H469.131V7.45508H472.235V16H473.766ZM483.781 8.57617H482.312V12.9307C482.312 14.127 481.662 14.8516 480.473 14.8516C479.393 14.8516 478.907 14.2637 478.907 13.0332V8.57617H477.438V13.3955C477.438 15.1387 478.354 16.1436 480.001 16.1436C481.129 16.1436 481.888 15.665 482.25 14.8242H482.366V16H483.781V8.57617ZM490.645 14.0107C490.371 14.6123 489.763 14.9404 488.874 14.9404C487.699 14.9404 486.94 14.0928 486.892 12.7461V12.6777H492.149V12.1719C492.149 9.84766 490.898 8.43262 488.827 8.43262C486.728 8.43262 485.395 9.94336 485.395 12.3018C485.395 14.6738 486.701 16.1436 488.833 16.1436C490.536 16.1436 491.739 15.3232 492.06 14.0107H490.645ZM488.82 9.62891C489.907 9.62891 490.618 10.415 490.652 11.6182H486.892C486.974 10.4219 487.733 9.62891 488.82 9.62891ZM499.806 16H501.337V6.13574H499.813L497.215 7.98145V9.48535L499.69 7.71484H499.806V16ZM506.423 16H507.955V6.13574H506.43L503.833 7.98145V9.48535L506.307 7.71484H506.423V16ZM511.817 9.48535C512.398 9.48535 512.822 9.04785 512.822 8.50098C512.822 7.94043 512.398 7.50977 511.817 7.50977C511.243 7.50977 510.812 7.94043 510.812 8.50098C510.812 9.04785 511.243 9.48535 511.817 9.48535ZM511.817 14.6191C512.398 14.6191 512.822 14.1816 512.822 13.6279C512.822 13.0742 512.398 12.6436 511.817 12.6436C511.243 12.6436 510.812 13.0742 510.812 13.6279C510.812 14.1816 511.243 14.6191 511.817 14.6191ZM517.307 16H518.838V6.13574H517.314L514.716 7.98145V9.48535L517.191 7.71484H517.307V16ZM523.925 16H525.456V6.13574H523.931L521.334 7.98145V9.48535L523.808 7.71484H523.925V16ZM538.411 16H540.038L536.476 6.13574H534.829L531.267 16H532.839L533.749 13.334H537.508L538.411 16ZM535.574 7.87891H535.69L537.119 12.1035H534.138L535.574 7.87891ZM551.591 16V6.13574H549.8L546.655 13.8535H546.539L543.401 6.13574H541.61V16H543.032V8.77441H543.128L546.02 15.8223H547.182L550.073 8.77441H550.169V16H551.591Z" fill="white"/>
<path fill-rule="evenodd" clip-rule="evenodd" d="M451.154 3.564L451.953 3C453.857 5.04 455.036 7.851 455.036 10.956C455.036 14.061 453.857 16.872 451.953 18.911L451.154 18.347C452.97 16.477 454.104 13.859 454.104 10.956C454.104 8.052 452.97 5.435 451.154 3.564ZM437.077 8H440.318L443.412 5H443.646V17H443.412L440.318 14H437.077C436.559 14 436.139 13.552 436.139 13V9C436.139 8.448 436.559 8 437.077 8ZM449.111 5L448.339 5.546C449.594 6.929 450.37 8.809 450.37 10.884C450.37 12.96 449.594 14.84 448.339 16.223L449.111 16.769C450.457 15.223 451.287 13.159 451.287 10.884C451.287 8.609 450.457 6.546 449.111 5ZM446.666 10.927C446.666 9.662 446.226 8.518 445.523 7.616L446.395 7C447.202 8.077 447.688 9.44 447.688 10.927C447.688 12.412 447.202 13.776 446.395 14.853L445.523 14.237C446.226 13.335 446.666 12.191 446.666 10.927Z" fill="white"/>
<path fill-rule="evenodd" clip-rule="evenodd" d="M424.595 8.188C422.345 5.767 419.224 4.265 415.774 4.265C412.323 4.265 409.202 5.767 406.952 8.188L406.107 7.273C408.506 4.7 411.805 3.09 415.457 3H416.09C419.742 3.09 423.041 4.7 425.44 7.273L424.595 8.188ZM416.385 15C417.116 15 417.765 15.346 418.216 15.886L416.385 17.87L414.554 15.886C415.004 15.346 415.654 15 416.385 15ZM415.945 8.287C418.366 8.287 420.551 9.349 422.121 11.057L422.968 10.14C421.18 8.204 418.696 7 415.945 7C413.195 7 410.711 8.204 408.923 10.14L409.769 11.057C411.339 9.349 413.525 8.287 415.945 8.287ZM419.655 13.921C418.766 12.924 417.517 12.296 416.125 12.296C414.734 12.296 413.485 12.924 412.596 13.921L411.738 12.992C412.847 11.766 414.402 11 416.125 11C417.849 11 419.404 11.766 420.513 12.992L419.655 13.921Z" fill="white"/>
<path fill-rule="evenodd" clip-rule="evenodd" d="M380.3 17.664V18H390.623V17.664L385.461 11.25L380.3 17.664ZM377.016 4V14H380.769L381.623 13H377.954V5H392.969V13H389.301L390.154 14H393.908V4H377.016Z" fill="white"/>
<g style="mix-blend-mode:hard-light">
<path fill-rule="evenodd" clip-rule="evenodd" d="M357.509 15.2698C357.657 14.7633 357.6 14.299 357.354 13.9544C357.129 13.6378 356.749 13.4549 356.292 13.4338L347.633 13.3213C347.577 13.3213 347.528 13.2931 347.499 13.251C347.471 13.2088 347.464 13.1524 347.478 13.0962C347.507 13.0117 347.591 12.9485 347.682 12.9414L356.419 12.8289C357.453 12.7797 358.578 11.9426 358.972 10.9157L359.471 9.61435C359.493 9.55808 359.5 9.50181 359.486 9.44554C358.923 6.8992 356.651 5 353.936 5C351.432 5 349.307 6.61784 348.548 8.86164C348.055 8.49594 347.429 8.29891 346.754 8.36229C345.551 8.48187 344.587 9.44554 344.468 10.6484C344.44 10.9579 344.461 11.2603 344.531 11.5417C342.569 11.598 341 13.2017 341 15.1782C341 15.3541 341.014 15.5299 341.035 15.7058C341.049 15.7902 341.12 15.8536 341.204 15.8536H357.185C357.277 15.8536 357.361 15.7902 357.389 15.6988L357.509 15.2698Z" fill="white"/>
<path fill-rule="evenodd" clip-rule="evenodd" d="M357.509 15.2698C357.657 14.7633 357.6 14.299 357.354 13.9544C357.129 13.6378 356.749 13.4549 356.292 13.4338L347.633 13.3213C347.577 13.3213 347.528 13.2931 347.499 13.251C347.471 13.2088 347.464 13.1524 347.478 13.0962C347.507 13.0117 347.591 12.9485 347.682 12.9414L356.419 12.8289C357.453 12.7797 358.578 11.9426 358.972 10.9157L359.471 9.61435C359.493 9.55808 359.5 9.50181 359.486 9.44554C358.923 6.8992 356.651 5 353.936 5C351.432 5 349.307 6.61784 348.548 8.86164C348.055 8.49594 347.429 8.29891 346.754 8.36229C345.551 8.48187 344.587 9.44554 344.468 10.6484C344.44 10.9579 344.461 11.2603 344.531 11.5417C342.569 11.598 341 13.2017 341 15.1782C341 15.3541 341.014 15.5299 341.035 15.7058C341.049 15.7902 341.12 15.8536 341.204 15.8536H357.185C357.277 15.8536 357.361 15.7902 357.389 15.6988L357.509 15.2698Z" fill="url(#paint0_linear_6003_17354)"/>
<path fill-rule="evenodd" clip-rule="evenodd" d="M357.509 15.2698C357.657 14.7633 357.6 14.299 357.354 13.9544C357.129 13.6378 356.749 13.4549 356.292 13.4338L347.633 13.3213C347.577 13.3213 347.528 13.2931 347.499 13.251C347.471 13.2088 347.464 13.1524 347.478 13.0962C347.507 13.0117 347.591 12.9485 347.682 12.9414L356.419 12.8289C357.453 12.7797 358.578 11.9426 358.972 10.9157L359.471 9.61435C359.493 9.55808 359.5 9.50181 359.486 9.44554C358.923 6.8992 356.651 5 353.936 5C351.432 5 349.307 6.61784 348.548 8.86164C348.055 8.49594 347.429 8.29891 346.754 8.36229C345.551 8.48187 344.587 9.44554 344.468 10.6484C344.44 10.9579 344.461 11.2603 344.531 11.5417C342.569 11.598 341 13.2017 341 15.1782C341 15.3541 341.014 15.5299 341.035 15.7058C341.049 15.7902 341.12 15.8536 341.204 15.8536H357.185C357.277 15.8536 357.361 15.7902 357.389 15.6988L357.509 15.2698Z" fill="url(#paint1_linear_6003_17354)"/>
<path fill-rule="evenodd" clip-rule="evenodd" d="M360.265 9.70581C360.188 9.70581 360.104 9.70581 360.026 9.71284C359.97 9.71284 359.921 9.75505 359.9 9.81132L359.562 10.986C359.414 11.4925 359.471 11.9567 359.717 12.3014C359.942 12.6179 360.322 12.8008 360.779 12.8219L362.622 12.9345C362.678 12.9345 362.727 12.9626 362.755 13.0048C362.784 13.047 362.791 13.1103 362.777 13.1595C362.748 13.244 362.664 13.3073 362.573 13.3143L360.652 13.4268C359.611 13.4761 358.493 14.3131 358.099 15.3402L357.958 15.6988C357.93 15.7692 357.979 15.8395 358.057 15.8395H364.655C364.732 15.8395 364.802 15.7903 364.823 15.7129C364.936 15.305 364.999 14.8759 364.999 14.4327C364.999 11.8301 362.875 9.70581 360.265 9.70581" fill="white"/>
<path fill-rule="evenodd" clip-rule="evenodd" d="M360.265 9.70581C360.188 9.70581 360.104 9.70581 360.026 9.71284C359.97 9.71284 359.921 9.75505 359.9 9.81132L359.562 10.986C359.414 11.4925 359.471 11.9567 359.717 12.3014C359.942 12.6179 360.322 12.8008 360.779 12.8219L362.622 12.9345C362.678 12.9345 362.727 12.9626 362.755 13.0048C362.784 13.047 362.791 13.1103 362.777 13.1595C362.748 13.244 362.664 13.3073 362.573 13.3143L360.652 13.4268C359.611 13.4761 358.493 14.3131 358.099 15.3402L357.958 15.6988C357.93 15.7692 357.979 15.8395 358.057 15.8395H364.655C364.732 15.8395 364.802 15.7903 364.823 15.7129C364.936 15.305 364.999 14.8759 364.999 14.4327C364.999 11.8301 362.875 9.70581 360.265 9.70581" fill="url(#paint2_linear_6003_17354)"/>
<path fill-rule="evenodd" clip-rule="evenodd" d="M360.265 9.70581C360.188 9.70581 360.104 9.70581 360.026 9.71284C359.97 9.71284 359.921 9.75505 359.9 9.81132L359.562 10.986C359.414 11.4925 359.471 11.9567 359.717 12.3014C359.942 12.6179 360.322 12.8008 360.779 12.8219L362.622 12.9345C362.678 12.9345 362.727 12.9626 362.755 13.0048C362.784 13.047 362.791 13.1103 362.777 13.1595C362.748 13.244 362.664 13.3073 362.573 13.3143L360.652 13.4268C359.611 13.4761 358.493 14.3131 358.099 15.3402L357.958 15.6988C357.93 15.7692 357.979 15.8395 358.057 15.8395H364.655C364.732 15.8395 364.802 15.7903 364.823 15.7129C364.936 15.305 364.999 14.8759 364.999 14.4327C364.999 11.8301 362.875 9.70581 360.265 9.70581" fill="url(#paint3_linear_6003_17354)"/>
</g>
</g>
</g>
<defs>
<filter id="filter0_bd_6003_17354" x="-543.493" y="-43.4925" width="1246.99" height="108.985" filterUnits="userSpaceOnUse" color-interpolation-filters="sRGB">
<feFlood flood-opacity="0" result="BackgroundImageFix"/>
<feGaussianBlur in="BackgroundImage" stdDeviation="21.7463"/>
<feComposite in2="SourceAlpha" operator="in" result="effect1_backgroundBlur_6003_17354"/>
<feColorMatrix in="SourceAlpha" type="matrix" values="0 0 0 0 0 0 0 0 0 0 0 0 0 0 0 0 0 0 127 0" result="hardAlpha"/>
<feOffset dy="1"/>
<feColorMatrix type="matrix" values="0 0 0 0 0 0 0 0 0 0 0 0 0 0 0 0 0 0 0.35 0"/>
<feBlend mode="normal" in2="effect1_backgroundBlur_6003_17354" result="effect2_dropShadow_6003_17354"/>
<feBlend mode="normal" in="SourceGraphic" in2="effect2_dropShadow_6003_17354" result="shape"/>
</filter>
<linearGradient id="paint0_linear_6003_17354" x1="350.246" y1="5" x2="350.246" y2="15.8536" gradientUnits="userSpaceOnUse">
<stop stop-color="white"/>
<stop offset="1" stop-color="white" stop-opacity="0"/>
</linearGradient>
<linearGradient id="paint1_linear_6003_17354" x1="350.246" y1="5" x2="350.246" y2="15.8536" gradientUnits="userSpaceOnUse">
<stop stop-color="white"/>
<stop offset="1" stop-color="white" stop-opacity="0"/>
</linearGradient>
<linearGradient id="paint2_linear_6003_17354" x1="361.475" y1="9.70581" x2="361.475" y2="15.8395" gradientUnits="userSpaceOnUse">
<stop stop-color="white"/>
<stop offset="1" stop-color="white" stop-opacity="0"/>
</linearGradient>
<linearGradient id="paint3_linear_6003_17354" x1="361.475" y1="9.70581" x2="361.475" y2="15.8395" gradientUnits="userSpaceOnUse">
<stop stop-color="white"/>
<stop offset="1" stop-color="white" stop-opacity="0"/>
</linearGradient>
<clipPath id="clip0_6003_17354">
<rect width="544" height="400" fill="white"/>
</clipPath>
<clipPath id="clip1_6003_17354">
<rect width="660" height="22" fill="white"/>
</clipPath>
</defs>
</svg>
