<svg width="375" height="812" viewBox="0 0 375 812" fill="none" xmlns="http://www.w3.org/2000/svg">
<g clip-path="url(#clip0_122_13)">
<rect width="375" height="812" fill="black"/>
<g opacity="0.4">
<path d="M443.613 556.935C422.549 556.9 401.968 550.619 384.474 538.886C366.979 527.154 353.357 510.497 345.329 491.023C337.301 471.548 335.228 450.131 339.373 429.478C343.517 408.826 353.693 389.866 368.613 374.997C383.533 360.127 402.527 350.016 423.193 345.942C443.859 341.867 465.27 344.013 484.717 352.107C504.164 360.201 520.774 373.879 532.447 391.413C544.12 408.947 550.332 429.549 550.296 450.613C550.2 478.845 538.919 505.888 518.922 525.816C498.925 545.745 471.845 556.936 443.613 556.935ZM443.613 345.916C422.913 345.952 402.689 352.122 385.495 363.648C368.302 375.174 354.911 391.538 347.014 410.672C339.117 429.806 337.07 450.852 341.13 471.149C345.19 491.447 355.176 510.085 369.825 524.709C384.474 539.333 403.13 549.287 423.434 553.312C443.739 557.337 464.781 555.253 483.901 547.324C503.021 539.394 519.362 525.975 530.859 508.761C542.355 491.548 548.491 471.313 548.491 450.613C548.443 422.829 537.372 396.2 517.709 376.57C498.046 356.941 471.397 345.916 443.613 345.916V345.916Z" fill="#F9AB41"/>
<path d="M443.613 576.612C374.116 576.612 317.615 520.472 317.615 451.516C317.615 411.081 342.165 380.033 362.924 361.26C389.279 337.251 414.731 326.06 443.613 326.06C472.495 326.06 504.085 339.959 530.62 366.314C557.156 392.669 569.431 420.107 569.431 451.516C569.431 482.925 556.795 507.475 531.162 534.552C505.529 561.629 475.022 576.612 443.613 576.612ZM443.613 327.865C415.273 327.865 390.001 338.876 364.188 362.523C343.79 381.116 319.42 411.623 319.42 451.516C319.42 519.389 375.199 574.806 443.613 574.806C474.661 574.806 503.543 560.907 529.718 533.288C555.892 505.67 567.626 479.857 567.626 451.516C567.626 423.176 555.17 393.21 529.357 367.578C511.125 349.526 481.521 327.865 443.613 327.865V327.865Z" fill="#F9A640"/>
<path d="M443.613 596.287C363.646 596.287 298.48 531.664 298.48 452.418C298.48 407.471 329.89 373.173 353.356 351.331C382.238 324.435 407.33 307.828 443.613 307.828C486.936 307.828 520.331 335.807 541.631 356.747C583.149 397.543 588.565 429.313 588.565 452.418C588.565 492.131 564.195 521.194 541.451 545.202C518.706 569.21 487.116 596.287 443.613 596.287ZM443.613 309.633C407.871 309.633 383.141 326.059 354.62 352.595C305.881 397.904 300.286 431.118 300.286 452.418C300.286 530.761 364.548 594.482 443.613 594.482C486.394 594.482 516.359 568.849 540.187 543.938C564.015 519.028 586.759 491.59 586.759 452.418C586.759 409.456 563.293 380.574 540.368 358.01C517.443 335.446 486.214 309.633 443.613 309.633V309.633Z" fill="#FAA03F"/>
<path d="M443.613 615.783C400.185 616.017 358.44 599.007 327.543 568.488C312.231 553.479 300.078 535.557 291.8 515.778C283.523 495.999 279.288 474.762 279.346 453.321C279.346 406.027 312.741 370.646 343.97 341.403C370.866 315.951 398.665 289.596 443.613 289.596C488.561 289.596 521.955 317.214 552.462 346.999C582.969 376.784 607.699 409.637 607.699 453.321C607.699 497.005 579.539 526.429 552.101 555.311L551.74 555.672C521.775 587.442 490.907 615.783 443.613 615.783ZM443.613 291.401C399.387 291.401 373.032 316.312 345.233 342.667C314.185 371.729 281.151 406.749 281.151 453.321C281.1 474.525 285.29 495.525 293.474 515.086C301.658 534.648 313.671 552.375 328.807 567.225C359.381 597.387 400.665 614.199 443.613 613.977C490.366 613.977 520.692 585.817 550.477 554.589L550.838 554.047C577.914 525.526 605.894 495.922 605.894 453.321C605.894 410.72 584.052 380.213 551.199 348.443C518.345 316.673 486.936 291.401 443.613 291.401V291.401Z" fill="#FA9B3E"/>
<path d="M443.613 635.458C395.147 635.686 348.556 616.739 314.005 582.749C296.922 565.995 283.363 545.993 274.124 523.921C264.886 501.848 260.156 478.151 260.212 454.224C260.212 401.875 299.564 364.509 334.403 331.294L339.458 326.42C370.325 296.997 396.861 271.545 443.613 271.545C490.366 271.545 527.552 302.593 563.474 337.432C599.396 372.271 626.834 402.597 626.834 454.224C626.834 498.63 597.952 528.775 569.972 558.018L562.03 566.322C530.079 600.258 496.865 635.458 443.613 635.458ZM443.613 273.35C397.583 273.35 371.228 298.621 340.721 327.865L335.667 332.738C301.189 365.592 262.018 402.777 262.018 454.224C261.952 477.889 266.63 501.329 275.776 523.156C284.923 544.983 298.351 564.755 315.269 581.305C332.175 598.032 352.211 611.265 374.233 620.247C396.255 629.229 419.831 633.785 443.613 633.653C496.143 633.653 528.996 598.814 560.766 565.058L568.709 556.755C596.327 527.873 625.029 497.908 625.029 454.224C625.029 403.319 596.508 371.729 562.21 338.695C527.913 305.661 490.547 273.35 443.613 273.35Z" fill="#FA963D"/>
<path d="M443.613 655.134C390.062 655.406 338.587 634.44 300.466 596.829C281.585 578.388 266.599 556.343 256.397 532.002C246.196 507.661 240.986 481.519 241.077 455.126C241.077 401.333 281.873 362.343 317.976 328.045L325.016 321.366L335.666 310.896C367.075 280.029 394.333 253.313 443.613 253.313C496.864 253.313 536.757 291.582 571.957 325.337L574.485 327.684C609.685 361.44 645.968 396.279 645.968 455.126C645.968 501.518 615.641 532.566 586.398 562.531C581.705 567.225 577.012 572.098 572.499 576.972L567.083 582.568C532.064 619.754 499.03 655.134 443.613 655.134ZM443.613 255.118C395.055 255.118 368.158 281.653 336.93 312.16C333.5 315.59 329.89 319.2 326.099 322.63C322.308 326.06 321.586 327.143 319.239 329.309C283.498 363.426 242.882 402.236 242.882 455.126C242.798 481.281 247.963 507.188 258.071 531.311C268.179 555.434 283.025 577.283 301.73 595.565C339.528 632.819 390.542 653.588 443.613 653.329C498.308 653.329 531.161 618.31 565.82 581.305L571.055 575.709L584.954 561.268C615.461 530.22 644.162 500.796 644.162 455.126C644.162 397.001 608.06 362.523 573.221 329.128L570.694 326.782C535.674 293.206 496.142 255.118 443.613 255.118V255.118Z" fill="#FB903C"/>
<path d="M443.612 674.63C385.044 674.963 328.721 652.122 286.927 611.089C266.267 590.91 249.869 566.786 238.706 540.151C227.544 513.515 221.843 484.909 221.943 456.029C221.943 400.07 264.724 359.635 302.451 323.713C306.784 319.561 311.297 315.59 315.448 311.438L330.972 296.094C363.465 263.422 391.444 235.081 443.612 235.081C499.03 235.081 540.548 275.155 577.372 310.355L585.315 318.117L587.12 319.742C628.999 359.635 665.102 393.932 665.102 456.029C665.102 504.767 634.415 535.454 601.742 568.127C595.424 574.445 588.925 580.944 582.788 587.442L572.318 598.634C536.035 637.805 501.918 674.63 443.612 674.63ZM443.612 236.886C392.166 236.886 364.367 264.866 332.236 297.358L316.712 312.702L303.715 325.157C266.168 360.537 223.748 400.792 223.748 456.029C223.655 484.672 229.311 513.042 240.38 539.459C251.449 565.877 267.707 589.805 288.191 609.826C329.662 650.501 385.524 673.145 443.612 672.825C501.196 672.825 535.132 636.181 571.055 597.551L581.524 586.178C587.662 579.68 594.16 573.182 600.478 566.864C632.79 534.552 663.297 504.045 663.297 456.029C663.297 394.654 627.374 360.537 585.857 321.186L584.051 319.381L576.109 311.618C539.645 276.599 498.308 236.886 443.612 236.886V236.886Z" fill="#FB8B3B"/>
<path d="M443.613 694.306C380.009 694.613 318.848 669.837 273.389 625.35C250.958 603.425 233.154 577.222 221.031 548.294C208.907 519.365 202.711 488.298 202.809 456.931C202.809 398.445 245.951 358.01 287.65 318.839C294.148 312.882 300.105 307.286 305.882 301.51C311.658 295.733 319.24 288.152 325.557 281.653C359.133 246.995 388.195 217.03 443.613 217.03C499.03 217.03 543.256 257.284 583.51 296.094L596.327 308.55L602.645 314.326C646.329 355.664 684.236 391.405 684.236 456.931C684.236 508.377 651.564 540.328 616.905 574.265C608.963 581.846 600.839 589.969 593.077 598.092L578.095 614.339C540.548 655.495 504.987 694.306 443.613 694.306ZM443.613 218.835C389.098 218.835 360.216 248.439 326.821 282.917C320.503 289.415 314.005 296.094 307.145 302.773C300.286 309.452 295.051 314.326 288.913 320.103C247.576 358.913 204.614 399.167 204.614 456.931C204.523 488.06 210.674 518.892 222.704 547.602C234.734 576.313 252.398 602.32 274.653 624.086C319.767 668.25 380.481 692.834 443.613 692.501C504.265 692.501 539.465 653.871 576.831 613.075L591.814 596.829C599.395 588.706 607.699 580.583 615.642 572.821C649.939 539.245 682.431 507.655 682.431 456.931C682.431 392.308 644.885 356.747 601.381 315.77L595.063 309.813L582.247 297.358C542.173 258.728 500.835 218.835 443.613 218.835V218.835Z" fill="#FB8639"/>
<path d="M443.613 713.982C374.962 714.322 308.941 687.602 259.851 639.61C235.633 615.953 216.411 587.673 203.326 556.448C190.241 525.224 183.558 491.689 183.674 457.834C183.674 396.46 229.344 354.22 273.389 313.243C281.512 305.842 289.094 298.802 296.495 291.401C303.896 284 312.38 275.336 319.962 267.393C354.8 230.568 384.946 198.798 443.613 198.798C502.279 198.798 547.949 241.219 590.009 282.195L607.338 298.802L617.627 308.55C663.658 351.512 703.371 388.698 703.371 457.834C703.371 512.168 668.532 545.383 631.707 580.583C622.14 589.608 612.392 598.995 603.367 608.562L584.413 629.502C545.242 672.825 508.417 713.982 443.613 713.982ZM443.613 200.603C385.668 200.603 355.884 232.193 321.225 268.657C313.644 276.599 306.062 284.722 297.758 292.845C289.455 300.968 282.595 307.106 274.653 314.687C230.788 355.303 185.479 397.362 185.479 457.834C185.333 491.431 191.954 524.713 204.949 555.696C217.943 586.678 237.045 614.726 261.114 638.166C309.82 685.917 375.405 712.514 443.613 712.177C507.514 712.177 544.339 671.381 583.149 628.238L602.103 607.299C611.129 597.731 620.876 588.345 630.444 579.319C667.088 544.3 701.566 511.266 701.566 457.834C701.566 389.6 662.033 352.595 616.364 309.813L606.074 300.066L588.745 283.459C546.866 242.843 503.724 200.603 443.613 200.603V200.603Z" fill="#FB8138"/>
<path d="M443.613 733.657C368.88 733.657 298.841 705.317 246.312 653.69C220.312 628.334 199.675 598.009 185.627 564.518C171.58 531.027 164.409 495.054 164.54 458.736C164.54 394.474 212.737 350.248 259.309 307.467C269.057 298.622 278.263 290.137 286.928 281.473C295.592 272.808 305.34 262.519 314.004 253.313C350.288 214.322 381.516 180.747 443.613 180.747C505.709 180.747 552.823 225.333 597.049 268.656L618.169 289.235L632.249 302.232C680.626 347.18 722.505 385.99 722.505 458.736C722.505 515.959 685.5 550.617 646.329 587.442C635.317 597.551 624.125 608.201 613.836 619.212C603.547 630.224 598.312 636 591.092 644.304C550.296 690.334 511.847 733.657 443.613 733.657ZM443.613 182.552C382.419 182.552 351.19 215.947 315.268 254.576C306.784 263.783 297.939 273.35 288.191 282.736C278.443 292.123 270.32 299.885 260.573 308.911C214.181 351.331 166.345 395.196 166.345 458.736C166.2 494.82 173.317 530.563 187.272 563.838C201.228 597.114 221.736 627.241 247.576 652.427C299.744 703.692 369.241 731.852 443.613 731.852C510.944 731.852 549.213 688.71 589.648 643.221C597.049 634.917 604.63 626.252 612.392 617.949C622.862 606.937 634.054 596.287 645.065 585.998C683.875 549.534 720.7 515.056 720.7 458.736C720.7 386.712 679.182 348.263 630.985 303.495L616.905 290.498L595.785 269.92C551.92 226.958 506.612 182.552 443.613 182.552V182.552Z" fill="#FC7B37"/>
<path d="M443.613 753.153C363.646 753.153 288.733 723.007 232.774 667.951C204.986 640.861 182.932 608.459 167.923 572.672C152.913 536.886 145.256 498.445 145.405 459.639C145.405 392.308 196.31 346.096 245.41 301.51C256.782 291.22 267.432 281.473 277.541 271.545C287.65 261.616 298.3 249.883 307.867 239.413C345.594 198.256 378.087 162.515 443.613 162.515C509.139 162.515 558.058 209.629 604.089 255.118C612.392 263.241 620.876 271.725 629.18 279.487L646.69 295.733C697.594 342.486 741.639 382.921 741.639 459.639C741.639 519.93 702.288 556.033 660.77 594.301C648.495 605.674 635.678 617.407 624.126 629.682C612.573 641.957 606.255 649.538 597.771 659.105C555.35 707.483 515.457 753.153 443.613 753.153ZM443.613 164.32C378.809 164.32 346.497 199.7 309.131 240.677C299.563 251.147 289.635 261.977 278.804 272.808C267.974 283.639 257.865 292.484 246.673 302.773C197.754 347.179 147.211 393.03 147.211 459.639C147.068 498.208 154.68 536.412 169.596 571.981C184.512 607.55 206.427 639.756 234.037 666.687C289.816 721.382 364.187 751.348 443.613 751.348C514.554 751.348 554.267 706.039 596.507 657.842C604.991 648.275 613.656 638.166 622.862 628.599C634.415 616.143 647.231 604.41 659.506 593.038C700.843 554.95 739.834 519.028 739.834 459.639C739.834 383.823 696.15 343.569 645.607 297.177L627.916 280.751C619.613 272.989 611.129 264.685 602.825 256.562C556.975 211.073 509.68 164.32 443.613 164.32V164.32Z" fill="#FC7636"/>
<path d="M443.613 772.829C358.591 772.829 278.804 740.697 219.235 682.211C189.661 653.389 166.189 618.91 150.218 580.827C134.247 542.745 126.103 501.837 126.271 460.542C126.271 389.961 179.883 341.764 231.691 295.192C244.507 283.819 256.601 272.808 267.974 261.616C279.346 250.425 291.079 237.428 301.549 225.694C340.72 182.01 374.476 144.283 443.613 144.283C512.749 144.283 563.293 193.924 611.49 241.941C621.237 251.688 630.624 260.894 640.011 269.92L661.131 289.235C714.562 337.973 760.774 379.852 760.774 460.542C760.774 523.721 719.256 561.448 675.211 601.342C661.492 613.797 647.231 626.613 634.415 640.332C621.598 654.051 614.378 662.716 604.811 673.727C560.766 724.632 519.067 772.829 443.613 772.829ZM443.613 146.088C375.379 146.088 341.803 183.454 302.993 226.777C292.343 238.691 281.512 250.786 269.237 262.88C256.962 274.974 245.771 285.083 232.954 296.636C181.328 342.847 128.076 390.864 128.076 460.542C127.925 501.598 136.029 542.267 151.906 580.13C167.783 617.993 191.109 652.278 220.499 680.948C279.888 739.073 358.952 771.024 443.613 771.024C518.165 771.024 559.502 723.188 603.367 672.644C612.934 661.452 622.862 650.08 633.151 639.069C643.44 628.057 660.228 612.533 673.947 600.078C717.631 560.365 758.969 522.999 758.969 460.542C758.969 380.755 713.118 338.876 659.867 290.498C653.008 284.361 645.968 277.863 638.928 271.184C631.888 264.505 619.613 252.591 610.226 243.204C562.39 195.549 512.749 146.088 443.613 146.088V146.088Z" fill="#FC7135"/>
<path d="M443.612 792.505C353.356 792.505 268.876 758.388 205.696 696.472C174.343 665.911 149.459 629.353 132.527 588.976C115.595 548.599 106.96 505.227 107.136 461.444C107.136 387.614 163.456 337.432 217.971 288.874C232.412 276.238 245.951 264.143 258.587 251.508C271.223 238.872 283.678 224.972 295.231 211.975C335.846 165.945 371.046 126.232 443.612 126.232C516.178 126.232 568.708 178.219 618.89 228.763C629.902 239.774 640.371 250.244 651.022 260.172L675.391 282.556C731.53 333.099 779.908 376.783 779.908 461.444C779.908 527.873 736.043 567.044 689.471 608.562C674.488 621.92 658.784 636 644.884 650.982C630.985 665.965 622.32 675.893 611.85 688.349C566 741.78 522.677 792.505 443.612 792.505ZM443.612 128.037C371.768 128.037 336.929 167.389 296.675 213.058C285.122 226.055 273.208 239.594 259.85 252.952C246.492 266.31 233.676 277.501 219.235 290.318C165.081 338.515 108.942 388.517 108.942 461.444C108.755 504.966 117.338 548.079 134.178 588.211C151.019 628.343 175.772 664.672 206.96 695.028C269.778 756.763 353.897 790.699 443.612 790.699C521.955 790.699 564.917 740.336 610.406 687.085C621.056 674.81 631.887 661.994 643.44 649.719C657.52 634.736 673.225 620.656 688.388 607.118C734.599 565.961 778.103 526.97 778.103 461.444C778.103 377.686 729.906 334.182 674.308 283.819L649.758 261.616C639.108 251.508 628.096 240.496 617.627 230.027C567.625 179.844 515.998 128.037 443.612 128.037V128.037Z" fill="#FD6B34"/>
<path d="M443.613 812C348.302 812 258.949 776.078 192.159 710.552C159.023 678.292 132.724 639.689 114.83 597.046C96.9349 554.402 87.8113 508.592 88.003 462.347C88.003 385.268 147.211 333.099 204.434 282.556C220.319 268.476 235.301 255.298 249.02 241.579C262.739 227.861 276.458 212.336 288.914 198.256C330.973 149.698 367.437 108 443.613 108C519.79 108 574.124 162.695 626.473 215.586C638.567 227.861 650.12 239.594 662.034 250.605C673.948 261.616 680.627 267.573 689.652 275.696C748.319 328.226 799.043 373.715 799.043 462.347C799.043 531.844 752.832 572.64 703.913 615.783C687.306 630.224 670.337 645.206 655.174 661.452C640.011 677.698 630.625 689.071 619.072 702.79C571.416 758.929 526.469 812 443.613 812ZM443.613 109.805C368.159 109.805 332.056 151.323 290.177 199.339C277.722 213.6 264.906 228.402 250.284 242.843C235.662 257.284 221.582 269.92 205.697 283.819C148.655 334.183 89.8081 386.17 89.8081 462.347C89.6233 508.355 98.702 553.929 116.503 596.354C134.304 638.779 160.464 677.187 193.422 709.288C259.851 774.453 348.663 810.195 443.613 810.195C525.566 810.195 570.333 757.485 617.628 701.526C629.18 687.988 641.094 673.908 653.73 660.189C669.074 643.943 686.042 628.96 702.649 614.338C751.388 571.557 797.238 531.122 797.238 462.347C797.238 374.617 746.875 329.309 688.389 276.96C679.363 268.837 669.976 260.533 660.77 251.869C648.856 240.857 636.762 228.583 625.209 216.849C573.041 164.32 519.248 109.805 443.613 109.805Z" fill="#FD6633"/>
</g>
<rect opacity="0.35" x="336.5" y="17.8333" width="21" height="10.3333" rx="2.16667" stroke="white"/>
<path opacity="0.4" d="M359 21V25C359.805 24.6612 360.328 23.8731 360.328 23C360.328 22.1269 359.805 21.3388 359 21" fill="white"/>
<rect x="338" y="19.3333" width="18" height="7.33333" rx="1.33333" fill="white"/>
<path fill-rule="evenodd" clip-rule="evenodd" d="M323.33 19.608C325.546 19.6081 327.677 20.4596 329.283 21.9863C329.404 22.1042 329.597 22.1027 329.716 21.983L330.872 20.8163C330.933 20.7556 330.966 20.6734 330.966 20.5878C330.965 20.5022 330.931 20.4204 330.87 20.3603C326.655 16.3208 320.005 16.3208 315.79 20.3603C315.729 20.4203 315.694 20.5021 315.693 20.5877C315.693 20.6733 315.726 20.7556 315.787 20.8163L316.943 21.983C317.062 22.1029 317.255 22.1044 317.376 21.9863C318.982 20.4595 321.114 19.608 323.33 19.608ZM323.33 23.4037C324.547 23.4036 325.721 23.8561 326.624 24.6733C326.746 24.7893 326.938 24.7868 327.057 24.6677L328.212 23.501C328.273 23.4398 328.307 23.3568 328.306 23.2705C328.305 23.1843 328.269 23.102 328.207 23.042C325.459 20.4856 321.203 20.4856 318.455 23.042C318.393 23.102 318.357 23.1843 318.357 23.2706C318.356 23.3569 318.39 23.4399 318.451 23.501L319.605 24.6677C319.724 24.7868 319.916 24.7893 320.038 24.6733C320.94 23.8567 322.113 23.4042 323.33 23.4037ZM325.643 25.9575C325.645 26.044 325.611 26.1274 325.549 26.188L323.552 28.2037C323.493 28.2629 323.413 28.2963 323.33 28.2963C323.247 28.2963 323.167 28.2629 323.108 28.2037L321.111 26.188C321.049 26.1274 321.015 26.0439 321.017 25.9574C321.019 25.8709 321.056 25.789 321.12 25.731C322.396 24.6521 324.264 24.6521 325.54 25.731C325.604 25.7891 325.641 25.871 325.643 25.9575Z" fill="white"/>
<path fill-rule="evenodd" clip-rule="evenodd" d="M309.667 17.6667H308.667C308.115 17.6667 307.667 18.1144 307.667 18.6667V27.3334C307.667 27.8856 308.115 28.3334 308.667 28.3334H309.667C310.219 28.3334 310.667 27.8856 310.667 27.3334V18.6667C310.667 18.1144 310.219 17.6667 309.667 17.6667ZM304 20H305C305.553 20 306 20.4477 306 21V27.3334C306 27.8856 305.553 28.3334 305 28.3334H304C303.448 28.3334 303 27.8856 303 27.3334V21C303 20.4477 303.448 20 304 20ZM300.334 22.3334H299.334C298.781 22.3334 298.334 22.7811 298.334 23.3334V27.3334C298.334 27.8856 298.781 28.3334 299.334 28.3334H300.334C300.886 28.3334 301.334 27.8856 301.334 27.3334V23.3334C301.334 22.7811 300.886 22.3334 300.334 22.3334ZM295.667 24.3334H294.667C294.115 24.3334 293.667 24.7811 293.667 25.3334V27.3334C293.667 27.8856 294.115 28.3334 294.667 28.3334H295.667C296.219 28.3334 296.667 27.8856 296.667 27.3334V25.3334C296.667 24.7811 296.219 24.3334 295.667 24.3334Z" fill="white"/>
<path d="M37.7764 29.2393C40.2852 29.2393 41.7755 27.2773 41.7755 23.9551C41.7755 20.6943 40.1895 18.8896 37.8311 18.8896C35.6846 18.8896 34.1671 20.332 34.1671 22.3555C34.1671 24.249 35.5343 25.6299 37.4141 25.6299C38.5694 25.6299 39.5059 25.0967 39.9708 24.1602H40.087C40.0665 26.4434 39.2393 27.7627 37.797 27.7627C36.9493 27.7627 36.2725 27.3047 36.0606 26.5664H34.3038C34.5909 28.1797 35.9718 29.2393 37.7764 29.2393ZM37.838 24.2354C36.6895 24.2354 35.8966 23.4424 35.8966 22.3008C35.8966 21.2002 36.7305 20.3594 37.8448 20.3594C38.9591 20.3594 39.793 21.2139 39.793 22.335C39.793 23.4355 38.9796 24.2354 37.838 24.2354ZM44.5921 27.6396C45.2416 27.6396 45.6859 27.1748 45.6859 26.5596C45.6859 25.9375 45.2416 25.4795 44.5921 25.4795C43.9496 25.4795 43.4984 25.9375 43.4984 26.5596C43.4984 27.1748 43.9496 27.6396 44.5921 27.6396ZM44.5921 22.6494C45.2416 22.6494 45.6859 22.1914 45.6859 21.5762C45.6859 20.9541 45.2416 20.4961 44.5921 20.4961C43.9496 20.4961 43.4984 20.9541 43.4984 21.5762C43.4984 22.1914 43.9496 22.6494 44.5921 22.6494ZM52.2213 29H53.9098V27.1201H55.2428V25.6299H53.9098V19.1357H51.4215C50.0817 21.1729 48.6803 23.4219 47.402 25.6504V27.1201H52.2213V29ZM49.0358 25.5752C49.9996 23.9141 51.1413 22.1025 52.153 20.5713H52.2487V25.6709H49.0358V25.5752ZM59.1669 29H60.9306V19.1357H59.1738L56.5966 20.9404V22.6357L59.0507 20.9131H59.1669V29Z" fill="white"/>
<path d="M100.953 403V398.555L104.906 391.727H102.695L100.016 396.562H99.8828L97.1953 391.727H94.9844L98.9375 398.555V403H100.953ZM108.883 403.172C111.438 403.172 112.992 401.5 112.992 398.727C112.992 395.969 111.43 394.297 108.883 394.297C106.344 394.297 104.773 395.977 104.773 398.727C104.773 401.5 106.32 403.172 108.883 403.172ZM108.883 401.586C107.531 401.586 106.758 400.539 106.758 398.734C106.758 396.93 107.531 395.883 108.883 395.883C110.227 395.883 111 396.93 111 398.734C111 400.539 110.234 401.586 108.883 401.586ZM122.383 394.461H120.445V399.438C120.445 400.727 119.758 401.508 118.5 401.508C117.344 401.508 116.805 400.867 116.805 399.539V394.461H114.867V400.008C114.867 402.008 115.961 403.172 117.828 403.172C119.133 403.172 119.969 402.617 120.383 401.641H120.516V403H122.383V394.461ZM124.758 403H126.695V398.039C126.695 396.836 127.57 396.055 128.828 396.055C129.156 396.055 129.672 396.109 129.82 396.164V394.398C129.641 394.352 129.297 394.32 129.016 394.32C127.914 394.32 126.992 394.945 126.758 395.789H126.625V394.461H124.758V403ZM137.898 403V391.727H135.883V403H137.898ZM140.477 403H142.414V398.023C142.414 396.742 143.141 395.938 144.297 395.938C145.477 395.938 146.023 396.602 146.023 397.93V403H147.961V397.477C147.961 395.445 146.922 394.297 145.016 394.297C143.742 394.297 142.883 394.875 142.477 395.828H142.344V394.461H140.477V403ZM150.875 392.367V394.516H149.523V396.023H150.875V400.734C150.875 402.383 151.656 403.039 153.617 403.039C153.992 403.039 154.352 403.008 154.633 402.953V401.469C154.398 401.492 154.25 401.508 153.977 401.508C153.164 401.508 152.805 401.125 152.805 400.273V396.023H154.633V394.516H152.805V392.367H150.875ZM162.062 400.664C161.781 401.305 161.117 401.664 160.156 401.664C158.883 401.664 158.062 400.758 158.016 399.312V399.211H163.984V398.594C163.984 395.914 162.523 394.297 160.086 394.297C157.609 394.297 156.07 396.023 156.07 398.766C156.07 401.5 157.586 403.172 160.102 403.172C162.117 403.172 163.547 402.203 163.898 400.664H162.062ZM160.078 395.805C161.242 395.805 162.008 396.625 162.047 397.922H158.023C158.109 396.641 158.922 395.805 160.078 395.805ZM165.93 403H167.867V398.039C167.867 396.836 168.742 396.055 170 396.055C170.328 396.055 170.844 396.109 170.992 396.164V394.398C170.812 394.352 170.469 394.32 170.188 394.32C169.086 394.32 168.164 394.945 167.93 395.789H167.797V394.461H165.93V403ZM172.695 403H174.633V398.023C174.633 396.742 175.359 395.938 176.516 395.938C177.695 395.938 178.242 396.602 178.242 397.93V403H180.18V397.477C180.18 395.445 179.141 394.297 177.234 394.297C175.961 394.297 175.102 394.875 174.695 395.828H174.562V394.461H172.695V403ZM188.047 400.664C187.766 401.305 187.102 401.664 186.141 401.664C184.867 401.664 184.047 400.758 184 399.312V399.211H189.969V398.594C189.969 395.914 188.508 394.297 186.07 394.297C183.594 394.297 182.055 396.023 182.055 398.766C182.055 401.5 183.57 403.172 186.086 403.172C188.102 403.172 189.531 402.203 189.883 400.664H188.047ZM186.062 395.805C187.227 395.805 187.992 396.625 188.031 397.922H184.008C184.094 396.641 184.906 395.805 186.062 395.805ZM192.531 392.367V394.516H191.18V396.023H192.531V400.734C192.531 402.383 193.312 403.039 195.273 403.039C195.648 403.039 196.008 403.008 196.289 402.953V401.469C196.055 401.492 195.906 401.508 195.633 401.508C194.82 401.508 194.461 401.125 194.461 400.273V396.023H196.289V394.516H194.461V392.367H192.531ZM203.477 393.031C204.117 393.031 204.641 392.523 204.641 391.883C204.641 391.25 204.117 390.734 203.477 390.734C202.844 390.734 202.32 391.25 202.32 391.883C202.32 392.523 202.844 393.031 203.477 393.031ZM202.516 403H204.445V394.461H202.516V403ZM206.656 396.898C206.656 398.18 207.43 398.93 209.07 399.305L210.586 399.656C211.398 399.844 211.766 400.156 211.766 400.641C211.766 401.289 211.086 401.734 210.109 401.734C209.141 401.734 208.539 401.344 208.352 400.711H206.438C206.586 402.25 207.93 403.172 210.062 403.172C212.195 403.172 213.703 402.086 213.703 400.453C213.703 399.195 212.945 398.5 211.312 398.125L209.805 397.789C208.945 397.586 208.539 397.281 208.539 396.797C208.539 396.164 209.203 395.734 210.086 395.734C210.992 395.734 211.562 396.125 211.703 396.727H213.523C213.383 395.188 212.109 394.297 210.078 394.297C208.062 394.297 206.656 395.367 206.656 396.898ZM277.938 403.156C278.68 403.156 279.188 402.633 279.188 401.938C279.188 401.25 278.68 400.727 277.938 400.727C277.203 400.727 276.688 401.25 276.688 401.938C276.688 402.633 277.203 403.156 277.938 403.156Z" fill="white"/>
<path d="M224.859 394.258C223.672 394.258 222.695 394.844 222.227 395.812H222.086V394.398H219.883V405.852H222.156V401.688H222.297C222.719 402.594 223.664 403.133 224.898 403.133C227.055 403.133 228.375 401.461 228.375 398.695C228.375 395.922 227.039 394.258 224.859 394.258ZM224.086 401.297C222.883 401.297 222.133 400.312 222.133 398.703C222.133 397.094 222.883 396.102 224.094 396.102C225.305 396.102 226.039 397.078 226.039 398.695C226.039 400.32 225.312 401.297 224.086 401.297ZM230.227 403H232.5V398.188C232.5 396.977 233.352 396.234 234.594 396.234C234.961 396.234 235.492 396.297 235.672 396.359V394.359C235.477 394.297 235.094 394.258 234.781 394.258C233.688 394.258 232.797 394.906 232.57 395.766H232.43V394.398H230.227V403ZM238.352 393.078C239.055 393.078 239.633 392.516 239.633 391.812C239.633 391.102 239.055 390.539 238.352 390.539C237.648 390.539 237.062 391.102 237.062 391.812C237.062 392.516 237.648 393.078 238.352 393.078ZM237.211 403H239.484V394.398H237.211V403ZM249.578 394.398H247.18L245.414 400.867H245.273L243.492 394.398H241.047L244.039 403H246.602L249.578 394.398ZM253.195 403.133C254.312 403.133 255.25 402.656 255.695 401.859H255.836V403H258.039V397.125C258.039 395.289 256.75 394.211 254.469 394.211C252.305 394.211 250.844 395.203 250.695 396.781H252.789C252.977 396.242 253.523 395.953 254.344 395.953C255.281 395.953 255.797 396.383 255.797 397.125V397.836L253.711 397.961C251.57 398.086 250.375 398.992 250.375 400.547C250.375 402.117 251.539 403.133 253.195 403.133ZM253.945 401.469C253.156 401.469 252.602 401.07 252.602 400.406C252.602 399.773 253.078 399.406 254.055 399.344L255.797 399.227V399.867C255.797 400.773 255 401.469 253.945 401.469ZM260.922 392.344V394.477H259.578V396.203H260.922V400.68C260.922 402.352 261.75 403.031 263.844 403.031C264.281 403.031 264.703 402.984 264.984 402.93V401.25C264.766 401.273 264.609 401.289 264.312 401.289C263.539 401.289 263.195 400.93 263.195 400.156V396.203H264.984V394.477H263.195V392.344H260.922ZM272.391 400.57C272.148 401.156 271.531 401.484 270.633 401.484C269.445 401.484 268.695 400.664 268.664 399.352V399.234H274.578V398.555C274.578 395.836 273.078 394.211 270.539 394.211C267.977 394.211 266.398 395.945 266.398 398.742C266.398 401.523 267.945 403.18 270.57 403.18C272.68 403.18 274.172 402.172 274.508 400.57H272.391ZM270.547 395.906C271.609 395.906 272.297 396.641 272.344 397.82H268.672C268.75 396.664 269.492 395.906 270.547 395.906Z" fill="#FF6633"/>
<path d="M144.521 368.234C147.979 368.234 150.391 366.252 150.723 363.107H147.852C147.539 364.777 146.279 365.803 144.531 365.803C142.275 365.803 140.859 363.947 140.859 360.939C140.859 357.971 142.295 356.105 144.521 356.105C146.24 356.105 147.568 357.238 147.842 358.967H150.713C150.488 355.812 147.91 353.664 144.521 353.664C140.439 353.664 137.852 356.408 137.852 360.949C137.852 365.5 140.42 368.234 144.521 368.234ZM157.109 368.225C160.273 368.225 162.295 366.203 162.295 362.756C162.295 359.357 160.244 357.307 157.109 357.307C153.975 357.307 151.924 359.367 151.924 362.756C151.924 366.193 153.945 368.225 157.109 368.225ZM157.109 366.047C155.703 366.047 154.814 364.865 154.814 362.766C154.814 360.686 155.723 359.484 157.109 359.484C158.496 359.484 159.395 360.686 159.395 362.766C159.395 364.865 158.506 366.047 157.109 366.047ZM163.77 368H166.621V361.994C166.621 360.637 167.432 359.699 168.711 359.699C169.99 359.699 170.635 360.48 170.635 361.848V368H173.486V361.252C173.486 358.801 172.178 357.336 169.854 357.336C168.242 357.336 167.139 358.098 166.582 359.396H166.523V357.531H163.77V368ZM175.293 368H178.145V361.994C178.145 360.637 178.955 359.699 180.234 359.699C181.514 359.699 182.158 360.48 182.158 361.848V368H185.01V361.252C185.01 358.801 183.701 357.336 181.377 357.336C179.766 357.336 178.662 358.098 178.105 359.396H178.047V357.531H175.293V368ZM193.75 364.797C193.486 365.598 192.686 366.115 191.641 366.115C190.186 366.115 189.238 365.09 189.238 363.596V363.42H196.455V362.551C196.455 359.367 194.531 357.307 191.484 357.307C188.389 357.307 186.436 359.475 186.436 362.814C186.436 366.164 188.369 368.225 191.592 368.225C194.18 368.225 196.055 366.848 196.367 364.797H193.75ZM191.514 359.416C192.783 359.416 193.652 360.334 193.711 361.672H189.268C189.365 360.363 190.264 359.416 191.514 359.416ZM207.441 361.428C207.314 359.055 205.518 357.307 202.686 357.307C199.551 357.307 197.549 359.396 197.549 362.756C197.549 366.174 199.551 368.225 202.705 368.225C205.459 368.225 207.305 366.633 207.451 364.162H204.795C204.619 365.305 203.877 365.988 202.734 365.988C201.318 365.988 200.439 364.816 200.439 362.756C200.439 360.734 201.318 359.543 202.725 359.543C203.896 359.543 204.629 360.324 204.795 361.428H207.441ZM209.59 355.119V357.531H208.115V359.68H209.59V365.178C209.59 367.219 210.547 368.039 213.008 368.039C213.584 368.039 214.072 367.99 214.365 367.922V365.822C214.189 365.852 213.926 365.871 213.672 365.871C212.832 365.871 212.441 365.49 212.441 364.689V359.68H214.375V357.531H212.441V355.119H209.59ZM222.715 364.797C222.451 365.598 221.65 366.115 220.605 366.115C219.15 366.115 218.203 365.09 218.203 363.596V363.42H225.42V362.551C225.42 359.367 223.496 357.307 220.449 357.307C217.354 357.307 215.4 359.475 215.4 362.814C215.4 366.164 217.334 368.225 220.557 368.225C223.145 368.225 225.02 366.848 225.332 364.797H222.715ZM220.479 359.416C221.748 359.416 222.617 360.334 222.676 361.672H218.232C218.33 360.363 219.229 359.416 220.479 359.416ZM230.781 368.166C232.324 368.166 233.535 367.355 234.043 366.203H234.092V368H236.904V353.908H234.053V359.328H233.994C233.486 358.166 232.314 357.365 230.801 357.365C228.174 357.365 226.514 359.426 226.514 362.746C226.514 366.096 228.164 368.166 230.781 368.166ZM231.748 359.65C233.164 359.65 234.072 360.861 234.072 362.766C234.072 364.68 233.164 365.871 231.748 365.871C230.312 365.871 229.434 364.689 229.434 362.766C229.434 360.852 230.312 359.65 231.748 359.65Z" fill="white"/>
<rect x="114.5" y="249" width="146" height="80" rx="40" fill="#FF6633"/>
<g filter="url(#filter0_d_122_13)">
<path fill-rule="evenodd" clip-rule="evenodd" d="M219.5 323C238.278 323 253.5 307.778 253.5 289C253.5 270.222 238.278 255 219.5 255C200.722 255 185.5 270.222 185.5 289C185.5 307.778 200.722 323 219.5 323Z" fill="white"/>
<path fill-rule="evenodd" clip-rule="evenodd" d="M219.5 323C238.278 323 253.5 307.778 253.5 289C253.5 270.222 238.278 255 219.5 255C200.722 255 185.5 270.222 185.5 289C185.5 307.778 200.722 323 219.5 323Z" fill="url(#paint0_linear_122_13)"/>
<path fill-rule="evenodd" clip-rule="evenodd" d="M219.5 323C238.278 323 253.5 307.778 253.5 289C253.5 270.222 238.278 255 219.5 255C200.722 255 185.5 270.222 185.5 289C185.5 307.778 200.722 323 219.5 323Z" fill="url(#paint1_linear_122_13)"/>
</g>
<path d="M322 60H359" stroke="white" stroke-width="2"/>
<path d="M322 68H359" stroke="white" stroke-width="2"/>
<path d="M322 76H359" stroke="white" stroke-width="2"/>
<mask id="path-28-outside-1_122_13" maskUnits="userSpaceOnUse" x="282.93" y="59" width="16" height="17" fill="black">
<rect fill="white" x="282.93" y="59" width="16" height="17"/>
<path fill-rule="evenodd" clip-rule="evenodd" d="M290.505 65.9988V61.5662L288.23 63.8414C288.051 64.0205 287.76 64.0205 287.581 63.8414C287.402 63.6622 287.402 63.3718 287.581 63.1926L290.639 60.1344C290.818 59.9552 291.109 59.9552 291.288 60.1344L294.346 63.1926C294.525 63.3718 294.525 63.6622 294.346 63.8414C294.167 64.0205 293.877 64.0205 293.698 63.8414L291.422 61.5662V65.9988H292.973C293.859 66.1847 294.612 66.8295 294.863 67.7948L296.18 67.4732L297.077 66.1597C297.231 65.9341 297.543 65.8731 297.774 66.0237C298.005 66.1738 298.067 66.4785 297.913 66.7037L296.908 68.1751C296.839 68.2767 296.734 68.3492 296.612 68.3789L294.935 68.7881C294.918 69.1603 294.896 69.5221 294.865 69.8648H296.49C296.658 69.8648 296.815 69.9467 296.908 70.0832L297.913 71.5545C298.067 71.7797 298.005 72.0845 297.774 72.2345C297.544 72.3845 297.231 72.3241 297.077 72.0985L296.222 70.8456H294.744C294.677 71.281 294.591 71.6856 294.482 72.0552L295.764 72.8898C295.904 72.9808 295.988 73.1338 295.988 73.2978V75.2595C295.988 75.5304 295.763 75.75 295.486 75.75C295.208 75.75 294.983 75.5304 294.983 75.2595V73.5602L294.114 72.9949C293.531 74.1335 292.565 74.7691 290.964 74.7691C289.362 74.7691 288.396 74.1335 287.813 72.995L286.944 73.5602V75.2595C286.944 75.5304 286.719 75.75 286.442 75.75C286.164 75.75 285.939 75.5304 285.939 75.2595V73.2978C285.939 73.1338 286.023 72.9808 286.163 72.8898L287.445 72.0554C287.336 71.6856 287.25 71.281 287.183 70.8456H285.706L284.85 72.0985C284.696 72.3241 284.383 72.3845 284.153 72.2345C283.923 72.0845 283.86 71.7797 284.014 71.5545L285.019 70.0832C285.112 69.9467 285.269 69.8648 285.437 69.8648H287.062C287.031 69.5221 287.009 69.1603 286.992 68.7881L285.315 68.3789C285.194 68.3492 285.088 68.2766 285.019 68.1751L284.014 66.7037C283.86 66.4785 283.923 66.1738 284.153 66.0237C284.384 65.8731 284.696 65.9341 284.85 66.1597L285.747 67.4732L287.065 67.7948C287.317 66.8219 288.076 66.1832 288.954 65.9988H290.505ZM292.441 66.9221H291.466V73.7555C293.183 73.5451 293.806 72.151 293.945 68.4582C293.977 67.6171 293.295 66.9221 292.441 66.9221ZM287.982 68.4579C287.95 67.6179 288.631 66.9221 289.486 66.9221H290.461V73.7555C288.744 73.5451 288.121 72.1508 287.982 68.4579Z"/>
</mask>
<path fill-rule="evenodd" clip-rule="evenodd" d="M290.505 65.9988V61.5662L288.23 63.8414C288.051 64.0205 287.76 64.0205 287.581 63.8414C287.402 63.6622 287.402 63.3718 287.581 63.1926L290.639 60.1344C290.818 59.9552 291.109 59.9552 291.288 60.1344L294.346 63.1926C294.525 63.3718 294.525 63.6622 294.346 63.8414C294.167 64.0205 293.877 64.0205 293.698 63.8414L291.422 61.5662V65.9988H292.973C293.859 66.1847 294.612 66.8295 294.863 67.7948L296.18 67.4732L297.077 66.1597C297.231 65.9341 297.543 65.8731 297.774 66.0237C298.005 66.1738 298.067 66.4785 297.913 66.7037L296.908 68.1751C296.839 68.2767 296.734 68.3492 296.612 68.3789L294.935 68.7881C294.918 69.1603 294.896 69.5221 294.865 69.8648H296.49C296.658 69.8648 296.815 69.9467 296.908 70.0832L297.913 71.5545C298.067 71.7797 298.005 72.0845 297.774 72.2345C297.544 72.3845 297.231 72.3241 297.077 72.0985L296.222 70.8456H294.744C294.677 71.281 294.591 71.6856 294.482 72.0552L295.764 72.8898C295.904 72.9808 295.988 73.1338 295.988 73.2978V75.2595C295.988 75.5304 295.763 75.75 295.486 75.75C295.208 75.75 294.983 75.5304 294.983 75.2595V73.5602L294.114 72.9949C293.531 74.1335 292.565 74.7691 290.964 74.7691C289.362 74.7691 288.396 74.1335 287.813 72.995L286.944 73.5602V75.2595C286.944 75.5304 286.719 75.75 286.442 75.75C286.164 75.75 285.939 75.5304 285.939 75.2595V73.2978C285.939 73.1338 286.023 72.9808 286.163 72.8898L287.445 72.0554C287.336 71.6856 287.25 71.281 287.183 70.8456H285.706L284.85 72.0985C284.696 72.3241 284.383 72.3845 284.153 72.2345C283.923 72.0845 283.86 71.7797 284.014 71.5545L285.019 70.0832C285.112 69.9467 285.269 69.8648 285.437 69.8648H287.062C287.031 69.5221 287.009 69.1603 286.992 68.7881L285.315 68.3789C285.194 68.3492 285.088 68.2766 285.019 68.1751L284.014 66.7037C283.86 66.4785 283.923 66.1738 284.153 66.0237C284.384 65.8731 284.696 65.9341 284.85 66.1597L285.747 67.4732L287.065 67.7948C287.317 66.8219 288.076 66.1832 288.954 65.9988H290.505ZM292.441 66.9221H291.466V73.7555C293.183 73.5451 293.806 72.151 293.945 68.4582C293.977 67.6171 293.295 66.9221 292.441 66.9221ZM287.982 68.4579C287.95 67.6179 288.631 66.9221 289.486 66.9221H290.461V73.7555C288.744 73.5451 288.121 72.1508 287.982 68.4579Z" fill="white"/>
<path fill-rule="evenodd" clip-rule="evenodd" d="M290.505 65.9988V61.5662L288.23 63.8414C288.051 64.0205 287.76 64.0205 287.581 63.8414C287.402 63.6622 287.402 63.3718 287.581 63.1926L290.639 60.1344C290.818 59.9552 291.109 59.9552 291.288 60.1344L294.346 63.1926C294.525 63.3718 294.525 63.6622 294.346 63.8414C294.167 64.0205 293.877 64.0205 293.698 63.8414L291.422 61.5662V65.9988H292.973C293.859 66.1847 294.612 66.8295 294.863 67.7948L296.18 67.4732L297.077 66.1597C297.231 65.9341 297.543 65.8731 297.774 66.0237C298.005 66.1738 298.067 66.4785 297.913 66.7037L296.908 68.1751C296.839 68.2767 296.734 68.3492 296.612 68.3789L294.935 68.7881C294.918 69.1603 294.896 69.5221 294.865 69.8648H296.49C296.658 69.8648 296.815 69.9467 296.908 70.0832L297.913 71.5545C298.067 71.7797 298.005 72.0845 297.774 72.2345C297.544 72.3845 297.231 72.3241 297.077 72.0985L296.222 70.8456H294.744C294.677 71.281 294.591 71.6856 294.482 72.0552L295.764 72.8898C295.904 72.9808 295.988 73.1338 295.988 73.2978V75.2595C295.988 75.5304 295.763 75.75 295.486 75.75C295.208 75.75 294.983 75.5304 294.983 75.2595V73.5602L294.114 72.9949C293.531 74.1335 292.565 74.7691 290.964 74.7691C289.362 74.7691 288.396 74.1335 287.813 72.995L286.944 73.5602V75.2595C286.944 75.5304 286.719 75.75 286.442 75.75C286.164 75.75 285.939 75.5304 285.939 75.2595V73.2978C285.939 73.1338 286.023 72.9808 286.163 72.8898L287.445 72.0554C287.336 71.6856 287.25 71.281 287.183 70.8456H285.706L284.85 72.0985C284.696 72.3241 284.383 72.3845 284.153 72.2345C283.923 72.0845 283.86 71.7797 284.014 71.5545L285.019 70.0832C285.112 69.9467 285.269 69.8648 285.437 69.8648H287.062C287.031 69.5221 287.009 69.1603 286.992 68.7881L285.315 68.3789C285.194 68.3492 285.088 68.2766 285.019 68.1751L284.014 66.7037C283.86 66.4785 283.923 66.1738 284.153 66.0237C284.384 65.8731 284.696 65.9341 284.85 66.1597L285.747 67.4732L287.065 67.7948C287.317 66.8219 288.076 66.1832 288.954 65.9988H290.505ZM292.441 66.9221H291.466V73.7555C293.183 73.5451 293.806 72.151 293.945 68.4582C293.977 67.6171 293.295 66.9221 292.441 66.9221ZM287.982 68.4579C287.95 67.6179 288.631 66.9221 289.486 66.9221H290.461V73.7555C288.744 73.5451 288.121 72.1508 287.982 68.4579Z" fill="url(#paint2_linear_122_13)"/>
<path fill-rule="evenodd" clip-rule="evenodd" d="M290.505 65.9988V61.5662L288.23 63.8414C288.051 64.0205 287.76 64.0205 287.581 63.8414C287.402 63.6622 287.402 63.3718 287.581 63.1926L290.639 60.1344C290.818 59.9552 291.109 59.9552 291.288 60.1344L294.346 63.1926C294.525 63.3718 294.525 63.6622 294.346 63.8414C294.167 64.0205 293.877 64.0205 293.698 63.8414L291.422 61.5662V65.9988H292.973C293.859 66.1847 294.612 66.8295 294.863 67.7948L296.18 67.4732L297.077 66.1597C297.231 65.9341 297.543 65.8731 297.774 66.0237C298.005 66.1738 298.067 66.4785 297.913 66.7037L296.908 68.1751C296.839 68.2767 296.734 68.3492 296.612 68.3789L294.935 68.7881C294.918 69.1603 294.896 69.5221 294.865 69.8648H296.49C296.658 69.8648 296.815 69.9467 296.908 70.0832L297.913 71.5545C298.067 71.7797 298.005 72.0845 297.774 72.2345C297.544 72.3845 297.231 72.3241 297.077 72.0985L296.222 70.8456H294.744C294.677 71.281 294.591 71.6856 294.482 72.0552L295.764 72.8898C295.904 72.9808 295.988 73.1338 295.988 73.2978V75.2595C295.988 75.5304 295.763 75.75 295.486 75.75C295.208 75.75 294.983 75.5304 294.983 75.2595V73.5602L294.114 72.9949C293.531 74.1335 292.565 74.7691 290.964 74.7691C289.362 74.7691 288.396 74.1335 287.813 72.995L286.944 73.5602V75.2595C286.944 75.5304 286.719 75.75 286.442 75.75C286.164 75.75 285.939 75.5304 285.939 75.2595V73.2978C285.939 73.1338 286.023 72.9808 286.163 72.8898L287.445 72.0554C287.336 71.6856 287.25 71.281 287.183 70.8456H285.706L284.85 72.0985C284.696 72.3241 284.383 72.3845 284.153 72.2345C283.923 72.0845 283.86 71.7797 284.014 71.5545L285.019 70.0832C285.112 69.9467 285.269 69.8648 285.437 69.8648H287.062C287.031 69.5221 287.009 69.1603 286.992 68.7881L285.315 68.3789C285.194 68.3492 285.088 68.2766 285.019 68.1751L284.014 66.7037C283.86 66.4785 283.923 66.1738 284.153 66.0237C284.384 65.8731 284.696 65.9341 284.85 66.1597L285.747 67.4732L287.065 67.7948C287.317 66.8219 288.076 66.1832 288.954 65.9988H290.505ZM292.441 66.9221H291.466V73.7555C293.183 73.5451 293.806 72.151 293.945 68.4582C293.977 67.6171 293.295 66.9221 292.441 66.9221ZM287.982 68.4579C287.95 67.6179 288.631 66.9221 289.486 66.9221H290.461V73.7555C288.744 73.5451 288.121 72.1508 287.982 68.4579Z" fill="url(#paint3_linear_122_13)"/>
<path d="M290.505 61.5662H290.705V61.0834L290.364 61.4248L290.505 61.5662ZM290.505 65.9988V66.1988H290.705V65.9988H290.505ZM287.581 63.8414L287.722 63.6999H287.722L287.581 63.8414ZM287.581 63.1926L287.44 63.0512L287.581 63.1926ZM290.639 60.1344L290.781 60.2758V60.2758L290.639 60.1344ZM291.288 60.1344L291.429 59.9929V59.9929L291.288 60.1344ZM294.346 63.1926L294.488 63.0512L294.346 63.1926ZM294.346 63.8414L294.205 63.6999V63.6999L294.346 63.8414ZM293.698 63.8414L293.839 63.6999V63.6999L293.698 63.8414ZM291.422 61.5662L291.564 61.4248L291.222 61.0834V61.5662H291.422ZM291.422 65.9988H291.222V66.1988H291.422V65.9988ZM292.973 65.9988L293.014 65.8031L292.994 65.7988H292.973V65.9988ZM294.863 67.7948L294.669 67.845L294.718 68.0358L294.91 67.9891L294.863 67.7948ZM296.18 67.4732L296.227 67.6675L296.302 67.6494L296.345 67.586L296.18 67.4732ZM297.077 66.1597L297.242 66.2725L297.242 66.2725L297.077 66.1597ZM297.774 66.0237L297.665 66.1913L297.665 66.1913L297.774 66.0237ZM297.913 66.7037L298.078 66.8165L298.078 66.8165L297.913 66.7037ZM296.908 68.1751L296.743 68.0623L296.743 68.0624L296.908 68.1751ZM296.612 68.3789L296.66 68.5732L296.66 68.5731L296.612 68.3789ZM294.935 68.7881L294.888 68.5938L294.743 68.6293L294.736 68.7787L294.935 68.7881ZM294.865 69.8648L294.666 69.8468L294.646 70.0648H294.865V69.8648ZM296.908 70.0832L297.074 69.9704L297.074 69.9703L296.908 70.0832ZM297.913 71.5545L298.078 71.4417L298.078 71.4417L297.913 71.5545ZM297.774 72.2345L297.665 72.0669L297.665 72.067L297.774 72.2345ZM297.077 72.0985L296.912 72.2113L296.912 72.2114L297.077 72.0985ZM296.222 70.8456L296.387 70.7328L296.327 70.6456H296.222V70.8456ZM294.744 70.8456V70.6456H294.573L294.546 70.8151L294.744 70.8456ZM294.482 72.0552L294.29 71.9986L294.248 72.1416L294.373 72.2228L294.482 72.0552ZM295.764 72.8898L295.873 72.7222L295.873 72.7221L295.764 72.8898ZM294.983 73.5602H295.183V73.4517L295.092 73.3926L294.983 73.5602ZM294.114 72.9949L294.223 72.8272L294.038 72.7063L293.936 72.9036L294.114 72.9949ZM287.813 72.995L287.991 72.9038L287.889 72.7064L287.703 72.8274L287.813 72.995ZM286.944 73.5602L286.835 73.3926L286.744 73.4517V73.5602H286.944ZM286.163 72.8898L286.054 72.7221L286.054 72.7222L286.163 72.8898ZM287.445 72.0554L287.554 72.223L287.679 72.1417L287.637 71.9988L287.445 72.0554ZM287.183 70.8456L287.381 70.8151L287.354 70.6456H287.183V70.8456ZM285.706 70.8456V70.6456H285.6L285.541 70.7328L285.706 70.8456ZM284.85 72.0985L285.015 72.2113L285.015 72.2113L284.85 72.0985ZM284.153 72.2345L284.263 72.067L284.262 72.0669L284.153 72.2345ZM284.014 71.5545L283.849 71.4417L283.849 71.4417L284.014 71.5545ZM285.019 70.0832L284.854 69.9703L284.854 69.9704L285.019 70.0832ZM287.062 69.8648V70.0648H287.281L287.261 69.8468L287.062 69.8648ZM286.992 68.7881L287.192 68.7787L287.185 68.6293L287.039 68.5938L286.992 68.7881ZM285.315 68.3789L285.267 68.5731L285.268 68.5732L285.315 68.3789ZM285.019 68.1751L284.854 68.2879L284.854 68.288L285.019 68.1751ZM284.014 66.7037L283.849 66.8165L283.849 66.8165L284.014 66.7037ZM284.153 66.0237L284.262 66.1913L284.263 66.1911L284.153 66.0237ZM284.85 66.1597L285.015 66.0469L285.015 66.0468L284.85 66.1597ZM285.747 67.4732L285.582 67.586L285.625 67.6494L285.7 67.6675L285.747 67.4732ZM287.065 67.7948L287.017 67.9891L287.209 68.0358L287.258 67.845L287.065 67.7948ZM288.954 65.9988V65.7988H288.933L288.913 65.8031L288.954 65.9988ZM291.466 66.9221V66.7221H291.266V66.9221H291.466ZM291.466 73.7555H291.266V73.9815L291.49 73.954L291.466 73.7555ZM293.945 68.4582L294.145 68.4657V68.4657L293.945 68.4582ZM287.982 68.4579L288.182 68.4503L288.182 68.4503L287.982 68.4579ZM290.461 66.9221H290.661V66.7221H290.461V66.9221ZM290.461 73.7555L290.437 73.954L290.661 73.9815V73.7555H290.461ZM290.305 61.5662V65.9988H290.705V61.5662H290.305ZM288.371 63.9828L290.646 61.7076L290.364 61.4248L288.088 63.6999L288.371 63.9828ZM287.44 63.9828C287.697 64.24 288.114 64.24 288.371 63.9828L288.088 63.6999C287.987 63.801 287.823 63.801 287.722 63.6999L287.44 63.9828ZM287.44 63.0512C287.182 63.3084 287.182 63.7255 287.44 63.9828L287.722 63.6999C287.621 63.5989 287.621 63.4351 287.722 63.334L287.44 63.0512ZM290.498 59.9929L287.44 63.0512L287.722 63.334L290.781 60.2758L290.498 59.9929ZM291.429 59.9929C291.172 59.7357 290.755 59.7357 290.498 59.9929L290.781 60.2758C290.882 60.1747 291.046 60.1747 291.147 60.2758L291.429 59.9929ZM294.488 63.0512L291.429 59.9929L291.147 60.2758L294.205 63.334L294.488 63.0512ZM294.488 63.9828C294.745 63.7255 294.745 63.3084 294.488 63.0512L294.205 63.334C294.306 63.4351 294.306 63.5989 294.205 63.6999L294.488 63.9828ZM293.556 63.9828C293.813 64.24 294.23 64.24 294.488 63.9828L294.205 63.6999C294.104 63.801 293.94 63.801 293.839 63.6999L293.556 63.9828ZM291.281 61.7076L293.556 63.9828L293.839 63.6999L291.564 61.4248L291.281 61.7076ZM291.622 65.9988V61.5662H291.222V65.9988H291.622ZM292.973 65.7988H291.422V66.1988H292.973V65.7988ZM295.056 67.7446C294.786 66.7008 293.969 66.0035 293.014 65.8031L292.932 66.1946C293.748 66.3659 294.439 66.9581 294.669 67.845L295.056 67.7446ZM296.133 67.2789L294.815 67.6005L294.91 67.9891L296.227 67.6675L296.133 67.2789ZM296.912 66.0469L296.015 67.3604L296.345 67.586L297.242 66.2725L296.912 66.0469ZM297.883 65.8561C297.562 65.647 297.128 65.7302 296.912 66.0469L297.242 66.2725C297.334 66.138 297.523 66.0992 297.665 66.1913L297.883 65.8561ZM298.078 66.8165C298.296 66.4972 298.206 66.0664 297.883 65.856L297.665 66.1913C297.803 66.2811 297.838 66.4598 297.748 66.591L298.078 66.8165ZM297.074 68.2879L298.078 66.8165L297.748 66.591L296.743 68.0623L297.074 68.2879ZM296.66 68.5731C296.828 68.5319 296.976 68.4311 297.074 68.2877L296.743 68.0624C296.702 68.1224 296.639 68.1664 296.565 68.1847L296.66 68.5731ZM294.983 68.9824L296.66 68.5732L296.565 68.1846L294.888 68.5938L294.983 68.9824ZM295.064 69.8828C295.096 69.5361 295.118 69.1712 295.135 68.7974L294.736 68.7787C294.718 69.1495 294.697 69.5081 294.666 69.8468L295.064 69.8828ZM296.49 69.6648H294.865V70.0648H296.49V69.6648ZM297.074 69.9703C296.942 69.7782 296.723 69.6648 296.49 69.6648V70.0648C296.594 70.0648 296.688 70.1151 296.743 70.196L297.074 69.9703ZM298.078 71.4417L297.074 69.9704L296.743 70.196L297.748 71.6673L298.078 71.4417ZM297.883 72.4022C298.206 72.1919 298.296 71.761 298.078 71.4417L297.748 71.6672C297.838 71.7985 297.803 71.9771 297.665 72.0669L297.883 72.4022ZM296.912 72.2114C297.129 72.5282 297.563 72.6104 297.883 72.4021L297.665 72.067C297.524 72.1585 297.334 72.1201 297.242 71.9856L296.912 72.2114ZM296.056 70.9584L296.912 72.2113L297.242 71.9857L296.387 70.7328L296.056 70.9584ZM294.744 71.0456H296.222V70.6456H294.744V71.0456ZM294.674 72.1118C294.786 71.7317 294.873 71.3181 294.942 70.8762L294.546 70.8151C294.48 71.2438 294.396 71.6394 294.29 71.9986L294.674 72.1118ZM295.873 72.7221L294.591 71.8876L294.373 72.2228L295.655 73.0574L295.873 72.7221ZM296.188 73.2978C296.188 73.0648 296.069 72.8493 295.873 72.7222L295.655 73.0574C295.739 73.1123 295.788 73.2029 295.788 73.2978H296.188ZM296.188 75.2595V73.2978H295.788V75.2595H296.188ZM295.486 75.95C295.869 75.95 296.188 75.6454 296.188 75.2595H295.788C295.788 75.4154 295.657 75.55 295.486 75.55V75.95ZM294.783 75.2595C294.783 75.6454 295.102 75.95 295.486 75.95V75.55C295.314 75.55 295.183 75.4154 295.183 75.2595H294.783ZM294.783 73.5602V75.2595H295.183V73.5602H294.783ZM294.005 73.1625L294.874 73.7278L295.092 73.3926L294.223 72.8272L294.005 73.1625ZM290.964 74.9691C291.791 74.9691 292.469 74.8048 293.022 74.4816C293.575 74.1578 293.986 73.6829 294.292 73.0861L293.936 72.9036C293.659 73.4455 293.296 73.8577 292.82 74.1364C292.343 74.4156 291.738 74.5691 290.964 74.5691V74.9691ZM287.635 73.0863C287.94 73.683 288.352 74.1578 288.905 74.4816C289.458 74.8048 290.136 74.9691 290.964 74.9691V74.5691C290.189 74.5691 289.584 74.4156 289.107 74.1364C288.631 73.8578 288.268 73.4455 287.991 72.9038L287.635 73.0863ZM287.053 73.7278L287.922 73.1627L287.703 72.8274L286.835 73.3926L287.053 73.7278ZM287.144 75.2595V73.5602H286.744V75.2595H287.144ZM286.442 75.95C286.825 75.95 287.144 75.6454 287.144 75.2595H286.744C286.744 75.4154 286.613 75.55 286.442 75.55V75.95ZM285.739 75.2595C285.739 75.6454 286.058 75.95 286.442 75.95V75.55C286.27 75.55 286.139 75.4154 286.139 75.2595H285.739ZM285.739 73.2978V75.2595H286.139V73.2978H285.739ZM286.054 72.7222C285.859 72.8493 285.739 73.0648 285.739 73.2978H286.139C286.139 73.2029 286.188 73.1123 286.272 73.0574L286.054 72.7222ZM287.336 71.8877L286.054 72.7221L286.272 73.0574L287.554 72.223L287.336 71.8877ZM286.985 70.8762C287.054 71.3181 287.141 71.7317 287.253 72.1119L287.637 71.9988C287.531 71.6394 287.447 71.2438 287.381 70.8151L286.985 70.8762ZM285.706 71.0456H287.183V70.6456H285.706V71.0456ZM285.015 72.2113L285.871 70.9584L285.541 70.7328L284.685 71.9857L285.015 72.2113ZM284.044 72.4021C284.364 72.6104 284.799 72.5283 285.015 72.2113L284.685 71.9857C284.593 72.12 284.403 72.1585 284.263 72.067L284.044 72.4021ZM283.849 71.4417C283.631 71.761 283.721 72.1919 284.044 72.4022L284.262 72.0669C284.124 71.9771 284.09 71.7985 284.179 71.6672L283.849 71.4417ZM284.854 69.9704L283.849 71.4417L284.179 71.6673L285.184 70.196L284.854 69.9704ZM285.437 69.6648C285.204 69.6648 284.985 69.7782 284.854 69.9703L285.184 70.196C285.239 70.1151 285.334 70.0648 285.437 70.0648V69.6648ZM287.062 69.6648H285.437V70.0648H287.062V69.6648ZM286.792 68.7974C286.81 69.1711 286.831 69.5361 286.863 69.8828L287.261 69.8468C287.231 69.5081 287.209 69.1495 287.192 68.7787L286.792 68.7974ZM285.268 68.5732L286.945 68.9824L287.039 68.5938L285.362 68.1846L285.268 68.5732ZM284.854 68.288C284.952 68.4307 285.099 68.5318 285.267 68.5731L285.363 68.1847C285.288 68.1665 285.225 68.1224 285.184 68.0621L284.854 68.288ZM283.849 66.8165L284.854 68.2879L285.184 68.0623L284.179 66.591L283.849 66.8165ZM284.044 65.856C283.721 66.0664 283.631 66.4972 283.849 66.8165L284.179 66.591C284.09 66.4598 284.124 66.2811 284.262 66.1913L284.044 65.856ZM285.015 66.0468C284.799 65.7304 284.364 65.6468 284.044 65.8563L284.263 66.1911C284.403 66.0994 284.593 66.1378 284.685 66.2726L285.015 66.0468ZM285.912 67.3604L285.015 66.0469L284.685 66.2725L285.582 67.586L285.912 67.3604ZM287.112 67.6005L285.795 67.2789L285.7 67.6675L287.017 67.9891L287.112 67.6005ZM288.913 65.8031C287.966 66.0019 287.144 66.6926 286.871 67.7446L287.258 67.845C287.49 66.9513 288.186 66.3646 288.995 66.1946L288.913 65.8031ZM290.505 65.7988H288.954V66.1988H290.505V65.7988ZM291.466 67.1221H292.441V66.7221H291.466V67.1221ZM291.666 73.7555V66.9221H291.266V73.7555H291.666ZM293.746 68.4506C293.676 70.2954 293.485 71.5316 293.116 72.3286C292.933 72.7225 292.71 73.0022 292.441 73.1962C292.172 73.3902 291.845 73.5075 291.442 73.557L291.49 73.954C291.945 73.8983 292.34 73.7625 292.675 73.5205C293.01 73.2785 293.273 72.9394 293.479 72.4969C293.885 71.6211 294.075 70.3138 294.145 68.4657L293.746 68.4506ZM292.441 67.1221C293.185 67.1221 293.773 67.7262 293.746 68.4506L294.145 68.4657C294.182 67.508 293.406 66.7221 292.441 66.7221V67.1221ZM289.486 66.7221C288.52 66.7221 287.746 67.509 287.782 68.4654L288.182 68.4503C288.154 67.7268 288.741 67.1221 289.486 67.1221V66.7221ZM290.461 66.7221H289.486V67.1221H290.461V66.7221ZM290.661 73.7555V66.9221H290.261V73.7555H290.661ZM287.782 68.4654C287.852 70.3135 288.042 71.6209 288.448 72.4968C288.653 72.9394 288.917 73.2785 289.252 73.5205C289.587 73.7625 289.982 73.8983 290.437 73.954L290.486 73.557C290.082 73.5075 289.755 73.3902 289.486 73.1962C289.217 73.0022 288.994 72.7225 288.811 72.3286C288.442 71.5314 288.251 70.2952 288.182 68.4503L287.782 68.4654Z" fill="white" mask="url(#path-28-outside-1_122_13)"/>
<path d="M290.505 61.5662H290.705V61.0834L290.364 61.4248L290.505 61.5662ZM290.505 65.9988V66.1988H290.705V65.9988H290.505ZM287.581 63.8414L287.722 63.6999H287.722L287.581 63.8414ZM287.581 63.1926L287.44 63.0512L287.581 63.1926ZM290.639 60.1344L290.781 60.2758V60.2758L290.639 60.1344ZM291.288 60.1344L291.429 59.9929V59.9929L291.288 60.1344ZM294.346 63.1926L294.488 63.0512L294.346 63.1926ZM294.346 63.8414L294.205 63.6999V63.6999L294.346 63.8414ZM293.698 63.8414L293.839 63.6999V63.6999L293.698 63.8414ZM291.422 61.5662L291.564 61.4248L291.222 61.0834V61.5662H291.422ZM291.422 65.9988H291.222V66.1988H291.422V65.9988ZM292.973 65.9988L293.014 65.8031L292.994 65.7988H292.973V65.9988ZM294.863 67.7948L294.669 67.845L294.718 68.0358L294.91 67.9891L294.863 67.7948ZM296.18 67.4732L296.227 67.6675L296.302 67.6494L296.345 67.586L296.18 67.4732ZM297.077 66.1597L297.242 66.2725L297.242 66.2725L297.077 66.1597ZM297.774 66.0237L297.665 66.1913L297.665 66.1913L297.774 66.0237ZM297.913 66.7037L298.078 66.8165L298.078 66.8165L297.913 66.7037ZM296.908 68.1751L296.743 68.0623L296.743 68.0624L296.908 68.1751ZM296.612 68.3789L296.66 68.5732L296.66 68.5731L296.612 68.3789ZM294.935 68.7881L294.888 68.5938L294.743 68.6293L294.736 68.7787L294.935 68.7881ZM294.865 69.8648L294.666 69.8468L294.646 70.0648H294.865V69.8648ZM296.908 70.0832L297.074 69.9704L297.074 69.9703L296.908 70.0832ZM297.913 71.5545L298.078 71.4417L298.078 71.4417L297.913 71.5545ZM297.774 72.2345L297.665 72.0669L297.665 72.067L297.774 72.2345ZM297.077 72.0985L296.912 72.2113L296.912 72.2114L297.077 72.0985ZM296.222 70.8456L296.387 70.7328L296.327 70.6456H296.222V70.8456ZM294.744 70.8456V70.6456H294.573L294.546 70.8151L294.744 70.8456ZM294.482 72.0552L294.29 71.9986L294.248 72.1416L294.373 72.2228L294.482 72.0552ZM295.764 72.8898L295.873 72.7222L295.873 72.7221L295.764 72.8898ZM294.983 73.5602H295.183V73.4517L295.092 73.3926L294.983 73.5602ZM294.114 72.9949L294.223 72.8272L294.038 72.7063L293.936 72.9036L294.114 72.9949ZM287.813 72.995L287.991 72.9038L287.889 72.7064L287.703 72.8274L287.813 72.995ZM286.944 73.5602L286.835 73.3926L286.744 73.4517V73.5602H286.944ZM286.163 72.8898L286.054 72.7221L286.054 72.7222L286.163 72.8898ZM287.445 72.0554L287.554 72.223L287.679 72.1417L287.637 71.9988L287.445 72.0554ZM287.183 70.8456L287.381 70.8151L287.354 70.6456H287.183V70.8456ZM285.706 70.8456V70.6456H285.6L285.541 70.7328L285.706 70.8456ZM284.85 72.0985L285.015 72.2113L285.015 72.2113L284.85 72.0985ZM284.153 72.2345L284.263 72.067L284.262 72.0669L284.153 72.2345ZM284.014 71.5545L283.849 71.4417L283.849 71.4417L284.014 71.5545ZM285.019 70.0832L284.854 69.9703L284.854 69.9704L285.019 70.0832ZM287.062 69.8648V70.0648H287.281L287.261 69.8468L287.062 69.8648ZM286.992 68.7881L287.192 68.7787L287.185 68.6293L287.039 68.5938L286.992 68.7881ZM285.315 68.3789L285.267 68.5731L285.268 68.5732L285.315 68.3789ZM285.019 68.1751L284.854 68.2879L284.854 68.288L285.019 68.1751ZM284.014 66.7037L283.849 66.8165L283.849 66.8165L284.014 66.7037ZM284.153 66.0237L284.262 66.1913L284.263 66.1911L284.153 66.0237ZM284.85 66.1597L285.015 66.0469L285.015 66.0468L284.85 66.1597ZM285.747 67.4732L285.582 67.586L285.625 67.6494L285.7 67.6675L285.747 67.4732ZM287.065 67.7948L287.017 67.9891L287.209 68.0358L287.258 67.845L287.065 67.7948ZM288.954 65.9988V65.7988H288.933L288.913 65.8031L288.954 65.9988ZM291.466 66.9221V66.7221H291.266V66.9221H291.466ZM291.466 73.7555H291.266V73.9815L291.49 73.954L291.466 73.7555ZM293.945 68.4582L294.145 68.4657V68.4657L293.945 68.4582ZM287.982 68.4579L288.182 68.4503L288.182 68.4503L287.982 68.4579ZM290.461 66.9221H290.661V66.7221H290.461V66.9221ZM290.461 73.7555L290.437 73.954L290.661 73.9815V73.7555H290.461ZM290.305 61.5662V65.9988H290.705V61.5662H290.305ZM288.371 63.9828L290.646 61.7076L290.364 61.4248L288.088 63.6999L288.371 63.9828ZM287.44 63.9828C287.697 64.24 288.114 64.24 288.371 63.9828L288.088 63.6999C287.987 63.801 287.823 63.801 287.722 63.6999L287.44 63.9828ZM287.44 63.0512C287.182 63.3084 287.182 63.7255 287.44 63.9828L287.722 63.6999C287.621 63.5989 287.621 63.4351 287.722 63.334L287.44 63.0512ZM290.498 59.9929L287.44 63.0512L287.722 63.334L290.781 60.2758L290.498 59.9929ZM291.429 59.9929C291.172 59.7357 290.755 59.7357 290.498 59.9929L290.781 60.2758C290.882 60.1747 291.046 60.1747 291.147 60.2758L291.429 59.9929ZM294.488 63.0512L291.429 59.9929L291.147 60.2758L294.205 63.334L294.488 63.0512ZM294.488 63.9828C294.745 63.7255 294.745 63.3084 294.488 63.0512L294.205 63.334C294.306 63.4351 294.306 63.5989 294.205 63.6999L294.488 63.9828ZM293.556 63.9828C293.813 64.24 294.23 64.24 294.488 63.9828L294.205 63.6999C294.104 63.801 293.94 63.801 293.839 63.6999L293.556 63.9828ZM291.281 61.7076L293.556 63.9828L293.839 63.6999L291.564 61.4248L291.281 61.7076ZM291.622 65.9988V61.5662H291.222V65.9988H291.622ZM292.973 65.7988H291.422V66.1988H292.973V65.7988ZM295.056 67.7446C294.786 66.7008 293.969 66.0035 293.014 65.8031L292.932 66.1946C293.748 66.3659 294.439 66.9581 294.669 67.845L295.056 67.7446ZM296.133 67.2789L294.815 67.6005L294.91 67.9891L296.227 67.6675L296.133 67.2789ZM296.912 66.0469L296.015 67.3604L296.345 67.586L297.242 66.2725L296.912 66.0469ZM297.883 65.8561C297.562 65.647 297.128 65.7302 296.912 66.0469L297.242 66.2725C297.334 66.138 297.523 66.0992 297.665 66.1913L297.883 65.8561ZM298.078 66.8165C298.296 66.4972 298.206 66.0664 297.883 65.856L297.665 66.1913C297.803 66.2811 297.838 66.4598 297.748 66.591L298.078 66.8165ZM297.074 68.2879L298.078 66.8165L297.748 66.591L296.743 68.0623L297.074 68.2879ZM296.66 68.5731C296.828 68.5319 296.976 68.4311 297.074 68.2877L296.743 68.0624C296.702 68.1224 296.639 68.1664 296.565 68.1847L296.66 68.5731ZM294.983 68.9824L296.66 68.5732L296.565 68.1846L294.888 68.5938L294.983 68.9824ZM295.064 69.8828C295.096 69.5361 295.118 69.1712 295.135 68.7974L294.736 68.7787C294.718 69.1495 294.697 69.5081 294.666 69.8468L295.064 69.8828ZM296.49 69.6648H294.865V70.0648H296.49V69.6648ZM297.074 69.9703C296.942 69.7782 296.723 69.6648 296.49 69.6648V70.0648C296.594 70.0648 296.688 70.1151 296.743 70.196L297.074 69.9703ZM298.078 71.4417L297.074 69.9704L296.743 70.196L297.748 71.6673L298.078 71.4417ZM297.883 72.4022C298.206 72.1919 298.296 71.761 298.078 71.4417L297.748 71.6672C297.838 71.7985 297.803 71.9771 297.665 72.0669L297.883 72.4022ZM296.912 72.2114C297.129 72.5282 297.563 72.6104 297.883 72.4021L297.665 72.067C297.524 72.1585 297.334 72.1201 297.242 71.9856L296.912 72.2114ZM296.056 70.9584L296.912 72.2113L297.242 71.9857L296.387 70.7328L296.056 70.9584ZM294.744 71.0456H296.222V70.6456H294.744V71.0456ZM294.674 72.1118C294.786 71.7317 294.873 71.3181 294.942 70.8762L294.546 70.8151C294.48 71.2438 294.396 71.6394 294.29 71.9986L294.674 72.1118ZM295.873 72.7221L294.591 71.8876L294.373 72.2228L295.655 73.0574L295.873 72.7221ZM296.188 73.2978C296.188 73.0648 296.069 72.8493 295.873 72.7222L295.655 73.0574C295.739 73.1123 295.788 73.2029 295.788 73.2978H296.188ZM296.188 75.2595V73.2978H295.788V75.2595H296.188ZM295.486 75.95C295.869 75.95 296.188 75.6454 296.188 75.2595H295.788C295.788 75.4154 295.657 75.55 295.486 75.55V75.95ZM294.783 75.2595C294.783 75.6454 295.102 75.95 295.486 75.95V75.55C295.314 75.55 295.183 75.4154 295.183 75.2595H294.783ZM294.783 73.5602V75.2595H295.183V73.5602H294.783ZM294.005 73.1625L294.874 73.7278L295.092 73.3926L294.223 72.8272L294.005 73.1625ZM290.964 74.9691C291.791 74.9691 292.469 74.8048 293.022 74.4816C293.575 74.1578 293.986 73.6829 294.292 73.0861L293.936 72.9036C293.659 73.4455 293.296 73.8577 292.82 74.1364C292.343 74.4156 291.738 74.5691 290.964 74.5691V74.9691ZM287.635 73.0863C287.94 73.683 288.352 74.1578 288.905 74.4816C289.458 74.8048 290.136 74.9691 290.964 74.9691V74.5691C290.189 74.5691 289.584 74.4156 289.107 74.1364C288.631 73.8578 288.268 73.4455 287.991 72.9038L287.635 73.0863ZM287.053 73.7278L287.922 73.1627L287.703 72.8274L286.835 73.3926L287.053 73.7278ZM287.144 75.2595V73.5602H286.744V75.2595H287.144ZM286.442 75.95C286.825 75.95 287.144 75.6454 287.144 75.2595H286.744C286.744 75.4154 286.613 75.55 286.442 75.55V75.95ZM285.739 75.2595C285.739 75.6454 286.058 75.95 286.442 75.95V75.55C286.27 75.55 286.139 75.4154 286.139 75.2595H285.739ZM285.739 73.2978V75.2595H286.139V73.2978H285.739ZM286.054 72.7222C285.859 72.8493 285.739 73.0648 285.739 73.2978H286.139C286.139 73.2029 286.188 73.1123 286.272 73.0574L286.054 72.7222ZM287.336 71.8877L286.054 72.7221L286.272 73.0574L287.554 72.223L287.336 71.8877ZM286.985 70.8762C287.054 71.3181 287.141 71.7317 287.253 72.1119L287.637 71.9988C287.531 71.6394 287.447 71.2438 287.381 70.8151L286.985 70.8762ZM285.706 71.0456H287.183V70.6456H285.706V71.0456ZM285.015 72.2113L285.871 70.9584L285.541 70.7328L284.685 71.9857L285.015 72.2113ZM284.044 72.4021C284.364 72.6104 284.799 72.5283 285.015 72.2113L284.685 71.9857C284.593 72.12 284.403 72.1585 284.263 72.067L284.044 72.4021ZM283.849 71.4417C283.631 71.761 283.721 72.1919 284.044 72.4022L284.262 72.0669C284.124 71.9771 284.09 71.7985 284.179 71.6672L283.849 71.4417ZM284.854 69.9704L283.849 71.4417L284.179 71.6673L285.184 70.196L284.854 69.9704ZM285.437 69.6648C285.204 69.6648 284.985 69.7782 284.854 69.9703L285.184 70.196C285.239 70.1151 285.334 70.0648 285.437 70.0648V69.6648ZM287.062 69.6648H285.437V70.0648H287.062V69.6648ZM286.792 68.7974C286.81 69.1711 286.831 69.5361 286.863 69.8828L287.261 69.8468C287.231 69.5081 287.209 69.1495 287.192 68.7787L286.792 68.7974ZM285.268 68.5732L286.945 68.9824L287.039 68.5938L285.362 68.1846L285.268 68.5732ZM284.854 68.288C284.952 68.4307 285.099 68.5318 285.267 68.5731L285.363 68.1847C285.288 68.1665 285.225 68.1224 285.184 68.0621L284.854 68.288ZM283.849 66.8165L284.854 68.2879L285.184 68.0623L284.179 66.591L283.849 66.8165ZM284.044 65.856C283.721 66.0664 283.631 66.4972 283.849 66.8165L284.179 66.591C284.09 66.4598 284.124 66.2811 284.262 66.1913L284.044 65.856ZM285.015 66.0468C284.799 65.7304 284.364 65.6468 284.044 65.8563L284.263 66.1911C284.403 66.0994 284.593 66.1378 284.685 66.2726L285.015 66.0468ZM285.912 67.3604L285.015 66.0469L284.685 66.2725L285.582 67.586L285.912 67.3604ZM287.112 67.6005L285.795 67.2789L285.7 67.6675L287.017 67.9891L287.112 67.6005ZM288.913 65.8031C287.966 66.0019 287.144 66.6926 286.871 67.7446L287.258 67.845C287.49 66.9513 288.186 66.3646 288.995 66.1946L288.913 65.8031ZM290.505 65.7988H288.954V66.1988H290.505V65.7988ZM291.466 67.1221H292.441V66.7221H291.466V67.1221ZM291.666 73.7555V66.9221H291.266V73.7555H291.666ZM293.746 68.4506C293.676 70.2954 293.485 71.5316 293.116 72.3286C292.933 72.7225 292.71 73.0022 292.441 73.1962C292.172 73.3902 291.845 73.5075 291.442 73.557L291.49 73.954C291.945 73.8983 292.34 73.7625 292.675 73.5205C293.01 73.2785 293.273 72.9394 293.479 72.4969C293.885 71.6211 294.075 70.3138 294.145 68.4657L293.746 68.4506ZM292.441 67.1221C293.185 67.1221 293.773 67.7262 293.746 68.4506L294.145 68.4657C294.182 67.508 293.406 66.7221 292.441 66.7221V67.1221ZM289.486 66.7221C288.52 66.7221 287.746 67.509 287.782 68.4654L288.182 68.4503C288.154 67.7268 288.741 67.1221 289.486 67.1221V66.7221ZM290.461 66.7221H289.486V67.1221H290.461V66.7221ZM290.661 73.7555V66.9221H290.261V73.7555H290.661ZM287.782 68.4654C287.852 70.3135 288.042 71.6209 288.448 72.4968C288.653 72.9394 288.917 73.2785 289.252 73.5205C289.587 73.7625 289.982 73.8983 290.437 73.954L290.486 73.557C290.082 73.5075 289.755 73.3902 289.486 73.1962C289.217 73.0022 288.994 72.7225 288.811 72.3286C288.442 71.5314 288.251 70.2952 288.182 68.4503L287.782 68.4654Z" fill="url(#paint4_linear_122_13)" mask="url(#path-28-outside-1_122_13)"/>
<path d="M290.505 61.5662H290.705V61.0834L290.364 61.4248L290.505 61.5662ZM290.505 65.9988V66.1988H290.705V65.9988H290.505ZM287.581 63.8414L287.722 63.6999H287.722L287.581 63.8414ZM287.581 63.1926L287.44 63.0512L287.581 63.1926ZM290.639 60.1344L290.781 60.2758V60.2758L290.639 60.1344ZM291.288 60.1344L291.429 59.9929V59.9929L291.288 60.1344ZM294.346 63.1926L294.488 63.0512L294.346 63.1926ZM294.346 63.8414L294.205 63.6999V63.6999L294.346 63.8414ZM293.698 63.8414L293.839 63.6999V63.6999L293.698 63.8414ZM291.422 61.5662L291.564 61.4248L291.222 61.0834V61.5662H291.422ZM291.422 65.9988H291.222V66.1988H291.422V65.9988ZM292.973 65.9988L293.014 65.8031L292.994 65.7988H292.973V65.9988ZM294.863 67.7948L294.669 67.845L294.718 68.0358L294.91 67.9891L294.863 67.7948ZM296.18 67.4732L296.227 67.6675L296.302 67.6494L296.345 67.586L296.18 67.4732ZM297.077 66.1597L297.242 66.2725L297.242 66.2725L297.077 66.1597ZM297.774 66.0237L297.665 66.1913L297.665 66.1913L297.774 66.0237ZM297.913 66.7037L298.078 66.8165L298.078 66.8165L297.913 66.7037ZM296.908 68.1751L296.743 68.0623L296.743 68.0624L296.908 68.1751ZM296.612 68.3789L296.66 68.5732L296.66 68.5731L296.612 68.3789ZM294.935 68.7881L294.888 68.5938L294.743 68.6293L294.736 68.7787L294.935 68.7881ZM294.865 69.8648L294.666 69.8468L294.646 70.0648H294.865V69.8648ZM296.908 70.0832L297.074 69.9704L297.074 69.9703L296.908 70.0832ZM297.913 71.5545L298.078 71.4417L298.078 71.4417L297.913 71.5545ZM297.774 72.2345L297.665 72.0669L297.665 72.067L297.774 72.2345ZM297.077 72.0985L296.912 72.2113L296.912 72.2114L297.077 72.0985ZM296.222 70.8456L296.387 70.7328L296.327 70.6456H296.222V70.8456ZM294.744 70.8456V70.6456H294.573L294.546 70.8151L294.744 70.8456ZM294.482 72.0552L294.29 71.9986L294.248 72.1416L294.373 72.2228L294.482 72.0552ZM295.764 72.8898L295.873 72.7222L295.873 72.7221L295.764 72.8898ZM294.983 73.5602H295.183V73.4517L295.092 73.3926L294.983 73.5602ZM294.114 72.9949L294.223 72.8272L294.038 72.7063L293.936 72.9036L294.114 72.9949ZM287.813 72.995L287.991 72.9038L287.889 72.7064L287.703 72.8274L287.813 72.995ZM286.944 73.5602L286.835 73.3926L286.744 73.4517V73.5602H286.944ZM286.163 72.8898L286.054 72.7221L286.054 72.7222L286.163 72.8898ZM287.445 72.0554L287.554 72.223L287.679 72.1417L287.637 71.9988L287.445 72.0554ZM287.183 70.8456L287.381 70.8151L287.354 70.6456H287.183V70.8456ZM285.706 70.8456V70.6456H285.6L285.541 70.7328L285.706 70.8456ZM284.85 72.0985L285.015 72.2113L285.015 72.2113L284.85 72.0985ZM284.153 72.2345L284.263 72.067L284.262 72.0669L284.153 72.2345ZM284.014 71.5545L283.849 71.4417L283.849 71.4417L284.014 71.5545ZM285.019 70.0832L284.854 69.9703L284.854 69.9704L285.019 70.0832ZM287.062 69.8648V70.0648H287.281L287.261 69.8468L287.062 69.8648ZM286.992 68.7881L287.192 68.7787L287.185 68.6293L287.039 68.5938L286.992 68.7881ZM285.315 68.3789L285.267 68.5731L285.268 68.5732L285.315 68.3789ZM285.019 68.1751L284.854 68.2879L284.854 68.288L285.019 68.1751ZM284.014 66.7037L283.849 66.8165L283.849 66.8165L284.014 66.7037ZM284.153 66.0237L284.262 66.1913L284.263 66.1911L284.153 66.0237ZM284.85 66.1597L285.015 66.0469L285.015 66.0468L284.85 66.1597ZM285.747 67.4732L285.582 67.586L285.625 67.6494L285.7 67.6675L285.747 67.4732ZM287.065 67.7948L287.017 67.9891L287.209 68.0358L287.258 67.845L287.065 67.7948ZM288.954 65.9988V65.7988H288.933L288.913 65.8031L288.954 65.9988ZM291.466 66.9221V66.7221H291.266V66.9221H291.466ZM291.466 73.7555H291.266V73.9815L291.49 73.954L291.466 73.7555ZM293.945 68.4582L294.145 68.4657V68.4657L293.945 68.4582ZM287.982 68.4579L288.182 68.4503L288.182 68.4503L287.982 68.4579ZM290.461 66.9221H290.661V66.7221H290.461V66.9221ZM290.461 73.7555L290.437 73.954L290.661 73.9815V73.7555H290.461ZM290.305 61.5662V65.9988H290.705V61.5662H290.305ZM288.371 63.9828L290.646 61.7076L290.364 61.4248L288.088 63.6999L288.371 63.9828ZM287.44 63.9828C287.697 64.24 288.114 64.24 288.371 63.9828L288.088 63.6999C287.987 63.801 287.823 63.801 287.722 63.6999L287.44 63.9828ZM287.44 63.0512C287.182 63.3084 287.182 63.7255 287.44 63.9828L287.722 63.6999C287.621 63.5989 287.621 63.4351 287.722 63.334L287.44 63.0512ZM290.498 59.9929L287.44 63.0512L287.722 63.334L290.781 60.2758L290.498 59.9929ZM291.429 59.9929C291.172 59.7357 290.755 59.7357 290.498 59.9929L290.781 60.2758C290.882 60.1747 291.046 60.1747 291.147 60.2758L291.429 59.9929ZM294.488 63.0512L291.429 59.9929L291.147 60.2758L294.205 63.334L294.488 63.0512ZM294.488 63.9828C294.745 63.7255 294.745 63.3084 294.488 63.0512L294.205 63.334C294.306 63.4351 294.306 63.5989 294.205 63.6999L294.488 63.9828ZM293.556 63.9828C293.813 64.24 294.23 64.24 294.488 63.9828L294.205 63.6999C294.104 63.801 293.94 63.801 293.839 63.6999L293.556 63.9828ZM291.281 61.7076L293.556 63.9828L293.839 63.6999L291.564 61.4248L291.281 61.7076ZM291.622 65.9988V61.5662H291.222V65.9988H291.622ZM292.973 65.7988H291.422V66.1988H292.973V65.7988ZM295.056 67.7446C294.786 66.7008 293.969 66.0035 293.014 65.8031L292.932 66.1946C293.748 66.3659 294.439 66.9581 294.669 67.845L295.056 67.7446ZM296.133 67.2789L294.815 67.6005L294.91 67.9891L296.227 67.6675L296.133 67.2789ZM296.912 66.0469L296.015 67.3604L296.345 67.586L297.242 66.2725L296.912 66.0469ZM297.883 65.8561C297.562 65.647 297.128 65.7302 296.912 66.0469L297.242 66.2725C297.334 66.138 297.523 66.0992 297.665 66.1913L297.883 65.8561ZM298.078 66.8165C298.296 66.4972 298.206 66.0664 297.883 65.856L297.665 66.1913C297.803 66.2811 297.838 66.4598 297.748 66.591L298.078 66.8165ZM297.074 68.2879L298.078 66.8165L297.748 66.591L296.743 68.0623L297.074 68.2879ZM296.66 68.5731C296.828 68.5319 296.976 68.4311 297.074 68.2877L296.743 68.0624C296.702 68.1224 296.639 68.1664 296.565 68.1847L296.66 68.5731ZM294.983 68.9824L296.66 68.5732L296.565 68.1846L294.888 68.5938L294.983 68.9824ZM295.064 69.8828C295.096 69.5361 295.118 69.1712 295.135 68.7974L294.736 68.7787C294.718 69.1495 294.697 69.5081 294.666 69.8468L295.064 69.8828ZM296.49 69.6648H294.865V70.0648H296.49V69.6648ZM297.074 69.9703C296.942 69.7782 296.723 69.6648 296.49 69.6648V70.0648C296.594 70.0648 296.688 70.1151 296.743 70.196L297.074 69.9703ZM298.078 71.4417L297.074 69.9704L296.743 70.196L297.748 71.6673L298.078 71.4417ZM297.883 72.4022C298.206 72.1919 298.296 71.761 298.078 71.4417L297.748 71.6672C297.838 71.7985 297.803 71.9771 297.665 72.0669L297.883 72.4022ZM296.912 72.2114C297.129 72.5282 297.563 72.6104 297.883 72.4021L297.665 72.067C297.524 72.1585 297.334 72.1201 297.242 71.9856L296.912 72.2114ZM296.056 70.9584L296.912 72.2113L297.242 71.9857L296.387 70.7328L296.056 70.9584ZM294.744 71.0456H296.222V70.6456H294.744V71.0456ZM294.674 72.1118C294.786 71.7317 294.873 71.3181 294.942 70.8762L294.546 70.8151C294.48 71.2438 294.396 71.6394 294.29 71.9986L294.674 72.1118ZM295.873 72.7221L294.591 71.8876L294.373 72.2228L295.655 73.0574L295.873 72.7221ZM296.188 73.2978C296.188 73.0648 296.069 72.8493 295.873 72.7222L295.655 73.0574C295.739 73.1123 295.788 73.2029 295.788 73.2978H296.188ZM296.188 75.2595V73.2978H295.788V75.2595H296.188ZM295.486 75.95C295.869 75.95 296.188 75.6454 296.188 75.2595H295.788C295.788 75.4154 295.657 75.55 295.486 75.55V75.95ZM294.783 75.2595C294.783 75.6454 295.102 75.95 295.486 75.95V75.55C295.314 75.55 295.183 75.4154 295.183 75.2595H294.783ZM294.783 73.5602V75.2595H295.183V73.5602H294.783ZM294.005 73.1625L294.874 73.7278L295.092 73.3926L294.223 72.8272L294.005 73.1625ZM290.964 74.9691C291.791 74.9691 292.469 74.8048 293.022 74.4816C293.575 74.1578 293.986 73.6829 294.292 73.0861L293.936 72.9036C293.659 73.4455 293.296 73.8577 292.82 74.1364C292.343 74.4156 291.738 74.5691 290.964 74.5691V74.9691ZM287.635 73.0863C287.94 73.683 288.352 74.1578 288.905 74.4816C289.458 74.8048 290.136 74.9691 290.964 74.9691V74.5691C290.189 74.5691 289.584 74.4156 289.107 74.1364C288.631 73.8578 288.268 73.4455 287.991 72.9038L287.635 73.0863ZM287.053 73.7278L287.922 73.1627L287.703 72.8274L286.835 73.3926L287.053 73.7278ZM287.144 75.2595V73.5602H286.744V75.2595H287.144ZM286.442 75.95C286.825 75.95 287.144 75.6454 287.144 75.2595H286.744C286.744 75.4154 286.613 75.55 286.442 75.55V75.95ZM285.739 75.2595C285.739 75.6454 286.058 75.95 286.442 75.95V75.55C286.27 75.55 286.139 75.4154 286.139 75.2595H285.739ZM285.739 73.2978V75.2595H286.139V73.2978H285.739ZM286.054 72.7222C285.859 72.8493 285.739 73.0648 285.739 73.2978H286.139C286.139 73.2029 286.188 73.1123 286.272 73.0574L286.054 72.7222ZM287.336 71.8877L286.054 72.7221L286.272 73.0574L287.554 72.223L287.336 71.8877ZM286.985 70.8762C287.054 71.3181 287.141 71.7317 287.253 72.1119L287.637 71.9988C287.531 71.6394 287.447 71.2438 287.381 70.8151L286.985 70.8762ZM285.706 71.0456H287.183V70.6456H285.706V71.0456ZM285.015 72.2113L285.871 70.9584L285.541 70.7328L284.685 71.9857L285.015 72.2113ZM284.044 72.4021C284.364 72.6104 284.799 72.5283 285.015 72.2113L284.685 71.9857C284.593 72.12 284.403 72.1585 284.263 72.067L284.044 72.4021ZM283.849 71.4417C283.631 71.761 283.721 72.1919 284.044 72.4022L284.262 72.0669C284.124 71.9771 284.09 71.7985 284.179 71.6672L283.849 71.4417ZM284.854 69.9704L283.849 71.4417L284.179 71.6673L285.184 70.196L284.854 69.9704ZM285.437 69.6648C285.204 69.6648 284.985 69.7782 284.854 69.9703L285.184 70.196C285.239 70.1151 285.334 70.0648 285.437 70.0648V69.6648ZM287.062 69.6648H285.437V70.0648H287.062V69.6648ZM286.792 68.7974C286.81 69.1711 286.831 69.5361 286.863 69.8828L287.261 69.8468C287.231 69.5081 287.209 69.1495 287.192 68.7787L286.792 68.7974ZM285.268 68.5732L286.945 68.9824L287.039 68.5938L285.362 68.1846L285.268 68.5732ZM284.854 68.288C284.952 68.4307 285.099 68.5318 285.267 68.5731L285.363 68.1847C285.288 68.1665 285.225 68.1224 285.184 68.0621L284.854 68.288ZM283.849 66.8165L284.854 68.2879L285.184 68.0623L284.179 66.591L283.849 66.8165ZM284.044 65.856C283.721 66.0664 283.631 66.4972 283.849 66.8165L284.179 66.591C284.09 66.4598 284.124 66.2811 284.262 66.1913L284.044 65.856ZM285.015 66.0468C284.799 65.7304 284.364 65.6468 284.044 65.8563L284.263 66.1911C284.403 66.0994 284.593 66.1378 284.685 66.2726L285.015 66.0468ZM285.912 67.3604L285.015 66.0469L284.685 66.2725L285.582 67.586L285.912 67.3604ZM287.112 67.6005L285.795 67.2789L285.7 67.6675L287.017 67.9891L287.112 67.6005ZM288.913 65.8031C287.966 66.0019 287.144 66.6926 286.871 67.7446L287.258 67.845C287.49 66.9513 288.186 66.3646 288.995 66.1946L288.913 65.8031ZM290.505 65.7988H288.954V66.1988H290.505V65.7988ZM291.466 67.1221H292.441V66.7221H291.466V67.1221ZM291.666 73.7555V66.9221H291.266V73.7555H291.666ZM293.746 68.4506C293.676 70.2954 293.485 71.5316 293.116 72.3286C292.933 72.7225 292.71 73.0022 292.441 73.1962C292.172 73.3902 291.845 73.5075 291.442 73.557L291.49 73.954C291.945 73.8983 292.34 73.7625 292.675 73.5205C293.01 73.2785 293.273 72.9394 293.479 72.4969C293.885 71.6211 294.075 70.3138 294.145 68.4657L293.746 68.4506ZM292.441 67.1221C293.185 67.1221 293.773 67.7262 293.746 68.4506L294.145 68.4657C294.182 67.508 293.406 66.7221 292.441 66.7221V67.1221ZM289.486 66.7221C288.52 66.7221 287.746 67.509 287.782 68.4654L288.182 68.4503C288.154 67.7268 288.741 67.1221 289.486 67.1221V66.7221ZM290.461 66.7221H289.486V67.1221H290.461V66.7221ZM290.661 73.7555V66.9221H290.261V73.7555H290.661ZM287.782 68.4654C287.852 70.3135 288.042 71.6209 288.448 72.4968C288.653 72.9394 288.917 73.2785 289.252 73.5205C289.587 73.7625 289.982 73.8983 290.437 73.954L290.486 73.557C290.082 73.5075 289.755 73.3902 289.486 73.1962C289.217 73.0022 288.994 72.7225 288.811 72.3286C288.442 71.5314 288.251 70.2952 288.182 68.4503L287.782 68.4654Z" fill="url(#paint5_linear_122_13)" mask="url(#path-28-outside-1_122_13)"/>
<path d="M152.559 124.847L144.698 156.935H144.313L135.897 124.847H128.163L119.768 156.913H119.364L111.501 124.847H103L115.315 168.482H123.114L131.87 137.865H132.211L140.948 168.482H148.746L161.061 124.847H152.559Z" fill="white"/>
<path d="M171.385 124.847L156.028 168.482H164.465L168.074 157.723H184.475L188.09 168.482H196.528L181.144 124.847H171.385ZM170.199 151.374L176.099 133.795H176.44L182.346 151.374H170.199Z" fill="white"/>
<path d="M227.016 150.83C229.205 149.818 231.031 148.16 232.248 146.079C233.478 143.854 234.093 141.341 234.028 138.8C234.085 136.249 233.48 133.727 232.27 131.48C231.078 129.366 229.273 127.661 227.094 126.591C224.456 125.349 221.56 124.75 218.645 124.844H202.279V168.482H210.184V152.5H218.228L226.803 168.479H235.628L226.17 151.168C226.449 151.056 226.749 150.96 227.016 150.83ZM210.184 131.452H217.428C219.084 131.392 220.733 131.686 222.265 132.314C223.444 132.827 224.424 133.71 225.056 134.829C225.696 136.054 226.012 137.422 225.972 138.803C226.017 140.163 225.705 141.511 225.066 142.712C224.43 143.799 223.453 144.645 222.286 145.12C220.754 145.718 219.115 145.997 217.471 145.94H210.183L210.184 131.452Z" fill="white"/>
<path d="M270.102 131.867C268.923 129.679 267.123 127.889 264.928 126.722C262.315 125.395 259.409 124.75 256.479 124.847H240.113V168.482H248.018V153.739H256.371C259.316 153.834 262.237 153.193 264.871 151.874C267.081 150.721 268.898 148.938 270.091 146.75C271.3 144.453 271.908 141.887 271.859 139.292C271.904 136.709 271.3 134.156 270.102 131.867V131.867ZM262.902 143.405C262.289 144.608 261.318 145.59 260.122 146.217C258.628 146.954 256.972 147.306 255.307 147.24H248.018V131.452H255.263C256.935 131.387 258.598 131.727 260.11 132.442C261.308 133.045 262.285 134.011 262.901 135.202C263.526 136.473 263.837 137.876 263.807 139.292C263.835 140.715 263.525 142.125 262.901 143.405H262.902Z" fill="white"/>
<g filter="url(#filter1_bi_122_13)">
<path d="M0 703.5C0 680.58 18.5802 662 41.5 662H333.5C356.42 662 375 680.58 375 703.5V812H0V703.5Z" fill="#1D1F20" fill-opacity="0.8"/>
</g>
<path d="M49.0391 762.727H47.0234V770.117C47.0234 772.578 48.8047 774.281 51.6562 774.281C54.5078 774.281 56.2891 772.578 56.2891 770.117V762.727H54.2734V769.938C54.2734 771.477 53.3281 772.523 51.6562 772.523C49.9844 772.523 49.0391 771.477 49.0391 769.938V762.727ZM63.5156 765.32C62.3438 765.32 61.3516 765.906 60.8594 766.875H60.7266V765.461H58.8594V776.836H60.7969V772.703H60.9297C61.3672 773.609 62.3125 774.141 63.5391 774.141C65.6953 774.141 67.0391 772.445 67.0391 769.734C67.0391 767 65.6797 765.32 63.5156 765.32ZM62.9062 772.531C61.5859 772.531 60.7656 771.461 60.7578 769.734C60.7656 768.008 61.5938 766.938 62.9141 766.938C64.2422 766.938 65.0469 767.984 65.0469 769.734C65.0469 771.484 64.25 772.531 62.9062 772.531ZM72.6562 777.25C75.1484 777.25 76.7266 776.008 76.7266 774.047V765.461H74.8594V766.828H74.7266C74.2578 765.898 73.2422 765.32 72.0781 765.32C69.8984 765.32 68.5469 767.023 68.5469 769.641C68.5469 772.203 69.8906 773.875 72.0469 773.875C73.2344 773.875 74.1641 773.375 74.6562 772.453H74.7891V774.078C74.7891 775.164 74.0156 775.805 72.6875 775.805C71.625 775.805 70.9375 775.422 70.8125 774.82H68.8672C69.0234 776.289 70.4609 777.25 72.6562 777.25ZM72.6562 772.336C71.3047 772.336 70.5391 771.289 70.5391 769.633C70.5391 767.984 71.3047 766.938 72.6562 766.938C74 766.938 74.8203 767.984 74.8203 769.641C74.8203 771.289 74.0078 772.336 72.6562 772.336ZM79.1094 774H81.0469V769.039C81.0469 767.836 81.9219 767.055 83.1797 767.055C83.5078 767.055 84.0234 767.109 84.1719 767.164V765.398C83.9922 765.352 83.6484 765.32 83.3672 765.32C82.2656 765.32 81.3438 765.945 81.1094 766.789H80.9766V765.461H79.1094V774ZM88.0078 774.141C89.125 774.141 90.0625 773.656 90.5391 772.828H90.6719V774H92.5391V768.164C92.5391 766.359 91.3047 765.297 89.1094 765.297C87.0781 765.297 85.6641 766.25 85.5078 767.742H87.3359C87.5156 767.156 88.125 766.836 89.0156 766.836C90.0625 766.836 90.625 767.312 90.625 768.164V768.898L88.4219 769.031C86.3438 769.148 85.1797 770.047 85.1797 771.578C85.1797 773.141 86.3594 774.141 88.0078 774.141ZM88.5781 772.648C87.7188 772.648 87.1016 772.219 87.1016 771.484C87.1016 770.773 87.6094 770.375 88.6953 770.305L90.625 770.172V770.867C90.625 771.883 89.75 772.648 88.5781 772.648ZM97.9688 774.141C99.1562 774.141 100.141 773.586 100.625 772.648H100.758V774H102.633V762.156H100.695V766.82H100.562C100.109 765.883 99.1406 765.32 97.9688 765.32C95.8125 765.32 94.4531 767.023 94.4531 769.727C94.4531 772.438 95.8047 774.141 97.9688 774.141ZM98.5703 766.938C99.8984 766.938 100.719 768.008 100.719 769.734C100.719 771.469 99.9062 772.531 98.5703 772.531C97.2422 772.531 96.4375 771.484 96.4375 769.734C96.4375 767.992 97.25 766.938 98.5703 766.938ZM110.648 771.664C110.367 772.305 109.703 772.664 108.742 772.664C107.469 772.664 106.648 771.758 106.602 770.312V770.211H112.57V769.594C112.57 766.914 111.109 765.297 108.672 765.297C106.195 765.297 104.656 767.023 104.656 769.766C104.656 772.5 106.172 774.172 108.688 774.172C110.703 774.172 112.133 773.203 112.484 771.664H110.648ZM108.664 766.805C109.828 766.805 110.594 767.625 110.633 768.922H106.609C106.695 767.641 107.508 766.805 108.664 766.805ZM119.406 774H121.336V767.023H123.172V765.516H121.312V764.727C121.312 763.914 121.672 763.508 122.586 763.508C122.859 763.508 123.094 763.531 123.25 763.555V762.156C122.938 762.102 122.586 762.078 122.172 762.078C120.273 762.078 119.406 762.914 119.406 764.617V765.516H118.008V767.023H119.406V774ZM128.422 774.172C130.977 774.172 132.531 772.5 132.531 769.727C132.531 766.969 130.969 765.297 128.422 765.297C125.883 765.297 124.312 766.977 124.312 769.727C124.312 772.5 125.859 774.172 128.422 774.172ZM128.422 772.586C127.07 772.586 126.297 771.539 126.297 769.734C126.297 767.93 127.07 766.883 128.422 766.883C129.766 766.883 130.539 767.93 130.539 769.734C130.539 771.539 129.773 772.586 128.422 772.586ZM134.484 774H136.422V769.039C136.422 767.836 137.297 767.055 138.555 767.055C138.883 767.055 139.398 767.109 139.547 767.164V765.398C139.367 765.352 139.023 765.32 138.742 765.32C137.641 765.32 136.719 765.945 136.484 766.789H136.352V765.461H134.484V774ZM147.758 774.141C148.875 774.141 149.812 773.656 150.289 772.828H150.422V774H152.289V768.164C152.289 766.359 151.055 765.297 148.859 765.297C146.828 765.297 145.414 766.25 145.258 767.742H147.086C147.266 767.156 147.875 766.836 148.766 766.836C149.812 766.836 150.375 767.312 150.375 768.164V768.898L148.172 769.031C146.094 769.148 144.93 770.047 144.93 771.578C144.93 773.141 146.109 774.141 147.758 774.141ZM148.328 772.648C147.469 772.648 146.852 772.219 146.852 771.484C146.852 770.773 147.359 770.375 148.445 770.305L150.375 770.172V770.867C150.375 771.883 149.5 772.648 148.328 772.648ZM154.625 774H156.562V769.023C156.562 767.742 157.289 766.938 158.445 766.938C159.625 766.938 160.172 767.602 160.172 768.93V774H162.109V768.477C162.109 766.445 161.07 765.297 159.164 765.297C157.891 765.297 157.031 765.875 156.625 766.828H156.492V765.461H154.625V774ZM174.242 771.664C173.961 772.305 173.297 772.664 172.336 772.664C171.062 772.664 170.242 771.758 170.195 770.312V770.211H176.164V769.594C176.164 766.914 174.703 765.297 172.266 765.297C169.789 765.297 168.25 767.023 168.25 769.766C168.25 772.5 169.766 774.172 172.281 774.172C174.297 774.172 175.727 773.203 176.078 771.664H174.242ZM172.258 766.805C173.422 766.805 174.188 767.625 174.227 768.922H170.203C170.289 767.641 171.102 766.805 172.258 766.805ZM185.359 765.461H183.312L181.352 772.102H181.219L179.242 765.461H177.164L180.203 774H182.336L185.359 765.461ZM192.227 771.664C191.945 772.305 191.281 772.664 190.32 772.664C189.047 772.664 188.227 771.758 188.18 770.312V770.211H194.148V769.594C194.148 766.914 192.688 765.297 190.25 765.297C187.773 765.297 186.234 767.023 186.234 769.766C186.234 772.5 187.75 774.172 190.266 774.172C192.281 774.172 193.711 773.203 194.062 771.664H192.227ZM190.242 766.805C191.406 766.805 192.172 767.625 192.211 768.922H188.188C188.273 767.641 189.086 766.805 190.242 766.805ZM196.094 774H198.031V769.023C198.031 767.742 198.758 766.938 199.914 766.938C201.094 766.938 201.641 767.602 201.641 768.93V774H203.578V768.477C203.578 766.445 202.539 765.297 200.633 765.297C199.359 765.297 198.5 765.875 198.094 766.828H197.961V765.461H196.094V774ZM214.891 774.141C217.047 774.141 218.398 772.445 218.398 769.734C218.398 767.008 217.055 765.32 214.891 765.32C213.719 765.32 212.734 765.891 212.289 766.82H212.156V762.156H210.219V774H212.086V772.648H212.219C212.703 773.586 213.695 774.141 214.891 774.141ZM214.281 766.938C215.602 766.938 216.406 767.992 216.406 769.734C216.406 771.477 215.609 772.531 214.281 772.531C212.953 772.531 212.125 771.461 212.125 769.734C212.125 768.008 212.961 766.938 214.281 766.938ZM225.914 771.664C225.633 772.305 224.969 772.664 224.008 772.664C222.734 772.664 221.914 771.758 221.867 770.312V770.211H227.836V769.594C227.836 766.914 226.375 765.297 223.938 765.297C221.461 765.297 219.922 767.023 219.922 769.766C219.922 772.5 221.438 774.172 223.953 774.172C225.969 774.172 227.398 773.203 227.75 771.664H225.914ZM223.93 766.805C225.094 766.805 225.859 767.625 225.898 768.922H221.875C221.961 767.641 222.773 766.805 223.93 766.805ZM230.398 763.367V765.516H229.047V767.023H230.398V771.734C230.398 773.383 231.18 774.039 233.141 774.039C233.516 774.039 233.875 774.008 234.156 773.953V772.469C233.922 772.492 233.773 772.508 233.5 772.508C232.688 772.508 232.328 772.125 232.328 771.273V767.023H234.156V765.516H232.328V763.367H230.398ZM236.758 763.367V765.516H235.406V767.023H236.758V771.734C236.758 773.383 237.539 774.039 239.5 774.039C239.875 774.039 240.234 774.008 240.516 773.953V772.469C240.281 772.492 240.133 772.508 239.859 772.508C239.047 772.508 238.688 772.125 238.688 771.273V767.023H240.516V765.516H238.688V763.367H236.758ZM247.945 771.664C247.664 772.305 247 772.664 246.039 772.664C244.766 772.664 243.945 771.758 243.898 770.312V770.211H249.867V769.594C249.867 766.914 248.406 765.297 245.969 765.297C243.492 765.297 241.953 767.023 241.953 769.766C241.953 772.5 243.469 774.172 245.984 774.172C248 774.172 249.43 773.203 249.781 771.664H247.945ZM245.961 766.805C247.125 766.805 247.891 767.625 247.93 768.922H243.906C243.992 767.641 244.805 766.805 245.961 766.805ZM251.812 774H253.75V769.039C253.75 767.836 254.625 767.055 255.883 767.055C256.211 767.055 256.727 767.109 256.875 767.164V765.398C256.695 765.352 256.352 765.32 256.07 765.32C254.969 765.32 254.047 765.945 253.812 766.789H253.68V765.461H251.812V774ZM264.953 774V762.727H262.938V774H264.953ZM267.531 774H269.469V769.023C269.469 767.742 270.195 766.938 271.352 766.938C272.531 766.938 273.078 767.602 273.078 768.93V774H275.016V768.477C275.016 766.445 273.977 765.297 272.07 765.297C270.797 765.297 269.938 765.875 269.531 766.828H269.398V765.461H267.531V774ZM277.93 763.367V765.516H276.578V767.023H277.93V771.734C277.93 773.383 278.711 774.039 280.672 774.039C281.047 774.039 281.406 774.008 281.688 773.953V772.469C281.453 772.492 281.305 772.508 281.031 772.508C280.219 772.508 279.859 772.125 279.859 771.273V767.023H281.688V765.516H279.859V763.367H277.93ZM289.117 771.664C288.836 772.305 288.172 772.664 287.211 772.664C285.938 772.664 285.117 771.758 285.07 770.312V770.211H291.039V769.594C291.039 766.914 289.578 765.297 287.141 765.297C284.664 765.297 283.125 767.023 283.125 769.766C283.125 772.5 284.641 774.172 287.156 774.172C289.172 774.172 290.602 773.203 290.953 771.664H289.117ZM287.133 766.805C288.297 766.805 289.062 767.625 289.102 768.922H285.078C285.164 767.641 285.977 766.805 287.133 766.805ZM292.984 774H294.922V769.039C294.922 767.836 295.797 767.055 297.055 767.055C297.383 767.055 297.898 767.109 298.047 767.164V765.398C297.867 765.352 297.523 765.32 297.242 765.32C296.141 765.32 295.219 765.945 294.984 766.789H294.852V765.461H292.984V774ZM299.75 774H301.688V769.023C301.688 767.742 302.414 766.938 303.57 766.938C304.75 766.938 305.297 767.602 305.297 768.93V774H307.234V768.477C307.234 766.445 306.195 765.297 304.289 765.297C303.016 765.297 302.156 765.875 301.75 766.828H301.617V765.461H299.75V774ZM315.102 771.664C314.82 772.305 314.156 772.664 313.195 772.664C311.922 772.664 311.102 771.758 311.055 770.312V770.211H317.023V769.594C317.023 766.914 315.562 765.297 313.125 765.297C310.648 765.297 309.109 767.023 309.109 769.766C309.109 772.5 310.625 774.172 313.141 774.172C315.156 774.172 316.586 773.203 316.938 771.664H315.102ZM313.117 766.805C314.281 766.805 315.047 767.625 315.086 768.922H311.062C311.148 767.641 311.961 766.805 313.117 766.805ZM319.586 763.367V765.516H318.234V767.023H319.586V771.734C319.586 773.383 320.367 774.039 322.328 774.039C322.703 774.039 323.062 774.008 323.344 773.953V772.469C323.109 772.492 322.961 772.508 322.688 772.508C321.875 772.508 321.516 772.125 321.516 771.273V767.023H323.344V765.516H321.516V763.367H319.586ZM326.727 774.156C327.469 774.156 327.977 773.633 327.977 772.938C327.977 772.25 327.469 771.727 326.727 771.727C325.992 771.727 325.477 772.25 325.477 772.938C325.477 773.633 325.992 774.156 326.727 774.156Z" fill="white"/>
<path d="M147.062 723.594H147.203L151.484 739H155.938L161.922 716.453H157.031L153.469 732.781H153.344L149.125 716.453H145.141L140.922 732.781H140.797L137.25 716.453H132.359L138.328 739H142.781L147.062 723.594ZM177.109 739H182.125L174.281 716.453H168.734L160.906 739H165.75L167.469 733.531H175.391L177.109 739ZM171.375 720.766H171.484L174.375 730H168.484L171.375 720.766ZM189.156 730.75H192.938L197.141 739H202.484L197.734 730.047C200.328 729.031 201.828 726.531 201.828 723.641C201.828 719.188 198.859 716.453 193.672 716.453H184.438V739H189.156V730.75ZM189.156 720.141H193.172C195.516 720.141 196.984 721.547 196.984 723.734C196.984 725.969 195.594 727.328 193.219 727.328H189.156V720.141ZM204.938 716.453V739H209.656V731.891H213.875C218.625 731.891 221.922 728.797 221.922 724.172C221.922 719.531 218.734 716.453 214.109 716.453H204.938ZM209.656 720.188H212.859C215.562 720.188 217.125 721.625 217.125 724.188C217.125 726.766 215.547 728.203 212.844 728.203H209.656V720.188ZM234.984 731.953H241.062V727.969H234.984V721.578H230.906V727.969H224.844V731.953H230.906V738.328H234.984V731.953Z" fill="white"/>
<path d="M188.207 674.996H186.793L174.5 687L177.615 687.002H197.386L200.5 687L188.207 674.996ZM177.615 687.002L187.5 677.117L197.386 687.002H177.615Z" fill="white"/>
</g>
<defs>
<filter id="filter0_d_122_13" x="177.5" y="250" width="84" height="84" filterUnits="userSpaceOnUse" color-interpolation-filters="sRGB">
<feFlood flood-opacity="0" result="BackgroundImageFix"/>
<feColorMatrix in="SourceAlpha" type="matrix" values="0 0 0 0 0 0 0 0 0 0 0 0 0 0 0 0 0 0 127 0" result="hardAlpha"/>
<feOffset dy="3"/>
<feGaussianBlur stdDeviation="4"/>
<feColorMatrix type="matrix" values="0 0 0 0 0 0 0 0 0 0 0 0 0 0 0 0 0 0 0.33857 0"/>
<feBlend mode="normal" in2="BackgroundImageFix" result="effect1_dropShadow_122_13"/>
<feBlend mode="normal" in="SourceGraphic" in2="effect1_dropShadow_122_13" result="shape"/>
</filter>
<filter id="filter1_bi_122_13" x="-8" y="654" width="391" height="166" filterUnits="userSpaceOnUse" color-interpolation-filters="sRGB">
<feFlood flood-opacity="0" result="BackgroundImageFix"/>
<feGaussianBlur in="BackgroundImage" stdDeviation="4"/>
<feComposite in2="SourceAlpha" operator="in" result="effect1_backgroundBlur_122_13"/>
<feBlend mode="normal" in="SourceGraphic" in2="effect1_backgroundBlur_122_13" result="shape"/>
<feColorMatrix in="SourceAlpha" type="matrix" values="0 0 0 0 0 0 0 0 0 0 0 0 0 0 0 0 0 0 127 0" result="hardAlpha"/>
<feOffset dy="0.6"/>
<feGaussianBlur stdDeviation="0.2"/>
<feComposite in2="hardAlpha" operator="arithmetic" k2="-1" k3="1"/>
<feColorMatrix type="matrix" values="0 0 0 0 1 0 0 0 0 1 0 0 0 0 1 0 0 0 0.130803 0"/>
<feBlend mode="normal" in2="shape" result="effect2_innerShadow_122_13"/>
</filter>
<linearGradient id="paint0_linear_122_13" x1="219.5" y1="255" x2="219.5" y2="323" gradientUnits="userSpaceOnUse">
<stop stop-color="white"/>
<stop offset="1" stop-color="white" stop-opacity="0"/>
</linearGradient>
<linearGradient id="paint1_linear_122_13" x1="219.5" y1="255" x2="219.5" y2="323" gradientUnits="userSpaceOnUse">
<stop stop-color="white"/>
<stop offset="1" stop-color="white" stop-opacity="0"/>
</linearGradient>
<linearGradient id="paint2_linear_122_13" x1="290.964" y1="60" x2="290.964" y2="75.75" gradientUnits="userSpaceOnUse">
<stop stop-color="white"/>
<stop offset="1" stop-color="white" stop-opacity="0"/>
</linearGradient>
<linearGradient id="paint3_linear_122_13" x1="290.964" y1="60" x2="290.964" y2="75.75" gradientUnits="userSpaceOnUse">
<stop stop-color="white"/>
<stop offset="1" stop-color="white" stop-opacity="0"/>
</linearGradient>
<linearGradient id="paint4_linear_122_13" x1="290.964" y1="60" x2="290.964" y2="75.75" gradientUnits="userSpaceOnUse">
<stop stop-color="white"/>
<stop offset="1" stop-color="white" stop-opacity="0"/>
</linearGradient>
<linearGradient id="paint5_linear_122_13" x1="290.964" y1="60" x2="290.964" y2="75.75" gradientUnits="userSpaceOnUse">
<stop stop-color="white"/>
<stop offset="1" stop-color="white" stop-opacity="0"/>
</linearGradient>
<clipPath id="clip0_122_13">
<rect width="375" height="812" fill="white"/>
</clipPath>
</defs>
</svg>
