<svg width="377" height="55" viewBox="0 0 377 55" fill="none" xmlns="http://www.w3.org/2000/svg">
<path fill-rule="evenodd" clip-rule="evenodd" d="M97.2662 23.7569C96.8756 23.7569 96.4495 23.7569 96.0588 23.7924C95.7748 23.7924 95.5262 24.0055 95.4196 24.2896L93.7151 30.22C92.9694 32.7768 93.2534 35.1205 94.4963 36.8606C95.6327 38.4586 97.5503 39.3819 99.8586 39.4884L109.163 40.0566C109.447 40.0566 109.695 40.1987 109.837 40.4117C109.979 40.6248 110.015 40.9444 109.944 41.193C109.802 41.6191 109.376 41.9387 108.914 41.9742L99.2194 42.5424C93.9637 42.7913 88.3174 47.0168 86.3287 52.2019L85.6185 54.0126C85.4765 54.3677 85.725 54.7228 86.1157 54.7228H119.425C119.816 54.7228 120.171 54.4742 120.278 54.0836C120.846 52.0243 121.165 49.8577 121.165 47.6205C121.165 34.4813 110.441 23.7569 97.2662 23.7569Z" fill="black"/>
<path fill-rule="evenodd" clip-rule="evenodd" d="M83.3452 51.8466C84.0913 49.2898 83.8068 46.9457 82.5639 45.206C81.4279 43.608 79.5099 42.6843 77.2017 42.5778L33.4876 42.0099C33.2031 42.0099 32.9549 41.8675 32.8125 41.6548C32.6705 41.4418 32.6349 41.1573 32.706 40.8736C32.848 40.4471 33.2741 40.1278 33.7358 40.092L77.8409 39.5241C83.0611 39.2756 88.7429 35.0497 90.7315 29.8651L93.2528 23.2955C93.3594 23.0114 93.3949 22.7273 93.3242 22.4432C90.4833 9.58807 79.0128 0 65.3054 0C52.6637 0 41.9389 8.16761 38.104 19.4954C35.6183 17.6491 32.4574 16.6545 29.0486 16.9744C22.9759 17.5781 18.1108 22.4432 17.5075 28.5156C17.3651 30.0781 17.4716 31.6051 17.8267 33.0256C7.91939 33.3097 0 41.4062 0 51.3846C0 52.2724 0.0710227 53.1602 0.177557 54.0479C0.24858 54.4741 0.603693 54.794 1.02983 54.794H81.7116C82.1733 54.794 82.5994 54.4741 82.7415 54.0128L83.3452 51.8466Z" fill="black"/>
<path fill-rule="evenodd" clip-rule="evenodd" d="M145.305 46.7045C144.524 48.4442 142.891 49.6871 140.76 49.6871C137.741 49.6871 135.682 47.1662 135.682 44.3253V44.2543C135.682 41.3778 137.706 38.9276 140.724 38.9276C142.997 38.9276 144.737 40.3125 145.447 42.2298H151.271C150.348 37.4716 146.158 33.956 140.76 33.956C134.616 33.956 130 38.6076 130 44.3253V44.3963C130 50.1136 134.545 54.6946 140.689 54.6946C145.945 54.6946 150.064 51.2852 151.129 46.7401L145.305 46.7045Z" fill="black"/>
<path fill-rule="evenodd" clip-rule="evenodd" d="M157.379 34.3463H162.919V49.4386H172.542V54.2685H157.379V34.3463Z" fill="black"/>
<path fill-rule="evenodd" clip-rule="evenodd" d="M194.098 44.3606V44.2896C194.098 41.4131 192.038 38.9273 188.984 38.9273C185.966 38.9273 183.941 41.378 183.941 44.254V44.3251C183.941 47.2015 186.001 49.6873 189.02 49.6873C192.074 49.6873 194.098 47.2374 194.098 44.3606ZM178.26 44.3606V44.2896C178.26 38.5722 182.876 33.9206 189.02 33.9206C195.163 33.9206 199.709 38.5012 199.709 44.2189V44.2896C199.709 50.0069 195.092 54.6589 188.949 54.6589C182.805 54.6589 178.26 50.0783 178.26 44.3606Z" fill="black"/>
<path fill-rule="evenodd" clip-rule="evenodd" d="M206.491 45.5324V34.3463H212.102V45.4259C212.102 48.3026 213.558 49.6521 215.76 49.6521C217.961 49.6521 219.417 48.3378 219.417 45.5683V34.3463H225.028V45.3907C225.028 51.8179 221.37 54.6237 215.689 54.6237C210.042 54.6237 206.491 51.7827 206.491 45.5324Z" fill="black"/>
<path fill-rule="evenodd" clip-rule="evenodd" d="M241.257 49.3679C244.56 49.3679 246.761 47.5565 246.761 44.3253V44.2543C246.761 41.0582 244.56 39.2113 241.257 39.2113H239.02V49.332H241.257V49.3679ZM233.48 34.3463H241.151C248.253 34.3463 252.408 38.4301 252.408 44.1829V44.2543C252.408 50.0071 248.218 54.2685 241.044 54.2685H233.48V34.3463Z" fill="black"/>
<path fill-rule="evenodd" clip-rule="evenodd" d="M260.434 34.3463H276.378V39.1762H265.938V42.5849H275.384V47.1663H265.938V54.2685H260.434V34.3463Z" fill="black"/>
<path fill-rule="evenodd" clip-rule="evenodd" d="M284.049 34.3463H289.553V49.4386H299.212V54.2685H284.049V34.3463Z" fill="black"/>
<path fill-rule="evenodd" clip-rule="evenodd" d="M318.494 46.4202L316.293 40.7742L314.056 46.4202H318.494ZM313.629 34.2046H318.956L327.443 54.2685H321.513L320.057 50.7174H312.387L310.966 54.2685H305.178L313.629 34.2046Z" fill="black"/>
<path fill-rule="evenodd" clip-rule="evenodd" d="M343.707 43.899C345.589 43.899 346.654 42.9757 346.654 41.5552V41.4842C346.654 39.9217 345.518 39.1405 343.671 39.1405H340.049V43.899H343.707ZM334.545 34.3464H343.955C347.009 34.3464 349.105 35.1277 350.454 36.5126C351.626 37.649 352.23 39.176 352.23 41.1646V41.2356C352.23 44.2896 350.596 46.3138 348.146 47.3436L352.904 54.3038H346.512L342.5 48.2669H340.085V54.3038H334.545V34.3464Z" fill="black"/>
<path fill-rule="evenodd" clip-rule="evenodd" d="M360.185 34.3463H376.2V39.0338H365.653V42.0523H375.206V46.4202H365.653V49.5807H376.342V54.2685H360.185V34.3463Z" fill="black"/>
</svg>
