<svg width="250" height="120" viewBox="0 0 250 120" fill="#000000" xmlns="http://www.w3.org/2000/svg">
<!-- <g clip-path="url(#clip0)"> -->
<path fill-rule="evenodd" clip-rule="evenodd" d="M13.1924 106.983C13.484 107.128 13.7026 107.274 13.9213 107.42C14.14 107.638 14.2857 107.857 14.3586 108.149C14.4315 108.44 14.5044 108.732 14.5044 109.023V119.665C14.5044 119.738 14.5044 119.883 14.4315 119.883C14.3586 119.956 14.2857 119.956 14.2128 119.956H11.5889C11.5161 119.956 11.4432 119.956 11.3703 119.883C11.2974 119.81 11.2974 119.738 11.2974 119.665V110.044H9.18369V119.665C9.18369 119.738 9.18369 119.883 9.11081 119.883C9.03792 119.956 8.96503 119.956 8.89215 119.956H6.4869C6.41401 119.956 6.26824 119.956 6.26824 119.883C6.19535 119.81 6.19535 119.738 6.19535 119.665V110.044H4.08165V119.665C4.08165 119.883 3.93588 120.029 3.71722 120.029H1.09331C0.874654 120.029 0.728882 119.883 0.728882 119.665V107.201C0.728882 106.983 0.874654 106.837 1.09331 106.837H12.4636C12.6822 106.764 12.9738 106.837 13.1924 106.983Z" />
<path fill-rule="evenodd" clip-rule="evenodd" d="M26.3848 106.764C26.6764 106.764 26.9679 106.837 27.2595 106.91C27.551 107.055 27.7697 107.201 27.9883 107.347C28.207 107.566 28.3528 107.784 28.4256 108.076C28.4985 108.367 28.5714 108.659 28.5714 108.95V119.592C28.5714 119.665 28.5714 119.811 28.4985 119.811C28.4257 119.883 28.3528 119.883 28.2799 119.883H25.656C25.5831 119.883 25.4373 119.883 25.4373 119.811C25.3644 119.738 25.3644 119.665 25.3644 119.592V116.239C25.3644 116.166 25.3644 116.02 25.2915 116.02C25.2187 115.948 25.1458 115.948 25.0729 115.948H21.3557C21.2828 115.948 21.137 115.948 21.137 116.02C21.0641 116.093 21.0641 116.166 21.0641 116.239V119.592C21.0641 119.811 20.9184 119.956 20.6997 119.956H18.0758C17.8571 119.956 17.7114 119.811 17.7114 119.592V108.95C17.7114 108.659 17.7843 108.367 17.8571 108.076C18.0029 107.784 18.1487 107.566 18.2945 107.347C18.5131 107.128 18.7318 106.983 19.0233 106.91C19.3149 106.764 19.6064 106.764 19.898 106.764H26.3848ZM25.2187 113.032V109.752H20.7726V113.032H25.2187Z" />
<path fill-rule="evenodd" clip-rule="evenodd" d="M40.4519 106.91C40.5248 106.983 40.5248 107.055 40.5248 107.128V117.77C40.5248 118.061 40.4519 118.353 40.379 118.644C40.2333 118.936 40.0875 119.155 39.9417 119.373C39.7231 119.592 39.5044 119.738 39.2128 119.81C38.9213 119.956 38.6298 119.956 38.3382 119.956H32.6531C32.3615 119.956 32.07 119.883 31.7784 119.81C31.4869 119.665 31.2682 119.519 31.0496 119.373C30.8309 119.155 30.6852 118.936 30.6123 118.644C30.4665 118.353 30.4665 118.061 30.4665 117.77V113.761C30.4665 113.542 30.6123 113.396 30.8309 113.396H33.4548C33.6735 113.396 33.8193 113.542 33.8193 113.761V116.458C33.8193 116.531 33.8193 116.603 33.8921 116.676C33.965 116.749 34.0379 116.749 34.1108 116.749H36.8076C36.8805 116.749 37.0263 116.749 37.0263 116.676C37.0991 116.603 37.0991 116.531 37.0991 116.458V107.201C37.0991 107.128 37.0991 106.983 37.172 106.983C37.2449 106.91 37.3178 106.91 37.3907 106.91H40.0146C40.2333 106.764 40.379 106.837 40.4519 106.91Z" />
<path fill-rule="evenodd" clip-rule="evenodd" d="M52.3324 106.764C52.6239 106.764 52.9155 106.837 53.207 106.91C53.4985 107.055 53.7172 107.201 53.9359 107.347C54.1545 107.566 54.3003 107.784 54.3732 108.076C54.4461 108.367 54.519 108.659 54.519 108.95V117.697C54.519 117.988 54.4461 118.28 54.3732 118.571C54.2274 118.863 54.0816 119.082 53.9359 119.3C53.7172 119.519 53.4985 119.665 53.207 119.738C52.9155 119.883 52.6239 119.883 52.3324 119.883H45.6997C45.4082 119.883 45.1166 119.811 44.8251 119.738C44.5335 119.592 44.3149 119.446 44.0962 119.3C43.8776 119.082 43.7318 118.863 43.6589 118.571C43.5131 118.28 43.5131 117.988 43.5131 117.697V108.95C43.5131 108.659 43.586 108.367 43.6589 108.076C43.7318 107.784 43.9504 107.566 44.0962 107.347C44.3149 107.128 44.5335 106.983 44.8251 106.91C45.1166 106.764 45.4082 106.764 45.6997 106.764H52.3324ZM51.1662 109.971H46.7201V116.749H51.1662V109.971Z" />
<path fill-rule="evenodd" clip-rule="evenodd" d="M68.9504 119.665C69.0233 119.738 69.0233 119.811 68.9504 119.883C68.8775 119.956 68.8775 119.956 68.7318 119.956H65.7434C65.6705 119.956 65.5248 119.956 65.4519 119.883L65.2332 119.665L63.2653 116.093C63.2653 116.02 63.1924 116.02 63.1195 116.02H60.86C60.7872 116.02 60.7872 116.02 60.7872 116.093V119.592C60.7872 119.811 60.6414 119.956 60.4227 119.956H57.7988C57.5802 119.956 57.4344 119.811 57.4344 119.592V107.128C57.4344 106.91 57.5802 106.764 57.7988 106.764H66.3265C66.6181 106.764 66.9096 106.837 67.2012 106.91C67.4927 107.055 67.7114 107.201 67.93 107.347C68.1487 107.566 68.2944 107.784 68.3673 108.076C68.5131 108.367 68.5131 108.659 68.5131 108.95V113.907C68.5131 114.417 68.3673 114.781 68.0758 115.219C67.7842 115.583 67.4198 115.875 66.9825 116.02H66.9096C66.8367 116.02 66.8367 116.093 66.8367 116.166V116.239L68.9504 119.665ZM65.2332 109.825H60.7143V113.032H65.2332V109.825Z" />
<path fill-rule="evenodd" clip-rule="evenodd" d="M86.6618 116.749C86.7347 116.749 86.8076 116.749 86.8805 116.822C86.9534 116.895 86.9534 116.968 86.9534 117.041V119.519C86.9534 119.592 86.9534 119.738 86.8805 119.738C86.8076 119.81 86.7347 119.81 86.6618 119.81H78.5715C78.3528 119.81 78.207 119.665 78.207 119.446V106.983C78.207 106.764 78.3528 106.618 78.5715 106.618H81.1954C81.414 106.618 81.5598 106.764 81.5598 106.983V116.239C81.5598 116.312 81.5598 116.385 81.6327 116.458C81.7056 116.531 81.7785 116.531 81.8513 116.531H86.6618V116.749Z" />
<path fill-rule="evenodd" clip-rule="evenodd" d="M98.8338 106.91C98.9067 106.983 98.9067 107.055 98.9067 107.128V108.222V108.805V109.534C98.9067 109.606 98.9067 109.679 98.8338 109.752C98.7609 109.825 98.688 109.825 98.6151 109.825H97.3032H93.3673H92.3469C92.274 109.825 92.274 109.825 92.274 109.898V111.939C92.274 112.012 92.274 112.012 92.3469 112.012H97.7405C97.8134 112.012 97.8863 112.012 97.9592 112.085C98.0321 112.157 98.0321 112.23 98.0321 112.303V114.198C98.0321 114.271 98.0321 114.417 97.9592 114.417C97.8863 114.49 97.8134 114.49 97.7405 114.49H92.3469C92.274 114.49 92.274 114.49 92.274 114.563V115.51V116.604C92.274 116.676 92.274 116.676 92.3469 116.676H93.1487H97.3761H98.6151C98.688 116.676 98.8338 116.676 98.8338 116.749C98.9067 116.822 98.9067 116.895 98.9067 116.968V117.697V118.644V119.3C98.9067 119.373 98.9067 119.519 98.8338 119.519C98.7609 119.592 98.688 119.592 98.6151 119.592H97.5218H90.379H89.2857C89.067 119.592 88.9213 119.446 88.9213 119.227V118.571V107.638V106.764C88.9213 106.691 88.9213 106.545 88.9941 106.545C89.067 106.472 89.1399 106.472 89.2128 106.472H90.5976H97.9592H98.5423C98.688 106.764 98.7609 106.837 98.8338 106.91Z" />
<path fill-rule="evenodd" clip-rule="evenodd" d="M110.787 106.764C111.079 106.764 111.37 106.837 111.662 106.91C111.953 107.055 112.172 107.201 112.391 107.347C112.609 107.566 112.755 107.784 112.828 108.076C112.901 108.367 112.974 108.659 112.974 108.95V119.592C112.974 119.665 112.974 119.811 112.901 119.811C112.828 119.883 112.755 119.883 112.682 119.883H109.985C109.913 119.883 109.767 119.883 109.767 119.811C109.694 119.738 109.694 119.665 109.694 119.592V116.239C109.694 116.166 109.694 116.02 109.621 116.02C109.548 115.948 109.475 115.948 109.402 115.948H105.612C105.539 115.948 105.394 115.948 105.394 116.02C105.321 116.093 105.321 116.166 105.321 116.239V119.592C105.321 119.811 105.175 119.956 104.956 119.956H102.332C102.114 119.956 101.968 119.811 101.968 119.592V108.95C101.968 108.659 102.041 108.367 102.114 108.076C102.26 107.784 102.405 107.566 102.551 107.347C102.77 107.128 102.988 106.983 103.28 106.91C103.571 106.764 103.863 106.764 104.155 106.764H110.787ZM109.621 113.032V109.752H105.175V113.032H109.621Z" />
<path fill-rule="evenodd" clip-rule="evenodd" d="M126.895 112.886C126.968 112.959 126.968 113.032 126.968 113.105V117.77C126.968 118.061 126.895 118.353 126.822 118.644C126.676 118.936 126.531 119.155 126.385 119.373C126.166 119.592 125.948 119.738 125.656 119.81C125.364 119.956 125.073 119.956 124.781 119.956H118.149C117.857 119.956 117.566 119.883 117.274 119.81C116.983 119.665 116.764 119.519 116.545 119.373C116.327 119.155 116.181 118.936 116.108 118.644C115.962 118.353 115.962 118.061 115.962 117.77V109.023C115.962 108.732 116.035 108.44 116.108 108.149C116.181 107.857 116.399 107.638 116.545 107.42C116.764 107.201 116.983 107.055 117.274 106.983C117.566 106.837 117.857 106.837 118.149 106.837H125.948C126.02 106.837 126.166 106.837 126.166 106.91C126.239 106.983 126.239 107.055 126.239 107.128V109.606C126.239 109.679 126.239 109.825 126.166 109.825C126.093 109.898 126.02 109.898 125.948 109.898H119.679C119.606 109.898 119.461 109.898 119.461 109.971C119.388 110.044 119.388 110.117 119.388 110.19V116.312C119.388 116.385 119.388 116.458 119.461 116.531C119.534 116.603 119.606 116.603 119.679 116.603H123.396C123.469 116.603 123.542 116.603 123.615 116.531C123.688 116.458 123.688 116.385 123.688 116.312V113.032C123.688 112.959 123.688 112.813 123.761 112.813C123.834 112.741 123.907 112.741 123.98 112.741H126.603C126.676 112.741 126.822 112.813 126.895 112.886Z" />
<path fill-rule="evenodd" clip-rule="evenodd" d="M140.743 106.91C140.816 106.983 140.816 107.055 140.816 107.128V117.77C140.816 118.061 140.743 118.353 140.671 118.644C140.525 118.936 140.379 119.155 140.233 119.373C140.015 119.592 139.796 119.738 139.504 119.811C139.213 119.956 138.921 119.956 138.63 119.956H131.997C131.706 119.956 131.414 119.883 131.122 119.811C130.831 119.665 130.612 119.519 130.394 119.373C130.175 119.155 130.029 118.936 129.956 118.644C129.81 118.353 129.81 118.061 129.81 117.77V107.128C129.81 106.91 129.956 106.764 130.175 106.764H132.799C133.017 106.764 133.163 106.91 133.163 107.128V116.385C133.163 116.458 133.163 116.531 133.236 116.604C133.309 116.676 133.382 116.676 133.455 116.676H137.172C137.245 116.676 137.318 116.676 137.391 116.604C137.464 116.531 137.464 116.458 137.464 116.385V107.128C137.464 107.055 137.464 106.91 137.536 106.91C137.609 106.837 137.682 106.837 137.755 106.837H140.379C140.598 106.764 140.671 106.837 140.743 106.91Z" />
<path fill-rule="evenodd" clip-rule="evenodd" d="M153.79 106.91C153.863 106.983 153.863 107.055 153.863 107.128V108.222V108.805V109.534C153.863 109.606 153.863 109.679 153.79 109.752C153.717 109.825 153.644 109.825 153.571 109.825H152.259H148.324H147.303C147.23 109.825 147.23 109.825 147.23 109.898V111.939C147.23 112.012 147.23 112.012 147.303 112.012H152.697C152.77 112.012 152.843 112.012 152.915 112.085C152.988 112.157 152.988 112.23 152.988 112.303V114.198C152.988 114.271 152.988 114.417 152.915 114.417C152.843 114.49 152.77 114.49 152.697 114.49H147.303C147.23 114.49 147.23 114.49 147.23 114.563V115.51V116.604C147.23 116.676 147.23 116.676 147.303 116.676H148.105H152.332H153.571C153.644 116.676 153.79 116.676 153.79 116.749C153.863 116.822 153.863 116.895 153.863 116.968V117.697V118.644V119.3C153.863 119.373 153.863 119.519 153.79 119.519C153.717 119.592 153.644 119.592 153.571 119.592H152.478H145.335H144.242C144.023 119.592 143.878 119.446 143.878 119.227V118.571V107.638V106.764C143.878 106.691 143.878 106.545 143.95 106.545C144.023 106.472 144.096 106.472 144.169 106.472H145.554H152.915H153.499C153.644 106.764 153.717 106.837 153.79 106.91Z" />
<path fill-rule="evenodd" clip-rule="evenodd" d="M173.98 106.764C174.053 106.764 174.198 106.764 174.198 106.837C174.271 106.91 174.271 106.983 174.271 107.055V119.519C174.271 119.592 174.271 119.738 174.198 119.738C174.125 119.81 174.053 119.81 173.98 119.81H171.356C171.283 119.81 171.137 119.81 171.137 119.738C171.064 119.665 171.064 119.592 171.064 119.519V115.146C171.064 115.073 171.064 115 170.991 114.927C170.918 114.854 170.846 114.854 170.773 114.854H167.055C166.983 114.854 166.837 114.854 166.837 114.927C166.764 115 166.764 115.073 166.764 115.146V119.519C166.764 119.738 166.618 119.883 166.399 119.883H163.776C163.557 119.883 163.411 119.738 163.411 119.519V107.055C163.411 106.837 163.557 106.691 163.776 106.691H166.399C166.618 106.691 166.764 106.837 166.764 107.055V111.283C166.764 111.501 166.91 111.647 167.128 111.647H170.846C170.918 111.647 170.991 111.647 171.064 111.574C171.137 111.501 171.137 111.429 171.137 111.356V107.128C171.137 107.055 171.137 106.91 171.21 106.91C171.283 106.837 171.356 106.837 171.429 106.837H173.98V106.764Z" />
<path fill-rule="evenodd" clip-rule="evenodd" d="M186.152 106.764C186.443 106.764 186.735 106.837 187.026 106.91C187.318 107.055 187.536 107.201 187.755 107.347C187.974 107.566 188.12 107.784 188.192 108.076C188.265 108.367 188.338 108.659 188.338 108.95V119.592C188.338 119.665 188.338 119.811 188.265 119.811C188.192 119.883 188.12 119.883 188.047 119.883H185.423C185.35 119.883 185.204 119.883 185.204 119.811C185.131 119.738 185.131 119.665 185.131 119.592V116.239C185.131 116.166 185.131 116.02 185.058 116.02C184.985 115.948 184.913 115.948 184.84 115.948H181.122C181.05 115.948 180.904 115.948 180.904 116.02C180.831 116.093 180.831 116.166 180.831 116.239V119.592C180.831 119.811 180.685 119.956 180.466 119.956H177.843C177.624 119.956 177.478 119.811 177.478 119.592V108.95C177.478 108.659 177.551 108.367 177.624 108.076C177.77 107.784 177.915 107.566 178.061 107.347C178.28 107.128 178.499 106.983 178.79 106.91C179.082 106.764 179.373 106.764 179.665 106.764H186.152ZM185.058 113.032V109.752H180.612V113.032H185.058Z" />
<path fill-rule="evenodd" clip-rule="evenodd" d="M194.679 110.044C194.606 110.117 194.606 110.19 194.606 110.262V116.385C194.606 116.458 194.606 116.531 194.679 116.604C194.752 116.676 194.825 116.676 194.898 116.676H200.948C201.02 116.676 201.166 116.676 201.166 116.749C201.239 116.822 201.239 116.895 201.239 116.968V119.446C201.239 119.519 201.239 119.665 201.166 119.665C201.093 119.738 201.02 119.738 200.948 119.738H197.012H193.805H193.44C193.149 119.738 192.857 119.665 192.566 119.592C192.274 119.446 192.055 119.3 191.837 119.155C191.618 118.936 191.472 118.717 191.399 118.426C191.254 118.134 191.254 117.843 191.254 117.551V117.187V115.802V111.429V110.19V108.732C191.254 108.44 191.327 108.149 191.399 107.857C191.545 107.566 191.691 107.347 191.837 107.128C192.055 106.91 192.274 106.764 192.566 106.691C192.857 106.545 193.149 106.545 193.44 106.545H193.805H200.948C201.02 106.545 201.166 106.545 201.166 106.618C201.239 106.691 201.239 106.764 201.239 106.837V109.315C201.239 109.388 201.239 109.534 201.166 109.534C201.093 109.606 201.02 109.606 200.948 109.606H194.898C194.825 109.971 194.752 110.044 194.679 110.044Z" />
<path fill-rule="evenodd" clip-rule="evenodd" d="M211.808 112.303C211.735 112.376 211.735 112.376 211.808 112.449L216.181 119.665C216.254 119.738 216.254 119.81 216.181 119.883C216.108 119.956 216.108 119.956 215.962 119.956H212.828C212.755 119.956 212.609 119.956 212.536 119.883C212.464 119.81 212.391 119.738 212.318 119.665L209.475 114.563C209.402 114.49 209.402 114.49 209.402 114.563L207.872 116.239C207.799 116.312 207.726 116.385 207.726 116.531C207.653 116.676 207.653 116.749 207.653 116.895V119.665C207.653 119.883 207.507 120.029 207.289 120.029H204.738C204.519 120.029 204.373 119.883 204.373 119.665V107.201C204.373 106.983 204.519 106.837 204.738 106.837H207.362C207.58 106.837 207.726 106.983 207.726 107.201V112.813L212.609 107.128C212.682 107.055 212.755 106.983 212.901 106.91C213.047 106.837 213.12 106.837 213.192 106.837H216.327C216.399 106.837 216.472 106.837 216.472 106.91C216.472 106.983 216.472 107.055 216.399 107.128L211.808 112.303Z" />
<path fill-rule="evenodd" clip-rule="evenodd" d="M221.939 119.592C221.939 119.811 221.793 119.956 221.574 119.956H218.95C218.732 119.956 218.586 119.811 218.586 119.592V107.128C218.586 106.91 218.732 106.764 218.95 106.764H221.574C221.793 106.764 221.939 106.91 221.939 107.128V119.592Z" />
<path fill-rule="evenodd" clip-rule="evenodd" d="M234.621 106.983C234.913 107.128 235.131 107.274 235.35 107.42C235.568 107.638 235.714 107.857 235.787 108.149C235.933 108.44 235.933 108.732 235.933 109.023V119.665C235.933 119.738 235.933 119.883 235.86 119.883C235.787 119.956 235.714 119.956 235.641 119.956H233.017C232.945 119.956 232.872 119.956 232.799 119.883C232.726 119.81 232.726 119.738 232.726 119.665V110.408C232.726 110.335 232.726 110.262 232.653 110.189C232.58 110.117 232.507 110.117 232.434 110.117H228.717C228.644 110.117 228.499 110.117 228.499 110.189C228.499 110.262 228.426 110.335 228.426 110.408V119.665C228.426 119.883 228.28 120.029 228.061 120.029H225.437C225.219 120.029 225.073 119.883 225.073 119.665V107.201C225.073 106.983 225.219 106.837 225.437 106.837H233.965C234.111 106.764 234.402 106.837 234.621 106.983Z" />
<path fill-rule="evenodd" clip-rule="evenodd" d="M249.854 112.886C249.927 112.959 249.927 113.032 249.927 113.105V117.77C249.927 118.061 249.854 118.353 249.781 118.644C249.636 118.936 249.49 119.155 249.344 119.373C249.125 119.592 248.907 119.738 248.615 119.81C248.324 119.956 248.032 119.956 247.741 119.956H241.108C240.816 119.956 240.525 119.883 240.233 119.81C239.942 119.665 239.723 119.519 239.504 119.373C239.286 119.155 239.14 118.936 239.067 118.644C238.921 118.353 238.921 118.061 238.921 117.77V109.023C238.921 108.732 238.994 108.44 239.067 108.149C239.14 107.857 239.359 107.638 239.504 107.42C239.723 107.201 239.942 107.055 240.233 106.983C240.525 106.837 240.816 106.837 241.108 106.837H248.907C248.98 106.837 249.125 106.837 249.125 106.91C249.198 106.983 249.198 107.055 249.198 107.128V109.606C249.198 109.679 249.198 109.825 249.125 109.825C249.052 109.898 248.98 109.898 248.907 109.898H242.638C242.566 109.898 242.42 109.898 242.42 109.971C242.347 110.044 242.347 110.117 242.347 110.19V116.312C242.347 116.385 242.347 116.458 242.42 116.531C242.493 116.603 242.566 116.603 242.638 116.603H246.356C246.429 116.603 246.501 116.603 246.574 116.531C246.647 116.458 246.647 116.385 246.647 116.312V113.032C246.647 112.959 246.647 112.813 246.72 112.813C246.793 112.741 246.866 112.741 246.939 112.741H249.563C249.708 112.741 249.781 112.813 249.854 112.886Z" />
<path fill-rule="evenodd" clip-rule="evenodd" d="M80.0291 16.0933C81.7055 16.8222 83.1632 17.8426 84.4023 19.0816C85.6414 20.3207 86.5889 21.7784 87.3906 23.4548C88.1195 25.1312 88.4839 26.9534 88.4839 28.8484V97.9446C88.4839 98.6006 88.2653 99.1108 87.828 99.5481C87.3906 99.9854 86.8804 100.204 86.2245 100.204H69.6793C69.0233 100.204 68.5131 99.9854 68.1487 99.5481C67.7842 99.1108 67.5656 98.6006 67.5656 97.9446V35.1166H54.2274V97.9446C54.2274 98.6006 54.0087 99.1108 53.6443 99.5481C53.2799 99.9854 52.6968 100.204 52.1137 100.204H37.0991C36.4431 100.204 35.9329 99.9854 35.4956 99.5481C35.0583 99.1108 34.8396 98.6006 34.8396 97.9446V35.1166H21.5014V97.9446C21.5014 99.4752 20.7726 100.204 19.242 100.204H2.84254C1.31193 100.204 0.583069 99.4752 0.583069 97.9446V17.2595C0.583069 15.7289 1.31193 15 2.84254 15H74.5627C76.5306 15 78.2799 15.3644 80.0291 16.0933Z" />
<path fill-rule="evenodd" clip-rule="evenodd" d="M160.569 79.5044C161.225 79.5044 161.808 79.723 162.172 80.1603C162.609 80.5977 162.828 81.1808 162.828 81.8367V97.9446C162.828 98.6006 162.609 99.1108 162.172 99.621C161.735 100.058 161.225 100.277 160.569 100.277H103.936C102.332 100.277 101.531 99.4752 101.531 97.9446V17.3324C101.531 15.8017 102.332 15 103.936 15H121.283C122.886 15 123.688 15.8017 123.688 17.3324V77.3907C123.688 78.0466 123.907 78.5569 124.417 78.9942C124.854 79.4315 125.437 79.5773 126.093 79.5773H160.569V79.5044Z" />
<path fill-rule="evenodd" clip-rule="evenodd" d="M247.595 15C248.251 15 248.834 15.2187 249.271 15.656C249.708 16.0933 250 16.6764 250 17.3324V98.1633C250 98.8192 249.781 99.3295 249.271 99.8397C248.834 100.277 248.251 100.496 247.595 100.496H229.956C229.3 100.496 228.717 100.277 228.28 99.8397C227.843 99.4023 227.551 98.8192 227.551 98.1633V69.9563C227.551 69.3003 227.332 68.7901 226.895 68.3528C226.458 67.9155 225.948 67.7697 225.219 67.7697H200.51C199.854 67.7697 199.271 67.9883 198.834 68.3528C198.397 68.7901 198.105 69.3003 198.105 69.9563V98.1633C198.105 99.6939 197.303 100.496 195.7 100.496H178.207C176.604 100.496 175.802 99.6939 175.802 98.1633V17.3324C175.802 15.8017 176.604 15 178.207 15H195.7C197.303 15 198.105 15.8017 198.105 17.3324V44.6647C198.105 46.1953 198.907 46.9971 200.51 46.9971H225.219C225.875 46.9971 226.458 46.7784 226.895 46.3411C227.332 45.9038 227.551 45.3207 227.551 44.6647V17.3324C227.551 16.6764 227.77 16.1662 228.28 15.656C228.717 15.2187 229.3 15 229.956 15H247.595Z" />
<!-- </g>
<defs>
<clipPath id="clip0">
<rect width="250" height="120" fill="white"/>
</clipPath>
</defs> -->
</svg>
