<svg width="250" height="120" viewBox="0 0 250 120" fill="none" xmlns="http://www.w3.org/2000/svg">
<path d="M66.9158 78.6023H73.693L77.4835 94.0879L81.8762 78.6023H86.8258L91.2158 94.0879L95.0434 78.6023H101.791L94.94 103.191H88.3086L84.3775 89.316L80.4464 103.191H73.7991L66.9158 78.6023Z" fill="black"/>
<path d="M99.5288 94.4061C99.5288 89.1753 103.707 85.1222 108.908 85.1222C114.11 85.1222 118.285 89.1647 118.285 94.4061C118.285 99.6476 114.139 103.69 108.908 103.69C103.749 103.666 99.5288 99.6396 99.5288 94.4061ZM112.452 94.4061C112.452 92.2311 110.943 90.7509 108.908 90.7509C106.874 90.7509 105.394 92.2311 105.394 94.4061C105.394 96.5812 106.9 98.064 108.908 98.064C110.916 98.064 112.457 96.5839 112.457 94.4061H112.452Z" fill="black"/>
<path d="M131.094 85.2735V91.7298C128.776 91.3796 125.824 92.4327 125.824 95.9049V103.173H119.988V85.6289H125.824V88.8995C126.534 86.5016 128.749 85.2735 131.094 85.2735Z" fill="black"/>
<path d="M132.747 77.5466H138.582V103.184H132.747V77.5466Z" fill="black"/>
<path d="M158.946 78.6023V103.191H153.11V101.579C151.988 102.905 150.368 103.701 148.124 103.701C143.418 103.701 139.869 99.6954 139.869 94.4168C139.869 89.1382 143.413 85.1329 148.124 85.1329C150.376 85.1329 151.988 85.9074 153.11 87.2549V78.6076L158.946 78.6023ZM153.11 94.4062C153.11 92.125 151.601 90.5812 149.423 90.5812C147.246 90.5812 145.736 92.125 145.736 94.4062C145.736 96.6874 147.246 98.2338 149.423 98.2338C151.601 98.2338 153.124 96.69 153.124 94.4062H153.11Z" fill="black"/>
<path d="M171.426 95.2471H169.174V103.183H162.893V78.6023H172.739C177.726 78.6023 181.591 82.1461 181.591 87.0905C181.591 88.5247 181.203 89.9322 180.467 91.1633C179.732 92.3945 178.676 93.4034 177.413 94.0826L182.474 103.181H175.713L171.426 95.2471ZM169.182 89.9101H172.66C174.203 89.9473 175.291 88.8199 175.291 87.17C175.291 85.5202 174.198 84.3981 172.66 84.3981H169.182V89.9101Z" fill="black"/>
<path d="M191.623 98.6874C192.803 98.7114 193.946 98.2714 194.806 97.4619L199.021 100.412C197.265 102.626 194.591 103.682 191.469 103.682C185.392 103.682 181.638 99.6397 181.638 94.4433C181.638 89.1754 185.501 85.1329 190.978 85.1329C196.246 85.1329 200.039 89.1117 200.039 94.3717C200.045 95.104 199.962 95.8344 199.793 96.5468H187.686C188.389 98.2338 189.936 98.6874 191.623 98.6874ZM194.36 92.507C193.83 90.6794 192.464 90.0454 191.06 90.0454C189.373 90.0454 188.108 90.8863 187.612 92.507H194.36Z" fill="black"/>
<path d="M228.811 92.438V103.183H222.947V93.1037C222.947 91.5944 222.244 90.6448 220.772 90.6448C219.122 90.6448 218.347 91.8411 218.347 93.5945V103.181H212.527V93.1011C212.527 91.5918 211.793 90.6422 210.313 90.6422C208.7 90.6422 207.891 91.8385 207.891 93.5918V103.178H202.055V85.6289H207.891V87.2788C208.84 86.0161 210.387 85.1381 212.631 85.1381C214.705 85.1381 216.177 85.9472 217.127 87.3902C218.22 86.0639 219.795 85.1381 222.22 85.1381C226.246 85.1328 228.811 87.8676 228.811 92.438Z" fill="black"/>
<path d="M230.565 82.0294C229.504 79.2522 232.294 76.6023 235.042 77.7482C235.444 77.9171 235.809 78.1639 236.116 78.4744C236.422 78.7849 236.664 79.1529 236.827 79.5572C237.939 82.3291 235.103 85.109 232.318 83.8888C231.512 83.5239 230.882 82.8558 230.565 82.0294ZM230.793 85.6236H236.628V103.183H230.793V85.6236Z" fill="black"/>
<path d="M246.334 91.1993V96.2922C246.334 97.9421 247.637 98.0455 249.992 97.905V103.173C242.83 104.051 240.509 101.847 240.509 96.4248V91.1993H238.477V85.613H240.509V82.4645L246.345 80.7111V85.629H250V91.2179H246.334V91.1993Z" fill="black"/>
<path d="M30.6581 64.8701C30.7657 64.87 30.8716 64.8974 30.9657 64.9496L47.8041 74.4882C47.8758 74.5283 47.9387 74.5822 47.9892 74.6469C48.0398 74.7116 48.077 74.7857 48.0986 74.8649L53.2737 93.5096C53.2959 93.5882 53.3022 93.6705 53.2922 93.7516C53.2822 93.8327 53.256 93.9109 53.2153 93.9818L43.6847 110.828C43.6448 110.899 43.5912 110.962 43.5271 111.013C43.4629 111.063 43.3894 111.1 43.3107 111.123L24.6659 116.295C24.6116 116.311 24.5554 116.319 24.4988 116.319C24.3911 116.32 24.285 116.292 24.1911 116.239L7.3501 106.695C7.27878 106.655 7.21622 106.601 7.1661 106.537C7.11599 106.472 7.07934 106.398 7.05832 106.319L1.8832 87.674C1.86096 87.5954 1.85466 87.5131 1.86468 87.432C1.8747 87.351 1.90084 87.2727 1.94155 87.2019L11.4642 70.3608C11.5459 70.2167 11.6813 70.1108 11.8409 70.0664L30.4856 64.8913C30.5403 64.8777 30.5964 64.8706 30.6527 64.8701H30.6581ZM30.6527 63C30.4277 62.9996 30.2037 63.03 29.987 63.0902L11.3475 68.2653C11.031 68.3532 10.7351 68.503 10.4769 68.7061C10.2188 68.9092 10.0035 69.1615 9.8435 69.4484L0.3235 86.2788C-0.00195499 86.8553 -0.0858816 87.5372 0.0900754 88.1753L5.2652 106.82C5.43888 107.454 5.85531 107.995 6.42436 108.324L23.2654 117.852C23.8409 118.178 24.522 118.262 25.1593 118.085L43.8041 112.91C44.1197 112.823 44.415 112.674 44.6731 112.473C44.9312 112.271 45.147 112.02 45.3081 111.735L54.8387 94.8943C55 94.6093 55.1034 94.2953 55.143 93.9703C55.1826 93.6453 55.1576 93.3157 55.0695 93.0003L49.9023 74.3556C49.7248 73.7186 49.3023 73.1779 48.7272 72.8516L31.8888 63.3236C31.5144 63.1112 31.0912 62.9997 30.6607 63H30.6527Z" fill="black"/>
<path opacity="0.7" d="M24.1965 81.3423H24.0373L21.3556 89.2124L21.0293 90.1673C20.9259 90.4691 20.9259 90.7967 21.0293 91.0984L23.6447 98.7669C23.7132 98.9656 23.8238 99.1472 23.9689 99.2992C24.114 99.4511 24.2903 99.57 24.4856 99.6476L24.9869 99.8332L27.6819 91.9313L28.0506 90.8544C28.1541 90.5563 28.1541 90.232 28.0506 89.9339L25.4405 82.3078C25.3508 82.0426 25.1849 81.8096 24.9637 81.6379C24.7425 81.4663 24.4757 81.3635 24.1965 81.3423Z" fill="black"/>
<path opacity="0.7" d="M42.6847 80.8224H37.0375C36.8792 80.8225 36.725 80.8722 36.5965 80.9645C36.4681 81.0568 36.3718 81.1871 36.3213 81.337L33.7005 89.0294L33.4857 89.666C33.3266 90.1266 33.3266 90.6272 33.4857 91.0878L36.316 99.3876C36.3655 99.5323 36.461 99.6567 36.588 99.742C36.7149 99.8273 36.8662 99.8686 37.0189 99.8598L37.2709 99.8333L43.4089 81.8278C43.4465 81.713 43.4564 81.591 43.438 81.4716C43.4195 81.3523 43.373 81.239 43.3024 81.141C43.2318 81.043 43.1391 80.963 43.0317 80.9077C42.9244 80.8523 42.8055 80.8231 42.6847 80.8224Z" fill="black"/>
<path d="M24.2628 100.353H18.6261C18.4675 100.353 18.3129 100.304 18.184 100.211C18.055 100.119 17.9583 99.9887 17.9073 99.8386L11.764 81.8251C11.7252 81.7111 11.7142 81.5895 11.7317 81.4704C11.7493 81.3513 11.795 81.2381 11.8649 81.1401C11.9349 81.0422 12.0272 80.9623 12.1342 80.907C12.2412 80.8518 12.3597 80.8228 12.4801 80.8224H18.1274C18.286 80.8223 18.4406 80.8719 18.5695 80.9642C18.6985 81.0565 18.7953 81.1869 18.8463 81.337L24.9922 99.3505C25.0313 99.4656 25.0422 99.5883 25.024 99.7085C25.0057 99.8286 24.9589 99.9427 24.8874 100.041C24.8159 100.139 24.7218 100.219 24.6131 100.273C24.5044 100.328 24.3843 100.355 24.2628 100.353Z" fill="black"/>
<path d="M36.5414 100.353H30.8941C30.7359 100.353 30.5817 100.303 30.4532 100.211C30.3247 100.119 30.2285 99.9885 30.178 99.8386L24.0346 81.8251C23.9959 81.7111 23.9849 81.5895 24.0024 81.4704C24.02 81.3513 24.0657 81.2381 24.1356 81.1401C24.2056 81.0422 24.2979 80.9623 24.4049 80.907C24.5119 80.8518 24.6304 80.8228 24.7508 80.8224H30.4061C30.5642 80.8229 30.7182 80.8727 30.8466 80.965C30.975 81.0573 31.0714 81.1873 31.1223 81.337L37.2656 99.3505C37.3033 99.4651 37.3133 99.5871 37.2948 99.7063C37.2763 99.8255 37.2298 99.9387 37.1592 100.037C37.0885 100.134 36.9957 100.214 36.8883 100.269C36.781 100.324 36.6621 100.353 36.5414 100.353Z" fill="black"/>
</svg>
