<svg width="300" height="540" viewBox="0 0 300 540" fill="none" xmlns="http://www.w3.org/2000/svg">
<g id="Frame 5" clip-path="url(#clip0)">
<rect id="Background" width="300" height="540" rx="12" fill="#F6F8FA"/>
<path id="NavBar" d="M0 476H300V528C300 534.627 294.627 540 288 540H12C5.37259 540 0 534.627 0 528V476Z" fill="#F6F8FA"/>
<g id="Left">
<path id="Send" d="M52.7471 523.12C52.8252 524.37 53.875 525.171 55.4375 525.171C57.1074 525.171 58.1523 524.331 58.1523 522.998C58.1523 521.943 57.5566 521.362 56.1113 521.016L55.335 520.825C54.417 520.601 54.0459 520.308 54.0459 519.795C54.0459 519.136 54.6221 518.711 55.4863 518.711C56.3066 518.711 56.873 519.121 56.9756 519.79H58.04C57.9766 518.613 56.9316 517.783 55.501 517.783C53.9629 517.783 52.9375 518.613 52.9375 519.854C52.9375 520.879 53.5186 521.484 54.793 521.792L55.7012 522.012C56.6338 522.236 57.0439 522.578 57.0439 523.13C57.0439 523.774 56.3994 524.238 55.5205 524.238C54.5781 524.238 53.9238 523.804 53.8311 523.12H52.7471ZM62.957 523.579C62.7617 524.009 62.3271 524.243 61.6924 524.243C60.8525 524.243 60.3105 523.638 60.2764 522.676V522.627H64.0312V522.266C64.0312 520.605 63.1377 519.595 61.6582 519.595C60.1592 519.595 59.207 520.674 59.207 522.358C59.207 524.053 60.1396 525.103 61.6631 525.103C62.8789 525.103 63.7383 524.517 63.9678 523.579H62.957ZM61.6533 520.449C62.4297 520.449 62.9375 521.011 62.9619 521.87H60.2764C60.335 521.016 60.877 520.449 61.6533 520.449ZM65.291 525H66.3408V521.89C66.3408 521.035 66.834 520.508 67.6104 520.508C68.3867 520.508 68.7578 520.938 68.7578 521.816V525H69.8076V521.567C69.8076 520.303 69.1533 519.595 67.9668 519.595C67.166 519.595 66.6387 519.951 66.3799 520.537H66.3018V519.697H65.291V525ZM73.2305 525.088C73.9629 525.088 74.583 524.741 74.9004 524.16H74.9834V525H75.9893V517.617H74.9395V520.537H74.8613C74.5732 519.956 73.958 519.604 73.2305 519.604C71.8877 519.604 71.0234 520.674 71.0234 522.344C71.0234 524.023 71.8779 525.088 73.2305 525.088ZM73.5283 520.503C74.4072 520.503 74.959 521.216 74.959 522.349C74.959 523.491 74.4121 524.189 73.5283 524.189C72.6396 524.189 72.1074 523.501 72.1074 522.349C72.1074 521.201 72.6445 520.503 73.5283 520.503Z" fill="#813FD6"/>
<g id="Send ">
<path id="Combined Shape" fill-rule="evenodd" clip-rule="evenodd" d="M64.8826 506.471C65.367 506.927 66.1533 506.792 66.4574 506.2L75.5667 488.474C75.5778 488.453 75.5882 488.432 75.5977 488.411C75.7594 488.055 75.6935 487.684 75.4937 487.411C75.4588 487.363 75.4203 487.319 75.3788 487.279C75.16 487.067 74.8459 486.951 74.5048 487.016C74.4699 487.023 74.4353 487.031 74.4009 487.041L52.737 492.95C51.9832 493.155 51.7458 494.107 52.3147 494.643L56.9287 498.985V505.743C56.9287 506.605 57.9474 507.063 58.5924 506.491L61.8406 503.608L64.8826 506.471ZM68.4671 490.733L54.9852 494.409L58.047 497.291L68.4671 490.733ZM72.1265 490.792L59.5516 498.707L65.2858 504.104L72.1265 490.792ZM60.3783 502.232L58.9287 500.867V503.518L60.3783 502.232Z" fill="#813FD6"/>
<mask id="mask0" mask-type="alpha" maskUnits="userSpaceOnUse" x="51" y="486" width="25" height="21">
<path id="Combined Shape_2" fill-rule="evenodd" clip-rule="evenodd" d="M64.8826 506.471C65.367 506.927 66.1533 506.792 66.4574 506.2L75.5667 488.474C75.5778 488.453 75.5882 488.432 75.5977 488.411C75.7594 488.055 75.6935 487.684 75.4937 487.411C75.4588 487.363 75.4203 487.319 75.3788 487.279C75.16 487.067 74.8459 486.951 74.5048 487.016C74.4699 487.023 74.4353 487.031 74.4009 487.041L52.737 492.95C51.9832 493.155 51.7458 494.107 52.3147 494.643L56.9287 498.985V505.743C56.9287 506.605 57.9474 507.063 58.5924 506.491L61.8406 503.608L64.8826 506.471ZM68.4671 490.733L54.9852 494.409L58.047 497.291L68.4671 490.733ZM72.1265 490.792L59.5516 498.707L65.2858 504.104L72.1265 490.792ZM60.3783 502.232L58.9287 500.867V503.518L60.3783 502.232Z" fill="white"/>
</mask>
<g mask="url(#mask0)">
</g>
</g>
</g>
<g id="Middle">
<path id="Activity" d="M137.712 525H138.874L136.33 517.954H135.153L132.609 525H133.732L134.382 523.096H137.067L137.712 525ZM135.686 519.199H135.769L136.789 522.217H134.66L135.686 519.199ZM144.191 521.401C144.055 520.371 143.249 519.595 141.916 519.595C140.368 519.595 139.426 520.645 139.426 522.329C139.426 524.048 140.373 525.103 141.921 525.103C143.234 525.103 144.055 524.365 144.191 523.32H143.171C143.034 523.896 142.58 524.209 141.916 524.209C141.042 524.209 140.5 523.501 140.5 522.329C140.5 521.182 141.037 520.488 141.916 520.488C142.619 520.488 143.049 520.884 143.171 521.401H144.191ZM145.842 518.359V519.712H144.997V520.552H145.842V523.604C145.842 524.624 146.306 525.034 147.473 525.034C147.678 525.034 147.873 525.01 148.044 524.98V524.146C147.897 524.16 147.805 524.17 147.644 524.17C147.121 524.17 146.892 523.921 146.892 523.35V520.552H148.044V519.712H146.892V518.359H145.842ZM149.821 518.75C150.188 518.75 150.485 518.452 150.485 518.091C150.485 517.725 150.188 517.427 149.821 517.427C149.455 517.427 149.157 517.725 149.157 518.091C149.157 518.452 149.455 518.75 149.821 518.75ZM149.299 525H150.344V519.697H149.299V525ZM156.389 519.697H155.275L153.957 523.926H153.874L152.551 519.697H151.428L153.347 525H154.475L156.389 519.697ZM157.995 518.75C158.361 518.75 158.659 518.452 158.659 518.091C158.659 517.725 158.361 517.427 157.995 517.427C157.629 517.427 157.331 517.725 157.331 518.091C157.331 518.452 157.629 518.75 157.995 518.75ZM157.473 525H158.518V519.697H157.473V525ZM160.432 518.359V519.712H159.587V520.552H160.432V523.604C160.432 524.624 160.896 525.034 162.062 525.034C162.268 525.034 162.463 525.01 162.634 524.98V524.146C162.487 524.16 162.395 524.17 162.233 524.17C161.711 524.17 161.481 523.921 161.481 523.35V520.552H162.634V519.712H161.481V518.359H160.432ZM164.396 526.924C165.48 526.924 165.983 526.519 166.438 525.244L168.42 519.697H167.307L165.979 523.945H165.896L164.562 519.697H163.42L165.344 525.015L165.266 525.288C165.085 525.85 164.802 526.06 164.304 526.06C164.206 526.06 164.045 526.055 163.962 526.04V526.899C164.06 526.914 164.309 526.924 164.396 526.924Z" fill="black"/>
<g id="Activity_2">
<path id="Combined Shape_3" fill-rule="evenodd" clip-rule="evenodd" d="M138 490C138 491.105 138.895 492 140 492C141.105 492 142 491.105 142 490C142 488.895 141.105 488 140 488C138.895 488 138 488.895 138 490ZM146.538 490.105C146.538 490.658 146.986 491.105 147.538 491.105H161C161.552 491.105 162 490.658 162 490.105C162 489.553 161.552 489.105 161 489.105H147.538C146.986 489.105 146.538 489.553 146.538 490.105ZM146.538 496C146.538 496.552 146.986 497 147.538 497H161C161.552 497 162 496.552 162 496C162 495.448 161.552 495 161 495H147.538C146.986 495 146.538 495.448 146.538 496ZM147.538 502.895C146.986 502.895 146.538 502.447 146.538 501.895C146.538 501.342 146.986 500.895 147.538 500.895H161C161.552 500.895 162 501.342 162 501.895C162 502.447 161.552 502.895 161 502.895H147.538ZM140 497.895C138.895 497.895 138 496.999 138 495.895C138 494.79 138.895 493.895 140 493.895C141.105 493.895 142 494.79 142 495.895C142 496.999 141.105 497.895 140 497.895ZM138 501.789C138 502.894 138.895 503.789 140 503.789C141.105 503.789 142 502.894 142 501.789C142 500.685 141.105 499.789 140 499.789C138.895 499.789 138 500.685 138 501.789Z" fill="black"/>
<mask id="mask1" mask-type="alpha" maskUnits="userSpaceOnUse" x="138" y="488" width="24" height="16">
<path id="Combined Shape_4" fill-rule="evenodd" clip-rule="evenodd" d="M138 490C138 491.105 138.895 492 140 492C141.105 492 142 491.105 142 490C142 488.895 141.105 488 140 488C138.895 488 138 488.895 138 490ZM146.538 490.105C146.538 490.658 146.986 491.105 147.538 491.105H161C161.552 491.105 162 490.658 162 490.105C162 489.553 161.552 489.105 161 489.105H147.538C146.986 489.105 146.538 489.553 146.538 490.105ZM146.538 496C146.538 496.552 146.986 497 147.538 497H161C161.552 497 162 496.552 162 496C162 495.448 161.552 495 161 495H147.538C146.986 495 146.538 495.448 146.538 496ZM147.538 502.895C146.986 502.895 146.538 502.447 146.538 501.895C146.538 501.342 146.986 500.895 147.538 500.895H161C161.552 500.895 162 501.342 162 501.895C162 502.447 161.552 502.895 161 502.895H147.538ZM140 497.895C138.895 497.895 138 496.999 138 495.895C138 494.79 138.895 493.895 140 493.895C141.105 493.895 142 494.79 142 495.895C142 496.999 141.105 497.895 140 497.895ZM138 501.789C138 502.894 138.895 503.789 140 503.789C141.105 503.789 142 502.894 142 501.789C142 500.685 141.105 499.789 140 499.789C138.895 499.789 138 500.685 138 501.789Z" fill="white"/>
</mask>
<g mask="url(#mask1)">
</g>
</g>
</g>
<g id="Right">
<path id="Account" d="M221.498 525H222.66L220.116 517.954H218.939L216.396 525H217.519L218.168 523.096H220.854L221.498 525ZM219.472 519.199H219.555L220.575 522.217H218.446L219.472 519.199ZM227.978 521.401C227.841 520.371 227.035 519.595 225.702 519.595C224.154 519.595 223.212 520.645 223.212 522.329C223.212 524.048 224.159 525.103 225.707 525.103C227.021 525.103 227.841 524.365 227.978 523.32H226.957C226.82 523.896 226.366 524.209 225.702 524.209C224.828 524.209 224.286 523.501 224.286 522.329C224.286 521.182 224.823 520.488 225.702 520.488C226.405 520.488 226.835 520.884 226.957 521.401H227.978ZM233.681 521.401C233.544 520.371 232.738 519.595 231.405 519.595C229.857 519.595 228.915 520.645 228.915 522.329C228.915 524.048 229.862 525.103 231.41 525.103C232.724 525.103 233.544 524.365 233.681 523.32H232.66C232.523 523.896 232.069 524.209 231.405 524.209C230.531 524.209 229.989 523.501 229.989 522.329C229.989 521.182 230.526 520.488 231.405 520.488C232.108 520.488 232.538 520.884 232.66 521.401H233.681ZM237.128 525.103C238.681 525.103 239.633 524.062 239.633 522.349C239.633 520.635 238.676 519.595 237.128 519.595C235.575 519.595 234.618 520.64 234.618 522.349C234.618 524.062 235.57 525.103 237.128 525.103ZM237.128 524.209C236.215 524.209 235.702 523.53 235.702 522.349C235.702 521.167 236.215 520.483 237.128 520.483C238.036 520.483 238.554 521.167 238.554 522.349C238.554 523.525 238.036 524.209 237.128 524.209ZM245.38 519.697H244.33V522.808C244.33 523.662 243.866 524.18 243.017 524.18C242.245 524.18 241.898 523.76 241.898 522.881V519.697H240.849V523.14C240.849 524.385 241.503 525.103 242.68 525.103C243.485 525.103 244.027 524.761 244.286 524.16H244.369V525H245.38V519.697ZM246.903 525H247.953V521.89C247.953 521.035 248.446 520.508 249.223 520.508C249.999 520.508 250.37 520.938 250.37 521.816V525H251.42V521.567C251.42 520.303 250.766 519.595 249.579 519.595C248.778 519.595 248.251 519.951 247.992 520.537H247.914V519.697H246.903V525ZM253.271 518.359V519.712H252.426V520.552H253.271V523.604C253.271 524.624 253.734 525.034 254.901 525.034C255.106 525.034 255.302 525.01 255.473 524.98V524.146C255.326 524.16 255.233 524.17 255.072 524.17C254.55 524.17 254.32 523.921 254.32 523.35V520.552H255.473V519.712H254.32V518.359H253.271Z" fill="black"/>
<g id="Profile">
<path id="Combined Shape_5" fill-rule="evenodd" clip-rule="evenodd" d="M235.99 485.735C238.665 485.735 240.833 487.921 240.833 490.617C240.833 493.313 238.665 495.499 235.99 495.499C233.315 495.499 231.147 493.313 231.147 490.617C231.147 487.921 233.315 485.735 235.99 485.735ZM235.99 487.655C234.367 487.655 233.052 488.981 233.052 490.617C233.052 492.253 234.367 493.579 235.99 493.579C237.613 493.579 238.928 492.253 238.928 490.617C238.928 488.981 237.613 487.655 235.99 487.655ZM243.791 507.284C243.791 502.941 240.298 499.42 235.99 499.42C231.69 499.42 228.203 502.927 228.188 507.258C228.19 507.278 228.19 507.299 228.19 507.32C228.19 507.85 227.764 508.28 227.238 508.28C226.712 508.28 226.286 507.85 226.286 507.32C226.286 507.308 226.286 507.296 226.286 507.284H226.284C226.284 501.881 230.629 497.5 235.99 497.5C241.298 497.5 245.611 501.795 245.695 507.126C245.708 507.189 245.714 507.253 245.714 507.32C245.714 507.85 245.288 508.28 244.762 508.28C244.236 508.28 243.81 507.85 243.81 507.32C243.81 507.308 243.81 507.296 243.81 507.284H243.791Z" fill="black"/>
<mask id="mask2" mask-type="alpha" maskUnits="userSpaceOnUse" x="226" y="485" width="20" height="24">
<path id="Combined Shape_6" fill-rule="evenodd" clip-rule="evenodd" d="M235.99 485.735C238.665 485.735 240.833 487.921 240.833 490.617C240.833 493.313 238.665 495.499 235.99 495.499C233.315 495.499 231.147 493.313 231.147 490.617C231.147 487.921 233.315 485.735 235.99 485.735ZM235.99 487.655C234.367 487.655 233.052 488.981 233.052 490.617C233.052 492.253 234.367 493.579 235.99 493.579C237.613 493.579 238.928 492.253 238.928 490.617C238.928 488.981 237.613 487.655 235.99 487.655ZM243.791 507.284C243.791 502.941 240.298 499.42 235.99 499.42C231.69 499.42 228.203 502.927 228.188 507.258C228.19 507.278 228.19 507.299 228.19 507.32C228.19 507.85 227.764 508.28 227.238 508.28C226.712 508.28 226.286 507.85 226.286 507.32C226.286 507.308 226.286 507.296 226.286 507.284H226.284C226.284 501.881 230.629 497.5 235.99 497.5C241.298 497.5 245.611 501.795 245.695 507.126C245.708 507.189 245.714 507.253 245.714 507.32C245.714 507.85 245.288 508.28 244.762 508.28C244.236 508.28 243.81 507.85 243.81 507.32C243.81 507.308 243.81 507.296 243.81 507.284H243.791Z" fill="white"/>
</mask>
<g mask="url(#mask2)">
</g>
</g>
</g>
<rect id="Divider" y="476" width="300" height="1" fill="#B7BBBD"/>
<g id="Recipient [0]">
<g id="right">
<path id="Vector" d="M273.231 169.608L276.623 173L273.231 176.392V178.616L278.847 173L273.231 167.384V169.608Z" fill="#62676A"/>
</g>
<path id="CUR" d="M59.7793 189C61.2832 189 62.1865 188.248 62.1865 187.008C62.1865 186.085 61.5518 185.411 60.5996 185.309V185.226C61.293 185.108 61.835 184.449 61.835 183.712C61.835 182.628 61.0391 181.954 59.7158 181.954H56.8838V189H59.7793ZM57.9775 182.848H59.4619C60.2725 182.848 60.7461 183.233 60.7461 183.902C60.7461 184.591 60.2432 184.952 59.2764 184.952H57.9775V182.848ZM57.9775 188.106V185.787H59.4961C60.5264 185.787 61.0684 186.178 61.0684 186.939C61.0684 187.701 60.5459 188.106 59.5596 188.106H57.9775ZM63.5928 181.954V189H66.1367C68.2363 189 69.4521 187.701 69.4521 185.46C69.4521 183.243 68.2266 181.954 66.1367 181.954H63.5928ZM64.6865 182.896H66.0146C67.4746 182.896 68.3389 183.849 68.3389 185.475C68.3389 187.115 67.4893 188.058 66.0146 188.058H64.6865V182.896ZM73.5439 189V182.896H75.7559V181.954H70.2334V182.896H72.4502V189H73.5439Z" fill="black"/>
<path id="Neha Name" d="M57.9482 164V158.883H58.0264L61.6445 164H62.6309V156.954H61.5664V162.081H61.4883L57.8701 156.954H56.8838V164H57.9482ZM67.7676 162.579C67.5723 163.009 67.1377 163.243 66.5029 163.243C65.6631 163.243 65.1211 162.638 65.0869 161.676V161.627H68.8418V161.266C68.8418 159.605 67.9482 158.595 66.4688 158.595C64.9697 158.595 64.0176 159.674 64.0176 161.358C64.0176 163.053 64.9502 164.103 66.4736 164.103C67.6895 164.103 68.5488 163.517 68.7783 162.579H67.7676ZM66.4639 159.449C67.2402 159.449 67.748 160.011 67.7725 160.87H65.0869C65.1455 160.016 65.6875 159.449 66.4639 159.449ZM70.1504 164H71.2002V160.895C71.2002 160.064 71.6787 159.513 72.5381 159.513C73.2803 159.513 73.6758 159.947 73.6758 160.821V164H74.7256V160.572C74.7256 159.317 74.0273 158.6 72.8945 158.6C72.0938 158.6 71.5322 158.951 71.2734 159.542H71.1904V156.617H70.1504V164ZM77.6748 164.088C78.373 164.088 78.9541 163.785 79.2715 163.248H79.3545V164H80.3652V160.372C80.3652 159.259 79.6133 158.595 78.2803 158.595C77.0742 158.595 76.2148 159.176 76.1074 160.069H77.123C77.2402 159.684 77.6455 159.464 78.2314 159.464C78.9492 159.464 79.3203 159.791 79.3203 160.372V160.836L77.8799 160.924C76.6152 161.002 75.9023 161.554 75.9023 162.506C75.9023 163.473 76.6494 164.088 77.6748 164.088ZM77.9434 163.243C77.3721 163.243 76.957 162.955 76.957 162.462C76.957 161.979 77.2891 161.72 78.0215 161.671L79.3203 161.583V162.042C79.3203 162.726 78.7344 163.243 77.9434 163.243ZM85.7803 164V158.883H85.8584L89.4766 164H90.4629V156.954H89.3984V162.081H89.3203L85.7021 156.954H84.7158V164H85.7803ZM93.583 164.088C94.2812 164.088 94.8623 163.785 95.1797 163.248H95.2627V164H96.2734V160.372C96.2734 159.259 95.5215 158.595 94.1885 158.595C92.9824 158.595 92.123 159.176 92.0156 160.069H93.0312C93.1484 159.684 93.5537 159.464 94.1396 159.464C94.8574 159.464 95.2285 159.791 95.2285 160.372V160.836L93.7881 160.924C92.5234 161.002 91.8105 161.554 91.8105 162.506C91.8105 163.473 92.5576 164.088 93.583 164.088ZM93.8516 163.243C93.2803 163.243 92.8652 162.955 92.8652 162.462C92.8652 161.979 93.1973 161.72 93.9297 161.671L95.2285 161.583V162.042C95.2285 162.726 94.6426 163.243 93.8516 163.243ZM97.7676 164H98.8174V160.743C98.8174 160.05 99.3008 159.508 99.9404 159.508C100.565 159.508 100.966 159.884 100.966 160.489V164H101.996V160.646C101.996 160.006 102.44 159.508 103.119 159.508C103.808 159.508 104.149 159.864 104.149 160.597V164H105.199V160.343C105.199 159.239 104.574 158.595 103.5 158.595C102.763 158.595 102.152 158.971 101.884 159.542H101.801C101.566 158.971 101.063 158.595 100.336 158.595C99.6279 158.595 99.0908 158.946 98.8564 159.542H98.7783V158.697H97.7676V164ZM110.16 162.579C109.965 163.009 109.53 163.243 108.896 163.243C108.056 163.243 107.514 162.638 107.479 161.676V161.627H111.234V161.266C111.234 159.605 110.341 158.595 108.861 158.595C107.362 158.595 106.41 159.674 106.41 161.358C106.41 163.053 107.343 164.103 108.866 164.103C110.082 164.103 110.941 163.517 111.171 162.579H110.16ZM108.856 159.449C109.633 159.449 110.141 160.011 110.165 160.87H107.479C107.538 160.016 108.08 159.449 108.856 159.449Z" fill="black"/>
<g id="Flag">
<g id="flag-bd">
<g id="Group">
<path id="Shape" fill-rule="evenodd" clip-rule="evenodd" d="M16 165H40V181H16V165Z" fill="#06807B"/>
<circle id="Oval" cx="28" cy="173" r="5" fill="#FF2353"/>
</g>
</g>
</g>
<rect id="Divider_2" x="16" y="141" width="268" height="1" fill="#B7BBBD"/>
</g>
<g id="Recipient [1]">
<g id="right_2">
<path id="Vector_2" d="M273.231 229.608L276.623 233L273.231 236.392V238.616L278.847 233L273.231 227.384V229.608Z" fill="#62676A"/>
</g>
<path id="CUR_2" d="M57.9678 241.954H56.874V246.573C56.874 248.097 57.9629 249.171 59.7256 249.171C61.498 249.171 62.582 248.097 62.582 246.573V241.954H61.4883V246.485C61.4883 247.491 60.8486 248.199 59.7256 248.199C58.6074 248.199 57.9678 247.491 57.9678 246.485V241.954ZM64.0127 247.12C64.0908 248.37 65.1406 249.171 66.7031 249.171C68.373 249.171 69.418 248.331 69.418 246.998C69.418 245.943 68.8223 245.362 67.377 245.016L66.6006 244.825C65.6826 244.601 65.3115 244.308 65.3115 243.795C65.3115 243.136 65.8877 242.711 66.752 242.711C67.5723 242.711 68.1387 243.121 68.2412 243.79H69.3057C69.2422 242.613 68.1973 241.783 66.7666 241.783C65.2285 241.783 64.2031 242.613 64.2031 243.854C64.2031 244.879 64.7842 245.484 66.0586 245.792L66.9668 246.012C67.8994 246.236 68.3096 246.578 68.3096 247.13C68.3096 247.774 67.665 248.238 66.7861 248.238C65.8438 248.238 65.1895 247.804 65.0967 247.12H64.0127ZM70.8584 241.954V249H73.4023C75.502 249 76.7178 247.701 76.7178 245.46C76.7178 243.243 75.4922 241.954 73.4023 241.954H70.8584ZM71.9521 242.896H73.2803C74.7402 242.896 75.6045 243.849 75.6045 245.475C75.6045 247.115 74.7549 248.058 73.2803 248.058H71.9521V242.896Z" fill="black"/>
<path id="Jamilah Name" d="M56.4004 222.213C56.4004 223.395 57.2744 224.171 58.5488 224.171C59.9062 224.171 60.7266 223.365 60.7266 221.964V216.954H59.6328V221.959C59.6328 222.765 59.2373 223.194 58.5391 223.194C57.9141 223.194 57.4893 222.799 57.4746 222.213H56.4004ZM63.8076 224.088C64.5059 224.088 65.0869 223.785 65.4043 223.248H65.4873V224H66.498V220.372C66.498 219.259 65.7461 218.595 64.4131 218.595C63.207 218.595 62.3477 219.176 62.2402 220.069H63.2559C63.373 219.684 63.7783 219.464 64.3643 219.464C65.082 219.464 65.4531 219.791 65.4531 220.372V220.836L64.0127 220.924C62.748 221.002 62.0352 221.554 62.0352 222.506C62.0352 223.473 62.7822 224.088 63.8076 224.088ZM64.0762 223.243C63.5049 223.243 63.0898 222.955 63.0898 222.462C63.0898 221.979 63.4219 221.72 64.1543 221.671L65.4531 221.583V222.042C65.4531 222.726 64.8672 223.243 64.0762 223.243ZM67.9922 224H69.042V220.743C69.042 220.05 69.5254 219.508 70.165 219.508C70.79 219.508 71.1904 219.884 71.1904 220.489V224H72.2207V220.646C72.2207 220.006 72.665 219.508 73.3438 219.508C74.0322 219.508 74.374 219.864 74.374 220.597V224H75.4238V220.343C75.4238 219.239 74.7988 218.595 73.7246 218.595C72.9873 218.595 72.377 218.971 72.1084 219.542H72.0254C71.791 218.971 71.2881 218.595 70.5605 218.595C69.8525 218.595 69.3154 218.946 69.0811 219.542H69.0029V218.697H67.9922V224ZM77.4404 217.75C77.8066 217.75 78.1045 217.452 78.1045 217.091C78.1045 216.725 77.8066 216.427 77.4404 216.427C77.0742 216.427 76.7764 216.725 76.7764 217.091C76.7764 217.452 77.0742 217.75 77.4404 217.75ZM76.918 224H77.9629V218.697H76.918V224ZM79.5547 224H80.6045V216.617H79.5547V224ZM83.6514 224.088C84.3496 224.088 84.9307 223.785 85.248 223.248H85.3311V224H86.3418V220.372C86.3418 219.259 85.5898 218.595 84.2568 218.595C83.0508 218.595 82.1914 219.176 82.084 220.069H83.0996C83.2168 219.684 83.6221 219.464 84.208 219.464C84.9258 219.464 85.2969 219.791 85.2969 220.372V220.836L83.8564 220.924C82.5918 221.002 81.8789 221.554 81.8789 222.506C81.8789 223.473 82.626 224.088 83.6514 224.088ZM83.9199 223.243C83.3486 223.243 82.9336 222.955 82.9336 222.462C82.9336 221.979 83.2656 221.72 83.998 221.671L85.2969 221.583V222.042C85.2969 222.726 84.7109 223.243 83.9199 223.243ZM87.8848 224H88.9346V220.895C88.9346 220.064 89.4131 219.513 90.2725 219.513C91.0146 219.513 91.4102 219.947 91.4102 220.821V224H92.46V220.572C92.46 219.317 91.7617 218.6 90.6289 218.6C89.8281 218.6 89.2666 218.951 89.0078 219.542H88.9248V216.617H87.8848V224ZM97.8604 224V218.883H97.9385L101.557 224H102.543V216.954H101.479V222.081H101.4L97.7822 216.954H96.7959V224H97.8604ZM105.663 224.088C106.361 224.088 106.942 223.785 107.26 223.248H107.343V224H108.354V220.372C108.354 219.259 107.602 218.595 106.269 218.595C105.062 218.595 104.203 219.176 104.096 220.069H105.111C105.229 219.684 105.634 219.464 106.22 219.464C106.938 219.464 107.309 219.791 107.309 220.372V220.836L105.868 220.924C104.604 221.002 103.891 221.554 103.891 222.506C103.891 223.473 104.638 224.088 105.663 224.088ZM105.932 223.243C105.36 223.243 104.945 222.955 104.945 222.462C104.945 221.979 105.277 221.72 106.01 221.671L107.309 221.583V222.042C107.309 222.726 106.723 223.243 105.932 223.243ZM109.848 224H110.897V220.743C110.897 220.05 111.381 219.508 112.021 219.508C112.646 219.508 113.046 219.884 113.046 220.489V224H114.076V220.646C114.076 220.006 114.521 219.508 115.199 219.508C115.888 219.508 116.229 219.864 116.229 220.597V224H117.279V220.343C117.279 219.239 116.654 218.595 115.58 218.595C114.843 218.595 114.232 218.971 113.964 219.542H113.881C113.646 218.971 113.144 218.595 112.416 218.595C111.708 218.595 111.171 218.946 110.937 219.542H110.858V218.697H109.848V224ZM122.24 222.579C122.045 223.009 121.61 223.243 120.976 223.243C120.136 223.243 119.594 222.638 119.56 221.676V221.627H123.314V221.266C123.314 219.605 122.421 218.595 120.941 218.595C119.442 218.595 118.49 219.674 118.49 221.358C118.49 223.053 119.423 224.103 120.946 224.103C122.162 224.103 123.021 223.517 123.251 222.579H122.24ZM120.937 219.449C121.713 219.449 122.221 220.011 122.245 220.87H119.56C119.618 220.016 120.16 219.449 120.937 219.449Z" fill="black"/>
<g id="Flag_2">
<g id="flag-so">
<rect id="Rectangle-path" x="16" y="225" width="24" height="16" fill="#23A5DD"/>
<path id="Star 1" fill-rule="evenodd" clip-rule="evenodd" d="M28 235.633L25.5279 237L26.2901 234.106L24 232.056L26.7639 231.938L28 229L29.2361 231.938L32 232.056L29.7099 234.106L30.4721 237L28 235.633Z" fill="white"/>
</g>
</g>
<rect id="Divider_3" x="16" y="201" width="268" height="1" fill="#B7BBBD"/>
</g>
<g id="Recipient [2]">
<g id="right_3">
<path id="Vector_3" d="M273.231 289.608L276.623 293L273.231 296.392V298.616L278.847 293L273.231 287.384V289.608Z" fill="#62676A"/>
</g>
<path id="CUR_3" d="M56.8838 301.954V309H57.9775V306.593H59.6084C60.9902 306.593 61.9668 305.646 61.9668 304.288C61.9668 302.901 61.0195 301.954 59.6426 301.954H56.8838ZM57.9775 302.877H59.3545C60.3164 302.877 60.8486 303.375 60.8486 304.288C60.8486 305.172 60.2969 305.675 59.3545 305.675H57.9775V302.877ZM69.1787 309V301.954H68.0898V304.933H64.4717V301.954H63.3779V309H64.4717V305.88H68.0898V309H69.1787ZM70.9463 301.954V309H72.04V306.593H73.6709C75.0527 306.593 76.0293 305.646 76.0293 304.288C76.0293 302.901 75.082 301.954 73.7051 301.954H70.9463ZM72.04 302.877H73.417C74.3789 302.877 74.9111 303.375 74.9111 304.288C74.9111 305.172 74.3594 305.675 73.417 305.675H72.04V302.877Z" fill="black"/>
<path id="Hannah Name" d="M62.6846 284V276.954H61.5957V279.933H57.9775V276.954H56.8838V284H57.9775V280.88H61.5957V284H62.6846ZM65.7998 284.088C66.498 284.088 67.0791 283.785 67.3965 283.248H67.4795V284H68.4902V280.372C68.4902 279.259 67.7383 278.595 66.4053 278.595C65.1992 278.595 64.3398 279.176 64.2324 280.069H65.248C65.3652 279.684 65.7705 279.464 66.3564 279.464C67.0742 279.464 67.4453 279.791 67.4453 280.372V280.836L66.0049 280.924C64.7402 281.002 64.0273 281.554 64.0273 282.506C64.0273 283.473 64.7744 284.088 65.7998 284.088ZM66.0684 283.243C65.4971 283.243 65.082 282.955 65.082 282.462C65.082 281.979 65.4141 281.72 66.1465 281.671L67.4453 281.583V282.042C67.4453 282.726 66.8594 283.243 66.0684 283.243ZM69.9844 284H71.0342V280.89C71.0342 280.035 71.5273 279.508 72.3037 279.508C73.0801 279.508 73.4512 279.938 73.4512 280.816V284H74.501V280.567C74.501 279.303 73.8467 278.595 72.6602 278.595C71.8594 278.595 71.332 278.951 71.0732 279.537H70.9951V278.697H69.9844V284ZM75.9805 284H77.0303V280.89C77.0303 280.035 77.5234 279.508 78.2998 279.508C79.0762 279.508 79.4473 279.938 79.4473 280.816V284H80.4971V280.567C80.4971 279.303 79.8428 278.595 78.6562 278.595C77.8555 278.595 77.3281 278.951 77.0693 279.537H76.9912V278.697H75.9805V284ZM83.4463 284.088C84.1445 284.088 84.7256 283.785 85.043 283.248H85.126V284H86.1367V280.372C86.1367 279.259 85.3848 278.595 84.0518 278.595C82.8457 278.595 81.9863 279.176 81.8789 280.069H82.8945C83.0117 279.684 83.417 279.464 84.0029 279.464C84.7207 279.464 85.0918 279.791 85.0918 280.372V280.836L83.6514 280.924C82.3867 281.002 81.6738 281.554 81.6738 282.506C81.6738 283.473 82.4209 284.088 83.4463 284.088ZM83.7148 283.243C83.1436 283.243 82.7285 282.955 82.7285 282.462C82.7285 281.979 83.0605 281.72 83.793 281.671L85.0918 281.583V282.042C85.0918 282.726 84.5059 283.243 83.7148 283.243ZM87.6797 284H88.7295V280.895C88.7295 280.064 89.208 279.513 90.0674 279.513C90.8096 279.513 91.2051 279.947 91.2051 280.821V284H92.2549V280.572C92.2549 279.317 91.5566 278.6 90.4238 278.6C89.623 278.6 89.0615 278.951 88.8027 279.542H88.7197V276.617H87.6797V284ZM97.6553 284V278.883H97.7334L101.352 284H102.338V276.954H101.273V282.081H101.195L97.5771 276.954H96.5908V284H97.6553ZM105.458 284.088C106.156 284.088 106.737 283.785 107.055 283.248H107.138V284H108.148V280.372C108.148 279.259 107.396 278.595 106.063 278.595C104.857 278.595 103.998 279.176 103.891 280.069H104.906C105.023 279.684 105.429 279.464 106.015 279.464C106.732 279.464 107.104 279.791 107.104 280.372V280.836L105.663 280.924C104.398 281.002 103.686 281.554 103.686 282.506C103.686 283.473 104.433 284.088 105.458 284.088ZM105.727 283.243C105.155 283.243 104.74 282.955 104.74 282.462C104.74 281.979 105.072 281.72 105.805 281.671L107.104 281.583V282.042C107.104 282.726 106.518 283.243 105.727 283.243ZM109.643 284H110.692V280.743C110.692 280.05 111.176 279.508 111.815 279.508C112.44 279.508 112.841 279.884 112.841 280.489V284H113.871V280.646C113.871 280.006 114.315 279.508 114.994 279.508C115.683 279.508 116.024 279.864 116.024 280.597V284H117.074V280.343C117.074 279.239 116.449 278.595 115.375 278.595C114.638 278.595 114.027 278.971 113.759 279.542H113.676C113.441 278.971 112.938 278.595 112.211 278.595C111.503 278.595 110.966 278.946 110.731 279.542H110.653V278.697H109.643V284ZM122.035 282.579C121.84 283.009 121.405 283.243 120.771 283.243C119.931 283.243 119.389 282.638 119.354 281.676V281.627H123.109V281.266C123.109 279.605 122.216 278.595 120.736 278.595C119.237 278.595 118.285 279.674 118.285 281.358C118.285 283.053 119.218 284.103 120.741 284.103C121.957 284.103 122.816 283.517 123.046 282.579H122.035ZM120.731 279.449C121.508 279.449 122.016 280.011 122.04 280.87H119.354C119.413 280.016 119.955 279.449 120.731 279.449Z" fill="black"/>
<g id="Flag_3">
<g id="flag-ph">
<path id="background" fill-rule="evenodd" clip-rule="evenodd" d="M16 285V301H40V285H16Z" fill="white"/>
<g id="Object">
<mask id="mask3" mask-type="alpha" maskUnits="userSpaceOnUse" x="16" y="285" width="24" height="16">
<path id="background_2" fill-rule="evenodd" clip-rule="evenodd" d="M16 285V301H40V285H16Z" fill="white"/>
</mask>
<g mask="url(#mask3)">
<rect id="Rectangle-path_2" x="16" y="298" width="24" height="3" fill="#3A75C4"/>
<rect id="Rectangle-path_3" x="16" y="285" width="24" height="8" fill="#1D3B80"/>
<rect id="Rectangle-path Copy 2" x="16" y="293" width="24" height="8" fill="#FF2353"/>
<path id="Shape_2" fill-rule="evenodd" clip-rule="evenodd" d="M26 293L16 285V301L26 293Z" fill="white"/>
</g>
</g>
<path id="Oval 206" fill-rule="evenodd" clip-rule="evenodd" d="M17.8571 288.429C17.8571 288.665 17.6653 288.857 17.4286 288.857C17.1919 288.857 17 288.665 17 288.429C17 288.192 17.1919 288 17.4286 288C17.6653 288 17.8571 288.192 17.8571 288.429ZM23 292.714C23 292.951 22.8081 293.143 22.5714 293.143C22.3347 293.143 22.1429 292.951 22.1429 292.714C22.1429 292.478 22.3347 292.286 22.5714 292.286C22.8081 292.286 23 292.478 23 292.714ZM17.4286 297.429C17.6653 297.429 17.8571 297.237 17.8571 297C17.8571 296.763 17.6653 296.571 17.4286 296.571C17.1919 296.571 17 296.763 17 297C17 297.237 17.1919 297.429 17.4286 297.429ZM19.0563 293.567L18.3228 294.694L18.601 293.378C18.5562 293.342 18.5152 293.301 18.4787 293.256L17.1631 293.534L18.29 292.801C18.2872 292.772 18.2857 292.743 18.2857 292.714C18.2857 292.685 18.2872 292.656 18.29 292.628L17.1631 291.894L18.4787 292.172C18.5152 292.128 18.5562 292.087 18.601 292.05L18.3228 290.735L19.0563 291.861C19.0848 291.859 19.1137 291.857 19.1429 291.857C19.1721 291.857 19.2009 291.859 19.2294 291.861L19.9629 290.735L19.6847 292.05C19.7295 292.087 19.7705 292.128 19.807 292.172L21.1226 291.894L19.9957 292.628C19.9985 292.656 20 292.685 20 292.714C20 292.743 19.9985 292.772 19.9957 292.801L21.1226 293.534L19.807 293.256C19.7705 293.301 19.7295 293.342 19.6847 293.378L19.9629 294.694L19.2294 293.567C19.2009 293.57 19.1721 293.571 19.1429 293.571C19.1137 293.571 19.0848 293.57 19.0563 293.567Z" fill="#FDD64D"/>
</g>
</g>
<rect id="Divider_4" x="16" y="261" width="268" height="1" fill="#B7BBBD"/>
</g>
<g id="Recipient [3]">
<g id="right_4">
<path id="Vector_4" d="M273.231 349.608L276.623 353L273.231 356.392V358.616L278.847 353L273.231 347.384V349.608Z" fill="#62676A"/>
</g>
<path id="CUR_4" d="M57.9678 361.954H56.874V366.573C56.874 368.097 57.9629 369.171 59.7256 369.171C61.498 369.171 62.582 368.097 62.582 366.573V361.954H61.4883V366.485C61.4883 367.491 60.8486 368.199 59.7256 368.199C58.6074 368.199 57.9678 367.491 57.9678 366.485V361.954ZM64.0127 367.12C64.0908 368.37 65.1406 369.171 66.7031 369.171C68.373 369.171 69.418 368.331 69.418 366.998C69.418 365.943 68.8223 365.362 67.377 365.016L66.6006 364.825C65.6826 364.601 65.3115 364.308 65.3115 363.795C65.3115 363.136 65.8877 362.711 66.752 362.711C67.5723 362.711 68.1387 363.121 68.2412 363.79H69.3057C69.2422 362.613 68.1973 361.783 66.7666 361.783C65.2285 361.783 64.2031 362.613 64.2031 363.854C64.2031 364.879 64.7842 365.484 66.0586 365.792L66.9668 366.012C67.8994 366.236 68.3096 366.578 68.3096 367.13C68.3096 367.774 67.665 368.238 66.7861 368.238C65.8438 368.238 65.1895 367.804 65.0967 367.12H64.0127ZM70.8584 361.954V369H73.4023C75.502 369 76.7178 367.701 76.7178 365.46C76.7178 363.243 75.4922 361.954 73.4023 361.954H70.8584ZM71.9521 362.896H73.2803C74.7402 362.896 75.6045 363.849 75.6045 365.475C75.6045 367.115 74.7549 368.058 73.2803 368.058H71.9521V362.896Z" fill="black"/>
<path id="Olivia Name" d="M59.8867 336.783C57.8652 336.783 56.5957 338.204 56.5957 340.475C56.5957 342.74 57.8359 344.171 59.8867 344.171C61.9229 344.171 63.1729 342.735 63.1729 340.475C63.1729 338.209 61.9131 336.783 59.8867 336.783ZM59.8867 337.75C61.2197 337.75 62.0547 338.805 62.0547 340.475C62.0547 342.13 61.2246 343.204 59.8867 343.204C58.5293 343.204 57.7139 342.13 57.7139 340.475C57.7139 338.805 58.5537 337.75 59.8867 337.75ZM64.584 344H65.6338V336.617H64.584V344ZM67.7529 337.75C68.1191 337.75 68.417 337.452 68.417 337.091C68.417 336.725 68.1191 336.427 67.7529 336.427C67.3867 336.427 67.0889 336.725 67.0889 337.091C67.0889 337.452 67.3867 337.75 67.7529 337.75ZM67.2305 344H68.2754V338.697H67.2305V344ZM74.3203 338.697H73.207L71.8887 342.926H71.8057L70.4824 338.697H69.3594L71.2783 344H72.4062L74.3203 338.697ZM75.9268 337.75C76.293 337.75 76.5908 337.452 76.5908 337.091C76.5908 336.725 76.293 336.427 75.9268 336.427C75.5605 336.427 75.2627 336.725 75.2627 337.091C75.2627 337.452 75.5605 337.75 75.9268 337.75ZM75.4043 344H76.4492V338.697H75.4043V344ZM79.4619 344.088C80.1602 344.088 80.7412 343.785 81.0586 343.248H81.1416V344H82.1523V340.372C82.1523 339.259 81.4004 338.595 80.0674 338.595C78.8613 338.595 78.002 339.176 77.8945 340.069H78.9102C79.0273 339.684 79.4326 339.464 80.0186 339.464C80.7363 339.464 81.1074 339.791 81.1074 340.372V340.836L79.667 340.924C78.4023 341.002 77.6895 341.554 77.6895 342.506C77.6895 343.473 78.4365 344.088 79.4619 344.088ZM79.7305 343.243C79.1592 343.243 78.7441 342.955 78.7441 342.462C78.7441 341.979 79.0762 341.72 79.8086 341.671L81.1074 341.583V342.042C81.1074 342.726 80.5215 343.243 79.7305 343.243ZM87.5674 344V338.883H87.6455L91.2637 344H92.25V336.954H91.1855V342.081H91.1074L87.4893 336.954H86.5029V344H87.5674ZM95.3701 344.088C96.0684 344.088 96.6494 343.785 96.9668 343.248H97.0498V344H98.0605V340.372C98.0605 339.259 97.3086 338.595 95.9756 338.595C94.7695 338.595 93.9102 339.176 93.8027 340.069H94.8184C94.9355 339.684 95.3408 339.464 95.9268 339.464C96.6445 339.464 97.0156 339.791 97.0156 340.372V340.836L95.5752 340.924C94.3105 341.002 93.5977 341.554 93.5977 342.506C93.5977 343.473 94.3447 344.088 95.3701 344.088ZM95.6387 343.243C95.0674 343.243 94.6523 342.955 94.6523 342.462C94.6523 341.979 94.9844 341.72 95.7168 341.671L97.0156 341.583V342.042C97.0156 342.726 96.4297 343.243 95.6387 343.243ZM99.5547 344H100.604V340.743C100.604 340.05 101.088 339.508 101.728 339.508C102.353 339.508 102.753 339.884 102.753 340.489V344H103.783V340.646C103.783 340.006 104.228 339.508 104.906 339.508C105.595 339.508 105.937 339.864 105.937 340.597V344H106.986V340.343C106.986 339.239 106.361 338.595 105.287 338.595C104.55 338.595 103.939 338.971 103.671 339.542H103.588C103.354 338.971 102.851 338.595 102.123 338.595C101.415 338.595 100.878 338.946 100.644 339.542H100.565V338.697H99.5547V344ZM111.947 342.579C111.752 343.009 111.317 343.243 110.683 343.243C109.843 343.243 109.301 342.638 109.267 341.676V341.627H113.021V341.266C113.021 339.605 112.128 338.595 110.648 338.595C109.149 338.595 108.197 339.674 108.197 341.358C108.197 343.053 109.13 344.103 110.653 344.103C111.869 344.103 112.729 343.517 112.958 342.579H111.947ZM110.644 339.449C111.42 339.449 111.928 340.011 111.952 340.87H109.267C109.325 340.016 109.867 339.449 110.644 339.449Z" fill="black"/>
<g id="Flag_4">
<g id="flag-us">
<path id="background_3" fill-rule="evenodd" clip-rule="evenodd" d="M16 345V361H40V345H16Z" fill="white"/>
<mask id="mask4" mask-type="alpha" maskUnits="userSpaceOnUse" x="16" y="345" width="24" height="16">
<path id="background_4" fill-rule="evenodd" clip-rule="evenodd" d="M16 345V361H40V345H16Z" fill="white"/>
</mask>
<g mask="url(#mask4)">
<rect id="Rectangle 6 Copy 13" x="16" y="352.385" width="24" height="1.23" fill="#FF2353"/>
<rect id="Rectangle 6 Copy 20" x="16" y="349.923" width="24" height="1.23" fill="#FF2353"/>
<rect id="Rectangle 6 Copy 21" x="16" y="347.462" width="24" height="1.23" fill="#FF2353"/>
<rect id="Rectangle 6 Copy 22" x="16" y="345" width="24" height="1.23" fill="#FF2353"/>
<rect id="Rectangle 6 Copy 16" x="16" y="354.847" width="24" height="1.23" fill="#FF2353"/>
<rect id="Rectangle 6 Copy 17" x="16" y="357.308" width="24" height="1.23" fill="#FF2353"/>
<rect id="Rectangle 6 Copy 18" x="16" y="359.77" width="24" height="1.23" fill="#FF2353"/>
<path id="rectangle" fill-rule="evenodd" clip-rule="evenodd" d="M16 345V353.62H27V345H16Z" fill="#1D3B80"/>
<path id="stars" fill-rule="evenodd" clip-rule="evenodd" d="M18.1216 346.946L18.0185 347.341L18.3529 347.155L18.6874 347.341L18.5843 346.946L18.8941 346.667L18.5202 346.651L18.3529 346.25L18.1857 346.651L17.8118 346.667L18.1216 346.946ZM25.4275 348.583L25.3244 348.977L25.6588 348.791L25.9933 348.977L25.8902 348.583L26.2 348.303L25.8261 348.287L25.6588 347.886L25.4916 348.287L25.1176 348.303L25.4275 348.583ZM17.7479 350.614L17.851 350.219L17.5412 349.939L17.9151 349.923L18.0824 349.523L18.2496 349.923L18.6235 349.939L18.3137 350.219L18.4168 350.614L18.0824 350.427L17.7479 350.614ZM17.3098 351.855L17.2067 352.25L17.5412 352.064L17.8756 352.25L17.7725 351.855L18.0824 351.576L17.7084 351.56L17.5412 351.159L17.3739 351.56L17 351.576L17.3098 351.855ZM19.1647 352.064L18.8302 352.25L18.9334 351.855L18.6235 351.576L18.9975 351.56L19.1647 351.159L19.3319 351.56L19.7059 351.576L19.3961 351.855L19.4992 352.25L19.1647 352.064ZM20.5569 351.855L20.4538 352.25L20.7882 352.064L21.1227 352.25L21.0196 351.855L21.3294 351.576L20.9555 351.56L20.7882 351.159L20.621 351.56L20.2471 351.576L20.5569 351.855ZM22.4118 352.064L22.0773 352.25L22.1804 351.855L21.8706 351.576L22.2445 351.56L22.4118 351.159L22.579 351.56L22.9529 351.576L22.6431 351.855L22.7462 352.25L22.4118 352.064ZM23.7008 352.25L24.0353 352.064L24.3698 352.25L24.2666 351.855L24.5765 351.576L24.2025 351.56L24.0353 351.159L23.8681 351.56L23.4941 351.576L23.8039 351.855L23.7008 352.25ZM25.4275 351.855L25.3244 352.25L25.6588 352.064L25.9933 352.25L25.8902 351.855L26.2 351.576L25.8261 351.56L25.6588 351.159L25.4916 351.56L25.1176 351.576L25.4275 351.855ZM24.6157 350.219L24.5126 350.614L24.8471 350.427L25.1815 350.614L25.0784 350.219L25.3882 349.939L25.0143 349.923L24.8471 349.523L24.6798 349.923L24.3059 349.939L24.6157 350.219ZM23.2235 350.427L22.8891 350.614L22.9922 350.219L22.6824 349.939L23.0563 349.923L23.2235 349.523L23.3908 349.923L23.7647 349.939L23.4549 350.219L23.558 350.614L23.2235 350.427ZM21.2655 350.614L21.6 350.427L21.9345 350.614L21.8313 350.219L22.1412 349.939L21.7672 349.923L21.6 349.523L21.4328 349.923L21.0588 349.939L21.3687 350.219L21.2655 350.614ZM19.9765 350.427L19.642 350.614L19.7451 350.219L19.4353 349.939L19.8092 349.923L19.9765 349.523L20.1437 349.923L20.5176 349.939L20.2078 350.219L20.3109 350.614L19.9765 350.427ZM24.0353 348.791L23.7008 348.977L23.8039 348.583L23.4941 348.303L23.8681 348.287L24.0353 347.886L24.2025 348.287L24.5765 348.303L24.2666 348.583L24.3698 348.977L24.0353 348.791ZM22.0773 348.977L22.4118 348.791L22.7462 348.977L22.6431 348.583L22.9529 348.303L22.579 348.287L22.4118 347.886L22.2445 348.287L21.8706 348.303L22.1804 348.583L22.0773 348.977ZM20.7882 348.791L20.4538 348.977L20.5569 348.583L20.2471 348.303L20.621 348.287L20.7882 347.886L20.9555 348.287L21.3294 348.303L21.0196 348.583L21.1227 348.977L20.7882 348.791ZM18.8302 348.977L19.1647 348.791L19.4992 348.977L19.3961 348.583L19.7059 348.303L19.3319 348.287L19.1647 347.886L18.9975 348.287L18.6235 348.303L18.9334 348.583L18.8302 348.977ZM17.5412 348.791L17.2067 348.977L17.3098 348.583L17 348.303L17.3739 348.287L17.5412 347.886L17.7084 348.287L18.0824 348.303L17.7725 348.583L17.8756 348.977L17.5412 348.791ZM24.5126 347.341L24.6157 346.946L24.3059 346.667L24.6798 346.651L24.8471 346.25L25.0143 346.651L25.3882 346.667L25.0784 346.946L25.1815 347.341L24.8471 347.155L24.5126 347.341ZM22.8891 347.341L23.2235 347.155L23.558 347.341L23.4549 346.946L23.7647 346.667L23.3908 346.651L23.2235 346.25L23.0563 346.651L22.6824 346.667L22.9922 346.946L22.8891 347.341ZM21.6 347.155L21.2655 347.341L21.3687 346.946L21.0588 346.667L21.4328 346.651L21.6 346.25L21.7672 346.651L22.1412 346.667L21.8313 346.946L21.9345 347.341L21.6 347.155ZM19.642 347.341L19.9765 347.155L20.3109 347.341L20.2078 346.946L20.5176 346.667L20.1437 346.651L19.9765 346.25L19.8092 346.651L19.4353 346.667L19.7451 346.946L19.642 347.341Z" fill="white"/>
</g>
</g>
</g>
<rect id="Divider_5" x="16" y="321" width="268" height="1" fill="#B7BBBD"/>
</g>
<g id="Recipient [4]">
<g id="right_5">
<path id="Vector_5" d="M273.231 409.608L276.623 413L273.231 416.392V418.616L278.847 413L273.231 407.384V409.608Z" fill="#62676A"/>
</g>
<path id="CUR_5" d="M62.8945 426.227V425.353H60.0039V426.236H61.8203V426.393C61.8105 427.472 61.0195 428.199 59.8672 428.199C58.5439 428.199 57.7139 427.159 57.7139 425.47C57.7139 423.805 58.5391 422.755 59.8428 422.755C60.8047 422.755 61.4736 423.229 61.7471 424.103H62.8457C62.6064 422.682 61.4443 421.783 59.8428 421.783C57.8701 421.783 56.5957 423.233 56.5957 425.475C56.5957 427.745 57.8555 429.171 59.8525 429.171C61.6982 429.171 62.8945 428.014 62.8945 426.227ZM70.2041 429V421.954H69.1152V424.933H65.4971V421.954H64.4033V429H65.4971V425.88H69.1152V429H70.2041ZM71.6396 427.12C71.7178 428.37 72.7676 429.171 74.3301 429.171C76 429.171 77.0449 428.331 77.0449 426.998C77.0449 425.943 76.4492 425.362 75.0039 425.016L74.2275 424.825C73.3096 424.601 72.9385 424.308 72.9385 423.795C72.9385 423.136 73.5146 422.711 74.3789 422.711C75.1992 422.711 75.7656 423.121 75.8682 423.79H76.9326C76.8691 422.613 75.8242 421.783 74.3936 421.783C72.8555 421.783 71.8301 422.613 71.8301 423.854C71.8301 424.879 72.4111 425.484 73.6855 425.792L74.5938 426.012C75.5264 426.236 75.9365 426.578 75.9365 427.13C75.9365 427.774 75.292 428.238 74.4131 428.238C73.4707 428.238 72.8164 427.804 72.7236 427.12H71.6396Z" fill="black"/>
<path id="Emmanuel Name" d="M61.3564 403.058H57.9775V400.865H61.1758V399.957H57.9775V397.896H61.3564V396.954H56.8838V404H61.3564V403.058ZM62.8164 404H63.8662V400.743C63.8662 400.05 64.3496 399.508 64.9893 399.508C65.6143 399.508 66.0146 399.884 66.0146 400.489V404H67.0449V400.646C67.0449 400.006 67.4893 399.508 68.168 399.508C68.8564 399.508 69.1982 399.864 69.1982 400.597V404H70.248V400.343C70.248 399.239 69.623 398.595 68.5488 398.595C67.8115 398.595 67.2012 398.971 66.9326 399.542H66.8496C66.6152 398.971 66.1123 398.595 65.3848 398.595C64.6768 398.595 64.1396 398.946 63.9053 399.542H63.8271V398.697H62.8164V404ZM71.7227 404H72.7725V400.743C72.7725 400.05 73.2559 399.508 73.8955 399.508C74.5205 399.508 74.9209 399.884 74.9209 400.489V404H75.9512V400.646C75.9512 400.006 76.3955 399.508 77.0742 399.508C77.7627 399.508 78.1045 399.864 78.1045 400.597V404H79.1543V400.343C79.1543 399.239 78.5293 398.595 77.4551 398.595C76.7178 398.595 76.1074 398.971 75.8389 399.542H75.7559C75.5215 398.971 75.0186 398.595 74.291 398.595C73.583 398.595 73.0459 398.946 72.8115 399.542H72.7334V398.697H71.7227V404ZM82.0986 404.088C82.7969 404.088 83.3779 403.785 83.6953 403.248H83.7783V404H84.7891V400.372C84.7891 399.259 84.0371 398.595 82.7041 398.595C81.498 398.595 80.6387 399.176 80.5312 400.069H81.5469C81.6641 399.684 82.0693 399.464 82.6553 399.464C83.373 399.464 83.7441 399.791 83.7441 400.372V400.836L82.3037 400.924C81.0391 401.002 80.3262 401.554 80.3262 402.506C80.3262 403.473 81.0732 404.088 82.0986 404.088ZM82.3672 403.243C81.7959 403.243 81.3809 402.955 81.3809 402.462C81.3809 401.979 81.7129 401.72 82.4453 401.671L83.7441 401.583V402.042C83.7441 402.726 83.1582 403.243 82.3672 403.243ZM86.2832 404H87.333V400.89C87.333 400.035 87.8262 399.508 88.6025 399.508C89.3789 399.508 89.75 399.938 89.75 400.816V404H90.7998V400.567C90.7998 399.303 90.1455 398.595 88.959 398.595C88.1582 398.595 87.6309 398.951 87.3721 399.537H87.2939V398.697H86.2832V404ZM96.7617 398.697H95.7119V401.808C95.7119 402.662 95.248 403.18 94.3984 403.18C93.627 403.18 93.2803 402.76 93.2803 401.881V398.697H92.2305V402.14C92.2305 403.385 92.8848 404.103 94.0615 404.103C94.8672 404.103 95.4092 403.761 95.668 403.16H95.751V404H96.7617V398.697ZM101.771 402.579C101.576 403.009 101.142 403.243 100.507 403.243C99.667 403.243 99.125 402.638 99.0908 401.676V401.627H102.846V401.266C102.846 399.605 101.952 398.595 100.473 398.595C98.9736 398.595 98.0215 399.674 98.0215 401.358C98.0215 403.053 98.9541 404.103 100.478 404.103C101.693 404.103 102.553 403.517 102.782 402.579H101.771ZM100.468 399.449C101.244 399.449 101.752 400.011 101.776 400.87H99.0908C99.1494 400.016 99.6914 399.449 100.468 399.449ZM104.154 404H105.204V396.617H104.154V404ZM110.702 404V398.883H110.78L114.398 404H115.385V396.954H114.32V402.081H114.242L110.624 396.954H109.638V404H110.702ZM118.505 404.088C119.203 404.088 119.784 403.785 120.102 403.248H120.185V404H121.195V400.372C121.195 399.259 120.443 398.595 119.11 398.595C117.904 398.595 117.045 399.176 116.938 400.069H117.953C118.07 399.684 118.476 399.464 119.062 399.464C119.779 399.464 120.15 399.791 120.15 400.372V400.836L118.71 400.924C117.445 401.002 116.732 401.554 116.732 402.506C116.732 403.473 117.479 404.088 118.505 404.088ZM118.773 403.243C118.202 403.243 117.787 402.955 117.787 402.462C117.787 401.979 118.119 401.72 118.852 401.671L120.15 401.583V402.042C120.15 402.726 119.564 403.243 118.773 403.243ZM122.689 404H123.739V400.743C123.739 400.05 124.223 399.508 124.862 399.508C125.487 399.508 125.888 399.884 125.888 400.489V404H126.918V400.646C126.918 400.006 127.362 399.508 128.041 399.508C128.729 399.508 129.071 399.864 129.071 400.597V404H130.121V400.343C130.121 399.239 129.496 398.595 128.422 398.595C127.685 398.595 127.074 398.971 126.806 399.542H126.723C126.488 398.971 125.985 398.595 125.258 398.595C124.55 398.595 124.013 398.946 123.778 399.542H123.7V398.697H122.689V404ZM135.082 402.579C134.887 403.009 134.452 403.243 133.817 403.243C132.978 403.243 132.436 402.638 132.401 401.676V401.627H136.156V401.266C136.156 399.605 135.263 398.595 133.783 398.595C132.284 398.595 131.332 399.674 131.332 401.358C131.332 403.053 132.265 404.103 133.788 404.103C135.004 404.103 135.863 403.517 136.093 402.579H135.082ZM133.778 399.449C134.555 399.449 135.062 400.011 135.087 400.87H132.401C132.46 400.016 133.002 399.449 133.778 399.449Z" fill="black"/>
<g id="Flag_5">
<g id="flag-gh">
<g id="Group_2">
<path id="Shape_3" fill-rule="evenodd" clip-rule="evenodd" d="M16 405H40V421H16V405Z" fill="#FEDD00"/>
<path id="Shape_4" fill-rule="evenodd" clip-rule="evenodd" d="M16 417H40V421H16V417Z" fill="#06807B"/>
<path id="Shape_5" fill-rule="evenodd" clip-rule="evenodd" d="M16 405H40V409H16V405Z" fill="#FF2353"/>
</g>
<path id="Star 11" fill-rule="evenodd" clip-rule="evenodd" d="M27.9999 414.5L26.2365 415.427L26.5733 413.464L25.1467 412.073L27.1182 411.786L27.9999 410L28.8816 411.786L30.8531 412.073L29.4265 413.464L29.7633 415.427L27.9999 414.5Z" fill="#12234D"/>
</g>
</g>
<rect id="Divider_6" x="16" y="381" width="268" height="1" fill="#B7BBBD"/>
</g>
<rect id="BTN-Main" x="32" y="436" width="236" height="32" rx="16" fill="#813FD6"/>
<path id="Send new transaction" d="M98.2812 453.12C98.3594 454.37 99.4092 455.171 100.972 455.171C102.642 455.171 103.687 454.331 103.687 452.998C103.687 451.943 103.091 451.362 101.646 451.016L100.869 450.825C99.9512 450.601 99.5801 450.308 99.5801 449.795C99.5801 449.136 100.156 448.711 101.021 448.711C101.841 448.711 102.407 449.121 102.51 449.79H103.574C103.511 448.613 102.466 447.783 101.035 447.783C99.4971 447.783 98.4717 448.613 98.4717 449.854C98.4717 450.879 99.0527 451.484 100.327 451.792L101.235 452.012C102.168 452.236 102.578 452.578 102.578 453.13C102.578 453.774 101.934 454.238 101.055 454.238C100.112 454.238 99.458 453.804 99.3652 453.12H98.2812ZM108.491 453.579C108.296 454.009 107.861 454.243 107.227 454.243C106.387 454.243 105.845 453.638 105.811 452.676V452.627H109.565V452.266C109.565 450.605 108.672 449.595 107.192 449.595C105.693 449.595 104.741 450.674 104.741 452.358C104.741 454.053 105.674 455.103 107.197 455.103C108.413 455.103 109.272 454.517 109.502 453.579H108.491ZM107.188 450.449C107.964 450.449 108.472 451.011 108.496 451.87H105.811C105.869 451.016 106.411 450.449 107.188 450.449ZM110.825 455H111.875V451.89C111.875 451.035 112.368 450.508 113.145 450.508C113.921 450.508 114.292 450.938 114.292 451.816V455H115.342V451.567C115.342 450.303 114.688 449.595 113.501 449.595C112.7 449.595 112.173 449.951 111.914 450.537H111.836V449.697H110.825V455ZM118.765 455.088C119.497 455.088 120.117 454.741 120.435 454.16H120.518V455H121.523V447.617H120.474V450.537H120.396C120.107 449.956 119.492 449.604 118.765 449.604C117.422 449.604 116.558 450.674 116.558 452.344C116.558 454.023 117.412 455.088 118.765 455.088ZM119.062 450.503C119.941 450.503 120.493 451.216 120.493 452.349C120.493 453.491 119.946 454.189 119.062 454.189C118.174 454.189 117.642 453.501 117.642 452.349C117.642 451.201 118.179 450.503 119.062 450.503ZM125.835 455H126.885V451.89C126.885 451.035 127.378 450.508 128.154 450.508C128.931 450.508 129.302 450.938 129.302 451.816V455H130.352V451.567C130.352 450.303 129.697 449.595 128.511 449.595C127.71 449.595 127.183 449.951 126.924 450.537H126.846V449.697H125.835V455ZM135.317 453.579C135.122 454.009 134.688 454.243 134.053 454.243C133.213 454.243 132.671 453.638 132.637 452.676V452.627H136.392V452.266C136.392 450.605 135.498 449.595 134.019 449.595C132.52 449.595 131.567 450.674 131.567 452.358C131.567 454.053 132.5 455.103 134.023 455.103C135.239 455.103 136.099 454.517 136.328 453.579H135.317ZM134.014 450.449C134.79 450.449 135.298 451.011 135.322 451.87H132.637C132.695 451.016 133.237 450.449 134.014 450.449ZM144.536 449.697H143.486L142.539 453.789H142.456L141.362 449.697H140.356L139.263 453.789H139.185L138.232 449.697H137.168L138.633 455H139.712L140.806 451.045H140.889L141.987 455H143.076L144.536 449.697ZM148.726 448.359V449.712H147.881V450.552H148.726V453.604C148.726 454.624 149.189 455.034 150.356 455.034C150.562 455.034 150.757 455.01 150.928 454.98V454.146C150.781 454.16 150.688 454.17 150.527 454.17C150.005 454.17 149.775 453.921 149.775 453.35V450.552H150.928V449.712H149.775V448.359H148.726ZM152.163 455H153.213V451.831C153.213 451.084 153.774 450.571 154.57 450.571C154.756 450.571 155.068 450.605 155.156 450.63V449.644C155.044 449.619 154.844 449.604 154.688 449.604C153.994 449.604 153.403 449.98 153.252 450.503H153.174V449.697H152.163V455ZM157.598 455.088C158.296 455.088 158.877 454.785 159.194 454.248H159.277V455H160.288V451.372C160.288 450.259 159.536 449.595 158.203 449.595C156.997 449.595 156.138 450.176 156.03 451.069H157.046C157.163 450.684 157.568 450.464 158.154 450.464C158.872 450.464 159.243 450.791 159.243 451.372V451.836L157.803 451.924C156.538 452.002 155.825 452.554 155.825 453.506C155.825 454.473 156.572 455.088 157.598 455.088ZM157.866 454.243C157.295 454.243 156.88 453.955 156.88 453.462C156.88 452.979 157.212 452.72 157.944 452.671L159.243 452.583V453.042C159.243 453.726 158.657 454.243 157.866 454.243ZM161.782 455H162.832V451.89C162.832 451.035 163.325 450.508 164.102 450.508C164.878 450.508 165.249 450.938 165.249 451.816V455H166.299V451.567C166.299 450.303 165.645 449.595 164.458 449.595C163.657 449.595 163.13 449.951 162.871 450.537H162.793V449.697H161.782V455ZM167.656 451.182C167.656 451.968 168.125 452.417 169.136 452.651L170.063 452.871C170.596 452.998 170.845 453.213 170.845 453.545C170.845 453.979 170.381 454.282 169.727 454.282C169.092 454.282 168.701 454.023 168.569 453.608H167.52C167.612 454.531 168.438 455.103 169.702 455.103C170.972 455.103 171.904 454.434 171.904 453.447C171.904 452.676 171.431 452.241 170.42 452.007L169.536 451.802C168.96 451.665 168.691 451.46 168.691 451.133C168.691 450.703 169.136 450.415 169.722 450.415C170.317 450.415 170.698 450.674 170.796 451.069H171.802C171.699 450.151 170.918 449.595 169.722 449.595C168.521 449.595 167.656 450.259 167.656 451.182ZM174.639 455.088C175.337 455.088 175.918 454.785 176.235 454.248H176.318V455H177.329V451.372C177.329 450.259 176.577 449.595 175.244 449.595C174.038 449.595 173.179 450.176 173.071 451.069H174.087C174.204 450.684 174.609 450.464 175.195 450.464C175.913 450.464 176.284 450.791 176.284 451.372V451.836L174.844 451.924C173.579 452.002 172.866 452.554 172.866 453.506C172.866 454.473 173.613 455.088 174.639 455.088ZM174.907 454.243C174.336 454.243 173.921 453.955 173.921 453.462C173.921 452.979 174.253 452.72 174.985 452.671L176.284 452.583V453.042C176.284 453.726 175.698 454.243 174.907 454.243ZM183.325 451.401C183.188 450.371 182.383 449.595 181.05 449.595C179.502 449.595 178.56 450.645 178.56 452.329C178.56 454.048 179.507 455.103 181.055 455.103C182.368 455.103 183.188 454.365 183.325 453.32H182.305C182.168 453.896 181.714 454.209 181.05 454.209C180.176 454.209 179.634 453.501 179.634 452.329C179.634 451.182 180.171 450.488 181.05 450.488C181.753 450.488 182.183 450.884 182.305 451.401H183.325ZM184.976 448.359V449.712H184.131V450.552H184.976V453.604C184.976 454.624 185.439 455.034 186.606 455.034C186.812 455.034 187.007 455.01 187.178 454.98V454.146C187.031 454.16 186.938 454.17 186.777 454.17C186.255 454.17 186.025 453.921 186.025 453.35V450.552H187.178V449.712H186.025V448.359H184.976ZM188.955 448.75C189.321 448.75 189.619 448.452 189.619 448.091C189.619 447.725 189.321 447.427 188.955 447.427C188.589 447.427 188.291 447.725 188.291 448.091C188.291 448.452 188.589 448.75 188.955 448.75ZM188.433 455H189.478V449.697H188.433V455ZM193.267 455.103C194.819 455.103 195.771 454.062 195.771 452.349C195.771 450.635 194.814 449.595 193.267 449.595C191.714 449.595 190.757 450.64 190.757 452.349C190.757 454.062 191.709 455.103 193.267 455.103ZM193.267 454.209C192.354 454.209 191.841 453.53 191.841 452.349C191.841 451.167 192.354 450.483 193.267 450.483C194.175 450.483 194.692 451.167 194.692 452.349C194.692 453.525 194.175 454.209 193.267 454.209ZM197.036 455H198.086V451.89C198.086 451.035 198.579 450.508 199.355 450.508C200.132 450.508 200.503 450.938 200.503 451.816V455H201.553V451.567C201.553 450.303 200.898 449.595 199.712 449.595C198.911 449.595 198.384 449.951 198.125 450.537H198.047V449.697H197.036V455Z" fill="white"/>
<g id="Rectangle 1" filter="url(#filter0_d)">
<rect x="16" y="76" width="268" height="55" rx="8" fill="#F6F8FA"/>
</g>
<path id="Transfer" d="M25.0352 59V44.3516H30.3438V42.0898H17.0898V44.3516H22.4102V59H25.0352ZM31.6562 59H34.1758V51.3945C34.1758 49.6016 35.5234 48.3711 37.4336 48.3711C37.8789 48.3711 38.6289 48.4531 38.8398 48.5117V46.1445C38.5703 46.0859 38.0898 46.0508 37.7148 46.0508C36.0508 46.0508 34.6328 46.9531 34.2695 48.207H34.082V46.2734H31.6562V59ZM44.6992 59.2109C46.375 59.2109 47.7695 58.4844 48.5312 57.1953H48.7305V59H51.1562V50.293C51.1562 47.6211 49.3516 46.0273 46.1523 46.0273C43.2578 46.0273 41.1953 47.4219 40.9375 49.5664H43.375C43.6562 48.6406 44.6289 48.1133 46.0352 48.1133C47.7578 48.1133 48.6484 48.8984 48.6484 50.293V51.4062L45.1914 51.6172C42.1562 51.8047 40.4453 53.1289 40.4453 55.4141C40.4453 57.7344 42.2383 59.2109 44.6992 59.2109ZM45.3438 57.1836C43.9727 57.1836 42.9766 56.4922 42.9766 55.3086C42.9766 54.1484 43.7734 53.5273 45.5312 53.4102L48.6484 53.1992V54.3008C48.6484 55.9414 47.2422 57.1836 45.3438 57.1836ZM54.7422 59H57.2617V51.5352C57.2617 49.4844 58.4453 48.2188 60.3086 48.2188C62.1719 48.2188 63.0625 49.25 63.0625 51.3594V59H65.582V50.7617C65.582 47.7266 64.0117 46.0273 61.1641 46.0273C59.2422 46.0273 57.9766 46.8828 57.3555 48.2891H57.168V46.2734H54.7422V59ZM68.8398 49.8359C68.8398 51.7227 69.9648 52.8008 72.3906 53.3633L74.6172 53.8906C75.8945 54.1953 76.4922 54.7109 76.4922 55.5078C76.4922 56.5508 75.3789 57.2773 73.8086 57.2773C72.2852 57.2773 71.3477 56.6562 71.0312 55.6602H68.5117C68.7344 57.875 70.7148 59.2461 73.75 59.2461C76.7969 59.2461 79.0352 57.6406 79.0352 55.2734C79.0352 53.4219 77.8984 52.3789 75.4727 51.8164L73.3516 51.3242C71.9688 50.9961 71.3242 50.5039 71.3242 49.7188C71.3242 48.6875 72.3906 47.9961 73.7969 47.9961C75.2266 47.9961 76.1406 48.6172 76.375 49.5664H78.7891C78.543 47.3633 76.668 46.0273 73.7969 46.0273C70.9141 46.0273 68.8398 47.6211 68.8398 49.8359ZM82.9727 59H85.4922V48.3242H88.3047V46.3086H85.457V45.0547C85.457 43.7656 86.0312 43.1211 87.4375 43.1211C87.8359 43.1211 88.1758 43.1445 88.4102 43.1797V41.2812C87.9766 41.2109 87.4844 41.1641 86.9102 41.1641C84.2617 41.1641 82.9727 42.4062 82.9727 44.9375V46.3086H80.875V48.3242H82.9727V59ZM99.0391 55.5898C98.5703 56.6211 97.5273 57.1836 96.0039 57.1836C93.9883 57.1836 92.6875 55.7305 92.6055 53.4219V53.3047H101.617V52.4375C101.617 48.4531 99.4727 46.0273 95.9219 46.0273C92.3242 46.0273 90.0391 48.6172 90.0391 52.6602C90.0391 56.7266 92.2773 59.2461 95.9336 59.2461C98.8516 59.2461 100.914 57.8398 101.465 55.5898H99.0391ZM95.9102 48.0781C97.7734 48.0781 98.9922 49.4258 99.0508 51.4883H92.6055C92.7461 49.4375 94.0469 48.0781 95.9102 48.0781ZM104.641 59H107.16V51.3945C107.16 49.6016 108.508 48.3711 110.418 48.3711C110.863 48.3711 111.613 48.4531 111.824 48.5117V46.1445C111.555 46.0859 111.074 46.0508 110.699 46.0508C109.035 46.0508 107.617 46.9531 107.254 48.207H107.066V46.2734H104.641V59Z" fill="#62676A"/>
</g>
<defs>
<filter id="filter0_d" x="-8" y="53" width="316" height="103" filterUnits="userSpaceOnUse" color-interpolation-filters="sRGB">
<feFlood flood-opacity="0" result="BackgroundImageFix"/>
<feColorMatrix in="SourceAlpha" type="matrix" values="0 0 0 0 0 0 0 0 0 0 0 0 0 0 0 0 0 0 127 0"/>
<feOffset dy="1"/>
<feGaussianBlur stdDeviation="12"/>
<feColorMatrix type="matrix" values="0 0 0 0 0 0 0 0 0 0 0 0 0 0 0 0 0 0 0.1 0"/>
<feBlend mode="normal" in2="BackgroundImageFix" result="effect1_dropShadow"/>
<feBlend mode="normal" in="SourceGraphic" in2="effect1_dropShadow" result="shape"/>
</filter>
<clipPath id="clip0">
<rect width="300" height="540" fill="white"/>
</clipPath>
</defs>
</svg>
