<svg width="250" height="120" viewBox="0 0 250 120" fill="none" xmlns="http://www.w3.org/2000/svg">
<path fill-rule="evenodd" clip-rule="evenodd" d="M29.3477 88.9806C26.0795 89.6498 24.2308 89.884 20.9957 89.884C16.1759 89.884 12.3465 87.4749 12.5776 83.0247C12.7096 80.0802 16.1759 73.8232 24.9571 73.8232C27.7301 73.8232 29.8759 74.3251 32.7809 75.9981L34.0684 68.7372C30.107 67.2315 27.499 66.9973 24.0988 67.0308C12.5776 67.1646 1.51858 72.4513 0.165084 83.2589C-1.22142 94.2339 11.9834 96.9776 17.8265 96.9441C21.2267 96.9441 24.726 96.8103 28.0272 96.4422L29.3477 88.9806Z" fill="black"/>
<path fill-rule="evenodd" clip-rule="evenodd" d="M50.5744 86.8392C50.1122 87.0065 49.551 87.1738 48.8247 87.3411C48.0985 87.5084 46.811 87.7426 44.9293 88.0437C43.6419 88.2445 42.7175 88.5122 42.2223 88.9137C41.7272 89.2818 41.4301 89.7167 41.364 90.2521C41.265 90.8209 41.4631 91.2894 41.9252 91.6574C42.4204 92.0255 43.2457 92.1928 44.4341 92.1928C45.3255 92.1928 46.1838 92.059 47.0421 91.7913C47.9004 91.5236 48.5937 91.1221 49.1549 90.6536C49.551 90.2856 49.8481 89.8506 50.0792 89.3152C50.1782 88.9137 50.3763 88.1107 50.5744 86.8392ZM61.4353 79.9799C61.4023 81.0171 61.2042 81.8871 60.9402 83.4597L59.0915 93.8993C58.9264 94.8361 59.2895 95.5723 60.1148 96.0407L60.0488 96.4422H49.518L49.419 93.7989C47.9004 94.7358 46.0517 95.5388 44.3681 95.9738C42.7175 96.4088 41.364 96.6095 39.3173 96.6095C35.9171 96.6095 33.9693 96.2415 32.6158 95.0704C31.2624 93.8323 30.6021 93.0293 30.6681 91.3228C30.7342 90.3525 31.2293 89.1145 31.9556 88.211C32.6819 87.3076 33.6722 86.7388 34.7616 86.2369C35.851 85.7015 37.1385 85.3335 38.9872 85.0323C40.8358 84.7312 43.4438 84.43 46.91 84.1289C48.7257 83.9616 49.8481 83.5601 50.3763 83.3259C51.1026 83.0247 51.3997 82.7236 51.4987 82.1213C51.6968 81.0506 51.3667 80.4483 49.9472 80.1471C46.1508 79.3776 39.0532 80.6491 35.3889 81.5525L37.3696 76.0985C42.1893 75.3958 46.712 74.9274 51.4987 74.9274C59.0915 74.9943 61.5014 77.1692 61.4353 79.9799Z" fill="black"/>
<path fill-rule="evenodd" clip-rule="evenodd" d="M78.6016 80.4818C77.2811 80.4818 76.0926 80.8833 75.0363 81.6863C73.9799 82.4894 73.3196 83.6939 73.0555 85.2666C72.7254 87.0734 72.9235 88.4118 73.6498 89.2148C74.376 90.0179 75.3994 90.4194 76.7529 90.4194C77.6772 90.4194 78.6346 90.2521 79.3278 89.9175C80.1861 89.4491 80.7804 88.9806 81.3085 88.211C81.8698 87.408 82.2329 86.5046 82.431 85.4673C82.7281 83.8278 82.464 82.5897 81.7047 81.7532C80.9454 80.9167 79.922 80.4818 78.6016 80.4818ZM60.2469 103.703L65.1657 75.697H74.0129L73.3196 79.2772C74.0789 78.2065 75.3004 77.3365 77.017 76.6338C78.7336 75.9312 80.6483 75.3958 82.7281 75.3958C85.0389 75.3958 86.4584 75.5297 88.175 76.4331C89.8917 77.3365 91.0801 78.6749 91.7403 80.3814C92.4006 82.0878 92.5326 83.9951 92.1695 86.0696C91.5753 89.516 89.9247 92.2263 87.1847 94.2339C84.4777 96.2415 82.0678 96.7434 78.5686 96.7768C77.3471 96.7768 76.3237 96.643 75.4654 96.4422C74.6401 96.208 73.9799 95.9403 73.4517 95.6392C72.9565 95.3046 72.4613 94.8362 71.8011 94.1335L70.1505 103.737H60.2469V103.703Z" fill="black"/>
<path fill-rule="evenodd" clip-rule="evenodd" d="M91.9384 96.4757L95.6028 75.5966H105.638L102.007 96.4757H91.9384ZM96.1309 70.7449C96.4281 69.0384 99.102 67.6331 102.106 67.6331C105.11 67.6331 107.289 69.0384 106.992 70.7449C106.662 72.4513 104.021 73.8566 101.017 73.8566C98.0126 73.8566 95.8338 72.4848 96.1309 70.7449Z" fill="black"/>
<path fill-rule="evenodd" clip-rule="evenodd" d="M111.217 75.4627L111.944 71.2133L122.475 68.9045L121.352 75.4962H126.502L125.512 79.7122H120.494L117.457 96.5091C117.457 96.5091 107.322 96.4422 107.289 96.5091L110.326 79.7456H106.497L107.289 75.4962H111.217V75.4627Z" fill="black"/>
<path fill-rule="evenodd" clip-rule="evenodd" d="M141.423 86.8726C140.961 87.0399 140.4 87.2072 139.674 87.3745C138.981 87.5418 137.66 87.7426 135.745 88.0772C134.458 88.278 133.534 88.5456 133.038 88.9472C132.543 89.3152 132.279 89.7502 132.18 90.2856C132.081 90.8544 132.279 91.3228 132.741 91.6909C133.236 92.059 134.095 92.2263 135.283 92.2263C136.175 92.2263 137.033 92.0924 137.858 91.8247C138.716 91.5236 139.443 91.1555 139.971 90.6871C140.367 90.319 140.664 89.8841 140.862 89.3152C141.027 88.9472 141.192 88.1441 141.423 86.8726ZM152.284 80.0133C152.251 81.0506 152.053 81.954 151.789 83.4932L149.974 93.9662C149.808 94.9031 150.139 95.6057 150.997 96.1411L150.931 96.5092L140.4 96.5426L140.334 93.8658C138.782 94.8027 136.934 95.6057 135.283 96.0407C133.6 96.4757 132.246 96.6765 130.232 96.6765C126.832 96.6765 124.917 96.3419 123.564 95.1373C122.177 93.8993 121.517 93.0962 121.616 91.3898C121.649 90.4194 122.144 89.1479 122.871 88.278C123.597 87.3745 124.587 86.8057 125.677 86.3038C126.766 85.7685 128.054 85.4004 129.869 85.0993C131.751 84.7981 134.326 84.497 137.792 84.1958C139.608 84.0285 140.697 83.627 141.225 83.4263C141.952 83.1251 142.249 82.824 142.348 82.2217C142.546 81.1844 142.216 80.5487 140.796 80.2475C137 79.478 129.902 80.7494 126.238 81.6529L128.219 76.1989C133.071 75.4962 137.561 75.0278 142.348 75.0278C149.941 75.0278 152.35 77.2361 152.284 80.0133Z" fill="black"/>
<path fill-rule="evenodd" clip-rule="evenodd" d="M162.518 96.4757H152.251L157.401 67.3319L167.404 67.6331L162.518 96.4757Z" fill="black"/>
<path fill-rule="evenodd" clip-rule="evenodd" d="M174.336 90.1183C174.567 96.643 178.628 101.963 183.943 101.963C194.243 101.963 198.6 89.1479 198.303 80.6156C198.072 74.0909 193.913 68.7372 188.598 68.7372C179.75 68.7707 174.039 81.519 174.336 90.1183ZM168.922 89.7837C168.526 78.6414 177.142 67.265 189.621 67.265C197.973 67.265 203.453 72.9198 203.75 81.5525C204.146 93.297 196.124 104.071 183.052 104.071C174.7 104.071 169.22 98.4164 168.922 89.7837Z" fill="black"/>
<path fill-rule="evenodd" clip-rule="evenodd" d="M203.618 82.824C204.311 82.7236 205.434 82.5897 205.929 82.5897C206.655 82.5897 207.381 82.7236 207.414 83.4597C207.414 83.8947 206.655 87.0734 206.49 87.8095L204.906 94.8361C204.278 97.7137 203.585 100.725 202.958 103.101H206.985L209.263 91.992C216.196 84.6643 218.837 82.2886 220.487 82.2886C221.213 82.2886 221.742 82.6901 221.775 83.5601C221.808 84.8316 221.015 87.7761 220.751 88.6126L218.44 96.7099C217.912 98.5168 217.516 100.19 217.549 101.361C217.615 103.134 218.672 103.937 220.256 103.937C223.194 103.937 225.34 100.826 227.222 97.7472L226.66 96.7434C225.901 97.9814 224.152 100.658 222.765 100.658C222.336 100.658 221.907 100.357 221.907 99.6209C221.874 98.6841 222.27 97.2453 222.534 96.3084L225.109 86.8057C225.802 84.1958 226.132 82.4894 226.099 81.6194C226.033 79.846 225.01 79.0095 223.458 79.0095C220.817 79.0095 217.285 80.9837 209.824 89.6833H209.725L210.65 85.4338C211.145 83.1251 211.673 80.6825 212.135 79.0095C209.56 79.9464 205.863 81.0171 203.552 81.4521L203.618 82.824Z" fill="black"/>
<path fill-rule="evenodd" clip-rule="evenodd" d="M243.133 83.0582C243.067 81.3852 242.242 80.2475 240.525 80.2475C236.399 80.2475 232.008 88.4453 231.249 91.7578C238.017 91.7578 243.298 87.6757 243.133 83.0582ZM244.025 95.9069L244.817 96.4422C242.803 100.591 238.677 103.937 233.89 103.937C229.962 103.937 226.726 101.26 226.528 96.2749C226.198 87.3076 234.484 79.0095 241.252 79.0095C244.157 79.0095 246.864 80.3144 246.963 83.4597C247.227 90.5867 237.356 92.7616 230.853 92.8955C230.655 93.6316 230.556 94.4012 230.589 95.5388C230.688 98.4833 232.471 100.959 236.102 100.959C239.271 101.026 242.44 98.4498 244.025 95.9069Z" fill="black"/>
<path fill-rule="evenodd" clip-rule="evenodd" d="M167.635 94.97C167.635 94.97 167.602 94.97 167.602 95.0034C157.104 102.565 144.626 110.462 131.223 118.794L130.695 119.095C130.529 119.229 130.463 119.463 130.595 119.664C130.728 119.831 130.959 119.898 131.157 119.764L131.619 119.53C142.975 113.507 156.048 106.38 169.153 99.0521C169.22 99.0187 169.286 98.9852 169.352 98.9183C168.658 97.7472 168.064 96.4422 167.635 94.97ZM236.663 38.3554C220.091 19.8185 113.429 36.4817 68.0707 46.5197L67.0143 46.7539C66.7833 46.7874 66.6512 47.0216 66.6842 47.2224C66.7172 47.4566 66.9153 47.5904 67.1464 47.557L68.2028 47.3562C105.77 40.5638 183.91 31.1615 200.746 48.0589C205.863 53.2117 204.641 59.8703 198.699 67.7C201.901 69.7745 204.179 73.0871 205.203 77.1692C228.443 61.5433 244.058 46.6201 236.663 38.3554Z" fill="black"/>
</svg>
