<svg width="800" height="540" viewBox="0 0 800 540" fill="none" xmlns="http://www.w3.org/2000/svg">
<g id="Frame 2" clip-path="url(#clip0)">
<rect id="Background" width="800" height="540" rx="12" fill="#F6F8FA"/>
<g id="WAF">
<rect id="CardBackground" x="166.5" y="148.5" width="467" height="111" rx="7.5" fill="white" stroke="#B7BBBD"/>
<g id="Row[0]">
<rect id="Configuration" x="578" y="164" width="40" height="8" rx="1" fill="#2C7CB0"/>
<g id="Switch">
<rect id="SwitchBackground" x="538" y="164" width="24" height="8" rx="1" fill="#B7BBBD"/>
<rect id="SwitchForeground" x="538" y="164" width="12" height="8" rx="1" fill="#62676A"/>
</g>
<rect id="Description" x="304" y="164" width="202" height="32" rx="1" fill="#B7BBBD"/>
<rect id="Title" x="182" y="164" width="98" height="8" rx="1" fill="#B7BBBD"/>
</g>
<g id="Row[1]">
<rect id="Configuration_2" x="578" y="212" width="40" height="8" rx="1" fill="#2C7CB0"/>
<g id="Switch_2">
<rect id="SwitchBackground_2" x="538" y="212" width="24" height="8" rx="1" fill="#B7BBBD"/>
<rect id="SwitchForeground_2" x="550" y="212" width="12" height="8" rx="1" fill="#79C698"/>
</g>
<rect id="Description_2" x="304" y="212" width="202" height="32" rx="1" fill="#B7BBBD"/>
<rect id="Title_2" x="182" y="212" width="98" height="8" rx="1" fill="#B7BBBD"/>
</g>
<path id="Web_Application_Firewall_(WAF)" d="M177.707 110.355H177.871L181.504 123H183.977L188.547 106.09H185.816L182.723 119.238H182.559L179.008 106.09H176.57L173.043 119.238H172.879L169.773 106.09H167.043L171.602 123H174.086L177.707 110.355ZM198.531 119.59C198.062 120.621 197.02 121.184 195.496 121.184C193.48 121.184 192.18 119.73 192.098 117.422V117.305H201.109V116.438C201.109 112.453 198.965 110.027 195.414 110.027C191.816 110.027 189.531 112.617 189.531 116.66C189.531 120.727 191.77 123.246 195.426 123.246C198.344 123.246 200.406 121.84 200.957 119.59H198.531ZM195.402 112.078C197.266 112.078 198.484 113.426 198.543 115.488H192.098C192.238 113.438 193.539 112.078 195.402 112.078ZM210.895 123.211C214.117 123.211 216.168 120.645 216.168 116.637C216.168 112.594 214.129 110.051 210.895 110.051C209.148 110.051 207.648 110.906 206.969 112.289H206.77V105.281H204.25V123H206.676V120.984H206.863C207.625 122.391 209.113 123.211 210.895 123.211ZM210.168 112.207C212.301 112.207 213.578 113.883 213.578 116.637C213.578 119.391 212.301 121.055 210.168 121.055C208.047 121.055 206.734 119.367 206.723 116.637C206.734 113.906 208.059 112.207 210.168 112.207ZM237.004 123H239.793L233.688 106.09H230.863L224.758 123H227.453L229.012 118.43H235.457L237.004 123ZM232.141 109.078H232.34L234.789 116.32H229.68L232.141 109.078ZM249.074 110.051C247.34 110.051 245.84 110.93 245.066 112.383H244.879V110.273H242.453V127.242H244.973V121.078H245.172C245.84 122.426 247.281 123.211 249.098 123.211C252.32 123.211 254.371 120.656 254.371 116.637C254.371 112.594 252.32 110.051 249.074 110.051ZM248.359 121.055C246.25 121.055 244.926 119.355 244.926 116.637C244.926 113.906 246.25 112.207 248.371 112.207C250.504 112.207 251.781 113.871 251.781 116.637C251.781 119.402 250.504 121.055 248.359 121.055ZM264.027 110.051C262.293 110.051 260.793 110.93 260.02 112.383H259.832V110.273H257.406V127.242H259.926V121.078H260.125C260.793 122.426 262.234 123.211 264.051 123.211C267.273 123.211 269.324 120.656 269.324 116.637C269.324 112.594 267.273 110.051 264.027 110.051ZM263.312 121.055C261.203 121.055 259.879 119.355 259.879 116.637C259.879 113.906 261.203 112.207 263.324 112.207C265.457 112.207 266.734 113.871 266.734 116.637C266.734 119.402 265.457 121.055 263.312 121.055ZM272.477 123H274.996V105.281H272.477V123ZM280.082 108C280.961 108 281.676 107.285 281.676 106.418C281.676 105.539 280.961 104.824 280.082 104.824C279.203 104.824 278.488 105.539 278.488 106.418C278.488 107.285 279.203 108 280.082 108ZM278.828 123H281.336V110.273H278.828V123ZM295.844 114.363C295.516 111.891 293.582 110.027 290.383 110.027C286.668 110.027 284.406 112.547 284.406 116.59C284.406 120.715 286.68 123.246 290.395 123.246C293.547 123.246 295.516 121.477 295.844 118.969H293.395C293.066 120.352 291.977 121.102 290.383 121.102C288.285 121.102 286.984 119.402 286.984 116.59C286.984 113.836 288.273 112.172 290.383 112.172C292.07 112.172 293.102 113.121 293.395 114.363H295.844ZM302.254 123.211C303.93 123.211 305.324 122.484 306.086 121.195H306.285V123H308.711V114.293C308.711 111.621 306.906 110.027 303.707 110.027C300.812 110.027 298.75 111.422 298.492 113.566H300.93C301.211 112.641 302.184 112.113 303.59 112.113C305.312 112.113 306.203 112.898 306.203 114.293V115.406L302.746 115.617C299.711 115.805 298 117.129 298 119.414C298 121.734 299.793 123.211 302.254 123.211ZM302.898 121.184C301.527 121.184 300.531 120.492 300.531 119.309C300.531 118.148 301.328 117.527 303.086 117.41L306.203 117.199V118.301C306.203 119.941 304.797 121.184 302.898 121.184ZM313.188 107.062V110.309H311.16V112.324H313.188V119.648C313.188 122.098 314.301 123.082 317.102 123.082C317.594 123.082 318.062 123.023 318.473 122.953V120.949C318.121 120.984 317.898 121.008 317.512 121.008C316.258 121.008 315.707 120.41 315.707 119.039V112.324H318.473V110.309H315.707V107.062H313.188ZM322.738 108C323.617 108 324.332 107.285 324.332 106.418C324.332 105.539 323.617 104.824 322.738 104.824C321.859 104.824 321.145 105.539 321.145 106.418C321.145 107.285 321.859 108 322.738 108ZM321.484 123H323.992V110.273H321.484V123ZM333.086 123.246C336.812 123.246 339.098 120.75 339.098 116.637C339.098 112.523 336.801 110.027 333.086 110.027C329.359 110.027 327.062 112.535 327.062 116.637C327.062 120.75 329.348 123.246 333.086 123.246ZM333.086 121.102C330.895 121.102 329.664 119.473 329.664 116.637C329.664 113.801 330.895 112.16 333.086 112.16C335.266 112.16 336.508 113.801 336.508 116.637C336.508 119.461 335.266 121.102 333.086 121.102ZM342.133 123H344.652V115.535C344.652 113.484 345.836 112.219 347.699 112.219C349.562 112.219 350.453 113.25 350.453 115.359V123H352.973V114.762C352.973 111.727 351.402 110.027 348.555 110.027C346.633 110.027 345.367 110.883 344.746 112.289H344.559V110.273H342.133V123ZM366.004 123V115.922H373.27V113.707H366.004V108.352H373.938V106.09H363.379V123H366.004ZM378.355 108C379.234 108 379.949 107.285 379.949 106.418C379.949 105.539 379.234 104.824 378.355 104.824C377.477 104.824 376.762 105.539 376.762 106.418C376.762 107.285 377.477 108 378.355 108ZM377.102 123H379.609V110.273H377.102V123ZM383.312 123H385.832V115.395C385.832 113.602 387.18 112.371 389.09 112.371C389.535 112.371 390.285 112.453 390.496 112.512V110.145C390.227 110.086 389.746 110.051 389.371 110.051C387.707 110.051 386.289 110.953 385.926 112.207H385.738V110.273H383.312V123ZM400.961 119.59C400.492 120.621 399.449 121.184 397.926 121.184C395.91 121.184 394.609 119.73 394.527 117.422V117.305H403.539V116.438C403.539 112.453 401.395 110.027 397.844 110.027C394.246 110.027 391.961 112.617 391.961 116.66C391.961 120.727 394.199 123.246 397.855 123.246C400.773 123.246 402.836 121.84 403.387 119.59H400.961ZM397.832 112.078C399.695 112.078 400.914 113.426 400.973 115.488H394.527C394.668 113.438 395.969 112.078 397.832 112.078ZM423.086 110.273H420.566L418.293 120.094H418.094L415.469 110.273H413.055L410.43 120.094H410.242L407.957 110.273H405.402L408.918 123H411.508L414.133 113.508H414.332L416.969 123H419.582L423.086 110.273ZM428.863 123.211C430.539 123.211 431.934 122.484 432.695 121.195H432.895V123H435.32V114.293C435.32 111.621 433.516 110.027 430.316 110.027C427.422 110.027 425.359 111.422 425.102 113.566H427.539C427.82 112.641 428.793 112.113 430.199 112.113C431.922 112.113 432.812 112.898 432.812 114.293V115.406L429.355 115.617C426.32 115.805 424.609 117.129 424.609 119.414C424.609 121.734 426.402 123.211 428.863 123.211ZM429.508 121.184C428.137 121.184 427.141 120.492 427.141 119.309C427.141 118.148 427.938 117.527 429.695 117.41L432.812 117.199V118.301C432.812 119.941 431.406 121.184 429.508 121.184ZM439.023 123H441.543V105.281H439.023V123ZM445.445 123H447.965V105.281H445.445V123ZM459.238 115.945C459.238 120.199 460.34 123.68 462.625 126.609H464.852C463.152 124.453 461.84 119.953 461.84 115.934C461.84 111.938 463.164 107.426 464.852 105.281H462.625C460.34 108.199 459.238 111.691 459.238 115.945ZM477.777 110.355H477.941L481.574 123H484.047L488.617 106.09H485.887L482.793 119.238H482.629L479.078 106.09H476.641L473.113 119.238H472.949L469.844 106.09H467.113L471.672 123H474.156L477.777 110.355ZM501.402 123H504.191L498.086 106.09H495.262L489.156 123H491.852L493.41 118.43H499.855L501.402 123ZM496.539 109.078H496.738L499.188 116.32H494.078L496.539 109.078ZM509.77 123V115.922H517.035V113.707H509.77V108.352H517.703V106.09H507.145V123H509.77ZM525.801 115.945C525.801 111.703 524.699 108.211 522.426 105.281H520.199C521.887 107.438 523.211 111.938 523.211 115.957C523.211 119.965 521.887 124.465 520.199 126.609H522.426C524.699 123.691 525.801 120.211 525.801 115.945Z" fill="#62676A"/>
</g>
<g id="NavBar">
<g id="NavBar_2">
<path d="M0 50H800V80H0V50Z" fill="white"/>
<path d="M0 50H800V80H0V50Z" fill="url(#paint0_linear)"/>
<path d="M0 50H800V80H0V50Z" fill="url(#paint1_linear)"/>
</g>
<g id="Cloudflare_logo">
<path id="Cloud-Left" fill-rule="evenodd" clip-rule="evenodd" d="M49.5528 74.8683C49.8531 73.8392 49.7386 72.8957 49.2383 72.1955C48.7811 71.5523 48.0091 71.1805 47.08 71.1376L29.4851 70.9091C29.3706 70.9091 29.2707 70.8517 29.2134 70.7661C29.1562 70.6804 29.1419 70.5659 29.1705 70.4517C29.2277 70.28 29.3992 70.1515 29.585 70.1371L47.3373 69.9085C49.4384 69.8085 51.7254 68.1076 52.5258 66.0207L53.5406 63.3765C53.5835 63.2621 53.5978 63.1478 53.5693 63.0334C52.4259 57.8593 47.809 54.0001 42.2918 54.0001C37.2035 54.0001 32.8868 57.2875 31.3432 61.847C30.3427 61.1038 29.0704 60.7035 27.6984 60.8323C25.2541 61.0753 23.2959 63.0334 23.0531 65.4776C22.9958 66.1065 23.0387 66.7211 23.1816 67.2929C19.1939 67.4072 16.0063 70.6661 16.0063 74.6824C16.0063 75.0397 16.0349 75.397 16.0778 75.7544C16.1064 75.9259 16.2493 76.0547 16.4209 76.0547H48.8953C49.0811 76.0547 49.2526 75.9259 49.3098 75.7402L49.5528 74.8683Z" fill="#F38020"/>
<path id="Cloud-Right" fill-rule="evenodd" clip-rule="evenodd" d="M55.1556 63.5622C54.9984 63.5622 54.8269 63.5622 54.6697 63.5765C54.5553 63.5765 54.4553 63.6623 54.4124 63.7766L53.7263 66.1636C53.4261 67.1927 53.5405 68.1361 54.0408 68.8365C54.4981 69.4797 55.27 69.8513 56.199 69.8942L59.9439 70.1229C60.0582 70.1229 60.1583 70.18 60.2155 70.2658C60.2726 70.3515 60.2869 70.4802 60.2584 70.5802C60.2012 70.7518 60.0297 70.8804 59.8438 70.8947L55.9418 71.1234C53.8264 71.2236 51.5537 72.9243 50.7533 75.0113L50.4674 75.7401C50.4103 75.8831 50.5103 76.026 50.6675 76.026H64.0747C64.2319 76.026 64.3748 75.9259 64.4177 75.7687C64.6464 74.9398 64.775 74.0678 64.775 73.1673C64.775 67.8788 60.4585 63.5622 55.1556 63.5622Z" fill="#FBAE40"/>
</g>
</g>
<rect id="Divider" y="48" width="800" height="2" fill="#62676A"/>
<g id="BrowserTopBar">
<path id="TopBar" d="M0 12C0 5.37258 5.37258 0 12 0H788C794.627 0 800 5.37258 800 12V48H0V12Z" fill="#1D1F20"/>
<rect id="AddressBar" x="100" y="16" width="600" height="16" rx="8" fill="#62676A"/>
<g id="WindowControls">
<rect id="WindowClose" x="16" y="18" width="12" height="12" rx="6" fill="#62676A"/>
<rect id="WindowMinimise" x="32" y="18" width="12" height="12" rx="6" fill="#62676A"/>
<rect id="WindowMaximise" x="48" y="18" width="12" height="12" rx="6" fill="#62676A"/>
</g>
</g>
</g>
<defs>
<linearGradient id="paint0_linear" x1="400" y1="50" x2="400" y2="80" gradientUnits="userSpaceOnUse">
<stop stop-color="white"/>
<stop offset="1" stop-color="white" stop-opacity="0"/>
</linearGradient>
<linearGradient id="paint1_linear" x1="400" y1="50" x2="400" y2="80" gradientUnits="userSpaceOnUse">
<stop stop-color="white"/>
<stop offset="1" stop-color="white" stop-opacity="0"/>
</linearGradient>
<clipPath id="clip0">
<rect width="800" height="540" fill="white"/>
</clipPath>
</defs>
</svg>
