<svg width="250" height="120" viewBox="0 0 250 120" fill="none" xmlns="http://www.w3.org/2000/svg">
<path fill-rule="evenodd" clip-rule="evenodd" d="M15.3054 111.705C14.5241 113.444 12.8906 114.687 10.7599 114.687C7.74148 114.687 5.68182 112.166 5.68182 109.325V109.254C5.68182 106.378 7.70597 103.928 10.7244 103.928C12.9972 103.928 14.7372 105.312 15.4474 107.23H21.2713C20.348 102.472 16.1577 98.956 10.7599 98.956C4.61648 98.956 0 103.608 0 109.325V109.396C0 115.114 4.54545 119.695 10.6889 119.695C15.9446 119.695 20.0639 116.285 21.1293 111.74L15.3054 111.705Z" fill="black"/>
<path fill-rule="evenodd" clip-rule="evenodd" d="M27.3793 99.3463H32.9191V114.439H42.5426V119.269H27.3793V99.3463Z" fill="black"/>
<path fill-rule="evenodd" clip-rule="evenodd" d="M64.098 109.361V109.29C64.098 106.413 62.0384 103.927 58.9844 103.927C55.9659 103.927 53.9418 106.378 53.9418 109.254V109.325C53.9418 112.201 56.0014 114.687 59.0199 114.687C62.0739 114.687 64.098 112.237 64.098 109.361M48.2599 109.361V109.29C48.2599 103.572 52.8764 98.9206 59.0199 98.9206C65.1634 98.9206 69.7088 103.501 69.7088 109.219V109.29C69.7088 115.007 65.0923 119.659 58.9489 119.659C52.8054 119.659 48.2599 115.078 48.2599 109.361" fill="black"/>
<path fill-rule="evenodd" clip-rule="evenodd" d="M76.4914 110.532V99.3463H82.1022V110.426C82.1022 113.303 83.5582 114.652 85.7599 114.652C87.9616 114.652 89.4176 113.338 89.4176 110.568V99.3463H95.0284V110.391C95.0284 116.818 91.3707 119.624 85.6889 119.624C80.0426 119.624 76.4914 116.783 76.4914 110.532" fill="black"/>
<path fill-rule="evenodd" clip-rule="evenodd" d="M111.257 114.368C114.56 114.368 116.761 112.556 116.761 109.325V109.254C116.761 106.058 114.56 104.211 111.257 104.211H109.02V114.332H111.257V114.368ZM103.48 99.3462H111.15C118.253 99.3462 122.408 103.43 122.408 109.183V109.254C122.408 115.007 118.217 119.268 111.044 119.268H103.48V99.3462Z" fill="black"/>
<path fill-rule="evenodd" clip-rule="evenodd" d="M130.433 99.3463H146.378V104.176H135.937V107.585H145.384V112.166H135.937V119.269H130.433V99.3463Z" fill="black"/>
<path fill-rule="evenodd" clip-rule="evenodd" d="M154.048 99.3463H159.552V114.439H169.212V119.269H154.048V99.3463Z" fill="black"/>
<path fill-rule="evenodd" clip-rule="evenodd" d="M188.494 111.42L186.293 105.774L184.055 111.42H188.494ZM183.629 99.2046H188.956L197.443 119.269H191.513L190.057 115.717H182.386L180.966 119.269H175.177L183.629 99.2046Z" fill="black"/>
<path fill-rule="evenodd" clip-rule="evenodd" d="M213.707 108.899C215.589 108.899 216.655 107.976 216.655 106.555V106.484C216.655 104.922 215.519 104.14 213.672 104.14H210.05V108.899H213.707ZM204.545 99.3465H213.956C217.01 99.3465 219.105 100.128 220.454 101.513C221.626 102.649 222.23 104.176 222.23 106.165V106.236C222.23 109.29 220.597 111.314 218.146 112.344L222.905 119.304H216.513L212.5 113.267H210.085V119.304H204.545V99.3465Z" fill="black"/>
<path fill-rule="evenodd" clip-rule="evenodd" d="M230.185 99.3463H246.2V104.034H235.653V107.052H245.206V111.42H235.653V114.581H246.342V119.269H230.185V99.3463Z" fill="black"/>
<path fill-rule="evenodd" clip-rule="evenodd" d="M225.852 58.7569C225.462 58.7569 225.036 58.7569 224.645 58.7924C224.361 58.7924 224.112 59.0055 224.006 59.2896L222.301 65.22C221.555 67.7768 221.839 70.1205 223.082 71.8606C224.219 73.4586 226.136 74.3819 228.445 74.4884L237.749 75.0566C238.033 75.0566 238.281 75.1987 238.423 75.4117C238.565 75.6248 238.601 75.9444 238.53 76.193C238.388 76.6191 237.962 76.9387 237.5 76.9742L227.805 77.5424C222.55 77.7913 216.903 82.0168 214.915 87.2019L214.205 89.0126C214.063 89.3677 214.311 89.7228 214.702 89.7228H248.011C248.402 89.7228 248.757 89.4742 248.864 89.0836C249.432 87.0243 249.751 84.8577 249.751 82.6205C249.751 69.4813 239.027 58.7569 225.852 58.7569Z" fill="black"/>
<path fill-rule="evenodd" clip-rule="evenodd" d="M211.932 86.8466C212.678 84.2898 212.393 81.9457 211.15 80.206C210.014 78.608 208.097 77.6843 205.788 77.5778L162.074 77.0099C161.79 77.0099 161.541 76.8675 161.399 76.6548C161.257 76.4418 161.222 76.1573 161.293 75.8736C161.435 75.4471 161.861 75.1278 162.322 75.092L206.427 74.5241C211.648 74.2756 217.329 70.0497 219.318 64.8651L221.839 58.2955C221.946 58.0114 221.981 57.7273 221.911 57.4432C219.07 44.5881 207.599 35 193.892 35C181.25 35 170.525 43.1676 166.691 54.4954C164.205 52.6491 161.044 51.6545 157.635 51.9744C151.562 52.5781 146.697 57.4432 146.094 63.5156C145.952 65.0781 146.058 66.6051 146.413 68.0256C136.506 68.3097 128.587 76.4063 128.587 86.3846C128.587 87.2724 128.658 88.1602 128.764 89.0479C128.835 89.4741 129.19 89.794 129.616 89.794H210.298C210.76 89.794 211.186 89.4741 211.328 89.0128L211.932 86.8466Z" fill="black"/>
</svg>
