<svg width="1220" height="820" viewBox="0 0 1220 820" fill="none" xmlns="http://www.w3.org/2000/svg">
<g id="Cloudflare_WAF" clip-path="url(#clip0)">
<rect id="Background" width="1220" height="823.5" rx="18.3" fill="#F6F8FA"/>
<g id="WAF">
<rect id="CardBackground" x="253.912" y="226.462" width="712.175" height="169.275" rx="11.4375" fill="white" stroke="#B7BBBD" stroke-width="1.525"/>
<g id="Row[0]">
<rect id="Configuration" x="881.45" y="250.1" width="61" height="12.2" rx="1.525" fill="#2C7CB0"/>
<g id="Switch">
<rect id="SwitchBackground" x="820.45" y="250.1" width="36.6" height="12.2" rx="1.525" fill="#B7BBBD"/>
<rect id="SwitchForeground" x="820.45" y="250.1" width="18.3" height="12.2" rx="1.525" fill="#62676A"/>
</g>
<rect id="Description" x="463.6" y="250.1" width="308.05" height="48.8" rx="1.525" fill="#B7BBBD"/>
<rect id="Title" x="277.55" y="250.1" width="149.45" height="12.2" rx="1.525" fill="#B7BBBD"/>
</g>
<g id="Row[1]">
<rect id="Configuration_2" x="881.45" y="323.3" width="61" height="12.2" rx="1.525" fill="#2C7CB0"/>
<g id="Switch_2">
<rect id="SwitchBackground_2" x="820.45" y="323.3" width="36.6" height="12.2" rx="1.525" fill="#B7BBBD"/>
<rect id="SwitchForeground_2" x="838.75" y="323.3" width="18.3" height="12.2" rx="1.525" fill="#79C698"/>
</g>
<rect id="Description_2" x="463.6" y="323.3" width="308.05" height="48.8" rx="1.525" fill="#B7BBBD"/>
<rect id="Title_2" x="277.55" y="323.3" width="149.45" height="12.2" rx="1.525" fill="#B7BBBD"/>
</g>
<path id="Web Application Firewall (WAF)" d="M271.003 168.117H271.253L276.793 187.4H280.564L287.534 161.612H283.37L278.652 181.663H278.402L272.987 161.612H269.27L263.89 181.663H263.64L258.904 161.612H254.74L261.692 187.4H265.481L271.003 168.117ZM302.76 182.2C302.045 183.772 300.455 184.63 298.131 184.63C295.058 184.63 293.074 182.414 292.949 178.893V178.715H306.692V177.392C306.692 171.316 303.421 167.617 298.006 167.617C292.52 167.617 289.035 171.566 289.035 177.732C289.035 183.933 292.448 187.775 298.024 187.775C302.474 187.775 305.619 185.631 306.459 182.2H302.76ZM297.988 170.744C300.83 170.744 302.689 172.799 302.778 175.945H292.949C293.163 172.817 295.147 170.744 297.988 170.744ZM321.614 187.722C326.529 187.722 329.656 183.808 329.656 177.696C329.656 171.53 326.546 167.652 321.614 167.652C318.951 167.652 316.664 168.957 315.627 171.066H315.323V160.379H311.481V187.4H315.18V184.326H315.466C316.628 186.471 318.898 187.722 321.614 187.722ZM320.506 170.941C323.759 170.941 325.707 173.496 325.707 177.696C325.707 181.896 323.759 184.433 320.506 184.433C317.271 184.433 315.27 181.86 315.252 177.696C315.27 173.532 317.289 170.941 320.506 170.941ZM361.431 187.4H365.684L356.373 161.612H352.066L342.756 187.4H346.866L349.243 180.43H359.072L361.431 187.4ZM354.014 166.169H354.318L358.053 177.214H350.261L354.014 166.169ZM379.838 167.652C377.193 167.652 374.906 168.993 373.726 171.209H373.44V167.992H369.741V193.869H373.583V184.469H373.887C374.906 186.524 377.104 187.722 379.874 187.722C384.788 187.722 387.916 183.826 387.916 177.696C387.916 171.53 384.788 167.652 379.838 167.652ZM378.748 184.433C375.531 184.433 373.512 181.842 373.512 177.696C373.512 173.532 375.531 170.941 378.766 170.941C382.018 170.941 383.966 173.478 383.966 177.696C383.966 181.914 382.018 184.433 378.748 184.433ZM402.642 167.652C399.997 167.652 397.709 168.993 396.53 171.209H396.244V167.992H392.544V193.869H396.387V184.469H396.691C397.709 186.524 399.907 187.722 402.677 187.722C407.592 187.722 410.719 183.826 410.719 177.696C410.719 171.53 407.592 167.652 402.642 167.652ZM401.551 184.433C398.335 184.433 396.315 181.842 396.315 177.696C396.315 173.532 398.335 170.941 401.569 170.941C404.822 170.941 406.77 173.478 406.77 177.696C406.77 181.914 404.822 184.433 401.551 184.433ZM415.527 187.4H419.369V160.379H415.527V187.4ZM427.125 164.525C428.465 164.525 429.555 163.435 429.555 162.112C429.555 160.772 428.465 159.682 427.125 159.682C425.785 159.682 424.695 160.772 424.695 162.112C424.695 163.435 425.785 164.525 427.125 164.525ZM425.213 187.4H429.037V167.992H425.213V187.4ZM451.162 174.229C450.661 170.458 447.712 167.617 442.834 167.617C437.169 167.617 433.719 171.459 433.719 177.625C433.719 183.915 437.186 187.775 442.852 187.775C447.659 187.775 450.661 185.077 451.162 181.252H447.427C446.926 183.361 445.264 184.505 442.834 184.505C439.635 184.505 437.651 181.914 437.651 177.625C437.651 173.425 439.617 170.887 442.834 170.887C445.407 170.887 446.98 172.335 447.427 174.229H451.162ZM460.937 187.722C463.493 187.722 465.619 186.614 466.781 184.648H467.085V187.4H470.784V174.122C470.784 170.047 468.032 167.617 463.153 167.617C458.739 167.617 455.594 169.743 455.2 173.014H458.918C459.347 171.602 460.83 170.798 462.974 170.798C465.601 170.798 466.96 171.995 466.96 174.122V175.82L461.688 176.141C457.059 176.427 454.45 178.447 454.45 181.931C454.45 185.47 457.184 187.722 460.937 187.722ZM461.92 184.63C459.829 184.63 458.31 183.576 458.31 181.771C458.31 180.001 459.525 179.054 462.206 178.876L466.96 178.554V180.234C466.96 182.736 464.815 184.63 461.92 184.63ZM477.611 163.095V168.046H474.519V171.119H477.611V182.289C477.611 186.024 479.309 187.525 483.58 187.525C484.33 187.525 485.045 187.436 485.671 187.329V184.273C485.135 184.326 484.795 184.362 484.205 184.362C482.293 184.362 481.453 183.451 481.453 181.36V171.119H485.671V168.046H481.453V163.095H477.611ZM492.176 164.525C493.516 164.525 494.606 163.435 494.606 162.112C494.606 160.772 493.516 159.682 492.176 159.682C490.835 159.682 489.745 160.772 489.745 162.112C489.745 163.435 490.835 164.525 492.176 164.525ZM490.264 187.4H494.088V167.992H490.264V187.4ZM507.956 187.775C513.639 187.775 517.124 183.969 517.124 177.696C517.124 171.423 513.621 167.617 507.956 167.617C502.273 167.617 498.77 171.441 498.77 177.696C498.77 183.969 502.255 187.775 507.956 187.775ZM507.956 184.505C504.614 184.505 502.738 182.021 502.738 177.696C502.738 173.371 504.614 170.869 507.956 170.869C511.28 170.869 513.174 173.371 513.174 177.696C513.174 182.003 511.28 184.505 507.956 184.505ZM521.752 187.4H525.595V176.016C525.595 172.889 527.4 170.959 530.241 170.959C533.083 170.959 534.441 172.531 534.441 175.748V187.4H538.283V174.837C538.283 170.208 535.888 167.617 531.546 167.617C528.615 167.617 526.685 168.921 525.738 171.066H525.452V167.992H521.752V187.4ZM558.156 187.4V176.606H569.236V173.228H558.156V165.061H570.255V161.612H554.153V187.4H558.156ZM576.992 164.525C578.332 164.525 579.422 163.435 579.422 162.112C579.422 160.772 578.332 159.682 576.992 159.682C575.652 159.682 574.562 160.772 574.562 162.112C574.562 163.435 575.652 164.525 576.992 164.525ZM575.08 187.4H578.904V167.992H575.08V187.4ZM584.551 187.4H588.394V175.802C588.394 173.067 590.449 171.191 593.362 171.191C594.041 171.191 595.185 171.316 595.506 171.405V167.795C595.095 167.706 594.363 167.652 593.791 167.652C591.253 167.652 589.091 169.029 588.537 170.941H588.251V167.992H584.551V187.4ZM611.465 182.2C610.75 183.772 609.16 184.63 606.837 184.63C603.763 184.63 601.779 182.414 601.654 178.893V178.715H615.397V177.392C615.397 171.316 612.127 167.617 606.712 167.617C601.225 167.617 597.74 171.566 597.74 177.732C597.74 183.933 601.154 187.775 606.729 187.775C611.179 187.775 614.325 185.631 615.165 182.2H611.465ZM606.694 170.744C609.535 170.744 611.394 172.799 611.483 175.945H601.654C601.869 172.817 603.852 170.744 606.694 170.744ZM645.206 167.992H641.364L637.897 182.968H637.593L633.59 167.992H629.908L625.905 182.968H625.619L622.134 167.992H618.238L623.6 187.4H627.549L631.552 172.924H631.856L635.877 187.4H639.862L645.206 167.992ZM654.016 187.722C656.572 187.722 658.699 186.614 659.86 184.648H660.164V187.4H663.863V174.122C663.863 170.047 661.111 167.617 656.232 167.617C651.818 167.617 648.673 169.743 648.28 173.014H651.997C652.426 171.602 653.909 170.798 656.054 170.798C658.681 170.798 660.039 171.995 660.039 174.122V175.82L654.767 176.141C650.138 176.427 647.529 178.447 647.529 181.931C647.529 185.47 650.263 187.722 654.016 187.722ZM654.999 184.63C652.908 184.63 651.389 183.576 651.389 181.771C651.389 180.001 652.605 179.054 655.285 178.876L660.039 178.554V180.234C660.039 182.736 657.894 184.63 654.999 184.63ZM669.511 187.4H673.353V160.379H669.511V187.4ZM679.304 187.4H683.146V160.379H679.304V187.4ZM700.338 176.642C700.338 183.129 702.018 188.437 705.503 192.904H708.899C706.307 189.616 704.306 182.754 704.306 176.624C704.306 170.53 706.325 163.649 708.899 160.379H705.503C702.018 164.829 700.338 170.154 700.338 176.642ZM728.61 168.117H728.861L734.401 187.4H738.171L745.141 161.612H740.977L736.259 181.663H736.009L730.594 161.612H726.877L721.498 181.663H721.247L716.512 161.612H712.348L719.299 187.4H723.088L728.61 168.117ZM764.638 187.4H768.892L759.581 161.612H755.274L745.963 187.4H750.074L752.45 180.43H762.279L764.638 187.4ZM757.222 166.169H757.526L761.261 177.214H753.469L757.222 166.169ZM777.398 187.4V176.606H788.479V173.228H777.398V165.061H789.497V161.612H773.395V187.4H777.398ZM801.846 176.642C801.846 170.172 800.166 164.847 796.699 160.379H793.304C795.877 163.667 797.897 170.53 797.897 176.659C797.897 182.771 795.877 189.634 793.304 192.904H796.699C800.166 188.454 801.846 183.147 801.846 176.642Z" fill="#62676A"/>
</g>
<g id="NavBar">
<g id="NavBar_2">
<path d="M0 76.25H1220V122H0V76.25Z" fill="white"/>
<path d="M0 76.25H1220V122H0V76.25Z" fill="url(#paint0_linear)"/>
<path d="M0 76.25H1220V122H0V76.25Z" fill="url(#paint1_linear)"/>
</g>
<g id="Cloudflare logo">
<path id="Cloud-Left" fill-rule="evenodd" clip-rule="evenodd" d="M75.5677 114.174C76.0257 112.605 75.8511 111.166 75.0882 110.098C74.3909 109.117 73.2136 108.55 71.7968 108.485L44.9645 108.136C44.7899 108.136 44.6376 108.049 44.5501 107.918C44.463 107.787 44.4412 107.613 44.4848 107.439C44.5719 107.177 44.8335 106.981 45.1169 106.959L72.1891 106.61C75.3933 106.458 78.8809 103.864 80.1016 100.682L81.6492 96.649C81.7146 96.4746 81.7364 96.3003 81.693 96.1259C79.9492 88.2353 72.9085 82.35 64.4947 82.35C56.7351 82.35 50.1521 87.3634 47.7982 94.3165C46.2724 93.1832 44.3322 92.5727 42.2398 92.7691C38.5123 93.1396 35.5261 96.1259 35.1557 99.8532C35.0683 100.812 35.1337 101.75 35.3517 102.621C29.2704 102.796 24.4094 107.766 24.4094 113.89C24.4094 114.435 24.453 114.98 24.5184 115.525C24.562 115.787 24.78 115.983 25.0415 115.983H74.5651C74.8484 115.983 75.11 115.787 75.1972 115.504L75.5677 114.174Z" fill="#F38020"/>
<path id="Cloud-Right" fill-rule="evenodd" clip-rule="evenodd" d="M84.1123 96.9325C83.8725 96.9325 83.611 96.9325 83.3712 96.9543C83.1968 96.9543 83.0442 97.0851 82.9788 97.2595L81.9326 100.9C81.4748 102.469 81.6492 103.908 82.4121 104.976C83.1096 105.957 84.2867 106.523 85.7035 106.589L91.4144 106.937C91.5888 106.937 91.7414 107.025 91.8285 107.155C91.9157 107.286 91.9375 107.482 91.8939 107.635C91.8067 107.897 91.5452 108.093 91.2618 108.115L85.3111 108.463C82.0851 108.616 78.6194 111.21 77.3987 114.392L76.9628 115.504C76.8756 115.722 77.0282 115.94 77.2679 115.94H97.7138C97.9536 115.94 98.1716 115.787 98.237 115.547C98.5857 114.283 98.7819 112.954 98.7819 111.58C98.7819 103.515 92.1991 96.9325 84.1123 96.9325Z" fill="#FBAE40"/>
</g>
</g>
<rect id="Divider" y="73.2" width="1220" height="3.05" fill="#62676A"/>
<g id="BrowserTopBar">
<path id="TopBar" d="M0 18.3C0 8.1932 8.19319 0 18.3 0H1201.7C1211.81 0 1220 8.19319 1220 18.3V73.2H0V18.3Z" fill="#1D1F20"/>
<rect id="AddressBar" x="152.5" y="24.4" width="915" height="24.4" rx="12.2" fill="#62676A"/>
<g id="WindowControls">
<rect id="WindowClose" x="24.3999" y="27.45" width="18.3" height="18.3" rx="9.15" fill="#62676A"/>
<rect id="WindowMinimise" x="48.8" y="27.45" width="18.3" height="18.3" rx="9.15" fill="#62676A"/>
<rect id="WindowMaximise" x="73.2" y="27.45" width="18.3" height="18.3" rx="9.15" fill="#62676A"/>
</g>
</g>
</g>
<defs>
<linearGradient id="paint0_linear" x1="610" y1="76.25" x2="610" y2="122" gradientUnits="userSpaceOnUse">
<stop stop-color="white"/>
<stop offset="1" stop-color="white" stop-opacity="0"/>
</linearGradient>
<linearGradient id="paint1_linear" x1="610" y1="76.25" x2="610" y2="122" gradientUnits="userSpaceOnUse">
<stop stop-color="white"/>
<stop offset="1" stop-color="white" stop-opacity="0"/>
</linearGradient>
<clipPath id="clip0">
<rect width="1220" height="820" fill="white"/>
</clipPath>
</defs>
</svg>
