<svg width="800" height="540" viewBox="0 0 800 540" fill="none" xmlns="http://www.w3.org/2000/svg">
<g id="Trast" clip-path="url(#clip0)">
<rect id="Background" width="800" height="540" rx="12" fill="black"/>
<g id="Background_2">
<rect id="Hex-Background" x="279" y="212" width="113" height="40" fill="#1A1A1A"/>
<path id="Hex" d="M288.773 241H290.789L291.727 236.371H294.715L295.09 234.391H292.113L292.91 230.512H295.805L296.18 228.543H293.32L294.223 224.09H292.219L291.305 228.543H287.766L288.656 224.09H286.664L285.738 228.543H282.914L282.516 230.512H285.34L284.566 234.391H281.836L281.449 236.371H284.156L283.23 241H285.223L286.16 236.371H289.711L288.773 241ZM286.477 234.484L287.297 230.43H290.988L290.156 234.484H286.477ZM304.289 241.41C308.227 241.41 310.523 238.164 310.523 232.562C310.523 226.949 308.191 223.68 304.289 223.68C300.363 223.68 298.031 226.949 298.031 232.527C298.031 238.152 300.34 241.41 304.289 241.41ZM304.289 239.23C301.992 239.23 300.68 236.887 300.68 232.527C300.68 228.227 302.016 225.871 304.289 225.871C306.562 225.871 307.875 228.203 307.875 232.527C307.875 236.898 306.586 239.23 304.289 239.23ZM319.875 241.41C323.812 241.41 326.109 238.164 326.109 232.562C326.109 226.949 323.777 223.68 319.875 223.68C315.949 223.68 313.617 226.949 313.617 232.527C313.617 238.152 315.926 241.41 319.875 241.41ZM319.875 239.23C317.578 239.23 316.266 236.887 316.266 232.527C316.266 228.227 317.602 225.871 319.875 225.871C322.148 225.871 323.461 228.203 323.461 232.527C323.461 236.898 322.172 239.23 319.875 239.23ZM335.461 241.41C339.398 241.41 341.695 238.164 341.695 232.562C341.695 226.949 339.363 223.68 335.461 223.68C331.535 223.68 329.203 226.949 329.203 232.527C329.203 238.152 331.512 241.41 335.461 241.41ZM335.461 239.23C333.164 239.23 331.852 236.887 331.852 232.527C331.852 228.227 333.188 225.871 335.461 225.871C337.734 225.871 339.047 228.203 339.047 232.527C339.047 236.898 337.758 239.23 335.461 239.23ZM351.047 241.41C354.984 241.41 357.281 238.164 357.281 232.562C357.281 226.949 354.949 223.68 351.047 223.68C347.121 223.68 344.789 226.949 344.789 232.527C344.789 238.152 347.098 241.41 351.047 241.41ZM351.047 239.23C348.75 239.23 347.438 236.887 347.438 232.527C347.438 228.227 348.773 225.871 351.047 225.871C353.32 225.871 354.633 228.203 354.633 232.527C354.633 236.898 353.344 239.23 351.047 239.23ZM366.633 241.41C370.57 241.41 372.867 238.164 372.867 232.562C372.867 226.949 370.535 223.68 366.633 223.68C362.707 223.68 360.375 226.949 360.375 232.527C360.375 238.152 362.684 241.41 366.633 241.41ZM366.633 239.23C364.336 239.23 363.023 236.887 363.023 232.527C363.023 228.227 364.359 225.871 366.633 225.871C368.906 225.871 370.219 228.203 370.219 232.527C370.219 236.898 368.93 239.23 366.633 239.23ZM382.219 241.41C386.156 241.41 388.453 238.164 388.453 232.562C388.453 226.949 386.121 223.68 382.219 223.68C378.293 223.68 375.961 226.949 375.961 232.527C375.961 238.152 378.27 241.41 382.219 241.41ZM382.219 239.23C379.922 239.23 378.609 236.887 378.609 232.527C378.609 228.227 379.945 225.871 382.219 225.871C384.492 225.871 385.805 228.203 385.805 232.527C385.805 236.898 384.516 239.23 382.219 239.23Z" fill="white"/>
<path id="Background_3" d="M33.0703 241C36.6797 241 38.8477 239.195 38.8477 236.219C38.8477 234.004 37.3242 232.387 35.0391 232.141V231.941C36.7031 231.66 38.0039 230.078 38.0039 228.309C38.0039 225.707 36.0938 224.09 32.918 224.09H26.1211V241H33.0703ZM28.7461 226.234H32.3086C34.2539 226.234 35.3906 227.16 35.3906 228.766C35.3906 230.418 34.1836 231.285 31.8633 231.285H28.7461V226.234ZM28.7461 238.855V233.289H32.3906C34.8633 233.289 36.1641 234.227 36.1641 236.055C36.1641 237.883 34.9102 238.855 32.543 238.855H28.7461ZM45.457 241.211C47.1328 241.211 48.5273 240.484 49.2891 239.195H49.4883V241H51.9141V232.293C51.9141 229.621 50.1094 228.027 46.9102 228.027C44.0156 228.027 41.9531 229.422 41.6953 231.566H44.1328C44.4141 230.641 45.3867 230.113 46.793 230.113C48.5156 230.113 49.4062 230.898 49.4062 232.293V233.406L45.9492 233.617C42.9141 233.805 41.2031 235.129 41.2031 237.414C41.2031 239.734 42.9961 241.211 45.457 241.211ZM46.1016 239.184C44.7305 239.184 43.7344 238.492 43.7344 237.309C43.7344 236.148 44.5312 235.527 46.2891 235.41L49.4062 235.199V236.301C49.4062 237.941 48 239.184 46.1016 239.184ZM66.3047 232.363C65.9766 229.891 64.043 228.027 60.8438 228.027C57.1289 228.027 54.8672 230.547 54.8672 234.59C54.8672 238.715 57.1406 241.246 60.8555 241.246C64.0078 241.246 65.9766 239.477 66.3047 236.969H63.8555C63.5273 238.352 62.4375 239.102 60.8438 239.102C58.7461 239.102 57.4453 237.402 57.4453 234.59C57.4453 231.836 58.7344 230.172 60.8438 230.172C62.5312 230.172 63.5625 231.121 63.8555 232.363H66.3047ZM72.0234 233.641H71.8242V223.281H69.3047V241H71.8242V236.371L72.9375 235.305L77.3203 241H80.4141L74.8125 233.723L80.0625 228.273H77.0859L72.0234 233.641ZM87.457 245.863C91.0664 245.863 93.3516 244.023 93.3516 241.129V228.273H90.9375V230.301H90.7383C90.0234 228.918 88.4883 228.051 86.7305 228.051C83.4727 228.051 81.4336 230.617 81.4336 234.473C81.4336 238.293 83.4492 240.812 86.707 240.812C88.4648 240.812 89.8711 240.051 90.6445 238.668H90.832V241.117C90.832 242.84 89.5898 243.871 87.4922 243.871C85.793 243.871 84.7266 243.262 84.5156 242.301H81.9375C82.207 244.445 84.2695 245.863 87.457 245.863ZM87.4219 238.727C85.2539 238.727 84.0352 237.074 84.0352 234.473C84.0352 231.871 85.2539 230.207 87.4219 230.207C89.5664 230.207 90.8789 231.871 90.8789 234.473C90.8789 237.074 89.5781 238.727 87.4219 238.727ZM97.0078 241H99.5273V233.395C99.5273 231.602 100.875 230.371 102.785 230.371C103.23 230.371 103.98 230.453 104.191 230.512V228.145C103.922 228.086 103.441 228.051 103.066 228.051C101.402 228.051 99.9844 228.953 99.6211 230.207H99.4336V228.273H97.0078V241ZM111.68 241.246C115.406 241.246 117.691 238.75 117.691 234.637C117.691 230.523 115.395 228.027 111.68 228.027C107.953 228.027 105.656 230.535 105.656 234.637C105.656 238.75 107.941 241.246 111.68 241.246ZM111.68 239.102C109.488 239.102 108.258 237.473 108.258 234.637C108.258 231.801 109.488 230.16 111.68 230.16C113.859 230.16 115.102 231.801 115.102 234.637C115.102 237.461 113.859 239.102 111.68 239.102ZM131.484 228.273H128.965V235.738C128.965 237.789 127.852 239.031 125.812 239.031C123.961 239.031 123.129 238.023 123.129 235.914V228.273H120.609V236.535C120.609 239.523 122.18 241.246 125.004 241.246C126.938 241.246 128.238 240.426 128.859 238.984H129.059V241H131.484V228.273ZM135.141 241H137.66V233.535C137.66 231.484 138.844 230.219 140.707 230.219C142.57 230.219 143.461 231.25 143.461 233.359V241H145.98V232.762C145.98 229.727 144.41 228.027 141.562 228.027C139.641 228.027 138.375 228.883 137.754 230.289H137.566V228.273H135.141V241ZM154.195 241.211C155.953 241.211 157.441 240.379 158.203 238.984H158.402V241H160.816V223.281H158.297V230.289H158.109C157.418 228.895 155.941 228.051 154.195 228.051C150.973 228.051 148.898 230.617 148.898 234.625C148.898 238.656 150.949 241.211 154.195 241.211ZM154.91 230.207C157.02 230.207 158.344 231.918 158.344 234.637C158.344 237.379 157.031 239.055 154.91 239.055C152.777 239.055 151.5 237.402 151.5 234.637C151.5 231.883 152.789 230.207 154.91 230.207Z" fill="white"/>
<g id="Slider[0]">
<rect id="Bar" x="24" y="330" width="368" height="8" rx="2" fill="white"/>
<rect id="Slider" x="26" y="326" width="16" height="16" rx="8" fill="#0075FF"/>
<path id="0&#194;&#176;" d="M379.781 308.266C382.312 308.266 383.766 306.125 383.766 302.383C383.766 298.648 382.289 296.461 379.781 296.461C377.258 296.461 375.781 298.641 375.781 302.359C375.781 306.109 377.242 308.266 379.781 308.266ZM379.781 307.039C378.117 307.039 377.195 305.375 377.195 302.359C377.195 299.383 378.133 297.695 379.781 297.695C381.43 297.695 382.352 299.367 382.352 302.359C382.352 305.383 381.445 307.039 379.781 307.039ZM388.328 302.203C389.82 302.203 390.906 301.055 390.906 299.625C390.906 298.195 389.82 297.047 388.328 297.047C386.828 297.047 385.75 298.195 385.75 299.625C385.75 301.055 386.828 302.203 388.328 302.203ZM388.328 301.109C387.461 301.109 386.922 300.438 386.922 299.625C386.922 298.797 387.469 298.141 388.328 298.141C389.172 298.141 389.734 298.797 389.734 299.625C389.734 300.438 389.18 301.109 388.328 301.109Z" fill="white"/>
<path id="Hue" d="M34.4375 308V296.727H33.0312V301.602H26.8438V296.727H25.4375V308H26.8438V302.867H33.0312V308H34.4375ZM43.9531 299.578H42.6094V304.562C42.6094 306.039 41.7969 306.922 40.3125 306.922C38.9688 306.922 38.4062 306.219 38.4062 304.703V299.578H37.0625V305.031C37.0625 307.023 38.0469 308.148 39.9375 308.148C41.2266 308.148 42.125 307.617 42.5469 306.68H42.6719V308H43.9531V299.578ZM52.0625 305.82C51.7109 306.562 50.9766 306.961 49.8906 306.961C48.4609 306.961 47.5312 305.906 47.4609 304.242V304.18H53.5156V303.664C53.5156 301.047 52.1328 299.43 49.8594 299.43C47.5469 299.43 46.0625 301.148 46.0625 303.797C46.0625 306.461 47.5234 308.148 49.8594 308.148C51.7031 308.148 53.0156 307.258 53.4062 305.82H52.0625ZM49.8438 300.617C51.1797 300.617 52.0703 301.602 52.1016 303.094H47.4609C47.5625 301.602 48.5 300.617 49.8438 300.617Z" fill="white"/>
</g>
<g id="Slider[1]">
<rect id="Bar_2" x="24" y="406" width="368" height="8" rx="2" fill="white"/>
<rect id="Slider_2" x="200" y="402" width="16" height="16" rx="8" fill="#0075FF"/>
<path id="50" d="M377.023 384.266C379.328 384.266 380.898 382.672 380.898 380.352C380.898 378.117 379.336 376.633 377.445 376.633C376.32 376.633 375.484 376.977 374.938 377.656H374.812L375.164 373.984H380.32V372.727H374.062L373.414 379.172H374.734C375.18 378.336 376.023 377.844 377.094 377.844C378.516 377.844 379.492 378.867 379.492 380.391C379.492 381.969 378.516 383.031 377.039 383.031C375.711 383.031 374.742 382.227 374.617 381.023H373.234C373.359 382.953 374.891 384.266 377.023 384.266ZM386.969 384.266C389.5 384.266 390.953 382.125 390.953 378.383C390.953 374.648 389.477 372.461 386.969 372.461C384.445 372.461 382.969 374.641 382.969 378.359C382.969 382.109 384.43 384.266 386.969 384.266ZM386.969 383.039C385.305 383.039 384.383 381.375 384.383 378.359C384.383 375.383 385.32 373.695 386.969 373.695C388.617 373.695 389.539 375.367 389.539 378.359C389.539 381.383 388.633 383.039 386.969 383.039Z" fill="white"/>
<path id="Saturation" d="M24.8984 381.055C25.0469 383 26.6953 384.266 29.0859 384.266C31.6641 384.266 33.2969 382.945 33.2969 380.875C33.2969 379.219 32.3594 378.312 30.0234 377.727L28.8438 377.414C27.2891 377.016 26.6719 376.508 26.6719 375.625C26.6719 374.484 27.6641 373.734 29.1641 373.734C30.5703 373.734 31.5234 374.422 31.7188 375.578H33.1328C33.0156 373.758 31.3906 372.461 29.2109 372.461C26.8281 372.461 25.2266 373.758 25.2266 375.672C25.2266 377.273 26.1094 378.195 28.1484 378.711L29.5938 379.086C31.1484 379.477 31.8516 380.086 31.8516 381.047C31.8516 382.164 30.7344 382.984 29.2188 382.984C27.6172 382.984 26.4922 382.234 26.3203 381.055H24.8984ZM37.8125 384.148C38.9375 384.148 39.8594 383.656 40.4062 382.758H40.5312V384H41.8125V378.234C41.8125 376.484 40.6641 375.43 38.6094 375.43C36.8125 375.43 35.4844 376.32 35.3047 377.672H36.6641C36.8516 377.008 37.5547 376.625 38.5625 376.625C39.8203 376.625 40.4688 377.195 40.4688 378.234V379L38.0391 379.148C36.0781 379.266 34.9688 380.133 34.9688 381.641C34.9688 383.18 36.1797 384.148 37.8125 384.148ZM38.0625 382.969C37.0859 382.969 36.3594 382.469 36.3594 381.609C36.3594 380.766 36.9219 380.32 38.2031 380.234L40.4688 380.086V380.859C40.4688 382.062 39.4453 382.969 38.0625 382.969ZM44.8594 373.398V375.578H43.5V376.703H44.8594V381.812C44.8594 383.422 45.5547 384.062 47.2891 384.062C47.5547 384.062 47.8125 384.031 48.0781 383.984V382.852C47.8281 382.875 47.6953 382.883 47.4531 382.883C46.5781 382.883 46.2031 382.461 46.2031 381.469V376.703H48.0781V375.578H46.2031V373.398H44.8594ZM56.9219 375.578H55.5781V380.562C55.5781 382.039 54.7656 382.922 53.2812 382.922C51.9375 382.922 51.375 382.219 51.375 380.703V375.578H50.0312V381.031C50.0312 383.023 51.0156 384.148 52.9062 384.148C54.1953 384.148 55.0938 383.617 55.5156 382.68H55.6406V384H56.9219V375.578ZM59.4531 384H60.7969V378.781C60.7969 377.594 61.7266 376.734 63.0078 376.734C63.2734 376.734 63.7578 376.781 63.8672 376.812V375.469C63.6953 375.445 63.4141 375.43 63.1953 375.43C62.0781 375.43 61.1094 376.008 60.8594 376.828H60.7344V375.578H59.4531V384ZM67.8906 384.148C69.0156 384.148 69.9375 383.656 70.4844 382.758H70.6094V384H71.8906V378.234C71.8906 376.484 70.7422 375.43 68.6875 375.43C66.8906 375.43 65.5625 376.32 65.3828 377.672H66.7422C66.9297 377.008 67.6328 376.625 68.6406 376.625C69.8984 376.625 70.5469 377.195 70.5469 378.234V379L68.1172 379.148C66.1562 379.266 65.0469 380.133 65.0469 381.641C65.0469 383.18 66.2578 384.148 67.8906 384.148ZM68.1406 382.969C67.1641 382.969 66.4375 382.469 66.4375 381.609C66.4375 380.766 67 380.32 68.2812 380.234L70.5469 380.086V380.859C70.5469 382.062 69.5234 382.969 68.1406 382.969ZM74.9375 373.398V375.578H73.5781V376.703H74.9375V381.812C74.9375 383.422 75.6328 384.062 77.3672 384.062C77.6328 384.062 77.8906 384.031 78.1562 383.984V382.852C77.9062 382.875 77.7734 382.883 77.5312 382.883C76.6562 382.883 76.2812 382.461 76.2812 381.469V376.703H78.1562V375.578H76.2812V373.398H74.9375ZM80.8906 373.953C81.4062 373.953 81.8281 373.531 81.8281 373.016C81.8281 372.5 81.4062 372.078 80.8906 372.078C80.375 372.078 79.9531 372.5 79.9531 373.016C79.9531 373.531 80.375 373.953 80.8906 373.953ZM80.2188 384H81.5625V375.578H80.2188V384ZM87.5859 384.148C89.9844 384.148 91.4688 382.492 91.4688 379.789C91.4688 377.078 89.9844 375.43 87.5859 375.43C85.1875 375.43 83.7031 377.078 83.7031 379.789C83.7031 382.492 85.1875 384.148 87.5859 384.148ZM87.5859 382.938C85.9922 382.938 85.0938 381.781 85.0938 379.789C85.0938 377.789 85.9922 376.641 87.5859 376.641C89.1797 376.641 90.0781 377.789 90.0781 379.789C90.0781 381.781 89.1797 382.938 87.5859 382.938ZM93.5781 384H94.9219V379.016C94.9219 377.539 95.7891 376.641 97.1328 376.641C98.4766 376.641 99.1172 377.359 99.1172 378.875V384H100.461V378.547C100.461 376.547 99.4062 375.43 97.5156 375.43C96.2266 375.43 95.4062 375.977 94.9844 376.906H94.8594V375.578H93.5781V384Z" fill="white"/>
</g>
<g id="Slider[2]">
<rect id="Bar_3" x="24" y="482" width="368" height="8" rx="2" fill="white"/>
<rect id="Slider_3" x="26" y="478" width="16" height="16" rx="8" fill="#0075FF"/>
<path id="0" d="M386.969 460.266C389.5 460.266 390.953 458.125 390.953 454.383C390.953 450.648 389.477 448.461 386.969 448.461C384.445 448.461 382.969 450.641 382.969 454.359C382.969 458.109 384.43 460.266 386.969 460.266ZM386.969 459.039C385.305 459.039 384.383 457.375 384.383 454.359C384.383 451.383 385.32 449.695 386.969 449.695C388.617 449.695 389.539 451.367 389.539 454.359C389.539 457.383 388.633 459.039 386.969 459.039Z" fill="white"/>
<path id="Lightness" d="M32.2812 458.734H26.8438V448.727H25.4375V460H32.2812V458.734ZM35.0625 449.953C35.5781 449.953 36 449.531 36 449.016C36 448.5 35.5781 448.078 35.0625 448.078C34.5469 448.078 34.125 448.5 34.125 449.016C34.125 449.531 34.5469 449.953 35.0625 449.953ZM34.3906 460H35.7344V451.578H34.3906V460ZM41.7656 463.234C44.0625 463.234 45.5156 462.031 45.5156 460.148V451.578H44.2344V452.914H44.1094C43.625 452.008 42.5859 451.43 41.4062 451.43C39.2422 451.43 37.875 453.141 37.875 455.664C37.875 458.188 39.2266 459.875 41.4062 459.875C42.5625 459.875 43.5156 459.352 44.0469 458.422H44.1719V460.078C44.1719 461.32 43.2734 462.062 41.7656 462.062C40.5547 462.062 39.8047 461.617 39.6562 460.93H38.2344C38.4375 462.32 39.7344 463.234 41.7656 463.234ZM41.7031 458.688C40.1406 458.688 39.2656 457.5 39.2656 455.664C39.2656 453.828 40.1406 452.641 41.7031 452.641C43.2578 452.641 44.2031 453.828 44.2031 455.664C44.2031 457.5 43.2656 458.688 41.7031 458.688ZM48.125 460H49.4688V455.016C49.4688 453.594 50.2969 452.641 51.8047 452.641C53.0781 452.641 53.75 453.383 53.75 454.875V460H55.0938V454.547C55.0938 452.57 53.9688 451.43 52.1875 451.43C50.8984 451.43 50.0156 451.977 49.5938 452.906H49.4688V448.234H48.125V460ZM58.1094 449.398V451.578H56.75V452.703H58.1094V457.812C58.1094 459.422 58.8047 460.062 60.5391 460.062C60.8047 460.062 61.0625 460.031 61.3281 459.984V458.852C61.0781 458.875 60.9453 458.883 60.7031 458.883C59.8281 458.883 59.4531 458.461 59.4531 457.469V452.703H61.3281V451.578H59.4531V449.398H58.1094ZM63.3594 460H64.7031V455.016C64.7031 453.539 65.5703 452.641 66.9141 452.641C68.2578 452.641 68.8984 453.359 68.8984 454.875V460H70.2422V454.547C70.2422 452.547 69.1875 451.43 67.2969 451.43C66.0078 451.43 65.1875 451.977 64.7656 452.906H64.6406V451.578H63.3594V460ZM78.2812 457.82C77.9297 458.562 77.1953 458.961 76.1094 458.961C74.6797 458.961 73.75 457.906 73.6797 456.242V456.18H79.7344V455.664C79.7344 453.047 78.3516 451.43 76.0781 451.43C73.7656 451.43 72.2812 453.148 72.2812 455.797C72.2812 458.461 73.7422 460.148 76.0781 460.148C77.9219 460.148 79.2344 459.258 79.625 457.82H78.2812ZM76.0625 452.617C77.3984 452.617 78.2891 453.602 78.3203 455.094H73.6797C73.7812 453.602 74.7188 452.617 76.0625 452.617ZM81.6484 453.883C81.6484 455.102 82.3672 455.781 83.9453 456.164L85.3906 456.516C86.2891 456.734 86.7266 457.125 86.7266 457.703C86.7266 458.477 85.9141 459.016 84.7812 459.016C83.7031 459.016 83.0312 458.562 82.8047 457.852H81.4219C81.5703 459.25 82.8594 460.148 84.7344 460.148C86.6484 460.148 88.1094 459.109 88.1094 457.602C88.1094 456.391 87.3438 455.703 85.7578 455.32L84.4609 455.008C83.4688 454.766 83 454.406 83 453.828C83 453.078 83.7812 452.57 84.7812 452.57C85.7969 452.57 86.4531 453.016 86.6328 453.688H87.9609C87.7812 452.305 86.5547 451.43 84.7891 451.43C83 451.43 81.6484 452.484 81.6484 453.883ZM89.8672 453.883C89.8672 455.102 90.5859 455.781 92.1641 456.164L93.6094 456.516C94.5078 456.734 94.9453 457.125 94.9453 457.703C94.9453 458.477 94.1328 459.016 93 459.016C91.9219 459.016 91.25 458.562 91.0234 457.852H89.6406C89.7891 459.25 91.0781 460.148 92.9531 460.148C94.8672 460.148 96.3281 459.109 96.3281 457.602C96.3281 456.391 95.5625 455.703 93.9766 455.32L92.6797 455.008C91.6875 454.766 91.2188 454.406 91.2188 453.828C91.2188 453.078 92 452.57 93 452.57C94.0156 452.57 94.6719 453.016 94.8516 453.688H96.1797C96 452.305 94.7734 451.43 93.0078 451.43C91.2188 451.43 89.8672 452.484 89.8672 453.883Z" fill="white"/>
</g>
</g>
<path id="Pass 21:1 AAA" d="M28.2422 51.1797V85H33.4922V73.4453H41.3203C47.9531 73.4453 52.6406 68.8984 52.6406 62.3828C52.6406 55.7266 48.0938 51.1797 41.4844 51.1797H28.2422ZM33.4922 55.6094H40.1016C44.7188 55.6094 47.2734 58 47.2734 62.3828C47.2734 66.625 44.625 69.0391 40.1016 69.0391H33.4922V55.6094ZM64.9453 85.4219C68.2969 85.4219 71.0859 83.9688 72.6094 81.3906H73.0078V85H77.8594V67.5859C77.8594 62.2422 74.25 59.0547 67.8516 59.0547C62.0625 59.0547 57.9375 61.8438 57.4219 66.1328H62.2969C62.8594 64.2812 64.8047 63.2266 67.6172 63.2266C71.0625 63.2266 72.8438 64.7969 72.8438 67.5859V69.8125L65.9297 70.2344C59.8594 70.6094 56.4375 73.2578 56.4375 77.8281C56.4375 82.4688 60.0234 85.4219 64.9453 85.4219ZM66.2344 81.3672C63.4922 81.3672 61.5 79.9844 61.5 77.6172C61.5 75.2969 63.0938 74.0547 66.6094 73.8203L72.8438 73.3984V75.6016C72.8438 78.8828 70.0312 81.3672 66.2344 81.3672ZM84.4453 66.6719C84.4453 70.4453 86.6953 72.6016 91.5469 73.7266L96 74.7812C98.5547 75.3906 99.75 76.4219 99.75 78.0156C99.75 80.1016 97.5234 81.5547 94.3828 81.5547C91.3359 81.5547 89.4609 80.3125 88.8281 78.3203H83.7891C84.2344 82.75 88.1953 85.4922 94.2656 85.4922C100.359 85.4922 104.836 82.2812 104.836 77.5469C104.836 73.8438 102.562 71.7578 97.7109 70.6328L93.4688 69.6484C90.7031 68.9922 89.4141 68.0078 89.4141 66.4375C89.4141 64.375 91.5469 62.9922 94.3594 62.9922C97.2188 62.9922 99.0469 64.2344 99.5156 66.1328H104.344C103.852 61.7266 100.102 59.0547 94.3594 59.0547C88.5938 59.0547 84.4453 62.2422 84.4453 66.6719ZM109.852 66.6719C109.852 70.4453 112.102 72.6016 116.953 73.7266L121.406 74.7812C123.961 75.3906 125.156 76.4219 125.156 78.0156C125.156 80.1016 122.93 81.5547 119.789 81.5547C116.742 81.5547 114.867 80.3125 114.234 78.3203H109.195C109.641 82.75 113.602 85.4922 119.672 85.4922C125.766 85.4922 130.242 82.2812 130.242 77.5469C130.242 73.8438 127.969 71.7578 123.117 70.6328L118.875 69.6484C116.109 68.9922 114.82 68.0078 114.82 66.4375C114.82 64.375 116.953 62.9922 119.766 62.9922C122.625 62.9922 124.453 64.2344 124.922 66.1328H129.75C129.258 61.7266 125.508 59.0547 119.766 59.0547C114 59.0547 109.852 62.2422 109.852 66.6719ZM149.156 60.9766H154.125C154.125 57.2266 156.633 54.6953 160.453 54.6953C164.203 54.6953 166.43 57.2031 166.43 60.4844C166.43 63.2266 165.305 64.9141 161.016 69.3906L149.438 81.4375V85H172.219V80.5234H156.609V80.125L164.062 72.625C169.992 66.6719 171.703 63.8828 171.703 59.9688C171.703 54.4141 167.133 50.3594 160.781 50.3594C153.961 50.3594 149.156 54.7656 149.156 60.9766ZM187.219 85H192.469V51.1797H187.242L178.336 57.5078V62.6641L186.82 56.5938H187.219V85ZM206.227 62.6641C208.219 62.6641 209.672 61.1641 209.672 59.2891C209.672 57.3672 208.219 55.8906 206.227 55.8906C204.258 55.8906 202.781 57.3672 202.781 59.2891C202.781 61.1641 204.258 62.6641 206.227 62.6641ZM206.227 80.2656C208.219 80.2656 209.672 78.7656 209.672 76.8672C209.672 74.9688 208.219 73.4922 206.227 73.4922C204.258 73.4922 202.781 74.9688 202.781 76.8672C202.781 78.7656 204.258 80.2656 206.227 80.2656ZM225.562 85H230.812V51.1797H225.586L216.68 57.5078V62.6641L225.164 56.5938H225.562V85ZM276.258 85H281.836L269.625 51.1797H263.977L251.766 85H257.156L260.273 75.8594H273.164L276.258 85ZM266.531 57.1562H266.93L271.828 71.6406H261.609L266.531 57.1562ZM309.633 85H315.211L303 51.1797H297.352L285.141 85H290.531L293.648 75.8594H306.539L309.633 85ZM299.906 57.1562H300.305L305.203 71.6406H294.984L299.906 57.1562ZM343.008 85H348.586L336.375 51.1797H330.727L318.516 85H323.906L327.023 75.8594H339.914L343.008 85ZM333.281 57.1562H333.68L338.578 71.6406H328.359L333.281 57.1562Z" fill="white"/>
<path id="Quickly juxtapose fonts with varied z-heights, maybe?" d="M33.2695 131.398C34.3594 131.398 35.3906 131.223 36.293 130.883L37.7812 132.91H40.1484L38.0039 129.934C39.9258 128.551 41.0039 125.914 41.0039 122.551C41.0039 117.102 38.0273 113.691 33.2695 113.691C28.4883 113.691 25.5 117.09 25.5 122.551C25.5 128.035 28.4531 131.398 33.2695 131.398ZM33.2812 129.453C29.8125 129.453 27.668 126.816 27.668 122.551C27.668 118.297 29.8242 115.637 33.2695 115.637C36.6914 115.637 38.8359 118.309 38.8359 122.551C38.8359 125.129 38.0977 127.145 36.7734 128.199L35.2383 126.16H32.8477L35.0859 129.195C34.5 129.371 33.9023 129.453 33.2812 129.453ZM54.6328 118.367H52.6172V125.844C52.6172 128.059 51.3984 129.383 49.1719 129.383C47.1562 129.383 46.3125 128.328 46.3125 126.055V118.367H44.2969V126.547C44.2969 129.535 45.7734 131.223 48.6094 131.223C50.543 131.223 51.8906 130.426 52.5234 129.02H52.7109V131H54.6328V118.367ZM59.4844 115.93C60.2578 115.93 60.8906 115.297 60.8906 114.523C60.8906 113.75 60.2578 113.117 59.4844 113.117C58.7109 113.117 58.0781 113.75 58.0781 114.523C58.0781 115.297 58.7109 115.93 59.4844 115.93ZM58.4766 131H60.4922V118.367H58.4766V131ZM74.7891 122.234C74.4375 119.984 72.5625 118.145 69.4922 118.145C65.9531 118.145 63.7031 120.699 63.7031 124.637C63.7031 128.656 65.9648 131.223 69.5039 131.223C72.5391 131.223 74.4258 129.512 74.7891 127.191H72.75C72.375 128.621 71.1914 129.406 69.4922 129.406C67.2422 129.406 65.7891 127.555 65.7891 124.637C65.7891 121.777 67.2188 119.961 69.4922 119.961C71.3086 119.961 72.4219 120.98 72.75 122.234H74.7891ZM80.0859 123.887H79.8984V113.352H77.8828V131H79.8984V126.207L81.1055 125.082L85.8398 131H88.4062L82.6055 123.781L88.043 118.367H85.5703L80.0859 123.887ZM90.9141 131H92.9297V113.352H90.9141V131ZM97.9219 135.57C100.16 135.57 101.168 134.703 102.246 131.773L107.18 118.367H105.035L101.578 128.762H101.391L97.9219 118.367H95.7422L100.418 131.012L100.184 131.762C99.6562 133.285 99.0234 133.836 97.8633 133.836C97.582 133.836 97.2656 133.824 97.0195 133.777V135.5C97.3008 135.547 97.6523 135.57 97.9219 135.57ZM117.727 115.93C118.5 115.93 119.133 115.297 119.133 114.523C119.133 113.75 118.5 113.117 117.727 113.117C116.953 113.117 116.32 113.75 116.32 114.523C116.32 115.297 116.953 115.93 117.727 115.93ZM118.711 118.367H116.695V131.656C116.695 133.051 116.227 133.613 114.797 133.613H114.492V135.336H114.844C117.492 135.336 118.711 134.223 118.711 131.621V118.367ZM132.773 118.367H130.758V125.844C130.758 128.059 129.539 129.383 127.312 129.383C125.297 129.383 124.453 128.328 124.453 126.055V118.367H122.438V126.547C122.438 129.535 123.914 131.223 126.75 131.223C128.684 131.223 130.031 130.426 130.664 129.02H130.852V131H132.773V118.367ZM141.035 126.266L144.023 131.035H146.414L142.066 124.637L146.355 118.402H144.07L141.105 123.102H140.918L137.918 118.402H135.516L139.887 124.719L135.562 131.035H137.848L140.848 126.266H141.035ZM150 115.098V118.367H147.961V120.055H150V127.719C150 130.133 151.043 131.094 153.645 131.094C154.043 131.094 154.43 131.047 154.828 130.977V129.277C154.453 129.312 154.254 129.324 153.891 129.324C152.578 129.324 152.016 128.691 152.016 127.203V120.055H154.828V118.367H152.016V115.098H150ZM161.391 131.223C163.078 131.223 164.461 130.484 165.281 129.137H165.469V131H167.391V122.352C167.391 119.727 165.668 118.145 162.586 118.145C159.891 118.145 157.898 119.48 157.629 121.508H159.668C159.949 120.512 161.004 119.938 162.516 119.938C164.402 119.938 165.375 120.793 165.375 122.352V123.5L161.73 123.723C158.789 123.898 157.125 125.199 157.125 127.461C157.125 129.77 158.941 131.223 161.391 131.223ZM161.766 129.453C160.301 129.453 159.211 128.703 159.211 127.414C159.211 126.148 160.055 125.48 161.977 125.352L165.375 125.129V126.289C165.375 128.094 163.84 129.453 161.766 129.453ZM177.27 118.145C175.547 118.145 174.035 119.023 173.227 120.477H173.039V118.367H171.117V135.219H173.133V129.102H173.32C174.012 130.438 175.465 131.223 177.27 131.223C180.48 131.223 182.578 128.633 182.578 124.684C182.578 120.711 180.492 118.145 177.27 118.145ZM176.789 129.406C174.516 129.406 173.074 127.578 173.074 124.684C173.074 121.777 174.516 119.961 176.801 119.961C179.109 119.961 180.492 121.73 180.492 124.684C180.492 127.637 179.109 129.406 176.789 129.406ZM190.934 131.223C194.531 131.223 196.758 128.738 196.758 124.684C196.758 120.617 194.531 118.145 190.934 118.145C187.336 118.145 185.109 120.617 185.109 124.684C185.109 128.738 187.336 131.223 190.934 131.223ZM190.934 129.406C188.543 129.406 187.195 127.672 187.195 124.684C187.195 121.684 188.543 119.961 190.934 119.961C193.324 119.961 194.672 121.684 194.672 124.684C194.672 127.672 193.324 129.406 190.934 129.406ZM199.629 121.824C199.629 123.652 200.707 124.672 203.074 125.246L205.242 125.773C206.59 126.102 207.246 126.688 207.246 127.555C207.246 128.715 206.027 129.523 204.328 129.523C202.711 129.523 201.703 128.844 201.363 127.777H199.289C199.512 129.875 201.445 131.223 204.258 131.223C207.129 131.223 209.32 129.664 209.32 127.402C209.32 125.586 208.172 124.555 205.793 123.98L203.848 123.512C202.359 123.148 201.656 122.609 201.656 121.742C201.656 120.617 202.828 119.855 204.328 119.855C205.852 119.855 206.836 120.523 207.105 121.531H209.098C208.828 119.457 206.988 118.145 204.34 118.145C201.656 118.145 199.629 119.727 199.629 121.824ZM220.852 127.73C220.324 128.844 219.223 129.441 217.594 129.441C215.449 129.441 214.055 127.859 213.949 125.363V125.27H223.031V124.496C223.031 120.57 220.957 118.145 217.547 118.145C214.078 118.145 211.852 120.723 211.852 124.695C211.852 128.691 214.043 131.223 217.547 131.223C220.312 131.223 222.281 129.887 222.867 127.73H220.852ZM217.523 119.926C219.527 119.926 220.863 121.402 220.91 123.641H213.949C214.102 121.402 215.508 119.926 217.523 119.926ZM233.812 131H235.828V120.055H238.723V118.367H235.828V117.02C235.828 115.637 236.438 114.934 237.891 114.934C238.254 114.934 238.594 114.945 238.84 114.992V113.352C238.418 113.27 237.973 113.234 237.48 113.234C235.078 113.234 233.812 114.441 233.812 116.961V118.367H231.715V120.055H233.812V131ZM246.316 131.223C249.914 131.223 252.141 128.738 252.141 124.684C252.141 120.617 249.914 118.145 246.316 118.145C242.719 118.145 240.492 120.617 240.492 124.684C240.492 128.738 242.719 131.223 246.316 131.223ZM246.316 129.406C243.926 129.406 242.578 127.672 242.578 124.684C242.578 121.684 243.926 119.961 246.316 119.961C248.707 119.961 250.055 121.684 250.055 124.684C250.055 127.672 248.707 129.406 246.316 129.406ZM255.305 131H257.32V123.523C257.32 121.309 258.621 119.961 260.637 119.961C262.652 119.961 263.613 121.039 263.613 123.312V131H265.629V122.82C265.629 119.82 264.047 118.145 261.211 118.145C259.277 118.145 258.047 118.965 257.414 120.359H257.227V118.367H255.305V131ZM270.164 115.098V118.367H268.125V120.055H270.164V127.719C270.164 130.133 271.207 131.094 273.809 131.094C274.207 131.094 274.594 131.047 274.992 130.977V129.277C274.617 129.312 274.418 129.324 274.055 129.324C272.742 129.324 272.18 128.691 272.18 127.203V120.055H274.992V118.367H272.18V115.098H270.164ZM277.512 121.824C277.512 123.652 278.59 124.672 280.957 125.246L283.125 125.773C284.473 126.102 285.129 126.688 285.129 127.555C285.129 128.715 283.91 129.523 282.211 129.523C280.594 129.523 279.586 128.844 279.246 127.777H277.172C277.395 129.875 279.328 131.223 282.141 131.223C285.012 131.223 287.203 129.664 287.203 127.402C287.203 125.586 286.055 124.555 283.676 123.98L281.73 123.512C280.242 123.148 279.539 122.609 279.539 121.742C279.539 120.617 280.711 119.855 282.211 119.855C283.734 119.855 284.719 120.523 284.988 121.531H286.98C286.711 119.457 284.871 118.145 282.223 118.145C279.539 118.145 277.512 119.727 277.512 121.824ZM313.031 118.367H311.004L308.52 128.469H308.332L305.508 118.367H303.574L300.75 128.469H300.562L298.078 118.367H296.039L299.578 131H301.617L304.43 121.227H304.617L307.441 131H309.492L313.031 118.367ZM316.781 115.93C317.555 115.93 318.188 115.297 318.188 114.523C318.188 113.75 317.555 113.117 316.781 113.117C316.008 113.117 315.375 113.75 315.375 114.523C315.375 115.297 316.008 115.93 316.781 115.93ZM315.773 131H317.789V118.367H315.773V131ZM322.477 115.098V118.367H320.438V120.055H322.477V127.719C322.477 130.133 323.52 131.094 326.121 131.094C326.52 131.094 326.906 131.047 327.305 130.977V129.277C326.93 129.312 326.73 129.324 326.367 129.324C325.055 129.324 324.492 128.691 324.492 127.203V120.055H327.305V118.367H324.492V115.098H322.477ZM330.469 131H332.484V123.523C332.484 121.391 333.727 119.961 335.988 119.961C337.898 119.961 338.906 121.074 338.906 123.312V131H340.922V122.82C340.922 119.855 339.234 118.145 336.562 118.145C334.629 118.145 333.305 118.965 332.672 120.359H332.484V113.352H330.469V131ZM361.688 118.367H359.531L356.074 128.773H355.887L352.43 118.367H350.273L354.949 131H357.012L361.688 118.367ZM367.43 131.223C369.117 131.223 370.5 130.484 371.32 129.137H371.508V131H373.43V122.352C373.43 119.727 371.707 118.145 368.625 118.145C365.93 118.145 363.938 119.48 363.668 121.508H365.707C365.988 120.512 367.043 119.938 368.555 119.938C370.441 119.938 371.414 120.793 371.414 122.352V123.5L367.77 123.723C364.828 123.898 363.164 125.199 363.164 127.461C363.164 129.77 364.98 131.223 367.43 131.223ZM367.805 129.453C366.34 129.453 365.25 128.703 365.25 127.414C365.25 126.148 366.094 125.48 368.016 125.352L371.414 125.129V126.289C371.414 128.094 369.879 129.453 367.805 129.453ZM377.156 131H379.172V123.172C379.172 121.391 380.566 120.102 382.488 120.102C382.887 120.102 383.613 120.172 383.777 120.219V118.203C383.52 118.168 383.098 118.145 382.77 118.145C381.094 118.145 379.641 119.012 379.266 120.242H379.078V118.367H377.156V131ZM387.352 115.93C388.125 115.93 388.758 115.297 388.758 114.523C388.758 113.75 388.125 113.117 387.352 113.117C386.578 113.117 385.945 113.75 385.945 114.523C385.945 115.297 386.578 115.93 387.352 115.93ZM386.344 131H388.359V118.367H386.344V131ZM400.57 127.73C400.043 128.844 398.941 129.441 397.312 129.441C395.168 129.441 393.773 127.859 393.668 125.363V125.27H402.75V124.496C402.75 120.57 400.676 118.145 397.266 118.145C393.797 118.145 391.57 120.723 391.57 124.695C391.57 128.691 393.762 131.223 397.266 131.223C400.031 131.223 402 129.887 402.586 127.73H400.57ZM397.242 119.926C399.246 119.926 400.582 121.402 400.629 123.641H393.668C393.82 121.402 395.227 119.926 397.242 119.926ZM410.59 131.223C412.336 131.223 413.836 130.391 414.633 128.984H414.82V131H416.742V113.352H414.727V120.359H414.551C413.836 118.977 412.348 118.145 410.59 118.145C407.379 118.145 405.281 120.723 405.281 124.684C405.281 128.656 407.355 131.223 410.59 131.223ZM411.059 119.961C413.344 119.961 414.773 121.789 414.773 124.684C414.773 127.602 413.355 129.406 411.059 129.406C408.75 129.406 407.367 127.637 407.367 124.684C407.367 121.742 408.762 119.961 411.059 119.961ZM427.137 131H436.863V129.312H429.574V129.125L436.828 119.879V118.367H427.148V120.055H434.426V120.242L427.137 129.523V131ZM446.566 125.152V123.242H438.879V125.152H446.566ZM450.398 131H452.414V123.523C452.414 121.391 453.656 119.961 455.918 119.961C457.828 119.961 458.836 121.074 458.836 123.312V131H460.852V122.82C460.852 119.855 459.164 118.145 456.492 118.145C454.559 118.145 453.234 118.965 452.602 120.359H452.414V113.352H450.398V131ZM472.898 127.73C472.371 128.844 471.27 129.441 469.641 129.441C467.496 129.441 466.102 127.859 465.996 125.363V125.27H475.078V124.496C475.078 120.57 473.004 118.145 469.594 118.145C466.125 118.145 463.898 120.723 463.898 124.695C463.898 128.691 466.09 131.223 469.594 131.223C472.359 131.223 474.328 129.887 474.914 127.73H472.898ZM469.57 119.926C471.574 119.926 472.91 121.402 472.957 123.641H465.996C466.148 121.402 467.555 119.926 469.57 119.926ZM479.297 115.93C480.07 115.93 480.703 115.297 480.703 114.523C480.703 113.75 480.07 113.117 479.297 113.117C478.523 113.117 477.891 113.75 477.891 114.523C477.891 115.297 478.523 115.93 479.297 115.93ZM478.289 131H480.305V118.367H478.289V131ZM489.352 135.852C492.797 135.852 494.977 134.047 494.977 131.223V118.367H493.055V120.371H492.867C492.141 119.012 490.582 118.145 488.812 118.145C485.566 118.145 483.516 120.711 483.516 124.496C483.516 128.281 485.543 130.812 488.812 130.812C490.547 130.812 491.977 130.027 492.773 128.633H492.961V131.117C492.961 132.98 491.613 134.094 489.352 134.094C487.535 134.094 486.41 133.426 486.188 132.395H484.055C484.359 134.48 486.305 135.852 489.352 135.852ZM489.258 129.031C486.914 129.031 485.602 127.25 485.602 124.496C485.602 121.742 486.914 119.961 489.258 119.961C491.59 119.961 493.008 121.742 493.008 124.496C493.008 127.25 491.602 129.031 489.258 129.031ZM498.891 131H500.906V123.523C500.906 121.391 502.148 119.961 504.41 119.961C506.32 119.961 507.328 121.074 507.328 123.312V131H509.344V122.82C509.344 119.855 507.656 118.145 504.984 118.145C503.051 118.145 501.727 118.965 501.094 120.359H500.906V113.352H498.891V131ZM513.867 115.098V118.367H511.828V120.055H513.867V127.719C513.867 130.133 514.91 131.094 517.512 131.094C517.91 131.094 518.297 131.047 518.695 130.977V129.277C518.32 129.312 518.121 129.324 517.758 129.324C516.445 129.324 515.883 128.691 515.883 127.203V120.055H518.695V118.367H515.883V115.098H513.867ZM521.215 121.824C521.215 123.652 522.293 124.672 524.66 125.246L526.828 125.773C528.176 126.102 528.832 126.688 528.832 127.555C528.832 128.715 527.613 129.523 525.914 129.523C524.297 129.523 523.289 128.844 522.949 127.777H520.875C521.098 129.875 523.031 131.223 525.844 131.223C528.715 131.223 530.906 129.664 530.906 127.402C530.906 125.586 529.758 124.555 527.379 123.98L525.434 123.512C523.945 123.148 523.242 122.609 523.242 121.742C523.242 120.617 524.414 119.855 525.914 119.855C527.438 119.855 528.422 120.523 528.691 121.531H530.684C530.414 119.457 528.574 118.145 525.926 118.145C523.242 118.145 521.215 119.727 521.215 121.824ZM535.348 135.301L537.188 128.633H534.949L533.836 135.301H535.348ZM547.969 131H549.984V123.172C549.984 121.391 551.262 119.961 552.914 119.961C554.508 119.961 555.551 120.922 555.551 122.422V131H557.566V122.879C557.566 121.273 558.738 119.961 560.496 119.961C562.277 119.961 563.156 120.875 563.156 122.738V131H565.172V122.27C565.172 119.621 563.73 118.145 561.152 118.145C559.406 118.145 557.965 119.023 557.285 120.359H557.098C556.512 119.047 555.316 118.145 553.605 118.145C551.918 118.145 550.652 118.953 550.078 120.359H549.891V118.367H547.969V131ZM572.367 131.223C574.055 131.223 575.438 130.484 576.258 129.137H576.445V131H578.367V122.352C578.367 119.727 576.645 118.145 573.562 118.145C570.867 118.145 568.875 119.48 568.605 121.508H570.645C570.926 120.512 571.98 119.938 573.492 119.938C575.379 119.938 576.352 120.793 576.352 122.352V123.5L572.707 123.723C569.766 123.898 568.102 125.199 568.102 127.461C568.102 129.77 569.918 131.223 572.367 131.223ZM572.742 129.453C571.277 129.453 570.188 128.703 570.188 127.414C570.188 126.148 571.031 125.48 572.953 125.352L576.352 125.129V126.289C576.352 128.094 574.816 129.453 572.742 129.453ZM582.703 135.57C584.941 135.57 585.949 134.703 587.027 131.773L591.961 118.367H589.816L586.359 128.762H586.172L582.703 118.367H580.523L585.199 131.012L584.965 131.762C584.438 133.285 583.805 133.836 582.645 133.836C582.363 133.836 582.047 133.824 581.801 133.777V135.5C582.082 135.547 582.434 135.57 582.703 135.57ZM600.938 131.223C604.137 131.223 606.234 128.633 606.234 124.684C606.234 120.711 604.148 118.145 600.938 118.145C599.203 118.145 597.668 119 596.977 120.359H596.789V113.352H594.773V131H596.695V128.984H596.883C597.68 130.391 599.18 131.223 600.938 131.223ZM600.469 119.961C602.777 119.961 604.148 121.73 604.148 124.684C604.148 127.637 602.777 129.406 600.469 129.406C598.172 129.406 596.742 127.602 596.742 124.684C596.742 121.766 598.172 119.961 600.469 119.961ZM617.766 127.73C617.238 128.844 616.137 129.441 614.508 129.441C612.363 129.441 610.969 127.859 610.863 125.363V125.27H619.945V124.496C619.945 120.57 617.871 118.145 614.461 118.145C610.992 118.145 608.766 120.723 608.766 124.695C608.766 128.691 610.957 131.223 614.461 131.223C617.227 131.223 619.195 129.887 619.781 127.73H617.766ZM614.438 119.926C616.441 119.926 617.777 121.402 617.824 123.641H610.863C611.016 121.402 612.422 119.926 614.438 119.926ZM622.148 118.508H624.152C624.281 116.832 625.406 115.789 627.176 115.789C628.922 115.789 630.047 116.855 630.047 118.309C630.047 119.562 629.52 120.301 628.16 121.133C626.555 122.094 625.805 123.148 625.816 124.695V125.773H627.867V125.012C627.867 123.781 628.289 123.125 629.777 122.246C631.277 121.344 632.227 120.043 632.227 118.203C632.227 115.789 630.211 113.961 627.258 113.961C623.965 113.961 622.277 115.977 622.148 118.508ZM627 131.211C627.949 131.211 628.617 130.531 628.617 129.582C628.617 128.621 627.949 127.941 627 127.941C626.051 127.941 625.371 128.621 625.371 129.582C625.371 130.531 626.051 131.211 627 131.211Z" fill="white"/>
<g id="Text">
<rect id="Hex-Background_2" x="672" y="212" width="104" height="40" fill="#1A1A1A"/>
<path id="Hex_2" d="M682.477 241H684.492L685.43 236.371H688.418L688.793 234.391H685.816L686.613 230.512H689.508L689.883 228.543H687.023L687.926 224.09H685.922L685.008 228.543H681.469L682.359 224.09H680.367L679.441 228.543H676.617L676.219 230.512H679.043L678.27 234.391H675.539L675.152 236.371H677.859L676.934 241H678.926L679.863 236.371H683.414L682.477 241ZM680.18 234.484L681 230.43H684.691L683.859 234.484H680.18ZM694.934 241V233.922H702.199V231.707H694.934V226.352H702.867V224.09H692.309V241H694.934ZM708.902 241V233.922H716.168V231.707H708.902V226.352H716.836V224.09H706.277V241H708.902ZM722.871 241V233.922H730.137V231.707H722.871V226.352H730.805V224.09H720.246V241H722.871ZM736.84 241V233.922H744.105V231.707H736.84V226.352H744.773V224.09H734.215V241H736.84ZM750.809 241V233.922H758.074V231.707H750.809V226.352H758.742V224.09H748.184V241H750.809ZM764.777 241V233.922H772.043V231.707H764.777V226.352H772.711V224.09H762.152V241H764.777Z" fill="white"/>
<path id="Text_2" d="M417.035 241V226.352H422.344V224.09H409.09V226.352H414.41V241H417.035ZM431.344 237.59C430.875 238.621 429.832 239.184 428.309 239.184C426.293 239.184 424.992 237.73 424.91 235.422V235.305H433.922V234.438C433.922 230.453 431.777 228.027 428.227 228.027C424.629 228.027 422.344 230.617 422.344 234.66C422.344 238.727 424.582 241.246 428.238 241.246C431.156 241.246 433.219 239.84 433.77 237.59H431.344ZM428.215 230.078C430.078 230.078 431.297 231.426 431.355 233.488H424.91C425.051 231.438 426.352 230.078 428.215 230.078ZM441.211 236.441L444 241.023H446.895L442.641 234.59L446.848 228.297H444.035L441.316 232.844H441.117L438.375 228.297H435.434L439.699 234.684L435.469 241.023H438.234L441.023 236.441H441.211ZM450.422 225.062V228.309H448.395V230.324H450.422V237.648C450.422 240.098 451.535 241.082 454.336 241.082C454.828 241.082 455.297 241.023 455.707 240.953V238.949C455.355 238.984 455.133 239.008 454.746 239.008C453.492 239.008 452.941 238.41 452.941 237.039V230.324H455.707V228.309H452.941V225.062H450.422Z" fill="white"/>
<g id="Slider[0]_2">
<rect id="Bar_4" x="408" y="330" width="368" height="8" rx="2" fill="white"/>
<rect id="Slider_4" x="410" y="326" width="16" height="16" rx="8" fill="#0075FF"/>
<path id="0&#194;&#176;_2" d="M763.781 308.266C766.312 308.266 767.766 306.125 767.766 302.383C767.766 298.648 766.289 296.461 763.781 296.461C761.258 296.461 759.781 298.641 759.781 302.359C759.781 306.109 761.242 308.266 763.781 308.266ZM763.781 307.039C762.117 307.039 761.195 305.375 761.195 302.359C761.195 299.383 762.133 297.695 763.781 297.695C765.43 297.695 766.352 299.367 766.352 302.359C766.352 305.383 765.445 307.039 763.781 307.039ZM772.328 302.203C773.82 302.203 774.906 301.055 774.906 299.625C774.906 298.195 773.82 297.047 772.328 297.047C770.828 297.047 769.75 298.195 769.75 299.625C769.75 301.055 770.828 302.203 772.328 302.203ZM772.328 301.109C771.461 301.109 770.922 300.438 770.922 299.625C770.922 298.797 771.469 298.141 772.328 298.141C773.172 298.141 773.734 298.797 773.734 299.625C773.734 300.438 773.18 301.109 772.328 301.109Z" fill="white"/>
<path id="Hue_2" d="M418.438 308V296.727H417.031V301.602H410.844V296.727H409.438V308H410.844V302.867H417.031V308H418.438ZM427.953 299.578H426.609V304.562C426.609 306.039 425.797 306.922 424.312 306.922C422.969 306.922 422.406 306.219 422.406 304.703V299.578H421.062V305.031C421.062 307.023 422.047 308.148 423.938 308.148C425.227 308.148 426.125 307.617 426.547 306.68H426.672V308H427.953V299.578ZM436.062 305.82C435.711 306.562 434.977 306.961 433.891 306.961C432.461 306.961 431.531 305.906 431.461 304.242V304.18H437.516V303.664C437.516 301.047 436.133 299.43 433.859 299.43C431.547 299.43 430.062 301.148 430.062 303.797C430.062 306.461 431.523 308.148 433.859 308.148C435.703 308.148 437.016 307.258 437.406 305.82H436.062ZM433.844 300.617C435.18 300.617 436.07 301.602 436.102 303.094H431.461C431.562 301.602 432.5 300.617 433.844 300.617Z" fill="white"/>
</g>
<g id="Slider[1]_2">
<rect id="Bar_5" x="408" y="406" width="368" height="8" rx="2" fill="white"/>
<rect id="Slider_5" x="584" y="402" width="16" height="16" rx="8" fill="#0075FF"/>
<path id="50_2" d="M761.023 384.266C763.328 384.266 764.898 382.672 764.898 380.352C764.898 378.117 763.336 376.633 761.445 376.633C760.32 376.633 759.484 376.977 758.938 377.656H758.812L759.164 373.984H764.32V372.727H758.062L757.414 379.172H758.734C759.18 378.336 760.023 377.844 761.094 377.844C762.516 377.844 763.492 378.867 763.492 380.391C763.492 381.969 762.516 383.031 761.039 383.031C759.711 383.031 758.742 382.227 758.617 381.023H757.234C757.359 382.953 758.891 384.266 761.023 384.266ZM770.969 384.266C773.5 384.266 774.953 382.125 774.953 378.383C774.953 374.648 773.477 372.461 770.969 372.461C768.445 372.461 766.969 374.641 766.969 378.359C766.969 382.109 768.43 384.266 770.969 384.266ZM770.969 383.039C769.305 383.039 768.383 381.375 768.383 378.359C768.383 375.383 769.32 373.695 770.969 373.695C772.617 373.695 773.539 375.367 773.539 378.359C773.539 381.383 772.633 383.039 770.969 383.039Z" fill="white"/>
<path id="Saturation_2" d="M408.898 381.055C409.047 383 410.695 384.266 413.086 384.266C415.664 384.266 417.297 382.945 417.297 380.875C417.297 379.219 416.359 378.312 414.023 377.727L412.844 377.414C411.289 377.016 410.672 376.508 410.672 375.625C410.672 374.484 411.664 373.734 413.164 373.734C414.57 373.734 415.523 374.422 415.719 375.578H417.133C417.016 373.758 415.391 372.461 413.211 372.461C410.828 372.461 409.227 373.758 409.227 375.672C409.227 377.273 410.109 378.195 412.148 378.711L413.594 379.086C415.148 379.477 415.852 380.086 415.852 381.047C415.852 382.164 414.734 382.984 413.219 382.984C411.617 382.984 410.492 382.234 410.32 381.055H408.898ZM421.812 384.148C422.938 384.148 423.859 383.656 424.406 382.758H424.531V384H425.812V378.234C425.812 376.484 424.664 375.43 422.609 375.43C420.812 375.43 419.484 376.32 419.305 377.672H420.664C420.852 377.008 421.555 376.625 422.562 376.625C423.82 376.625 424.469 377.195 424.469 378.234V379L422.039 379.148C420.078 379.266 418.969 380.133 418.969 381.641C418.969 383.18 420.18 384.148 421.812 384.148ZM422.062 382.969C421.086 382.969 420.359 382.469 420.359 381.609C420.359 380.766 420.922 380.32 422.203 380.234L424.469 380.086V380.859C424.469 382.062 423.445 382.969 422.062 382.969ZM428.859 373.398V375.578H427.5V376.703H428.859V381.812C428.859 383.422 429.555 384.062 431.289 384.062C431.555 384.062 431.812 384.031 432.078 383.984V382.852C431.828 382.875 431.695 382.883 431.453 382.883C430.578 382.883 430.203 382.461 430.203 381.469V376.703H432.078V375.578H430.203V373.398H428.859ZM440.922 375.578H439.578V380.562C439.578 382.039 438.766 382.922 437.281 382.922C435.938 382.922 435.375 382.219 435.375 380.703V375.578H434.031V381.031C434.031 383.023 435.016 384.148 436.906 384.148C438.195 384.148 439.094 383.617 439.516 382.68H439.641V384H440.922V375.578ZM443.453 384H444.797V378.781C444.797 377.594 445.727 376.734 447.008 376.734C447.273 376.734 447.758 376.781 447.867 376.812V375.469C447.695 375.445 447.414 375.43 447.195 375.43C446.078 375.43 445.109 376.008 444.859 376.828H444.734V375.578H443.453V384ZM451.891 384.148C453.016 384.148 453.938 383.656 454.484 382.758H454.609V384H455.891V378.234C455.891 376.484 454.742 375.43 452.688 375.43C450.891 375.43 449.562 376.32 449.383 377.672H450.742C450.93 377.008 451.633 376.625 452.641 376.625C453.898 376.625 454.547 377.195 454.547 378.234V379L452.117 379.148C450.156 379.266 449.047 380.133 449.047 381.641C449.047 383.18 450.258 384.148 451.891 384.148ZM452.141 382.969C451.164 382.969 450.438 382.469 450.438 381.609C450.438 380.766 451 380.32 452.281 380.234L454.547 380.086V380.859C454.547 382.062 453.523 382.969 452.141 382.969ZM458.938 373.398V375.578H457.578V376.703H458.938V381.812C458.938 383.422 459.633 384.062 461.367 384.062C461.633 384.062 461.891 384.031 462.156 383.984V382.852C461.906 382.875 461.773 382.883 461.531 382.883C460.656 382.883 460.281 382.461 460.281 381.469V376.703H462.156V375.578H460.281V373.398H458.938ZM464.891 373.953C465.406 373.953 465.828 373.531 465.828 373.016C465.828 372.5 465.406 372.078 464.891 372.078C464.375 372.078 463.953 372.5 463.953 373.016C463.953 373.531 464.375 373.953 464.891 373.953ZM464.219 384H465.562V375.578H464.219V384ZM471.586 384.148C473.984 384.148 475.469 382.492 475.469 379.789C475.469 377.078 473.984 375.43 471.586 375.43C469.188 375.43 467.703 377.078 467.703 379.789C467.703 382.492 469.188 384.148 471.586 384.148ZM471.586 382.938C469.992 382.938 469.094 381.781 469.094 379.789C469.094 377.789 469.992 376.641 471.586 376.641C473.18 376.641 474.078 377.789 474.078 379.789C474.078 381.781 473.18 382.938 471.586 382.938ZM477.578 384H478.922V379.016C478.922 377.539 479.789 376.641 481.133 376.641C482.477 376.641 483.117 377.359 483.117 378.875V384H484.461V378.547C484.461 376.547 483.406 375.43 481.516 375.43C480.227 375.43 479.406 375.977 478.984 376.906H478.859V375.578H477.578V384Z" fill="white"/>
</g>
<g id="Slider[2]_2">
<rect id="Bar_6" x="408" y="482" width="368" height="8" rx="2" fill="white"/>
<rect id="Slider_6" x="758" y="478" width="16" height="16" rx="8" fill="#0075FF"/>
<path id="100" d="M752.328 460H753.734V448.727H752.336L749.336 450.883V452.367L752.203 450.289H752.328V460ZM760.891 460.266C763.422 460.266 764.875 458.125 764.875 454.383C764.875 450.648 763.398 448.461 760.891 448.461C758.367 448.461 756.891 450.641 756.891 454.359C756.891 458.109 758.352 460.266 760.891 460.266ZM760.891 459.039C759.227 459.039 758.305 457.375 758.305 454.359C758.305 451.383 759.242 449.695 760.891 449.695C762.539 449.695 763.461 451.367 763.461 454.359C763.461 457.383 762.555 459.039 760.891 459.039ZM770.969 460.266C773.5 460.266 774.953 458.125 774.953 454.383C774.953 450.648 773.477 448.461 770.969 448.461C768.445 448.461 766.969 450.641 766.969 454.359C766.969 458.109 768.43 460.266 770.969 460.266ZM770.969 459.039C769.305 459.039 768.383 457.375 768.383 454.359C768.383 451.383 769.32 449.695 770.969 449.695C772.617 449.695 773.539 451.367 773.539 454.359C773.539 457.383 772.633 459.039 770.969 459.039Z" fill="white"/>
<path id="Lightness_2" d="M416.281 458.734H410.844V448.727H409.438V460H416.281V458.734ZM419.062 449.953C419.578 449.953 420 449.531 420 449.016C420 448.5 419.578 448.078 419.062 448.078C418.547 448.078 418.125 448.5 418.125 449.016C418.125 449.531 418.547 449.953 419.062 449.953ZM418.391 460H419.734V451.578H418.391V460ZM425.766 463.234C428.062 463.234 429.516 462.031 429.516 460.148V451.578H428.234V452.914H428.109C427.625 452.008 426.586 451.43 425.406 451.43C423.242 451.43 421.875 453.141 421.875 455.664C421.875 458.188 423.227 459.875 425.406 459.875C426.562 459.875 427.516 459.352 428.047 458.422H428.172V460.078C428.172 461.32 427.273 462.062 425.766 462.062C424.555 462.062 423.805 461.617 423.656 460.93H422.234C422.438 462.32 423.734 463.234 425.766 463.234ZM425.703 458.688C424.141 458.688 423.266 457.5 423.266 455.664C423.266 453.828 424.141 452.641 425.703 452.641C427.258 452.641 428.203 453.828 428.203 455.664C428.203 457.5 427.266 458.688 425.703 458.688ZM432.125 460H433.469V455.016C433.469 453.594 434.297 452.641 435.805 452.641C437.078 452.641 437.75 453.383 437.75 454.875V460H439.094V454.547C439.094 452.57 437.969 451.43 436.188 451.43C434.898 451.43 434.016 451.977 433.594 452.906H433.469V448.234H432.125V460ZM442.109 449.398V451.578H440.75V452.703H442.109V457.812C442.109 459.422 442.805 460.062 444.539 460.062C444.805 460.062 445.062 460.031 445.328 459.984V458.852C445.078 458.875 444.945 458.883 444.703 458.883C443.828 458.883 443.453 458.461 443.453 457.469V452.703H445.328V451.578H443.453V449.398H442.109ZM447.359 460H448.703V455.016C448.703 453.539 449.57 452.641 450.914 452.641C452.258 452.641 452.898 453.359 452.898 454.875V460H454.242V454.547C454.242 452.547 453.188 451.43 451.297 451.43C450.008 451.43 449.188 451.977 448.766 452.906H448.641V451.578H447.359V460ZM462.281 457.82C461.93 458.562 461.195 458.961 460.109 458.961C458.68 458.961 457.75 457.906 457.68 456.242V456.18H463.734V455.664C463.734 453.047 462.352 451.43 460.078 451.43C457.766 451.43 456.281 453.148 456.281 455.797C456.281 458.461 457.742 460.148 460.078 460.148C461.922 460.148 463.234 459.258 463.625 457.82H462.281ZM460.062 452.617C461.398 452.617 462.289 453.602 462.32 455.094H457.68C457.781 453.602 458.719 452.617 460.062 452.617ZM465.648 453.883C465.648 455.102 466.367 455.781 467.945 456.164L469.391 456.516C470.289 456.734 470.727 457.125 470.727 457.703C470.727 458.477 469.914 459.016 468.781 459.016C467.703 459.016 467.031 458.562 466.805 457.852H465.422C465.57 459.25 466.859 460.148 468.734 460.148C470.648 460.148 472.109 459.109 472.109 457.602C472.109 456.391 471.344 455.703 469.758 455.32L468.461 455.008C467.469 454.766 467 454.406 467 453.828C467 453.078 467.781 452.57 468.781 452.57C469.797 452.57 470.453 453.016 470.633 453.688H471.961C471.781 452.305 470.555 451.43 468.789 451.43C467 451.43 465.648 452.484 465.648 453.883ZM473.867 453.883C473.867 455.102 474.586 455.781 476.164 456.164L477.609 456.516C478.508 456.734 478.945 457.125 478.945 457.703C478.945 458.477 478.133 459.016 477 459.016C475.922 459.016 475.25 458.562 475.023 457.852H473.641C473.789 459.25 475.078 460.148 476.953 460.148C478.867 460.148 480.328 459.109 480.328 457.602C480.328 456.391 479.562 455.703 477.977 455.32L476.68 455.008C475.688 454.766 475.219 454.406 475.219 453.828C475.219 453.078 476 452.57 477 452.57C478.016 452.57 478.672 453.016 478.852 453.688H480.18C480 452.305 478.773 451.43 477.008 451.43C475.219 451.43 473.867 452.484 473.867 453.883Z" fill="white"/>
</g>
</g>
</g>
<defs>
<clipPath id="clip0">
<rect width="800" height="540" fill="white"/>
</clipPath>
</defs>
</svg>
