<svg width="256" height="256" viewBox="0 0 256 256" fill="none" xmlns="http://www.w3.org/2000/svg">
<g clip-path="url(#clip0)">
<rect width="256" height="256" rx="40" fill="white"/>
<g filter="url(#filter0_d)">
<path fill-rule="evenodd" clip-rule="evenodd" d="M-50.7624 278.461L-52.0927 279.229C-52.5402 279.546 -52.6566 280.161 -52.3317 280.618C-52.0191 281.069 -51.3938 281.179 -50.9402 280.862L-49.8184 280.271C-21.3321 265.491 11.3962 247.937 44.3207 229.933C44.3207 229.933 129.197 181.192 134.702 176.151C192.919 137.65 232.035 100.94 213.522 80.6377C171.967 35.0659 -95.4075 76.0604 -209.108 100.757L-211.756 101.33C-212.301 101.421 -212.669 101.946 -212.577 102.482C-212.479 103.03 -211.964 103.39 -211.412 103.299L-208.783 102.787C-114.582 86.1109 81.3216 62.9868 123.478 104.548C136.339 117.226 133.268 133.566 118.359 152.832C118.359 152.832 111.396 167.027 40.4158 219.962C14.5777 239.228 -17.1698 258.006 -50.7624 278.461Z" fill="#D03027"/>
</g>
</g>
<defs>
<filter id="filter0_d" x="-231.019" y="46.2836" width="467.603" height="257.795" filterUnits="userSpaceOnUse" color-interpolation-filters="sRGB">
<feFlood flood-opacity="0" result="BackgroundImageFix"/>
<feColorMatrix in="SourceAlpha" type="matrix" values="0 0 0 0 0 0 0 0 0 0 0 0 0 0 0 0 0 0 127 0"/>
<feOffset dy="4.60693"/>
<feGaussianBlur stdDeviation="9.21386"/>
<feColorMatrix type="matrix" values="0 0 0 0 0 0 0 0 0 0 0 0 0 0 0 0 0 0 0.15 0"/>
<feBlend mode="normal" in2="BackgroundImageFix" result="effect1_dropShadow"/>
<feBlend mode="normal" in="SourceGraphic" in2="effect1_dropShadow" result="shape"/>
</filter>
<clipPath id="clip0">
<rect width="256" height="256" rx="40" fill="white"/>
</clipPath>
</defs>
</svg>
